<svg width="918" height="282" viewBox="0 0 918 282" fill="none" xmlns="http://www.w3.org/2000/svg">
<path d="M917.98 0.879883H0.0100098V281.13H917.98V0.879883Z" fill="black"/>
<path d="M146.18 132.049H100.8V113.059H184.95V74.0293H51.1201V232.299H146.18C160.04 232.299 172.58 226.679 181.63 217.609C190.71 208.549 196.32 196.019 196.32 182.179C196.32 154.499 173.87 132.059 146.18 132.059V132.049ZM140.07 190.719C137.55 193.219 134.07 194.789 130.22 194.789H100.87V166.969H130.22C137.91 166.969 144.14 173.199 144.14 180.889C144.14 184.719 142.57 188.199 140.07 190.719Z" fill="white"/>
<path d="M454.51 103.329L412.47 120.419L405.32 102.829L483.28 71.1395L468.58 34.9795L344.6 85.3695L404.2 231.989L492.26 196.199C505.1 190.979 514.6 181.059 519.57 169.239C524.57 157.429 525.05 143.699 519.84 130.879C509.42 105.239 480.17 92.8995 454.51 103.329ZM470.95 159.979C469.55 163.249 466.92 166.01 463.36 167.46L436.17 178.509L425.69 152.739L452.88 141.689C460.01 138.789 468.12 142.22 471.02 149.34C472.46 152.88 472.32 156.699 470.95 159.979Z" fill="white"/>
<path d="M866.88 231.929H811.81L762.44 158.749V231.929H712.76V74.0693H762.44V139.869L806.85 74.0693H861.92L805.26 149.799H805.42L866.88 231.929Z" fill="white"/>
<path d="M637.9 74.0293H586.88L529.27 232.299H580.27L586.95 210.729H637.85L644.53 232.299H695.53L637.92 74.0293H637.9ZM597.56 176.479L612.4 128.629L627.22 176.479H597.57H597.56Z" fill="white"/>
<path d="M304.96 74.0293H253.94L196.33 232.299H247.33L254.01 210.729H304.91L311.59 232.299H362.59L304.98 74.0293H304.96ZM264.62 176.479L279.46 128.629L294.28 176.479H264.63H264.62Z" fill="white"/>
</svg>
