<svg width="370" height="173" viewBox="0 0 370 173" fill="none" xmlns="http://www.w3.org/2000/svg">
<path d="M0 0C59.4 0 118.8 0 180 0C180 38.28 180 76.56 180 116C120.6 116 61.2 116 0 116C0 77.72 0 39.44 0 0Z" fill="#C24A3F"/>
<path d="M190 1C249.4 1 308.8 1 370 1C370 38.62 370 76.24 370 115C310.6 115 251.2 115 190 115C190 77.38 190 39.76 190 1Z" fill="#C2473C"/>
<path d="M190 130C249.4 130 308.8 130 370 130C370 143.53 370 157.06 370 171C369 172 369 172 366.081 172.123C364.103 172.122 364.103 172.122 362.084 172.12C360.986 172.122 360.986 172.122 359.867 172.123C357.396 172.125 354.925 172.119 352.455 172.114C350.691 172.113 348.927 172.113 347.164 172.114C342.36 172.114 337.557 172.108 332.753 172.101C327.739 172.095 322.725 172.095 317.711 172.093C308.209 172.09 298.707 172.082 289.204 172.072C278.39 172.061 267.575 172.055 256.76 172.05C234.507 172.04 212.253 172.022 190 172C190 158.14 190 144.28 190 130Z" fill="#A9AAAA"/>
<path d="M33 28C63.3226 28 63.3226 28 69.375 32.9375C69.9112 33.6181 70.4475 34.2987 71 35C71.5569 35.6806 72.1137 36.3612 72.6875 37.0625C75.7716 41.6152 75.6579 46.7142 75 52C72.9084 58.2063 69.6036 61.9092 63.9648 65.125C59.3037 67.2008 54.7763 67.1198 49.75 67.0625C45.9137 67.0316 45.9137 67.0316 42 67C42 74.59 42 82.18 42 90C39.03 90 36.06 90 33 90C33 69.54 33 49.08 33 28Z" fill="#FCF6F5"/>
<path d="M142 47.9996C147.554 51.6313 150.292 55.684 152 61.9996C153.207 70.3724 151.872 77.0488 147 83.9996C142.581 88.9158 137.824 91.051 131.312 91.4371C125.417 91.2875 120.736 89.5014 116 85.9996C110.264 79.3559 109.631 72.8087 109.726 64.2613C110.263 57.8604 112.749 53.8934 117.437 49.6246C125.205 43.5682 133.405 43.595 142 47.9996Z" fill="#FCF6F5"/>
<path d="M289.34 46.6831C294.447 49.3765 297.216 53.6481 299 58.9995C299 61.9695 299 64.9395 299 67.9995C288.77 67.9995 278.54 67.9995 268 67.9995C269.493 76.285 269.493 76.285 274 81.9995C277.918 83.9583 282.72 83.3623 287 82.9995C290.402 81.6347 290.402 81.6347 293 79.9995C293.99 79.9995 294.98 79.9995 296 79.9995C296.66 81.6495 297.32 83.2995 298 84.9995C296.754 85.8188 295.503 86.6297 294.25 87.437C293.554 87.8895 292.858 88.342 292.141 88.8081C287.13 91.5969 281.602 91.5976 276 90.9995C269.515 89.0325 265.336 85.2013 262.031 79.2574C259.163 72.857 258.762 65.4062 260.656 58.6636C265.884 46.9013 277.215 43.1409 289.34 46.6831Z" fill="#FCF6F5"/>
<path d="M217 28C233.17 28 249.34 28 266 28C266 30.31 266 32.62 266 35C259.4 35 252.8 35 246 35C246 53.15 246 71.3 246 90C243.03 90 240.06 90 237 90C237 71.85 237 53.7 237 35C230.4 35 223.8 35 217 35C217 32.69 217 30.38 217 28Z" fill="#FCF7F7"/>
<path d="M136 52.0004C139.735 53.868 141.186 55.9679 142.813 59.6879C144.804 65.857 145.004 71.432 142.25 77.3754C140.665 80.432 138.975 82.2354 136 84.0004C132.272 84.6671 128.737 84.5992 125 84.0004C121.556 81.4701 119.575 78.9334 118 75.0004C117.176 67.1364 116.958 60.3396 122 54.0004C126.471 51.0199 130.76 51.4011 136 52.0004Z" fill="#C34A3F"/>
<path d="M335.437 46.8121C338.351 48.3484 339.075 49.1126 341 51.9996C340.34 52.9896 339.68 53.9796 339 54.9996C334.25 54.1246 334.25 54.1246 332 52.9996C325.325 52.0816 325.325 52.0816 319.199 54.1988C314.948 59.1773 314.713 64.202 314.777 70.4605C315.159 74.8108 316.604 78.1658 319.27 81.6675C322.799 84.3847 327.773 83.4961 332 82.9996C334.833 81.4849 334.833 81.4849 337 79.9996C339.312 80.8121 339.312 80.8121 341 81.9996C340.781 83.8277 340.781 83.8277 340 85.9996C335.045 89.7352 329.375 91.8169 323.168 91.4214C318.139 90.4429 314.339 88.3019 310.687 84.7496C305.96 77.0463 304.882 69.9612 306 60.9996C307.68 55.2578 310.061 51.2162 315.125 47.9371C321.759 44.3101 328.502 43.4963 335.437 46.8121Z" fill="#FBF4F3"/>
<path d="M42 34.9995C44.6813 34.8964 47.3625 34.7933 50.125 34.687C51.3743 34.6187 51.3743 34.6187 52.6489 34.5491C56.7304 34.4736 59.2662 34.7687 62.4922 37.394C66.2136 41.2603 66.2939 43.5709 66.2109 48.7495C65.9145 51.912 65.0644 53.5911 63 55.9995C58.3909 59.7239 54.8959 60.538 49.125 60.2495C46.7738 60.167 44.4225 60.0845 42 59.9995C42 51.7495 42 43.4995 42 34.9995Z" fill="#C2483D"/>
<path d="M107 45.9997C107 48.3097 107 50.6197 107 52.9997C106.325 53.0255 105.649 53.0512 104.953 53.0778C99.3674 53.3466 99.3674 53.3466 94.5 55.8122C91.5088 60.1744 90.7318 63.1657 90.5859 68.5153C90.5279 70.3909 90.5279 70.3909 90.4688 72.3044C90.4378 73.6063 90.4069 74.9083 90.375 76.2497C90.317 78.2258 90.317 78.2258 90.2578 80.2419C90.1635 83.4943 90.0779 86.7468 90 89.9997C87.69 89.9997 85.38 89.9997 83 89.9997C83 75.4797 83 60.9597 83 45.9997C84.98 45.9997 86.96 45.9997 89 45.9997C89.66 47.9797 90.32 49.9597 91 51.9997C91.8662 50.8241 91.8662 50.8241 92.75 49.6247C96.558 45.182 101.358 43.1787 107 45.9997Z" fill="#FDFAFA"/>
<path d="M284 51.0001C287.843 53.0301 290.669 54.7424 292 59.0001C292 60.3201 292 61.6401 292 63.0001C284.08 63.0001 276.16 63.0001 268 63.0001C270.263 55.079 270.263 55.079 275 52.0001C278.11 50.4453 280.563 50.7136 284 51.0001Z" fill="#C34B41"/>
<path d="M283 146C284.32 146.33 285.64 146.66 287 147C288.485 146.66 288.485 146.66 290 146.312C293 146 293 146 295.375 147.5C297.567 150.873 297.424 153.044 297 157C295.983 159.761 295.638 160.681 293 162C291 162.04 289 162.043 287 162C286.67 163.65 286.34 165.3 286 167C285.01 167 284.02 167 283 167C283 160.07 283 153.14 283 146Z" fill="#F5F6F6"/>
<path d="M204 139C204.99 139 205.98 139 207 139C207 146.59 207 154.18 207 162C206.01 161.67 205.02 161.34 204 161C203.34 161.33 202.68 161.66 202 162C199 162.25 199 162.25 196 162C193.322 157.983 193.31 154.719 194 150C195.688 147.438 195.688 147.438 198 146C200.75 145.75 200.75 145.75 203 146C203.33 143.69 203.66 141.38 204 139Z" fill="#F9F9F9"/>
<path d="M273.625 145.938C277 147 277 147 278.938 148.688C280.346 151.753 280.478 153.656 280 157C278.438 159.875 278.438 159.875 276 162C270.125 162.825 270.125 162.825 267.125 160.625C264.828 157.307 264.526 155.033 265 151C267.698 147.157 268.866 146.02 273.625 145.938Z" fill="#F7F7F7"/>
<path d="M300 146C301.32 146.33 302.64 146.66 304 147C305.268 146.722 305.268 146.722 306.562 146.438C309 146 309 146 312 148C312.66 147.34 313.32 146.68 314 146C319.568 146.568 319.568 146.568 321 148C321.073 150.353 321.084 152.708 321.062 155.062C321.053 156.353 321.044 157.643 321.035 158.973C321.024 159.972 321.012 160.971 321 162C320.34 162 319.68 162 319 162C318.67 158.04 318.34 154.08 318 150C316.35 150 314.7 150 313 150C312.67 153.96 312.34 157.92 312 162C311.01 162 310.02 162 309 162C309 157.71 309 153.42 309 149C307.35 149.33 305.7 149.66 304 150C303.67 153.96 303.34 157.92 303 162C302.01 162 301.02 162 300 162C300 156.72 300 151.44 300 146Z" fill="#F3F4F4"/>
<path d="M249.625 146.125C253 147 253 147 255 149C255 150.65 255 152.3 255 154C251.7 154 248.4 154 245 154C245.66 155.65 246.32 157.3 247 159C249.64 159 252.28 159 255 159C255 159.66 255 160.32 255 161C251.908 162.546 249.406 162.293 246 162C243.563 160.5 243.563 160.5 242 158C241.191 153.927 241.389 151.002 243.563 147.437C246 146 246 146 249.625 146.125Z" fill="#F5F6F6"/>
<path d="M352 146C354.358 148.347 354.968 149.675 355.293 153.016C355.258 154.083 355.223 155.151 355.188 156.25C355.16 157.328 355.133 158.406 355.105 159.516C355.071 160.336 355.036 161.156 355 162C354.01 162 353.02 162 352 162C351.67 158.04 351.34 154.08 351 150C348.69 150 346.38 150 344 150C344 153.96 344 157.92 344 162C343.34 162 342.68 162 342 162C342 157.05 342 152.1 342 147C348.984 145.604 348.984 145.604 352 146Z" fill="#F1F1F1"/>
<path d="M258 139C259.32 139 260.64 139 262 139C262 146.59 262 154.18 262 162C260.68 162 259.36 162 258 162C258 154.41 258 146.82 258 139Z" fill="#E4E4E4"/>
<path d="M272.5 148.75C275 149 275 149 277 151C277.345 155.053 277.302 156.548 275 160C272.5 160.375 272.5 160.375 270 160C267.698 156.548 267.655 155.053 268 151C270 149 270 149 272.5 148.75Z" fill="#AAABAB"/>
<path d="M238 146C238.66 146 239.32 146 240 146C239.365 149.566 238.462 152.859 237.188 156.25C236.872 157.121 236.556 157.993 236.23 158.891C235 161 235 161 232.863 161.797C232.248 161.864 231.634 161.931 231 162C230.163 159.877 229.33 157.751 228.5 155.625C227.804 153.85 227.804 153.85 227.094 152.039C226 149 226 149 226 147C226.99 147 227.98 147 229 147C230.32 149.97 231.64 152.94 233 156C234.65 152.7 236.3 149.4 238 146Z" fill="#F2F2F2"/>
<path d="M290.062 148.938C291.517 148.968 291.517 148.968 293 149C294.386 151.771 294.188 153.933 294 157C293.01 158.485 293.01 158.485 292 160C289.438 160.25 289.438 160.25 287 160C286 159 286 159 285.867 156.969C285.87 156.154 285.872 155.339 285.875 154.5C285.872 153.685 285.87 152.871 285.867 152.031C286.085 148.696 286.647 149.007 290.062 148.938Z" fill="#AAABAB"/>
<path d="M360 142C360.66 142 361.32 142 362 142C362 143.65 362 145.3 362 147C363.65 147 365.3 147 367 147C367 147.66 367 148.32 367 149C365.35 149 363.7 149 362 149C362.33 152.3 362.66 155.6 363 159C364.32 159.33 365.64 159.66 367 160C366.67 160.66 366.34 161.32 366 162C363.625 162.125 363.625 162.125 361 162C359 160 359 160 358.805 157.398C358.828 156.401 358.851 155.403 358.875 154.375C358.893 153.372 358.911 152.369 358.93 151.336C358.953 150.565 358.976 149.794 359 149C358.34 149 357.68 149 357 149C357 148.34 357 147.68 357 147C357.66 147 358.32 147 359 147C359.33 145.35 359.66 143.7 360 142Z" fill="#F6F6F6"/>
<path d="M201.062 148.938C202.517 148.968 202.517 148.968 204 149C204 152.3 204 155.6 204 159C202.009 159.381 200.007 159.713 198 160C197 159 197 159 196.867 156.969C196.87 156.154 196.872 155.339 196.875 154.5C196.872 153.685 196.87 152.871 196.867 152.031C197.085 148.696 197.647 149.007 201.062 148.938Z" fill="#A9AAAA"/>
<path d="M328 147C328.66 147.66 329.32 148.32 330 149C329.01 150.32 328.02 151.64 327 153C329.97 153 332.94 153 336 153C336 152.34 336 151.68 336 151C336.66 151 337.32 151 338 151C338 151.99 338 152.98 338 154C334.37 154 330.74 154 327 154C327.918 156.645 327.918 156.645 330 159C332.794 159.468 335.142 159.234 338 159C337.01 160.485 337.01 160.485 336 162C328.937 162.673 328.937 162.673 326.27 160.758C324.665 158.537 324.598 157.22 324.625 154.5C324.617 153.727 324.61 152.953 324.602 152.156C325.083 149.548 325.987 148.661 328 147Z" fill="#F8F8F8"/>
<path d="M214 147C214.66 147.66 215.32 148.32 216 149C215.01 150.32 214.02 151.64 213 153C215.97 153 218.94 153 222 153C222 152.34 222 151.68 222 151C222.66 151 223.32 151 224 151C224 151.99 224 152.98 224 154C220.37 154 216.74 154 213 154C213.918 156.645 213.918 156.645 216 159C218.794 159.468 221.142 159.234 224 159C223.01 160.485 223.01 160.485 222 162C214.937 162.673 214.937 162.673 212.27 160.758C210.665 158.537 210.598 157.22 210.625 154.5C210.617 153.727 210.61 152.953 210.602 152.156C211.083 149.548 211.987 148.661 214 147Z" fill="#F8F8F8"/>
<path d="M329 146C332.375 146.25 332.375 146.25 336 147C337.438 149.062 337.438 149.062 338 151C337.34 151 336.68 151 336 151C336 151.66 336 152.32 336 153C333.03 153 330.06 153 327 153C327.33 152.216 327.66 151.433 328 150.625C329.119 148.157 329.119 148.157 329 146Z" fill="#E7E7E7"/>
<path d="M215 146C218.375 146.25 218.375 146.25 222 147C223.438 149.062 223.438 149.062 224 151C223.34 151 222.68 151 222 151C222 151.66 222 152.32 222 153C219.03 153 216.06 153 213 153C213.33 152.216 213.66 151.433 214 150.625C215.119 148.157 215.119 148.157 215 146Z" fill="#E7E7E7"/>
<path d="M204 139C204.99 139.33 205.98 139.66 207 140C206.34 140 205.68 140 205 140C205 142.64 205 145.28 205 148C202.69 148.66 200.38 149.32 198 150C197.67 152.31 197.34 154.62 197 157C196.67 157 196.34 157 196 157C195.856 156.216 195.711 155.433 195.562 154.625C195.122 152.036 195.122 152.036 194 150C197.323 146.062 197.323 146.062 200.75 145.75C201.493 145.833 202.235 145.915 203 146C203.33 143.69 203.66 141.38 204 139Z" fill="#E6E6E6"/>
<path d="M247 148C248.675 148.286 250.344 148.618 252 149C252.33 150.32 252.66 151.64 253 153C250.36 153 247.72 153 245 153C245.875 149.125 245.875 149.125 247 148Z" fill="#B9BABA"/>
<path d="M342 147C342.66 147 343.32 147 344 147C345.142 150.427 344.909 152.611 344.562 156.188C344.41 157.818 344.41 157.818 344.254 159.48C344.17 160.312 344.086 161.143 344 162C343.34 162 342.68 162 342 162C342 157.05 342 152.1 342 147Z" fill="white"/>
<path d="M275 146C274.67 146.99 274.34 147.98 274 149C270.438 150.188 270.438 150.188 267 151C267 150.01 267 149.02 267 148C270.228 145.848 271.284 145.8 275 146Z" fill="#EEEEEE"/>
<path d="M251 147C252.32 147.66 253.64 148.32 255 149C255 150.65 255 152.3 255 154C251.7 154 248.4 154 245 154C245 153.67 245 153.34 245 153C247.64 153 250.28 153 253 153C252.34 151.02 251.68 149.04 251 147Z" fill="#FCFCFC"/>
<path d="M330 148C331.65 148.33 333.3 148.66 335 149C335 149.99 335 150.98 335 152C332.69 152 330.38 152 328 152C328.66 150.68 329.32 149.36 330 148Z" fill="#AEAEAE"/>
<path d="M216 148C217.65 148.33 219.3 148.66 221 149C221 149.99 221 150.98 221 152C218.69 152 216.38 152 214 152C214.66 150.68 215.32 149.36 216 148Z" fill="#AEAEAE"/>
<path d="M235 155C235.625 156.812 235.625 156.812 236 159C235.01 160.485 235.01 160.485 234 162C233.01 162 232.02 162 231 162C231 159 231 159 233 156.812C233.66 156.214 234.32 155.616 235 155Z" fill="#F9F9F9"/>
</svg>
