<svg width="1133" height="598" viewBox="0 0 1133 598" fill="none" xmlns="http://www.w3.org/2000/svg">
<path d="M540 6.00027C549.153 15.2161 550.266 27.4015 550.247 39.8401C549.927 60.6516 544.253 80.9007 538.902 100.871C538.724 101.538 538.545 102.204 538.362 102.891C537.489 106.142 536.608 109.391 535.716 112.637C533.788 119.718 532.16 126.752 531 134C531.686 134.235 532.371 134.47 533.078 134.712C540.476 137.309 546.881 140.926 550.596 148.069C552.801 151.384 552.801 151.384 556.891 151.805C558.343 151.858 559.797 151.88 561.25 151.875C561.995 151.896 562.74 151.917 563.508 151.938C565.338 151.985 567.169 151.996 569 152C575.925 173.298 582.672 194.646 589.315 216.032C591.412 222.781 593.513 229.529 595.614 236.277C596.432 238.907 597.25 241.537 598.069 244.166C601.83 256.252 605.603 268.334 609.383 280.414C609.644 281.25 609.906 282.086 610.175 282.947C611.228 286.312 612.281 289.677 613.335 293.042C621.809 320.126 630.264 347.215 638.654 374.325C639.587 377.34 640.521 380.355 641.457 383.369C642.537 386.852 643.615 390.334 644.69 393.818C645.271 395.695 645.853 397.572 646.436 399.448C646.777 400.554 647.118 401.661 647.469 402.801C647.915 404.244 647.915 404.244 648.371 405.717C649 408 649 408 649 410C653.62 410 658.24 410 663 410C663 423.2 663 436.4 663 450C635.94 450 608.88 450 581 450C576.545 436.976 576.545 436.976 572 423.688C571.06 420.948 570.121 418.208 569.152 415.386C568.414 413.22 567.675 411.053 566.938 408.887C566.549 407.758 566.16 406.629 565.76 405.466C565.394 404.39 565.029 403.314 564.652 402.206C564.333 401.271 564.013 400.336 563.683 399.373C563 397 563 397 563 394C536.6 394.33 510.2 394.66 483 395C480.773 401.662 478.545 408.324 476.25 415.188C475.556 417.262 474.861 419.336 474.146 421.474C473.581 423.163 473.017 424.853 472.453 426.543C472.171 427.384 471.889 428.224 471.599 429.09C469.285 436.031 467.154 443.001 465 450C437.94 450 410.88 450 383 450C383 436.8 383 423.6 383 410C387.62 410 392.24 410 397 410C397.413 408.442 397.826 406.884 398.252 405.279C399.974 398.972 401.943 392.76 403.965 386.543C404.35 385.352 404.735 384.16 405.132 382.932C405.963 380.361 406.796 377.79 407.63 375.22C408.963 371.11 410.293 366.999 411.622 362.888C413.483 357.133 415.345 351.379 417.208 345.625C421.355 332.819 425.489 320.008 429.622 307.198C430.254 305.239 430.886 303.28 431.518 301.322C436.658 285.394 441.779 269.459 446.87 253.515C453.747 231.976 460.685 210.457 467.646 188.945C468.435 186.508 469.223 184.07 470.011 181.632C471.251 177.795 472.493 173.959 473.736 170.123C474.198 168.695 474.66 167.267 475.122 165.839C475.756 163.876 476.392 161.914 477.029 159.951C477.387 158.845 477.745 157.739 478.114 156.6C479 154 479 154 480 152C484.62 152 489.24 152 494 152C494.66 150.35 495.32 148.7 496 147C501.514 139.216 507.879 136.097 517 134C516.83 133.425 516.66 132.85 516.484 132.257C488.978 39.0841 488.978 39.0841 500.188 14.5628C503.439 8.64734 507.893 4.7898 514 2.00027C522.353 -0.296806 533.013 0.592154 540 6.00027ZM511.441 153.36C507.854 157.489 506.178 161.04 505.688 166.438C506.198 172.258 508.243 175.534 512.562 179.313C516.908 182.873 519.808 183.358 525.398 183.27C530.284 182.764 533.304 180.907 536.539 177.27C539.6 172.987 540.695 169.358 540.352 164.102C539.546 159.289 537.635 156.621 534.188 153.25C527.001 148.177 518.379 147.309 511.441 153.36ZM513 186C513.69 192.051 514.384 198.102 515.081 204.152C515.318 206.21 515.554 208.269 515.788 210.327C516.126 213.286 516.467 216.245 516.809 219.203C516.913 220.123 517.017 221.043 517.124 221.991C517.224 222.852 517.324 223.712 517.427 224.599C517.514 225.354 517.601 226.109 517.69 226.887C517.996 228.974 518.452 230.965 519 233C521.858 233.685 521.858 233.685 525 234C528.087 232.4 528.087 232.4 528.551 230.192C528.674 229.098 528.674 229.098 528.8 227.981C528.899 227.153 528.999 226.326 529.102 225.473C529.196 224.577 529.29 223.681 529.387 222.758C529.493 221.838 529.6 220.918 529.71 219.97C530.049 217.023 530.368 214.074 530.688 211.125C530.914 209.145 531.141 207.164 531.369 205.184C531.783 201.549 532.194 197.915 532.589 194.278C532.668 193.547 532.748 192.816 532.83 192.062C532.996 190.048 533 188.022 533 186C531.714 186.126 531.714 186.126 530.402 186.254C529.259 186.356 528.116 186.458 526.938 186.563C525.249 186.719 525.249 186.719 523.527 186.879C519.882 187.004 516.597 186.557 513 186ZM525 256C522.273 264.613 519.551 273.228 516.838 281.845C515.577 285.846 514.315 289.847 513.048 293.847C511.824 297.71 510.605 301.574 509.391 305.44C508.927 306.911 508.462 308.382 507.995 309.852C507.339 311.918 506.689 313.986 506.041 316.055C505.67 317.23 505.3 318.405 504.917 319.615C502.911 327.019 502.586 332.138 506 339C509.522 344.473 513.304 347.995 519.668 349.664C525.063 350.441 529.332 349.851 534.188 347.375C539.899 342.552 543.55 338.594 544.88 331.066C545.134 324.579 542.999 318.374 541.25 312.188C540.838 310.67 540.428 309.151 540.02 307.632C539.155 304.427 538.277 301.225 537.389 298.027C535.954 292.851 534.558 287.665 533.168 282.477C530.799 273.646 528.407 264.821 526 256C525.67 256 525.34 256 525 256Z" fill="black"/>
<path d="M924 241C951.39 241 978.78 241 1007 241C1007 254.2 1007 267.4 1007 281C1002.71 281 998.42 281 994 281C994.33 307.4 994.66 333.8 995 361C999.95 352.09 1004.9 343.18 1010 334C1016.25 322.75 1022.5 311.5 1028.75 300.25C1029.37 299.135 1029.99 298.02 1030.63 296.872C1031.87 294.634 1033.11 292.396 1034.36 290.158C1037.25 284.959 1040.14 279.758 1043.02 274.554C1044.36 272.137 1045.7 269.721 1047.03 267.304C1047.96 265.631 1048.89 263.956 1049.81 262.281C1050.39 261.241 1050.97 260.201 1051.56 259.129C1052.06 258.233 1052.56 257.336 1053.07 256.413C1053.7 255.286 1054.34 254.16 1055 253C1055.4 252.006 1055.79 251.012 1056.2 249.988C1057.82 246.426 1059.28 243.827 1062 241C1067.4 239.318 1072.64 239.596 1078.21 239.828C1079.8 239.851 1081.38 239.868 1082.96 239.88C1087.11 239.925 1091.25 240.043 1095.39 240.176C1100.38 240.321 1105.36 240.376 1110.34 240.446C1117.9 240.562 1125.44 240.792 1133 241C1133 254.2 1133 267.4 1133 281C1128.71 281 1124.42 281 1120 281C1120 336.77 1120 392.54 1120 450C1100.86 450 1081.72 450 1062 450C1061.67 410.07 1061.34 370.14 1061 329C1056.38 337.58 1051.76 346.16 1047 355C1040.14 367.172 1040.14 367.172 1037.41 371.973C1033.59 378.701 1029.85 385.474 1026.12 392.25C1024.77 394.707 1023.42 397.164 1022.07 399.621C1021.73 400.231 1021.39 400.841 1021.05 401.469C1017.4 408.092 1013.73 414.703 1010.06 421.313C1009.48 422.354 1008.91 423.395 1008.31 424.468C1003.57 432.996 998.784 441.496 994 450C975.19 450 956.38 450 937 450C937 394.23 937 338.46 937 281C932.71 281 928.42 281 924 281C924 267.8 924 254.6 924 241Z" fill="black"/>
<path d="M693 241C720.72 241 748.44 241 777 241C777 254.2 777 267.4 777 281C772.71 281 768.42 281 764 281C764 295.19 764 309.38 764 324C780.83 324 797.66 324 815 324C815 309.81 815 295.62 815 281C810.71 281 806.42 281 802 281C802 267.8 802 254.6 802 241C829.39 241 856.78 241 885 241C885 254.2 885 267.4 885 281C881.04 281 877.08 281 873 281C873 323.57 873 366.14 873 410C876.96 410 880.92 410 885 410C885 423.2 885 436.4 885 450C857.61 450 830.22 450 802 450C802 436.8 802 423.6 802 410C806.29 410 810.58 410 815 410C815 395.15 815 380.3 815 365C798.17 365 781.34 365 764 365C764 379.85 764 394.7 764 410C768.29 410 772.58 410 777 410C777 423.2 777 436.4 777 450C749.28 450 721.56 450 693 450C693 436.8 693 423.6 693 410C697.29 410 701.58 410 706 410C706 367.43 706 324.86 706 281C701.71 281 697.42 281 693 281C693 267.8 693 254.6 693 241Z" fill="black"/>
<path d="M0 241C23.1 241 46.2 241 70 241C70.33 263.77 70.66 286.54 71 310C74.63 306.37 78.26 302.74 82 299C86.1914 295.305 86.1914 295.305 88.1138 293.659C91.5449 290.641 94.7274 287.374 97.9375 284.125C98.6619 283.397 99.3862 282.669 100.133 281.918C102.424 279.615 104.713 277.308 107 275C110.018 271.955 113.039 268.914 116.062 265.875C116.74 265.189 117.417 264.504 118.115 263.797C121.391 260.504 124.711 257.355 128.25 254.345C131.346 251.691 133.537 248.909 135.93 245.602C141.255 240.219 146.32 240.1 153.695 240.023C158.177 240.053 162.647 240.206 167.125 240.375C169.44 240.425 171.755 240.471 174.07 240.512C179.718 240.613 185.352 240.808 191 241C191 254.2 191 267.4 191 281C186.38 282.32 181.76 283.64 177 285C170.773 288.81 165.955 293.897 160.906 299.121C158.809 301.254 156.617 303.216 154.344 305.16C148.953 309.824 144.001 314.928 139 320C127.765 331.395 127.765 331.395 121.705 336.471C118.822 339.057 116.446 342.004 114 345C121.926 352.332 121.926 352.332 130 359.5C133.931 362.907 137.752 366.43 141.578 369.953C144.355 372.506 147.15 375.03 150 377.5C153.391 380.438 156.699 383.462 160 386.5C178.099 403.195 178.099 403.195 199 416C198.028 422.137 195.307 427.567 192.755 433.175C192.169 434.474 191.593 435.778 191.027 437.085C190.205 438.987 189.352 440.873 188.492 442.758C187.991 443.883 187.489 445.009 186.972 446.168C184.119 450.265 180.649 451.509 175.819 452.404C175.214 452.414 174.608 452.424 173.984 452.434C173.296 452.445 172.608 452.457 171.899 452.469C171.19 452.458 170.481 452.448 169.75 452.438C168.629 452.425 168.629 452.425 167.486 452.412C161.047 452.217 155.779 450.911 150 448C148.575 447.306 148.575 447.306 147.121 446.598C139.205 442.377 133.094 436.848 126.718 430.658C124.378 428.4 121.995 426.189 119.611 423.977C111.443 416.397 103.342 408.744 95.2319 401.103C91.3018 397.4 87.3695 393.7 83.4375 390C81.9987 388.646 80.5599 387.292 79.1211 385.938C78.5171 385.369 77.9131 384.801 77.2908 384.215C76.8648 383.814 76.4389 383.413 76 383C73.3094 384.22 73.3094 384.22 71 386C70.8763 387.994 70.822 389.991 70.7947 391.989C70.7747 393.27 70.7548 394.551 70.7342 395.871C70.7173 397.28 70.7004 398.689 70.6836 400.098C70.663 401.531 70.642 402.965 70.6206 404.398C70.5653 408.178 70.516 411.957 70.4678 415.737C70.4088 420.268 70.3425 424.799 70.2775 429.33C70.1794 436.22 70.0906 443.11 70 450C51.19 450 32.38 450 13 450C13 394.23 13 338.46 13 281C8.71 281 4.42 281 0 281C0 267.8 0 254.6 0 241Z" fill="black"/>
<path d="M218 241C231.51 240.954 245.02 240.918 258.529 240.896C264.804 240.886 271.079 240.872 277.354 240.849C283.423 240.827 289.492 240.815 295.561 240.81C297.863 240.806 300.164 240.799 302.466 240.788C330.429 240.661 360.536 241.621 381.727 262.429C395.337 277.817 394.736 297.584 394 317C392.938 330.522 388.622 340.673 378.781 350.132C354.376 370.972 318.711 369 289 369C289 395.73 289 422.46 289 450C270.19 450 251.38 450 232 450C232 394.23 232 338.46 232 281C227.38 281 222.76 281 218 281C218 267.8 218 254.6 218 241ZM289 281C289 297.83 289 314.66 289 332C293.063 332.082 297.126 332.165 301.312 332.25C302.57 332.286 303.827 332.322 305.122 332.36C314.255 332.449 321.611 330.763 329.375 325.875C335.621 319.034 337.828 312.437 337.414 303.183C336.44 295.693 334.028 290.109 328.172 285.254C319.854 280.451 312.433 280.633 303 280.812C296.07 280.905 296.07 280.905 289 281Z" fill="black"/>
<path d="M301 516C306.941 515.925 312.881 515.871 318.822 515.835C320.84 515.82 322.857 515.8 324.874 515.774C327.788 515.737 330.703 515.72 333.617 515.707C334.951 515.684 334.951 515.684 336.311 515.66C343.704 515.658 350.579 516.889 356.938 520.813C361.453 525.601 362.414 530.095 362.375 536.563C362.387 538.483 362.387 538.483 362.398 540.441C361.807 545.726 359.191 548.897 356 553C356.831 553.58 356.831 553.58 357.68 554.172C358.404 554.693 359.129 555.213 359.875 555.75C360.594 556.261 361.314 556.771 362.055 557.297C365.782 560.56 366.446 564.203 367 569C367.347 576.173 366.788 582.001 363.062 588.25C358.268 593.415 350.332 595.185 343.529 595.454C341.64 595.454 339.751 595.432 337.863 595.391C336.858 595.385 335.852 595.379 334.816 595.374C331.648 595.351 328.481 595.301 325.312 595.25C323.147 595.23 320.98 595.212 318.814 595.195C313.543 595.152 308.271 595.083 303 595C303 591.7 303 588.4 303 585C304.65 585 306.3 585 308 585C308 565.53 308 546.06 308 526C305.69 526 303.38 526 301 526C301 522.7 301 519.4 301 516ZM322 526C322 533.59 322 541.18 322 549C335.092 549.817 335.092 549.817 346.562 544.75C348.208 541.602 348.929 539.564 349 536C347.527 531.195 347.527 531.195 344.188 527.625C338.996 526.142 334.005 525.887 328.625 525.938C326.439 525.958 324.253 525.979 322 526ZM322 558C322 566.91 322 575.82 322 585C325.96 585.062 325.96 585.062 330 585.125C330.815 585.143 331.629 585.161 332.469 585.18C338.819 585.228 344.607 584.68 349.938 580.938C352.691 577.016 353.293 573.754 353 569C351.526 564.81 349.959 562.084 346 560C338.012 557.512 330.294 557.851 322 558Z" fill="#010000"/>
<path d="M541 516C546.941 515.925 552.881 515.871 558.822 515.835C560.84 515.82 562.857 515.8 564.874 515.774C567.788 515.737 570.703 515.72 573.617 515.707C574.951 515.684 574.951 515.684 576.311 515.66C584.965 515.658 593.235 517.176 599.66 523.344C603.805 528.467 603.656 535.72 603 542C601.803 546.595 599.603 549.894 596 553C596.908 553.557 597.815 554.114 598.75 554.688C602.838 557.596 605.405 560.215 607 565C607.148 567.619 607.231 570.193 607.25 572.813C607.271 573.512 607.291 574.211 607.312 574.932C607.355 580.605 606.117 584.492 602.457 588.828C601.914 589.297 601.372 589.767 600.812 590.25C600.283 590.73 599.753 591.209 599.207 591.703C592.806 595.465 585.565 595.274 578.375 595.195C577.387 595.193 576.4 595.19 575.383 595.187C572.255 595.176 569.128 595.151 566 595.125C563.868 595.115 561.737 595.106 559.605 595.098C554.404 595.076 549.202 595.041 544 595C544 591.7 544 588.4 544 585C545.65 585 547.3 585 549 585C549 565.53 549 546.06 549 526C546.36 526 543.72 526 541 526C541 522.7 541 519.4 541 516ZM562 526C562 533.59 562 541.18 562 549C574.955 549.796 574.955 549.796 586.5 545C589.364 541.181 589.609 537.663 589 533C587.511 530.022 586.323 528.556 583.223 527.254C576.293 525.383 569.111 525.862 562 526ZM562 558C562 566.91 562 575.82 562 585C577.388 586.061 577.388 586.061 591.062 580.5C593.982 576.388 593.725 571.818 593 567C591.604 563.356 590.498 562.31 587.188 560.25C581.375 557.971 575.772 557.866 569.625 557.938C567.109 557.958 564.592 557.979 562 558Z" fill="#010000"/>
<path d="M10 516C34.09 516 58.18 516 83 516C83 519.3 83 522.6 83 526C80.69 526 78.38 526 76 526C76 545.47 76 564.94 76 585C78.31 585 80.62 585 83 585C83 588.3 83 591.6 83 595C74.42 595 65.84 595 57 595C57 592.69 57 590.38 57 588C58.65 588 60.3 588 62 588C62 567.54 62 547.08 62 526C52.1 526 42.2 526 32 526C32.0232 529.049 32.0464 532.097 32.0703 535.238C32.086 538.224 32.0981 541.209 32.1099 544.195C32.1199 546.254 32.1335 548.312 32.1509 550.371C32.1754 553.348 32.1865 556.324 32.1953 559.301C32.2056 560.206 32.216 561.112 32.2266 562.045C32.2283 571.975 31.608 581.211 24.4297 588.621C17.6436 594.966 10.9526 595.245 2 595C2 591.7 2 588.4 2 585C4.50651 584.349 7.01302 583.698 9.51953 583.047C12.594 581.749 13.4341 580.953 15 578C16.9037 571.608 17.3284 565.348 17.4141 558.715C17.4334 557.773 17.4528 556.831 17.4727 555.861C17.532 552.887 17.5787 549.912 17.625 546.938C17.6632 544.907 17.7023 542.876 17.7422 540.846C17.8376 535.897 17.9219 530.949 18 526C15.36 526 12.72 526 10 526C10 522.7 10 519.4 10 516Z" fill="#010000"/>
<path d="M955 516C962.26 516 969.52 516 977 516C977.014 517.891 977.028 519.782 977.043 521.73C977.09 524.216 977.138 526.702 977.188 529.188C977.193 530.433 977.199 531.679 977.205 532.963C977.073 540.295 977.073 540.295 980.551 546.363C981.359 546.903 982.167 547.444 983 548C987.958 543.329 992.253 538.299 996.516 532.992C999.696 529.161 1003.05 525.514 1006.46 521.884C1009.03 519.161 1009.03 519.161 1011 516C1016.61 516 1022.22 516 1028 516C1028 519.3 1028 522.6 1028 526C1026.72 526.454 1025.44 526.907 1024.12 527.375C1015.6 531.156 1009.7 539.02 1003.74 545.973C1001.71 548.341 999.637 550.671 997.562 553C996.883 553.763 996.204 554.526 995.504 555.312C995.008 555.869 994.511 556.426 994 557C999.136 562.231 1004.28 567.379 1009.86 572.141C1013.45 575.259 1016.91 578.524 1020.39 581.766C1022.82 583.845 1025.21 585.451 1028 587C1027.44 590.344 1026.65 593.033 1025 596C1019.1 596.492 1014.91 595.433 1010 592C1006.1 588.661 1002.39 585.161 998.685 581.608C996.032 579.076 993.33 576.6 990.625 574.125C989.71 573.282 988.795 572.439 987.852 571.57C984.617 568.654 981.32 565.819 978 563C977.985 563.65 977.971 564.299 977.956 564.969C977.881 567.959 977.784 570.948 977.688 573.938C977.665 574.959 977.642 575.981 977.619 577.033C977.38 583.834 977.097 591.301 972.536 596.748C971 598 971 598 968.773 597.961C967.982 597.768 967.19 597.574 966.375 597.375C965.18 597.108 965.18 597.108 963.961 596.836C963.314 596.56 962.667 596.284 962 596C960.896 592.689 961.165 592.196 962 589C962.114 586.923 962.176 584.843 962.205 582.763C962.235 580.871 962.235 580.871 962.266 578.941C962.283 577.57 962.3 576.199 962.316 574.828C962.337 573.421 962.358 572.015 962.379 570.608C962.434 566.912 962.484 563.217 962.532 559.521C962.583 555.747 962.638 551.973 962.693 548.199C962.801 540.8 962.902 533.4 963 526C960.36 526 957.72 526 955 526C955 522.7 955 519.4 955 516Z" fill="#010000"/>
<path d="M816 516C825.24 516 834.48 516 844 516C844 519.3 844 522.6 844 526C841.69 526 839.38 526 837 526C837 533.59 837 541.18 837 549C844.448 548.882 844.448 548.882 851.896 548.73C861.132 548.657 869.69 549.938 877 556C882.177 563.14 881.641 571.535 881 580C879.538 585.332 876.836 589.222 872 592C861.546 596.451 849.918 595.332 838.812 595.188C836.791 595.172 834.77 595.159 832.748 595.146C827.832 595.114 822.916 595.062 818 595C818 591.7 818 588.4 818 585C819.65 585 821.3 585 823 585C823 565.53 823 546.06 823 526C820.69 526 818.38 526 816 526C816 522.7 816 519.4 816 516ZM837 559C837 567.58 837 576.16 837 585C840.96 585.062 840.96 585.062 845 585.125C845.815 585.143 846.629 585.161 847.469 585.18C853.848 585.228 859.677 584.73 864.938 580.812C867.464 577.368 867.925 575.254 868 571C867.035 566.527 865.709 563.733 862 561C856.194 559.217 851.042 558.74 845 558.875C842.36 558.916 839.72 558.957 837 559Z" fill="#010000"/>
<path d="M161 516C170.24 516 179.48 516 189 516C189 519.3 189 522.6 189 526C186.69 526 184.38 526 182 526C182 533.59 182 541.18 182 549C189.448 548.882 189.448 548.882 196.896 548.73C206.132 548.657 214.69 549.938 222 556C227.206 563.181 226.492 571.498 226 580C225.092 584.654 222.734 588.118 218.865 590.945C208.378 596.878 195.411 595.338 183.812 595.188C181.791 595.172 179.77 595.159 177.748 595.146C172.832 595.114 167.916 595.062 163 595C163 591.7 163 588.4 163 585C164.65 585 166.3 585 168 585C168 565.53 168 546.06 168 526C165.69 526 163.38 526 161 526C161 522.7 161 519.4 161 516ZM182 559C182 567.58 182 576.16 182 585C185.96 585.062 185.96 585.062 190 585.125C190.815 585.143 191.629 585.161 192.469 585.18C198.833 585.228 204.642 584.706 209.938 580.875C212.563 577.215 213.28 574.473 213 570C211.775 565.606 210.97 563.633 207.125 561.125C201.389 559.06 196.213 558.872 190.188 558.938C186.135 558.968 186.135 558.968 182 559Z" fill="#010000"/>
<path d="M715.187 514.625C716.098 514.631 717.008 514.638 717.946 514.645C737.02 515.02 737.02 515.02 741 519C741.022 520.766 741.022 520.766 740.879 523.035C740.806 524.248 740.806 524.248 740.732 525.486C740.676 526.336 740.62 527.186 740.562 528.062C740.51 528.916 740.458 529.77 740.404 530.65C740.274 532.767 740.138 534.883 740 537C736.7 537 733.4 537 730 537C729.505 533.04 729.505 533.04 729 529C720.226 526.372 713.317 524.793 704.687 528.375C699.114 533.818 697.781 541.303 697.504 548.883C697.503 551.297 697.522 553.711 697.562 556.125C697.552 557.94 697.552 557.94 697.541 559.793C697.596 567.595 697.724 575.451 703.25 581.437C711.465 586.105 719.885 585.553 728.922 583.258C730.584 582.741 732.238 582.199 733.879 581.621C736 581 736 581 740 581C740.99 583.97 741.98 586.94 743 590C740.918 590.815 738.834 591.627 736.75 592.437C735.59 592.89 734.43 593.342 733.234 593.808C727.304 595.993 722.157 596.215 715.875 596.25C714.975 596.27 714.075 596.291 713.148 596.312C705.328 596.357 698.339 595.142 691.687 590.875C680.487 578.893 681.426 562.835 681.891 547.385C682.36 537.159 684.11 528.418 691.687 521.187C698.274 515.25 706.693 514.492 715.187 514.625Z" fill="#010000"/>
<path d="M1101 516C1110.57 516 1120.14 516 1130 516C1130 519.3 1130 522.6 1130 526C1127.36 526 1124.72 526 1122 526C1122 545.47 1122 564.94 1122 585C1124.64 585 1127.28 585 1130 585C1130 588.3 1130 591.6 1130 595C1120.43 595 1110.86 595 1101 595C1101 591.7 1101 588.4 1101 585C1103.31 585 1105.62 585 1108 585C1108 565.53 1108 546.06 1108 526C1105.69 526 1103.38 526 1101 526C1101 522.7 1101 519.4 1101 516Z" fill="#010000"/>
<path d="M440 516C449.57 516 459.14 516 469 516C469 519.3 469 522.6 469 526C466.36 526 463.72 526 461 526C461 545.47 461 564.94 461 585C463.64 585 466.28 585 469 585C469 588.3 469 591.6 469 595C459.43 595 449.86 595 440 595C440 591.7 440 588.4 440 585C442.31 585 444.62 585 447 585C447 565.53 447 546.06 447 526C444.69 526 442.38 526 440 526C440 522.7 440 519.4 440 516Z" fill="#010000"/>
<path d="M528 156C530.824 158.191 532.415 159.83 534 163C534.677 168.864 534.677 168.864 532.953 171.758C529.8 175.598 528.184 176.882 523.25 177.375C519.763 177.312 518.772 176.868 515.562 175C512.806 171.773 512.051 170.125 511.824 165.996C512.104 162.815 513.248 160.629 515 158C519.226 155.183 523.036 155.201 528 156Z" fill="black"/>
</svg>
