<svg width="370" height="173" viewBox="0 0 370 173" fill="none" xmlns="http://www.w3.org/2000/svg">
<path d="M0 0C59.4 0 118.8 0 180 0C180 38.28 180 76.56 180 116C120.6 116 61.2 116 0 116C0 77.72 0 39.44 0 0Z" fill="#C24A3F"/>
<path d="M190 1C249.4 1 308.8 1 370 1C370 38.62 370 76.24 370 115C310.6 115 251.2 115 190 115C190 77.38 190 39.76 190 1Z" fill="#C2473C"/>
<path d="M190 130C249.4 130 308.8 130 370 130C370 143.53 370 157.06 370 171C369 172 369 172 366.081 172.123C364.103 172.122 364.103 172.122 362.084 172.12C360.986 172.122 360.986 172.122 359.867 172.123C357.396 172.125 354.925 172.119 352.455 172.114C350.691 172.113 348.927 172.113 347.164 172.114C342.36 172.114 337.557 172.108 332.753 172.101C327.739 172.095 322.725 172.095 317.711 172.093C308.209 172.09 298.707 172.082 289.204 172.072C278.39 172.061 267.575 172.055 256.76 172.05C234.507 172.04 212.253 172.022 190 172C190 158.14 190 144.28 190 130Z" fill="#A9AAAA"/>
<path d="M33 28C63.3226 28 63.3226 28 69.375 32.9375C69.9112 33.6181 70.4475 34.2987 71 35C71.5569 35.6806 72.1137 36.3612 72.6875 37.0625C75.7716 41.6152 75.6579 46.7142 75 52C72.9084 58.2063 69.6036 61.9092 63.9648 65.125C59.3037 67.2008 54.7763 67.1198 49.75 67.0625C45.9137 67.0316 45.9137 67.0316 42 67C42 74.59 42 82.18 42 90C39.03 90 36.06 90 33 90C33 69.54 33 49.08 33 28Z" fill="#FCF6F5"/>
<path d="M142 47.9996C147.554 51.6313 150.292 55.684 152 61.9996C153.207 70.3724 151.872 77.0488 147 83.9996C142.581 88.9158 137.824 91.051 131.312 91.4371C125.417 91.2875 120.736 89.5014 116 85.9996C110.264 79.3559 109.631 72.8087 109.726 64.2613C110.263 57.8604 112.749 53.8934 117.437 49.6246C125.205 43.5682 133.405 43.595 142 47.9996Z" fill="#FCF6F5"/>
<path d="M289.34 46.6831C294.447 49.3765 297.216 53.6481 299 58.9995C299 61.9695 299 64.9395 299 67.9995C288.77 67.9995 278.54 67.9995 268 67.9995C269.493 76.285 269.493 76.285 274 81.9995C277.918 83.9583 282.72 83.3623 287 82.9995C290.402 81.6347 290.402 81.6347 293 79.9995C293.99 79.9995 294.98 79.9995 296 79.9995C296.66 81.6495 297.32 83.2995 298 84.9995C296.754 85.8188 295.503 86.6297 294.25 87.437C293.554 87.8895 292.858 88.342 292.141 88.8081C287.13 91.5969 281.602 91.5976 276 90.9995C269.515 89.0325 265.336 85.2013 262.031 79.2574C259.163 72.857 258.762 65.4062 260.656 58.6636C265.884 46.9013 277.215 43.1409 289.34 46.6831Z" fill="#FCF6F5"/>
<path d="M217 28C233.17 28 249.34 28 266 28C266 30.31 266 32.62 266 35C259.4 35 252.8 35 246 35C246 53.15 246 71.3 246 90C243.03 90 240.06 90 237 90C237 71.85 237 53.7 237 35C230.4 35 223.8 35 217 35C217 32.69 217 30.38 217 28Z" fill="#FCF7F7"/>
<path d="M136 52.0004C139.735 53.868 141.186 55.9679 142.813 59.6879C144.804 65.857 145.004 71.432 142.25 77.3754C140.665 80.432 138.975 82.2354 136 84.0004C132.272 84.6671 128.737 84.5992 125 84.0004C121.556 81.4701 119.575 78.9334 118 75.0004C117.176 67.1364 116.958 60.3396 122 54.0004C126.471 51.0199 130.76 51.4011 136 52.0004Z" fill="#C34A3F"/>
<path d="M335.437 46.8121C338.351 48.3484 339.075 49.1126 341 51.9996C340.34 52.9896 339.68 53.9796 339 54.9996C334.25 54.1246 334.25 54.1246 332 52.9996C325.325 52.0816 325.325 52.0816 319.199 54.1988C314.948 59.1773 314.713 64.202 314.777 70.4605C315.159 74.8108 316.604 78.1658 319.27 81.6675C322.799 84.3847 327.773 83.4961 332 82.9996C334.833 81.4849 334.833 81.4849 337 79.9996C339.312 80.8121 339.312 80.8121 341 81.9996C340.781 83.8277 340.781 83.8277 340 85.9996C335.045 89.7352 329.375 91.8169 323.168 91.4214C318.139 90.4429 314.339 88.3019 310.687 84.7496C305.96 77.0463 304.882 69.9612 306 60.9996C307.68 55.2578 310.061 51.2162 315.125 47.9371C321.759 44.3101 328.502 43.4963 335.437 46.8121Z" fill="#FBF4F3"/>
<path d="M42 34.9995C44.6813 34.8964 47.3625 34.7933 50.125 34.687C51.3743 34.6187 51.3743 34.6187 52.6489 34.5491C56.7304 34.4736 59.2662 34.7687 62.4922 37.394C66.2136 41.2603 66.2939 43.5709 66.2109 48.7495C65.9145 51.912 65.0644 53.5911 63 55.9995C58.3909 59.7239 54.8959 60.538 49.125 60.2495C46.7738 60.167 44.4225 60.0845 42 59.9995C42 51.7495 42 43.4995 42 34.9995Z" fill="#C2483D"/>
<path d="M107 45.9997C107 48.3097 107 50.6197 107 52.9997C106.325 53.0255 105.649 53.0512 104.953 53.0778C99.3674 53.3466 99.3674 53.3466 94.5 55.8122C91.5088 60.1744 90.7318 63.1657 90.5859 68.5153C90.5279 70.3909 90.5279 70.3909 90.4688 72.3044C90.4378 73.6063 90.4069 74.9083 90.375 76.2497C90.317 78.2258 90.317 78.2258 90.2578 80.2419C90.1635 83.4943 90.0779 86.7468 90 89.9997C87.69 89.9997 85.38 89.9997 83 89.9997C83 75.4797 83 60.9597 83 45.9997C84.98 45.9997 86.96 45.9997 89 45.9997C89.66 47.9797 90.32 49.9597 91 51.9997C91.8662 50.8241 91.8662 50.8241 92.75 49.6247C96.558 45.182 101.358 43.1787 107 45.9997Z" fill="#FDFAFA"/>
<path d="M263.25 141.312C264.513 141.432 265.777 141.552 267.078 141.675C268.525 141.836 268.525 141.836 270 142C270 142.66 270 143.32 270 144C269.01 144 268.02 144 267 144C267.124 145.639 267.124 145.639 267.25 147.312C267 151 267 151 265.438 152.937C262.199 154.349 259.492 154.201 256 154C256 154.99 256 155.98 256 157C257.052 156.958 258.104 156.917 259.188 156.875C263.85 157.028 266.685 157.685 270 161C269.844 164.035 269.51 165.511 267.293 167.636C264.485 169.306 262.687 169.401 259.438 169.375C258.013 169.386 258.013 169.386 256.559 169.398C254 169 254 169 252.141 167.632C251 166 251 166 251.313 163.5C251.653 162.262 251.653 162.262 252 161C252 160.01 252 159.02 252 158C252.186 156.968 252.371 155.937 252.563 154.875C252.707 153.926 252.851 152.977 253 152C252.67 151.67 252.34 151.34 252 151C251.688 147.625 251.688 147.625 252 144C255.36 140.254 258.497 140.828 263.25 141.312Z" fill="#F5F5F5"/>
<path d="M242 141C244.81 142.794 246.509 144.019 248 147C248.35 152.342 248.456 155.648 245 160C240.98 162.68 237.721 162.918 233 162C229.675 159.354 228.372 157.894 227.563 153.773C227.344 149.684 227.672 147.525 229.875 144C233.538 140.552 237.119 140.299 242 141Z" fill="#F7F7F7"/>
<path d="M284 51.0001C287.843 53.0301 290.669 54.7424 292 59.0001C292 60.3201 292 61.6401 292 63.0001C284.08 63.0001 276.16 63.0001 268 63.0001C270.263 55.079 270.263 55.079 275 52.0001C278.11 50.4453 280.563 50.7136 284 51.0001Z" fill="#C34B41"/>
<path d="M241 144C242.875 145 242.875 145 244 147C244.392 151.113 244.564 153.747 242.875 157.5C241 159 241 159 238 159.5C235 159 235 159 233.125 157.5C231.436 153.747 231.608 151.113 232 147C234.107 143.254 236.994 143.499 241 144Z" fill="#A8A9A9"/>
<path d="M304 134C304.99 134 305.98 134 307 134C307 136.31 307 138.62 307 141C308.98 141 310.96 141 313 141C313 141.99 313 142.98 313 144C311.02 144 309.04 144 307 144C307 148.95 307 153.9 307 159C308.65 158.67 310.3 158.34 312 158C312 159.32 312 160.64 312 162C308.625 162.125 308.625 162.125 305 162C303 160 303 160 302.805 156.305C302.818 154.828 302.842 153.351 302.875 151.875C302.884 151.121 302.893 150.367 302.902 149.59C302.926 147.726 302.962 145.863 303 144C302.01 144 301.02 144 300 144C300 143.34 300 142.68 300 142C300.99 142 301.98 142 303 142C303.33 139.36 303.66 136.72 304 134Z" fill="#F5F5F5"/>
<path d="M294 141C296 142.5 296 142.5 297 144C293.527 145.158 290.639 145.068 287 145C287 145.99 287 146.98 287 148C287.638 148.277 288.276 148.554 288.934 148.84C289.76 149.202 290.586 149.564 291.438 149.937C292.261 150.297 293.085 150.657 293.934 151.027C296 152 296 152 297 153C296.75 156.437 296.75 156.437 296 160C292.224 162.517 289.436 162.638 285 162C283 160.5 283 160.5 282 159C286.05 157.65 288.792 158.379 293 159C293 157.35 293 155.7 293 154C291.907 153.711 290.814 153.422 289.688 153.125C286 152 286 152 283 150C282.608 146.93 282.527 144.886 284 142.125C287.197 140.326 290.424 140.419 294 141Z" fill="#F7F7F7"/>
<path d="M337.207 140.789C337.799 140.859 338.39 140.928 339 141C339.66 142.32 340.32 143.64 341 145C340.374 144.977 339.747 144.954 339.102 144.93C338.284 144.912 337.467 144.894 336.625 144.875C335.407 144.84 335.407 144.84 334.164 144.805C331.787 144.786 331.787 144.786 330 147C329.49 152.883 329.49 152.883 332 158C334.437 158.364 334.437 158.364 337.125 158.188C338.035 158.16 338.945 158.133 339.883 158.105C340.582 158.071 341.28 158.036 342 158C342 158.66 342 159.32 342 160C337.994 162.671 334.71 162.707 330 162C326.968 159.802 326.183 158.55 325 155C324.557 150.498 324.309 147.303 326.938 143.5C330.666 140.456 332.564 140.471 337.207 140.789Z" fill="#F7F7F7"/>
<path d="M219 131C220.32 131 221.64 131 223 131C223 141.23 223 151.46 223 162C221.68 162 220.36 162 219 162C219 151.77 219 141.54 219 131Z" fill="#F3F3F3"/>
<path d="M274 141C275.32 141 276.64 141 278 141C278 147.93 278 154.86 278 162C276.68 162 275.36 162 274 162C274 155.07 274 148.14 274 141Z" fill="#F8F8F8"/>
<path d="M255 161C258.3 161 261.6 161 265 161C265.33 162.32 265.66 163.64 266 165C262.327 167.449 260.336 167.315 256 167C255.34 166.34 254.68 165.68 254 165C254.33 163.68 254.66 162.36 255 161Z" fill="#ACADAD"/>
<path d="M256 144C258.333 143.958 260.667 143.959 263 144C264 145 264 145 264.188 147.438C264 150 264 150 262 152C259.5 152.25 259.5 152.25 257 152C256.34 151.34 255.68 150.68 255 150C255.375 146.875 255.375 146.875 256 144Z" fill="#AEAFAF"/>
<path d="M317 141C317.99 141 318.98 141 320 141C320 147.93 320 154.86 320 162C319.01 162 318.02 162 317 162C317 155.07 317 148.14 317 141Z" fill="#FEFEFE"/>
<path d="M258 141C261.96 141.33 265.92 141.66 270 142C270 142.66 270 143.32 270 144C269.01 144 268.02 144 267 144C267.041 145.114 267.082 146.227 267.125 147.375C267 151 267 151 265 153C264.01 153 263.02 153 262 153C262.33 150.36 262.66 147.72 263 145C261.02 144.34 259.04 143.68 257 143C257.33 142.34 257.66 141.68 258 141Z" fill="#FCFCFC"/>
<path d="M253 160C253.33 160 253.66 160 254 160C254.66 161.98 255.32 163.96 256 166C258.97 166 261.94 166 265 166C264.67 166.99 264.34 167.98 264 169C262.397 169.081 260.792 169.139 259.188 169.188C258.294 169.222 257.401 169.257 256.481 169.293C254 169 254 169 252.16 167.652C251 166 251 166 251.25 163.375C252 161 252 161 253 160Z" fill="#FCFCFC"/>
<path d="M274 132C275.32 132 276.64 132 278 132C278 133.65 278 135.3 278 137C276.35 136.67 274.7 136.34 273 136C273.33 134.68 273.66 133.36 274 132Z" fill="#F3F3F3"/>
<path d="M317 132C318.98 132.495 318.98 132.495 321 133C320.67 134.32 320.34 135.64 320 137C318.68 136.67 317.36 136.34 316 136C316.33 134.68 316.66 133.36 317 132Z" fill="#FAFAFA"/>
</svg>
