<svg width="247" height="336" viewBox="0 0 247 336" fill="none" xmlns="http://www.w3.org/2000/svg">
<path d="M228 113C241.883 124.876 244.457 138.196 247 156C247 165.9 247 175.8 247 186C227.2 186 207.4 186 187 186C186.625 168.187 186.625 168.187 186.522 162.637C186.336 154.261 185.966 146.191 184 138C182.396 137.917 180.792 137.833 179.188 137.75C178.294 137.704 177.401 137.657 176.48 137.609C173.91 137.777 173.91 137.777 172.238 139.641C169.909 144.079 169.875 148.899 169.866 153.831C169.862 154.972 169.858 156.113 169.853 157.288C169.854 158.526 169.854 159.763 169.855 161.039C169.851 162.353 169.848 163.668 169.845 165.022C169.836 168.617 169.833 172.212 169.833 175.807C169.832 178.056 169.83 180.305 169.827 182.554C169.818 190.409 169.814 198.264 169.815 206.119C169.815 213.427 169.805 220.735 169.789 228.044C169.776 234.33 169.771 240.616 169.771 246.903C169.771 250.652 169.769 254.402 169.758 258.151C169.746 262.335 169.751 266.519 169.757 270.703C169.751 271.936 169.746 273.17 169.74 274.441C169.519 284.863 169.519 284.863 173.688 294.062C177.143 295.463 179.448 294.969 183 294C190.499 286.062 188.423 270.054 188.625 259.75C188.663 258.118 188.702 256.487 188.742 254.855C188.837 250.904 188.921 246.952 189 243C185.04 243 181.08 243 177 243C177 231.12 177 219.24 177 207C200.1 207 223.2 207 247 207C247 247.59 247 288.18 247 330C234.46 330 221.92 330 209 330C207.35 326.04 205.7 322.08 204 318C203.67 317.67 203.34 317.34 203 317C202.564 317.519 202.129 318.039 201.68 318.574C194.549 326.924 187.171 333.355 176 335C164.756 335.801 154.533 335.369 144 331C143.144 330.673 142.288 330.345 141.406 330.008C126.93 323.732 117.78 311.092 112.078 296.895C107.631 282.39 108.69 266.691 108.699 251.719C108.696 249.731 108.693 247.743 108.69 245.755C108.679 239.513 108.678 233.271 108.684 227.028C108.69 220.654 108.678 214.28 108.657 207.905C108.639 202.378 108.633 196.85 108.636 191.323C108.638 188.046 108.634 184.769 108.622 181.492C108.452 131.969 108.452 131.969 124.398 115.383C133.243 107.282 142.44 102.252 154 99C154.843 98.7551 155.686 98.5101 156.555 98.2578C180.67 92.6334 208.502 97.9436 228 113Z" fill="#080808"/>
<path d="M0 0C19.8 0 39.6 0 60 0C60 60.06 60 120.12 60 182C71.88 182 83.76 182 96 182C96 197.18 96 212.36 96 228C64.32 228 32.64 228 0 228C0 152.76 0 77.52 0 0Z" fill="#080808"/>
<path d="M194 1C232.936 1 232.936 1 239 6.9375C241.79 11.2091 242.125 14.3463 242.161 19.3918C242.171 20.4701 242.18 21.5483 242.19 22.6593C242.194 23.8197 242.199 24.9802 242.203 26.1758C242.209 27.3743 242.215 28.5728 242.22 29.8077C242.23 32.3437 242.236 34.8797 242.24 37.4158C242.25 41.2872 242.281 45.158 242.312 49.0293C242.319 51.4948 242.324 53.9603 242.328 56.4258C242.34 57.5802 242.353 58.7345 242.366 59.9239C242.349 66.0592 242.05 70.618 239 76C227.788 86.5114 204.64 80 194 80C194 53.93 194 27.86 194 1ZM215 15C215 31.83 215 48.66 215 66C217.475 65.505 217.475 65.505 220 65C220.926 62.2227 221.131 60.5364 221.145 57.668C221.152 56.797 221.158 55.926 221.165 55.0286C221.166 54.091 221.167 53.1535 221.168 52.1875C221.171 51.2222 221.175 50.257 221.178 49.2625C221.183 47.2215 221.185 45.1806 221.185 43.1396C221.187 40.0122 221.206 36.8852 221.225 33.7578C221.228 31.776 221.23 29.7943 221.23 27.8125C221.238 26.8749 221.245 25.9374 221.252 24.9714C221.249 24.1004 221.246 23.2294 221.243 22.332C221.245 21.1831 221.245 21.1831 221.247 20.011C221.114 17.6845 221.114 17.6845 219 15C217.68 15 216.36 15 215 15Z" fill="#080808"/>
<path d="M144 1C159.18 1 174.36 1 190 1C190 6.28 190 11.56 190 17C186.04 17 182.08 17 178 17C178 37.79 178 58.58 178 80C170.74 80 163.48 80 156 80C156 59.21 156 38.42 156 17C152.04 17 148.08 17 144 17C144 11.72 144 6.44 144 1Z" fill="#080808"/>
<path d="M116 1C122.93 1 129.86 1 137 1C137 21.79 137 42.58 137 64C140.96 64 144.92 64 149 64C149 69.28 149 74.56 149 80C138.11 80 127.22 80 116 80C116 53.93 116 27.86 116 1Z" fill="#080808"/>
</svg>
