<svg width="639" height="233" viewBox="0 0 639 233" fill="none" xmlns="http://www.w3.org/2000/svg">
<path d="M0 28C52.8 28 105.6 28 160 28C160 80.47 160 132.94 160 187C107.2 187 54.4 187 0 187C0 134.53 0 82.06 0 28Z" fill="#8C8C8C"/>
<path d="M172 46C172.99 46 173.98 46 175 46C175.033 46.8728 175.066 47.7456 175.1 48.6449C175.421 57.0904 175.743 65.5358 176.066 73.9812C176.238 78.4746 176.41 82.968 176.58 87.4615C177.547 112.993 177.547 112.993 178.645 138.52C178.692 139.567 178.739 140.614 178.788 141.694C178.996 146.273 179.211 150.852 179.441 155.43C179.951 166.178 180.042 176.908 180.021 187.667C180.019 189.16 180.018 190.653 180.016 192.146C180.013 195.764 180.007 199.382 180 203C163.221 203.658 146.442 204.31 129.663 204.956C121.87 205.256 114.076 205.558 106.282 205.864C99.4766 206.131 92.6707 206.395 85.8646 206.655C82.2726 206.792 78.6808 206.931 75.0891 207.074C57.7177 207.765 40.3861 208.153 23 208C23 203.71 23 199.42 23 195C40.3548 194.875 57.6572 195.251 75 195.875C77.5937 195.966 80.1873 196.056 82.781 196.146C87.4647 196.31 92.1484 196.474 96.8319 196.641C104.302 196.907 111.773 197.162 119.243 197.41C124.441 197.582 129.639 197.759 134.836 197.936C137.313 198.02 139.79 198.103 142.267 198.184C145.7 198.297 149.133 198.415 152.566 198.535C154.095 198.584 154.095 198.584 155.654 198.633C156.584 198.666 157.513 198.7 158.471 198.735C159.278 198.762 160.085 198.789 160.917 198.817C163 199 163 199 166 200C166.033 199.005 166.066 198.01 166.1 196.985C168.913 112.565 168.913 112.565 170.004 82.4815C170.084 80.2649 170.163 78.0482 170.241 75.8315C170.348 72.8068 170.458 69.7823 170.57 66.7578C170.599 65.9159 170.628 65.074 170.658 64.2066C170.891 58.115 171.401 52.066 172 46Z" fill="#8E8E8E"/>
<path d="M235 0C236.32 0 237.64 0 239 0C239 76.89 239 153.78 239 233C237.68 233 236.36 233 235 233C235 156.11 235 79.22 235 0Z" fill="#8C8C8C"/>
<path d="M408 37.0004C413.437 39.4168 416.807 43.528 419 49.0004C419.967 54.9151 419.489 59.9987 416 65.0004C411.621 69.2975 408.446 71.1753 402.312 71.3754C397.329 71.3217 394.12 70.8494 390.336 67.5356C385.896 62.4343 385.451 57.13 385.648 50.5864C386.332 45.5589 388.946 42.9285 392.625 39.6879C397.527 36.2046 402.117 36.4254 408 37.0004Z" fill="#FDFDFD"/>
<path d="M580.812 166.625C584.455 169.339 586.166 170.819 588 175C588.729 180.835 589.104 186.812 586.25 192.125C583.385 195.785 581.391 197.536 577 199C571.84 199.494 567.407 199.625 562.625 197.5C557.85 192.953 554.749 188.753 554.375 182C554.704 175.713 557.553 171.298 562.062 167.062C567.661 163.992 575.133 163.675 580.812 166.625Z" fill="#FCFCFC"/>
<path d="M362.812 166.625C366.455 169.339 368.166 170.819 370 175C370.729 180.835 371.104 186.812 368.25 192.125C365.385 195.785 363.391 197.536 359 199C353.84 199.494 349.407 199.625 344.625 197.5C339.85 192.953 336.749 188.753 336.375 182C336.704 175.713 339.553 171.298 344.062 167.062C349.661 163.992 357.133 163.675 362.812 166.625Z" fill="#FCFCFC"/>
<path d="M342 37C356 37 356 37 362 40C364.492 43.7374 364.458 45.5733 364 50C361.921 53.2262 360.2 54.8669 357 57C357.722 57.9268 358.444 58.8537 359.188 59.8086C360.125 61.0181 361.063 62.2278 362 63.4375C362.477 64.0492 362.954 64.6608 363.445 65.291C367 69.8867 367 69.8867 367 71C364.875 71.4375 364.875 71.4375 362 71C358.642 68.0373 356.259 64.4238 353.938 60.625C352.029 57.4229 352.029 57.4229 347 57C347 61.62 347 66.24 347 71C345.35 71 343.7 71 342 71C342 59.78 342 48.56 342 37Z" fill="#959595"/>
<path d="M298 37C312 37 312 37 318 40C320.682 44.0231 320.688 47.2722 320 52C317.886 55.4989 316.883 56.7058 313 58C309.329 58.1328 305.675 58.0432 302 58C302 62.29 302 66.58 302 71C300.68 71 299.36 71 298 71C298 59.78 298 48.56 298 37Z" fill="#909090"/>
<path d="M611 165C612.32 165 613.64 165 615 165C617.043 167.203 617.043 167.203 619.188 170.25C619.971 171.344 620.755 172.438 621.539 173.531C622.141 174.384 622.141 174.384 622.755 175.254C624.803 178.127 626.937 180.934 629.062 183.75C630.362 185.482 631.661 187.215 633 189C633.33 181.08 633.66 173.16 634 165C635.65 165 637.3 165 639 165C639 176.22 639 187.44 639 199C633.375 197.875 633.375 197.875 631.098 194.902C630.599 194.265 630.101 193.627 629.588 192.971C629.085 192.3 628.581 191.629 628.062 190.938C627.563 190.294 627.063 189.65 626.549 188.986C622.978 184.366 619.503 179.671 616 175C615.67 182.92 615.34 190.84 615 199C613.68 199 612.36 199 611 199C611 187.78 611 176.56 611 165Z" fill="#969696"/>
<path d="M408 37.0004C413.437 39.4168 416.807 43.528 419 49.0004C419.967 54.9151 419.489 59.9987 416 65.0004C411.621 69.2975 408.446 71.1753 402.312 71.3754C397.329 71.3217 394.12 70.8494 390.336 67.5356C385.896 62.4343 385.451 57.13 385.648 50.5864C386.332 45.5589 388.946 42.9285 392.625 39.6879C397.527 36.2046 402.117 36.4254 408 37.0004ZM392 46.0004C390.662 48.677 390.794 50.8248 390.75 53.8129C390.724 54.8506 390.698 55.8883 390.672 56.9575C391.046 60.4262 391.924 62.2215 394 65.0004C398.242 67.8284 402.019 67.7816 407 67.0004C410.123 65.3203 412.392 63.2171 414 60.0004C414.554 54.0725 414.546 49.0138 411 44.0004C407.613 41.0975 404.467 40.4184 400 40.5707C396.389 41.3465 394.547 43.3909 392 46.0004Z" fill="#929292"/>
<path d="M580.812 166.625C584.455 169.339 586.166 170.819 588 175C588.729 180.835 589.104 186.812 586.25 192.125C583.385 195.785 581.391 197.536 577 199C571.84 199.494 567.407 199.625 562.625 197.5C557.85 192.953 554.749 188.753 554.375 182C554.704 175.713 557.553 171.298 562.062 167.062C567.661 163.992 575.133 163.675 580.812 166.625ZM562 173C559.456 177.267 559.453 181.149 560 186C561.515 190.089 562.986 193.098 567 195C571.266 195.576 574.852 195.449 578.875 193.875C582.051 191.072 583.668 188.277 584.285 184.043C584.492 179.35 583.744 175.933 581 172C574.638 167.561 567.556 167.117 562 173Z" fill="#929292"/>
<path d="M362.812 166.625C366.455 169.339 368.166 170.819 370 175C370.729 180.835 371.104 186.812 368.25 192.125C365.385 195.785 363.391 197.536 359 199C353.84 199.494 349.407 199.625 344.625 197.5C339.85 192.953 336.749 188.753 336.375 182C336.704 175.713 339.553 171.298 344.062 167.062C349.661 163.992 357.133 163.675 362.812 166.625ZM344 173C341.456 177.267 341.453 181.149 342 186C343.515 190.089 344.986 193.098 349 195C353.266 195.576 356.852 195.449 360.875 193.875C364.051 191.072 365.668 188.277 366.285 184.043C366.492 179.35 365.744 175.933 363 172C356.638 167.561 349.556 167.117 344 173Z" fill="#929292"/>
<path d="M67 145C68.32 145.33 69.64 145.66 71 146C71.33 146.66 71.66 147.32 72 148C72.5569 147.505 73.1137 147.01 73.6875 146.5C76.4867 144.685 77.729 144.346 81 145C83.375 146.938 83.375 146.938 85 150C85.4614 155.976 83.8338 160.377 80 165C76.5434 167.305 75.0514 167.259 71 167C70.34 166.67 69.68 166.34 69 166C68.67 168.64 68.34 171.28 68 174C66.68 174 65.36 174 64 174C64.99 164.43 65.98 154.86 67 145Z" fill="#F4F4F4"/>
<path d="M433 165C434.32 165 435.64 165 437 165C437.015 165.671 437.029 166.341 437.044 167.032C437.119 170.084 437.215 173.136 437.312 176.188C437.335 177.243 437.358 178.298 437.381 179.385C437.416 180.406 437.452 181.428 437.488 182.48C437.514 183.418 437.541 184.355 437.568 185.321C438.124 188.771 439.51 191.51 442 194C447.876 194.463 447.876 194.463 453 192C454.016 188.952 454.198 186.653 454.316 183.457C454.358 182.384 454.4 181.311 454.443 180.205C454.483 179.086 454.522 177.966 454.562 176.812C454.606 175.681 454.649 174.55 454.693 173.385C454.799 170.59 454.901 167.795 455 165C456.65 165 458.3 165 460 165C460.087 168.875 460.14 172.749 460.187 176.625C460.213 177.719 460.238 178.814 460.264 179.941C460.329 187.127 459.756 191.727 455 197.375C450.422 199.855 446.094 199.629 441 199C436.678 197.289 435.058 195.096 433 191C432.659 188.046 432.659 188.046 432.707 184.824C432.717 183.667 432.726 182.51 432.736 181.318C432.761 180.12 432.787 178.922 432.812 177.688C432.826 176.47 432.839 175.252 432.853 173.998C432.889 170.998 432.938 167.999 433 165Z" fill="#939393"/>
<path d="M342 101C348.6 101 355.2 101 362 101C362 102.32 362 103.64 362 105C356.72 105 351.44 105 346 105C346 108.63 346 112.26 346 116C350.29 116 354.58 116 359 116C359 117.32 359 118.64 359 120C354.71 120 350.42 120 346 120C346 123.63 346 127.26 346 131C351.28 131 356.56 131 362 131C362 132.32 362 133.64 362 135C355.4 135 348.8 135 342 135C342 123.78 342 112.56 342 101Z" fill="#919191"/>
<path d="M405.148 101.672C406.795 102.384 408.402 103.184 410 104C409.67 105.32 409.34 106.64 409 108C407.762 107.505 407.762 107.505 406.5 107C402.236 105.782 399.43 105.578 395 106C392.19 107.794 390.491 109.019 389 112C388.877 113.956 388.824 115.916 388.812 117.875C388.798 118.924 388.784 119.974 388.77 121.055C388.999 123.994 389.365 125.577 391 128C395.25 130.834 399.012 130.413 404 130C406.98 129.149 406.98 129.149 409 128C409.66 128.99 410.32 129.98 411 131C406.208 135.26 402.182 135.618 395.844 135.383C390.63 134.681 388.168 132.199 384.625 128.563C382.136 123.106 382.256 117.898 383 112C387.304 102.913 395.457 98.6412 405.148 101.672Z" fill="#939393"/>
<path d="M312 165C314.562 166.5 314.562 166.5 316 168C315.67 168.99 315.34 169.98 315 171C314.505 170.835 314.01 170.67 313.5 170.5C309.937 169.787 306.635 169.881 303 170C301.753 171.051 301.753 171.051 301.625 173.375C301.712 176.147 301.712 176.147 304 177.563C305.679 178.367 307.359 179.17 309.043 179.965C309.751 180.306 310.458 180.648 311.188 181C311.862 181.309 312.536 181.619 313.23 181.938C315 183 315 183 317 186C317.503 190.624 316.862 193.32 314 197C309.583 199.75 305.047 199.563 300 199C296.875 197.5 296.875 197.5 295 196C295.66 194.68 296.32 193.36 297 192C297.563 192.326 298.127 192.652 298.707 192.988C301.242 194.107 302.935 194.238 305.688 194.188C306.869 194.178 306.869 194.178 308.074 194.168C310.007 194.207 310.007 194.207 311 193C311.368 190.672 311.702 188.338 312 186C311.336 185.83 310.672 185.66 309.988 185.484C299.943 182.727 299.943 182.727 297 179C296.231 175.822 296.22 173.176 297 170C301.174 164.755 305.459 163.808 312 165Z" fill="#939393"/>
<path d="M480 165C488.91 165 497.82 165 507 165C507 166.32 507 167.64 507 169C503.37 169 499.74 169 496 169C496 178.9 496 188.8 496 199C494.35 199 492.7 199 491 199C491 189.1 491 179.2 491 169C487.37 169 483.74 169 480 169C480 167.68 480 166.36 480 165Z" fill="#959595"/>
<path d="M294 101C302.91 101 311.82 101 321 101C321 102.32 321 103.64 321 105C317.37 105 313.74 105 310 105C310 114.9 310 124.8 310 135C308.35 135 306.7 135 305 135C305 125.1 305 115.2 305 105C301.37 105 297.74 105 294 105C294 103.68 294 102.36 294 101Z" fill="#959595"/>
<path d="M393 165C394.65 165 396.3 165 398 165C398 174.9 398 184.8 398 195C402.62 195 407.24 195 412 195C412 196.32 412 197.64 412 199C405.73 199 399.46 199 393 199C393 187.78 393 176.56 393 165Z" fill="#949494"/>
<path d="M302 40.9996C310.04 40.5196 310.04 40.5196 314.125 42.5621C316 44.9996 316 44.9996 316.125 48.5621C315 51.9996 315 51.9996 312.938 53.9371C309.072 55.3354 306.098 55.208 302 54.9996C302 50.3796 302 45.7596 302 40.9996Z" fill="#F8F8F8"/>
<path d="M528 165C529.65 165 531.3 165 533 165C533 176.22 533 187.44 533 199C531.35 199 529.7 199 528 199C528 187.78 528 176.56 528 165Z" fill="#969696"/>
<path d="M130 145C130.99 145.66 131.98 146.32 133 147C133 147.66 133 148.32 133 149C130.36 149 127.72 149 125 149C124.34 150.32 123.68 151.64 123 153C123.928 153.269 124.856 153.537 125.812 153.813C130.523 155.568 130.523 155.568 132 158C131.871 161.091 131.63 163.175 129.73 165.664C127.516 167.374 126.21 167.403 123.438 167.375C122.652 167.383 121.867 167.391 121.059 167.399C120.379 167.267 119.7 167.136 119 167C118.34 166.01 117.68 165.02 117 164C120.38 162.96 123.478 162.92 127 163C127 161.68 127 160.36 127 159C125.546 158.289 125.546 158.289 124.062 157.563C121 156 121 156 120 155C119.604 151.437 119.573 149.624 121.625 146.625C124.664 144.546 126.384 144.539 130 145Z" fill="#F3F3F3"/>
<path d="M101 139C101.66 139 102.32 139 103 139C103 141.31 103 143.62 103 146C104.65 146 106.3 146 108 146C108 146.99 108 147.98 108 149C106.02 149 104.04 149 102 149C101.67 153.95 101.34 158.9 101 164C102.65 163.67 104.3 163.34 106 163C105.67 164.32 105.34 165.64 105 167C102.125 167.125 102.125 167.125 99 167C98.34 166.34 97.68 165.68 97 165C97.0175 162.244 97.1386 159.612 97.375 156.875C97.4317 156.121 97.4884 155.367 97.5469 154.59C97.6884 152.726 97.843 150.863 98 149C97.34 149 96.68 149 96 149C96 148.01 96 147.02 96 146C96.99 146 97.98 146 99 146C99.66 143.69 100.32 141.38 101 139Z" fill="#F5F5F5"/>
<path d="M80 149C81 150 81 150 81.0195 151.891C80.5724 156.986 80.0756 160.49 76 164C73.3125 164.375 73.3125 164.375 71 164C70 163 70 163 69.6875 159.312C69.7271 154.907 71.1715 152.411 74 149C76.5025 147.749 77.403 148.162 80 149Z" fill="#919191"/>
<path d="M347 41C348.258 40.9794 349.516 40.9588 350.812 40.9375C351.52 40.9259 352.228 40.9143 352.957 40.9023C355 41 355 41 358 42C359.399 44.7987 359.253 46.905 359 50C357.777 51.6797 357.777 51.6797 356 53C353.738 53.293 353.738 53.293 351.312 53.1875C349.889 53.1256 348.466 53.0637 347 53C347 49.04 347 45.08 347 41Z" fill="#FDFDFD"/>
</svg>
