<svg width="428" height="184" viewBox="0 0 428 184" fill="none" xmlns="http://www.w3.org/2000/svg">
<path d="M210 106C245.938 106 245.938 106 254.125 114.062C257.625 118.425 258.367 122.11 258.27 127.597C257.445 134.944 253.128 139.238 247.609 143.75C247.078 144.162 246.547 144.575 246 145C247.021 145.866 247.021 145.866 248.062 146.75C252.379 151.029 255.249 156.633 258 162C258 162.66 258 163.32 258 164C258.66 164 259.32 164 260 164C260.094 163.2 260.187 162.399 260.284 161.575C261.184 157.079 262.765 153.047 264.457 148.797C264.801 147.919 265.146 147.041 265.5 146.137C266.599 143.339 267.706 140.544 268.812 137.75C269.545 135.887 270.278 134.023 271.01 132.16C272.678 127.918 274.349 123.676 276.032 119.44C276.724 117.697 277.411 115.951 278.095 114.205C278.452 113.297 278.81 112.389 279.178 111.454C279.666 110.211 279.666 110.211 280.163 108.943C281 107 281 107 282 106C284.53 105.927 287.033 105.907 289.562 105.937C290.629 105.944 290.629 105.944 291.717 105.951C293.478 105.963 295.239 105.981 297 106C300.438 112.545 303.139 119.25 305.766 126.156C306.155 127.17 306.544 128.184 306.945 129.229C308.384 132.984 309.817 136.742 311.25 140.5C314.467 148.915 317.685 157.33 321 166C321.33 146.2 321.66 126.4 322 106C327.012 105.897 332.024 105.794 337.188 105.687C338.74 105.642 340.292 105.596 341.891 105.549C353.267 105.437 362.843 107.407 372 114.687C379.395 122.082 381.481 128.691 381.625 139C381.491 149.254 379.195 155.697 372.312 163.375C366.142 169.171 357.779 172.057 349.371 172.193C348.46 172.209 347.549 172.225 346.61 172.241C342.477 172.286 338.343 172.327 334.21 172.35C332.026 172.367 329.843 172.394 327.66 172.432C324.511 172.487 321.364 172.509 318.215 172.523C317.237 172.546 316.259 172.569 315.251 172.592C312.743 172.584 310.455 172.51 308 172C304.361 168.325 303.616 162.849 302 158C293.75 158 285.5 158 277 158C276.402 159.939 275.804 161.877 275.188 163.875C273.375 169.75 273.375 169.75 270 172C266.248 172.563 262.477 172.555 258.688 172.625C257.654 172.683 256.621 172.741 255.557 172.801C248.133 172.924 248.133 172.924 245.084 170.436C243.495 168.368 242.234 166.296 241 164C240.609 163.355 240.219 162.71 239.817 162.046C238.728 160.24 237.701 158.411 236.688 156.562C234.67 152.539 234.67 152.539 232 149C228.535 148.505 228.535 148.505 225 148C225 155.92 225 163.84 225 172C220.05 172 215.1 172 210 172C210 150.22 210 128.44 210 106Z" fill="#050505"/>
<path d="M110 23.9998C109.053 24.4755 109.053 24.4755 108.086 24.9608C80.9712 39.1042 58.079 60.6405 46 88.9998C45.5669 89.9898 45.1337 90.9798 44.6875 91.9998C39.6989 105.857 39.6331 124.98 44 139C44.3442 140.141 44.6884 141.281 45.043 142.457C50.3931 158.142 59.9188 171.925 74 181C74 181.33 74 181.66 74 182C51.23 182 28.46 182 5 182C1.3658 171.097 0.674293 160.432 0.75 149C0.738398 147.248 0.738398 147.248 0.726562 145.461C0.788257 117.637 10.8352 91.9565 29 70.9998C29.6626 70.2045 30.3252 69.4091 31.0078 68.5897C44.7997 52.533 87.4048 16.4681 110 23.9998Z" fill="#C6463F"/>
<path d="M225 34C265.935 34 265.935 34 276.352 44.1094C283.137 51.892 285.444 59.4756 285.246 69.7539C284.575 78.6014 280.678 86.887 273.961 92.793C259.184 103.367 243.152 100 225 100C225 78.22 225 56.44 225 34Z" fill="#080808"/>
<path d="M323 107C328.528 106.876 334.055 106.752 339.75 106.625C342.327 106.543 342.327 106.543 344.956 106.459C355.686 106.261 364.256 107.717 372.489 115.29C379.43 122.481 381.574 129.026 381.5 138.812C381.494 139.7 381.487 140.588 381.48 141.503C381.221 150.809 378.491 156.482 372.312 163.375C359.075 175.809 339.581 172 323 172C323 150.55 323 129.1 323 107Z" fill="#020202"/>
<path d="M71 66C72.2183 69.6547 71.6248 71.1969 70.625 74.875C65.5579 93.7703 66.6195 113.047 75.8555 130.508C84.4238 145.058 97.4989 154.809 112 163C112.574 163.325 113.148 163.649 113.739 163.984C123.631 169.47 133.981 173.342 144.659 177.031C145.696 177.389 146.733 177.748 147.801 178.117C148.731 178.433 149.66 178.749 150.618 179.074C153 180 153 180 156 182C147.984 182.305 139.971 182.534 131.951 182.674C128.224 182.741 124.501 182.831 120.777 182.981C104.071 183.633 90.136 183.895 76.6731 172.499C75.4348 171.347 74.2102 170.181 73 169C72.3565 168.38 71.7129 167.76 71.0498 167.121C61.0976 157.359 55.6656 146.321 52 133C51.8212 132.373 51.6423 131.746 51.458 131.1C49.0209 119.925 50.0605 105.635 54 95C54.5859 93.3487 54.5859 93.3487 55.1836 91.6641C58.7658 82.4702 63.9458 73.0542 71 66Z" fill="#D9D9D9"/>
<path d="M161 34C165.95 34 170.9 34 176 34C176 43.24 176 52.48 176 62C184.91 62 193.82 62 203 62C203 53.09 203 44.18 203 35C207.95 35 212.9 35 218 35C218 56.45 218 77.9 218 100C213.05 100 208.1 100 203 100C203 90.76 203 81.52 203 72C194.09 72 185.18 72 176 72C176 81.24 176 90.48 176 100C171.05 100 166.1 100 161 100C161 78.22 161 56.44 161 34Z" fill="#020202"/>
<path d="M74 0C107 0.99 140 1.98 174 3C174 3.66 174 4.32 174 5C172.138 6.58432 170.274 8.04862 168.312 9.5C167.111 10.4061 165.909 11.3123 164.707 12.2188C164.089 12.6815 163.471 13.1443 162.834 13.6211C160.038 15.7233 157.269 17.862 154.5 20C153.417 20.8335 152.333 21.6669 151.25 22.5C150.714 22.9125 150.178 23.325 149.625 23.75C131.75 37.5 113.875 51.25 96 65C95.67 64.34 95.34 63.68 95 63C95.9211 60.8555 95.9211 60.8555 97.3945 58.1875C98.2034 56.7093 98.2034 56.7093 99.0286 55.2012C99.9116 53.6166 99.9116 53.6166 100.812 52C101.402 50.9281 101.991 49.8563 102.598 48.752C104.391 45.4968 106.194 42.2479 108 39C109.032 37.1356 110.063 35.271 111.094 33.4062C113.386 29.2654 115.689 25.1308 118 21C117.449 20.83 116.899 20.66 116.331 20.4848C110.804 18.719 105.66 16.5625 100.465 13.9883C99.7007 13.6152 98.9366 13.2421 98.1493 12.8577C95.7428 11.6812 93.3401 10.497 90.9375 9.3125C89.2926 8.50665 87.6474 7.7013 86.002 6.89648C81.9984 4.93689 77.9983 2.97037 74 1C74 0.67 74 0.34 74 0Z" fill="#C74841"/>
<path d="M385 106C399.19 106 413.38 106 428 106C428 109.96 428 113.92 428 118C419.09 118 410.18 118 401 118C401 122.95 401 127.9 401 133C407.6 133 414.2 133 421 133C421 136.96 421 140.92 421 145C414.4 145 407.8 145 401 145C401 149.95 401 154.9 401 160C409.91 160 418.82 160 428 160C428 163.96 428 167.92 428 172C413.81 172 399.62 172 385 172C385 150.22 385 128.44 385 106Z" fill="#0A0A0A"/>
<path d="M156 106C173.16 106 190.32 106 208 106C208 109.96 208 113.92 208 118C202.06 118 196.12 118 190 118C190 135.82 190 153.64 190 172C185.05 172 180.1 172 175 172C175 154.18 175 136.36 175 118C168.73 118 162.46 118 156 118C156 114.04 156 110.08 156 106Z" fill="#050505"/>
<path d="M337 118C354.974 118 354.974 118 360 122C364.763 126.888 366.288 131.558 366.312 138.312C366.183 144.688 365.837 150.005 361.312 154.781C352.928 162.187 351.576 160 337 160C337 146.14 337 132.28 337 118Z" fill="#F8F8F8"/>
<path d="M241 46C258.894 46 258.894 46 263.711 50.6523C269.383 56.9497 269.427 62.871 269.277 71.0273C268.941 75.845 268.178 79.3172 265 83C256.767 89.5524 252.951 88 241 88C241 74.14 241 60.28 241 46Z" fill="#FDFDFD"/>
<path d="M225 118C237.054 117.331 237.054 117.331 240.75 120C243.264 123.352 243.777 124.985 243.469 129.067C242.736 132.088 241.197 133.868 239 136C236.235 137.383 233.954 137.096 230.875 137.063C227.967 137.032 227.967 137.032 225 137C225 130.73 225 124.46 225 118Z" fill="#F5F5F5"/>
<path d="M289 121C292.25 124.25 293.146 128.588 294.625 132.875C294.95 133.786 295.275 134.698 295.609 135.637C295.916 136.517 296.223 137.398 296.539 138.305C296.96 139.511 296.96 139.511 297.389 140.742C298 143 298 143 298 147C292.39 147 286.78 147 281 147C282.638 137.993 285.87 129.574 289 121Z" fill="#F2F2F2"/>
</svg>
