<svg xmlns="http://www.w3.org/2000/svg" viewBox="0 0 239.31 106.71"><defs><style>.cls-1{fill:#898d8f;}.cls-2{fill:none;}</style></defs><g id="Шар_2" data-name="Шар 2"><g id="Calque_1" data-name="Calque 1"><polygon class="cls-1" points="99.73 26.62 99.73 25.75 105.13 25.75 105.13 26.62 102.92 26.62 102.92 34.72 101.94 34.72 101.94 26.62 99.73 26.62"/><polygon class="cls-1" points="110.72 25.75 111.7 25.75 111.7 29.52 116.77 29.52 116.77 25.75 117.75 25.75 117.75 34.72 116.77 34.72 116.77 30.4 111.7 30.4 111.7 34.72 110.72 34.72 110.72 25.75"/><polygon class="cls-1" points="124.33 25.75 130.01 25.75 130.01 26.62 125.32 26.62 125.32 29.44 129.97 29.44 129.97 30.31 125.32 30.31 125.32 33.85 129.97 33.85 129.97 34.72 124.33 34.72 124.33 25.75"/><path class="cls-1" d="M65.52,40.81H57.68L49.1,66.55h6.34l1.63-5.11h7.62c.19.59,1.59,5.11,1.59,5.11h7.54Zm1.27,25.1L65.2,60.79H56.57L54.94,65.9H50l8.15-24.44H65L72.9,65.9H66.79Z"/><path class="cls-1" d="M60.94,47.07c-.08.27-.18.57-.18.57l-2.85,8.94h6c-.19-.63-2.49-8-3-9.51m0,2.26c.57,1.87,1.78,5.75,2.05,6.6H58.82c.28-.86,1.51-4.73,2.12-6.6"/><path class="cls-1" d="M84.86,60.7V40.81H77.73V66.55H95.16V60.7Zm9.62,5.2H78.4V41.46h5.79V61.35H94.48Z"/><path class="cls-1" d="M119.66,40.81s-3.71,11.31-4.48,13.7c-.75-2.4-4.24-13.7-4.24-13.7H99.72V66.55h7V49.68c1.38,4.39,5.52,16.87,5.52,16.87h4.88s4.37-12.7,5.77-17v17h7V40.81Zm9.56,25.09h-5.65V46.79h-.49c-.13.4-6.46,19.11-6.46,19.11h-3.87l-6.26-19.11H106V65.9h-5.65V41.46h10l4.71,15.28,5-15.28h9.07Z"/><path class="cls-1" d="M154.47,44.44c-1.93-2.72-4.81-4.1-8.59-4.1a10.45,10.45,0,0,0-8.66,3.83,14.66,14.66,0,0,0-3,9.39,15.28,15.28,0,0,0,3,9.43,10.09,10.09,0,0,0,8.5,4c3.79,0,6.72-1.33,8.71-3.92a15.12,15.12,0,0,0,2.94-9.42,15.53,15.53,0,0,0-2.85-9.18m-.64,18.21c-1.88,2.46-4.54,3.65-8.16,3.65a9.31,9.31,0,0,1-7.95-3.7,14.59,14.59,0,0,1-2.83-9,14.1,14.1,0,0,1,2.86-9c1.91-2.41,4.57-3.58,8.13-3.58s6.22,1.25,8,3.81a15,15,0,0,1,2.73,8.82,14.47,14.47,0,0,1-2.81,9"/><path class="cls-1" d="M145.84,45.4c-3.29,0-5,2.77-5,8.23s1.66,8.26,5,8.26,4.81-2.77,4.81-8.24S149,45.4,145.84,45.4m0,15.84c-2.87,0-4.28-2.49-4.28-7.61s1.41-7.58,4.28-7.58,4.12,2.49,4.12,7.6-1.34,7.59-4.12,7.59"/><path class="cls-1" d="M179,55.37a7,7,0,0,0,4.35-6.65A7.84,7.84,0,0,0,182,44.3a7,7,0,0,0-3.39-2.76,15.33,15.33,0,0,0-5.22-.73H161.53V66.55h7V56.73h3.57c.22.57,4,9.82,4,9.82h7.76L179,55.37m-6.4.71h-4.71V65.9H162.2V41.46h11.17a14.85,14.85,0,0,1,5,.68,6.24,6.24,0,0,1,3.07,2.51,7.3,7.3,0,0,1,1.21,4.07c0,2.94-1.42,5-4.37,6.28l-.16.07c.22.49,4.72,10.83,4.72,10.83h-6.27s-3.84-9.47-4-9.83"/><path class="cls-1" d="M176.08,46.8a2.81,2.81,0,0,0-1.52-1.07,14.17,14.17,0,0,0-2.91-.19h-3.8v6.67h3.93a10.52,10.52,0,0,0,2.73-.25,3.15,3.15,0,0,0,1.57-1.16,3.23,3.23,0,0,0,.69-2,3.09,3.09,0,0,0-.69-2m-.54,3.62a2.46,2.46,0,0,1-1.24.91,9.76,9.76,0,0,1-2.52.23h-3.25V46.19h3.12a14.31,14.31,0,0,1,2.74.17,2.19,2.19,0,0,1,1.15.84,2.4,2.4,0,0,1,.55,1.56,2.63,2.63,0,0,1-.55,1.66"/><path class="cls-1" d="M207.59,46.45V40.81H188.12V66.55h19.47V60.7H195.26V56.27h9.66V50.62h-9.66V46.45Zm-3.35,4.82v4.34h-9.66v5.74H206.9V65.9H188.79V41.46H206.9V45.8H194.58v5.47Z"/><path class="cls-1" d="M46.2,46.35a12.91,12.91,0,0,0-4.42-4.21c-1.67-.89-4.1-1.33-7.44-1.33H26V66.55h9.4c4,0,7.13-1.25,9.4-3.73a13.2,13.2,0,0,0,3.4-9.21,12.79,12.79,0,0,0-1.95-7.26m-2,16a11.52,11.52,0,0,1-8.89,3.51H26.63V41.46h7.71c3.18,0,5.57.42,7.11,1.26a12,12,0,0,1,6,10.89,12.53,12.53,0,0,1-3.24,8.78"/><path class="cls-1" d="M40.68,49.21a6,6,0,0,0-2.36-2.75,6.77,6.77,0,0,0-3.37-.8H32.21V61.49h2.68A5.77,5.77,0,0,0,40,59.05a10.23,10.23,0,0,0,.7-9.84M39.41,58.7a5.06,5.06,0,0,1-4.52,2.14h-2V46.32H35a6.2,6.2,0,0,1,3,.7,5.35,5.35,0,0,1,2.08,2.46A8.89,8.89,0,0,1,41,53.42a9.24,9.24,0,0,1-1.54,5.28"/><path class="cls-1" d="M27.63,42.42V64.94h7.72c3.51,0,6.18-1,8.14-3.19a11.45,11.45,0,0,0,3-8.14A11,11,0,0,0,41,43.55c-1.39-.75-3.62-1.13-6.62-1.13ZM31.2,61.31V44.7H35a7.87,7.87,0,0,1,3.88.93,7,7,0,0,1,2.76,3.17,10.56,10.56,0,0,1,1,4.62,10.74,10.74,0,0,1-1.8,6.16,6.75,6.75,0,0,1-5.93,2.87H31.2Z"/><path class="cls-1" d="M58.9,42.42c-.46,1.4-6.65,20-7.5,22.52h2.79l1.64-5.11H66s1.22,4,1.59,5.11h4c-.81-2.53-6.8-21.11-7.26-22.52Zm2.51,2.79,3.83,12.33H56.56L57,56.06,60.49,45.2Z"/><polygon class="cls-1" points="93.48 62.31 83.18 62.31 83.18 42.42 79.4 42.42 79.4 64.94 93.48 64.94 93.48 62.31"/><path class="cls-1" d="M114.64,58.5c-1.25-4.07-4.59-14.9-5-16.08H101.4V64.94H105V45.87h2.24s5.74,17.57,6.21,19.07h2.4c.48-1.48,6.46-19.06,6.46-19.06h2.23V64.94h3.63V42.42H120.9c-.38,1.16-3.94,12-5.28,16.08Z"/><path class="cls-1" d="M138.55,45.15a13.17,13.17,0,0,0-2.65,8.41A13.66,13.66,0,0,0,138.53,62a8.35,8.35,0,0,0,7.14,3.31c3.27,0,5.68-1.06,7.35-3.26a13.56,13.56,0,0,0,2.62-8.46,13.94,13.94,0,0,0-2.56-8.27c-1.62-2.29-4-3.4-7.2-3.4a8.73,8.73,0,0,0-7.33,3.2m1.33,8.48a13.06,13.06,0,0,1,1.35-6.6,5.09,5.09,0,0,1,4.61-2.59,5,5,0,0,1,4.51,2.61,13.46,13.46,0,0,1,1.29,6.6,13.46,13.46,0,0,1-1.29,6.6,5,5,0,0,1-4.51,2.6c-2.72,0-6-1.6-6-9.22"/><path class="cls-1" d="M163.21,42.42V64.94h3.63V55.13h6.4l4,9.81h4.09c-1-2.32-4.52-10.37-4.52-10.37l1.05-.45c2.55-1.11,3.78-2.88,3.78-5.4a6.2,6.2,0,0,0-1.06-3.55A5.18,5.18,0,0,0,178,43.05a13.69,13.69,0,0,0-4.62-.63ZM166.84,52V44.57h4.81a15,15,0,0,1,3.16.22,3.9,3.9,0,0,1,2.07,1.42,4.06,4.06,0,0,1,.89,2.55,4.22,4.22,0,0,1-.88,2.61,4.11,4.11,0,0,1-2.09,1.51,11.26,11.26,0,0,1-3,.29h-4.94Z"/><polygon class="cls-1" points="189.8 42.42 189.8 64.94 205.9 64.94 205.9 62.32 193.58 62.32 193.58 54.65 203.24 54.65 203.24 52.23 193.58 52.23 193.58 44.84 205.9 44.84 205.9 42.42 189.8 42.42"/><polygon class="cls-1" points="209.99 41.06 209.27 41.06 209.27 40.81 211 40.81 211 41.06 210.28 41.06 210.28 43.05 209.99 43.05 209.99 41.06"/><polygon class="cls-1" points="211.41 40.81 211.8 40.81 212.49 42.69 213.17 40.81 213.57 40.81 213.57 43.05 213.29 43.05 213.29 41.18 213.29 41.18 212.61 43.05 212.36 43.05 211.69 41.18 211.68 41.18 211.68 43.05 211.41 43.05 211.41 40.81"/><path class="cls-1" d="M99.26,80.75H97.57V74.86h.87v-.22H95.87v.22h.78v5.89h-.78V81h4.73l.1-1.77h-.18c-.11.61-.48,1.56-1.26,1.56M29.39,74.86h.74v2.7H27.4v-2.7h.74v-.22h-2.4v.22h.74v5.89h-.74V81h2.4v-.21H27.4V77.84h2.73v2.91h-.74V81h2.39v-.21h-.73V74.86h.73v-.22H29.39ZM104,80.75h-1.14V77.82c.93,0,1.33.13,1.39,1.15h.21v-2.4h-.21c-.13,1-.44,1-1.39,1V74.86h1.23c.86,0,1.44.2,1.61,1.32h.21V74.64h-4.8v.22h.83v5.89h-.83V81H106l.12-1.77h-.24c-.25,1.4-.67,1.56-1.92,1.56M32.48,74.86h.82v5.89h-.82V81H35v-.21h-.82V74.86H35v-.22H32.48Zm43.37,1a1.27,1.27,0,0,1,1.34-1.15,1.69,1.69,0,0,1,1.61,1.4H79V74.64h-.13l-.36.27a2.74,2.74,0,0,0-1.24-.41,1.75,1.75,0,0,0-1.47.67,1.71,1.71,0,0,0-.39,1.08,1.67,1.67,0,0,0,.77,1.45c.14.09,1.61.58,2,.71.73.29.86.55.86,1.11a1.48,1.48,0,0,1-1.59,1.37,1.94,1.94,0,0,1-1.83-1.53h-.18V81h.14l.4-.41a2,2,0,0,0,1.45.53A2,2,0,0,0,79.44,79c0-2.57-3.59-1.56-3.59-3.13m11.23-1h.74v4.36h0l-2.69-4.58H83.27v.22H84v5.89h-.74V81H85v-.21h-.73v-5.7h0l3.55,6.06h.25V74.86h.72v-.22H87.08Zm-7,0h.81v5.89h-.81V81h2.55v-.21h-.82V74.86h.82v-.22H80.06ZM92.85,79h.91c0,1.07,0,1.94-1.33,1.94-1.5,0-1.7-1.22-1.7-2.85a6.66,6.66,0,0,1,.39-2.57,1.49,1.49,0,0,1,1.26-.75,1.88,1.88,0,0,1,1.92,1.61h.22V74.71h-.15l-.33.36a2.33,2.33,0,0,0-1.61-.57,3.13,3.13,0,0,0-2.77,3.26c0,1.82,1,3.35,2.73,3.35,1.92,0,2.38-1.11,2.44-2.16h.58v-.23H92.85Zm92.8-4.09h.74v2.7h-2.73v-2.7h.74v-.22H182v.22h.74v5.89H182V81h2.39v-.21h-.74V77.84h2.73v2.91h-.74V81H188v-.21h-.73V74.86H188v-.22h-2.39Zm-5.94,0h.74l-1.58,4.87h0l-1-2.87.73-2h.48v-.22h-5.72v.22H174l1.95,6.25h.27l1.14-3.21h0l1.05,3.21h.29l2-6.25h.71v-.22h-1.7Zm-3.3,4.86h0l-1.52-4.86h1.44l.9,2.65Zm1.31-3.11-.56-1.75h1.22l-.64,1.75ZM168,74.86h.74v2.7h-2.73v-2.7h.74v-.22h-2.4v.22h.74v5.89h-.74V81h2.4v-.21h-.74V77.84h2.73v2.91H168V81h2.39v-.21h-.74V74.86h.74v-.22H168Zm-6.62,6c-1.49,0-1.69-1.17-1.69-2.8a6.63,6.63,0,0,1,.39-2.56,1.48,1.48,0,0,1,1.26-.76c1,0,1.48.71,1.68,1.61h.22V74.72h-.14l-.32.28a2.24,2.24,0,0,0-1.4-.5,3.15,3.15,0,0,0-2.77,3.26c0,1.82,1,3.35,2.74,3.35a2.25,2.25,0,0,0,1.48-.53l.27.38h.25V79.24h-.22a2,2,0,0,1-1.75,1.6m-8.26-6.2-.1,1.83h.24c.18-.94.28-1.61,1.18-1.61h.64v5.89h-.78V81h2.49v-.21H156V74.86h.42c1,0,1.29.71,1.4,1.61h.24L158,74.64Zm-3.36-.14c-1.64,0-2.72,1.62-2.72,3.29s1.08,3.32,2.72,3.32,2.71-1.64,2.71-3.32-1.09-3.29-2.71-3.29m0,6.39c-1.31,0-1.64-1.14-1.64-3.09s.33-3.08,1.64-3.08,1.63,1.12,1.63,3.08-.33,3.09-1.63,3.09m56.93-6h.94l-1.51,2.84-1.6-2.84h.83v-.22h-2.56v.22h.71L205.36,78v2.72h-.83V81h2.59v-.21h-.84V78l1.65-3.17h.75v-.22h-2Zm-7.56,2.35,2.19-2.35h.7v-.22h-1.88v.22H201l-2.5,2.64c-.07.06-.11.11-.08.16l2.4,3.09h-.76V81h2.4v-.21h-.44Zm-.81-2.35h.73v-.22h-2.38v.22h.73v5.89h-.73V81h2.38v-.21h-.73Zm-9.62,0h.82v5.89h-.82V81h2.55v-.21h-.81V74.86h.81v-.22h-2.55ZM39,79h.91c0,1.07,0,1.94-1.33,1.94-1.5,0-1.7-1.22-1.7-2.85a6.66,6.66,0,0,1,.39-2.57,1.49,1.49,0,0,1,1.26-.75,1.88,1.88,0,0,1,1.92,1.61h.22V74.71h-.15l-.33.36a2.33,2.33,0,0,0-1.61-.57,3.13,3.13,0,0,0-2.77,3.26c0,1.82,1,3.35,2.73,3.35,1.92,0,2.38-1.11,2.44-2.16h.58v-.23H39Zm153.46-3.08a1.27,1.27,0,0,1,1.34-1.15,1.69,1.69,0,0,1,1.61,1.4h.19V74.64h-.13l-.36.27a2.74,2.74,0,0,0-1.25-.41,1.75,1.75,0,0,0-1.46.67,1.66,1.66,0,0,0-.39,1.08,1.68,1.68,0,0,0,.76,1.45c.15.09,1.62.58,2,.71.73.29.86.55.86,1.11A1.48,1.48,0,0,1,194,80.89a1.94,1.94,0,0,1-1.83-1.53H192V81h.13l.41-.41a2,2,0,0,0,1.45.53A1.94,1.94,0,0,0,196,79c0-2.57-3.58-1.56-3.58-3.13M69.28,74.64H66.75v.22h.73v5.89h-.73V81h2.52a2.7,2.7,0,0,0,2-.69,3.56,3.56,0,0,0,1-2.52,2.85,2.85,0,0,0-3-3.11M71,79.75a1.61,1.61,0,0,1-1.65,1h-.93V74.86h.71c2,0,2.1,1.37,2.1,2.71A6.58,6.58,0,0,1,71,79.75m73.1,1.09c-1.5,0-1.7-1.17-1.7-2.8a6.63,6.63,0,0,1,.39-2.56,1.5,1.5,0,0,1,1.26-.76c1,0,1.49.71,1.69,1.61h.21V74.72h-.14l-.32.28a2.19,2.19,0,0,0-1.39-.5,3.14,3.14,0,0,0-2.77,3.26c0,1.82,1,3.35,2.73,3.35a2.29,2.29,0,0,0,1.49-.53l.26.38H146V79.24h-.23a2,2,0,0,1-1.74,1.6m-79.85-6H65v4.36h0l-2.69-4.58H60.41v.22h.74v5.89h-.74V81h1.75v-.21h-.73v-5.7h0L65,81.11h.24V74.86H66v-.22H64.22Zm-12,5.89H50.51V74.86h.87v-.22H48.81v.22h.78v5.89h-.78V81h4.73l.1-1.77h-.18c-.11.61-.48,1.56-1.26,1.56m-6.52-5.89h.74v2.7H43.7v-2.7h.73v-.22H42v.22h.74v5.89H42V81h2.39v-.21H43.7V77.84h2.72v2.91h-.74V81h2.4v-.21h-.74V74.86h.74v-.22h-2.4Zm11.44-.3h-.36L54.7,80.75H54V81H55.8v-.21H55l.67-2.09h1.8l.66,2.09h-.77V81h2.39v-.21h-.67ZM55.74,78.4l.84-2.57h0l.78,2.57Zm58.18.9h0l-1.34-4.66h-1.89v.22h.71v5.89h-.71V81h1.71v-.21h-.71V75h0l1.77,6h.24l1.84-6h0v5.78h-.73V81h2.36v-.21h-.72V74.86h.72v-.22h-1.88Zm23-3.43a1.27,1.27,0,0,1,1.35-1.15,1.69,1.69,0,0,1,1.61,1.4h.19V74.64H140l-.36.27a2.7,2.7,0,0,0-1.24-.41,1.77,1.77,0,0,0-1.47.67,1.75,1.75,0,0,0,.38,2.53c.15.09,1.61.58,2,.71.73.29.87.55.87,1.11a1.49,1.49,0,0,1-1.6,1.37,1.93,1.93,0,0,1-1.82-1.53h-.18V81h.13l.41-.41a2,2,0,0,0,1.45.53,1.94,1.94,0,0,0,2-2.11c0-2.57-3.59-1.56-3.59-3.13m-8.24-1.23-.1,1.83h.24c.18-.94.28-1.61,1.17-1.61h.65v5.89h-.79V81h2.49v-.21h-.78V74.86H132c1,0,1.3.71,1.4,1.61h.25l-.07-1.83Zm-1,6.11H126V74.86h.88v-.22h-2.57v.22h.78v5.89h-.78V81H129l.11-1.77h-.18c-.12.61-.49,1.56-1.26,1.56M121,74.56h-.37l-2.06,6.19h-.74V81h1.84v-.21h-.81l.67-2.09h1.81l.65,2.09h-.77V81h2.39v-.21H123Zm-1.39,3.84.84-2.57h0l.77,2.57Z"/><rect class="cls-2" width="239.31" height="106.71"/></g></g></svg>