<svg xmlns="http://www.w3.org/2000/svg" viewBox="0 0 198.66 92.88"><defs><style>.cls-1{fill:#fff;}.cls-2{fill:#a48242;}.cls-3{fill:#00a8a2;}</style></defs><g id="Шар_2" data-name="Шар 2"><g id="Artwork"><path class="cls-1" d="M161.62,30c-.39,1.2-.78,2.41-1.18,3.61-4.24-1.38-8.48-2.74-12.73-4.11q3.54-11,7.11-21.95l3.66,1.18q-3,9.16-5.95,18.34ZM122.4,1.12q-2.88,7.58-5.73,15.14L113.73.35l-4-.35q2.42,11.79,4.81,23.59l2.87.25q4.45-11.17,9-22.36Zm8,22.38a7.45,7.45,0,0,0,4.84,3.25,7.91,7.91,0,0,0,1.6.17c3.72,0,6.67-2.53,7.51-6.51q1.56-7.44,3.13-14.88l-3.74-.78-3.09,14.72c-.48,2.31-1.9,3.67-3.79,3.66A4.17,4.17,0,0,1,136,23c-2.28-.47-3.35-2.43-2.79-5.11q1.53-7.35,3.07-14.72l-3.77-.78q-1.54,7.44-3.1,14.89A8.22,8.22,0,0,0,130.4,23.5Zm43.32-9.34q-4.42,10.67-8.83,21.33L168.44,37q4.4-10.67,8.83-21.32Zm21.54,10.08q-3.39,6.51-6.76,13-.42-8.47-.85-16.94l-3.07-1.58Q179.27,29,174,39.24l3.4,1.75,6.75-13.06.84,17L188,46.48Q193.33,36.24,198.66,26ZM78.19,1.1q1,7.28,1.94,14.54Q74.91,8.93,69.67,2.23l-3.43.46,3.09,22.87,3.8-.51L71.18,10.48Q76.4,17.2,81.62,23.92L85,23.47Q83.54,12,82,.6Zm-68,24.81,4.74-2.51L13.1,20.05,0,27l1.79,3.35,4.85-2.58.07.12,9,16.89L19.09,43Q14.57,34.49,10,26ZM53.76,5.4q-1,6.91-2,13.84Q47.39,13.8,43,8.36l-3.69,1q3.09,11.1,6.17,22.22l3.7-1Q47.28,23.79,45.39,17L52,24.87l2.51-.69c.53-3.38,1.07-6.75,1.61-10.13Q58,20.85,59.87,27.64l3.7-1q-3-11.11-6.11-22.24ZM25.49,14.65q8,9.18,15.92,18.37l-3.69,1.53L35,31.22l-7,2.91-.09,0,.42,4.3L24.64,40,22.69,15.82ZM26.62,21c.3,3.16.59,6.32.89,9.48l5-2.08.17-.07ZM99.79,0q3.87,11.52,7.72,23l-4,0-1.26-4.13-7.6,0h-.1c-.41,1.38-.83,2.76-1.24,4.14l-4,0Q93,11.57,96.75,0Zm1.43,15.37c-.94-3-1.87-6.06-2.81-9.08-.92,3-1.84,6-2.75,8.92l-.06.18Z"/><path class="cls-2" d="M99.6,91.78c15.55,0,30.43.2,44.13.55-13.7.36-28.58.55-44.13.55s-30.43-.19-44.13-.55C69.17,92,84,91.78,99.6,91.78Z"/><path class="cls-2" d="M38.93,50.23h0a.66.66,0,1,1-.66-.66.64.64,0,0,1,.49.23,163.91,163.91,0,0,1,45.65-11l0,.46A163.38,163.38,0,0,0,38.93,50.23Zm80.49-13.57a3.13,3.13,0,0,1-.2-1.78c.18-1.49.72-2.16,1.66-2.05,1.14.15,1.24,1.33,1.12,2.3-.18,1.46-.68,2.2-1.5,2.2h-.18A1.17,1.17,0,0,1,119.42,36.66Zm1-.29h0c.27,0,.48-.44.57-1.2s0-1.34-.27-1.37h0c-.27,0-.46.37-.54,1.06C120.07,35.83,120.15,36.33,120.44,36.37Zm3.86-.8.78,2.37v0l.7.1.66-4.44-.9-.13-.3,2.07-.73-2.2v0l-.8-.12-.66,4.45.92.13Zm5.85,3.26.93.18.66-3.48.89.17.17-.94-2.69-.51-.18.94.87.16Zm4.23-1,.89.19-.37,1.68v0l.92.2.93-4.35v0l-.92-.2-.37,1.73-.89-.19.36-1.68v0L134,35l-.93,4.35v0l.91.2Zm5.37,3L140,40v0l-1.57-.37.18-.76,1.15.28h0l.21-.9v0l-1.17-.28.18-.79,1.51.36h0l.22-.9v0L138.38,36h0l-1,4.32v0l2.42.58Zm4.49,1.19.48-1.71.88.25-.47,1.66v0l.86.24,0,0,1.21-4.28v0l-.86-.24h0l-.48,1.7-.88-.25.47-1.66v0l-.85-.24h0l-1.21,4.28v.05l.85.23ZM149.66,39v0l-.91-.28L147.47,43v0l.91.28Zm2.55,5.48.28-.88,0,0L151,43.11l1.07-3.31,0,0-.89-.28-1.36,4.23v0l2.36.76Zm3.53,1.21.31-.91-1.51-.52L155.69,41v0l-.88-.31-1.45,4.2,0,0,2.34.82ZM45.65,41.32l1.11,3.37,1-.33L46.63,41l.95-.31-.3-.9-2.81.93,0,0,.3.9Zm4.65,2.22,1-.3-.51-1.69,1-.29.5,1.65v0l1-.3L51.93,38.4v0l-1,.3.51,1.69-1,.3L50,39l0-.05-1,.3,1.28,4.25Zm4.89-1.45,2.64-.7,0,0-.25-.93-1.72.46-.2-.75L57,39.8l-.25-.94-1.29.35-.21-.78L57,38,56.7,37l-2.64.71h0l1.16,4.29Zm7.46-1.9,1-.21-.39-1.76,1,1.62,1-.2.22-1.87.38,1.74,1-.21L65.84,35v0l-1,.2-.39,3.24-1.81-2.74,0,0-1,.21.94,4.34Zm6.13-1.27,1-.19L69,34.36v0l-1,.19.82,4.37Zm3-.55,2.69-.44h0l-.15-1-1.74.29-.55-3.44v0l-1,.16.71,4.39Zm4.46-.69,2.7-.36H79l-.13-1-1.75.23-.45-3.45v0l-1,.13.58,4.41Zm8,3.58H86.6a12.82,12.82,0,0,1,12.81-12.8h.45a12.81,12.81,0,0,1,12.8,12.8H115V42H84.28Zm26-3.67-8.71,3.67h9.34A11.14,11.14,0,0,0,110.29,37.59ZM108,33.82l-6.7,6.7L110,36.86A11.07,11.07,0,0,0,108,33.82Zm-3.92-2.76-3.45,9,6.82-6.82A10.88,10.88,0,0,0,104.12,31.06Zm-4.07,8.48,3.34-8.76a11.14,11.14,0,0,0-3.34-.57Zm-4.17-8.76,3.33,8.76V30.21A11.13,11.13,0,0,0,95.88,30.78Zm-4.11,2.49,6.82,6.82-3.44-9A11,11,0,0,0,91.77,33.27Zm-2.51,3.59,8.66,3.66-6.69-6.7A11.34,11.34,0,0,0,89.26,36.86Zm-.91,4.4h9.33L89,37.59A10.88,10.88,0,0,0,88.35,41.26ZM75.9,43.71h47.47v-.46H75.9ZM70.82,45h57.62V44.5H70.82ZM65.75,46.2h67.77v-.45H65.75ZM161,49.58a.69.69,0,0,0-.44.17,164.24,164.24,0,0,0-45.71-10.94l0,.46a163.36,163.36,0,0,1,45.54,10.89s0,.06,0,.08a.67.67,0,1,0,.67-.66ZM163,44a.67.67,0,1,0,.66.66A.66.66,0,0,0,163,44ZM36.31,44a.67.67,0,1,0,.66.66A.67.67,0,0,0,36.31,44Z"/><path class="cls-3" d="M44.34,73.84H40.48l-.77-2.2,1.43.46h1.93l.57-.26.28-.54v-.86L43.43,70l-2.11-.47L40,68.24v-2l1.82-1.74h3.65l.7,2-1.26-.4H43.07l-.56.27-.28.53v.54l.49.46,2.11.47,1.33,1.27V72.1Z"/><path class="cls-3" d="M51.46,73.84l.28-1.07v-7.2l-.28-1.07h2.66l-.28,1.07v7.2l.28,1.07Z"/><path class="cls-3" d="M66.87,65.57v8.27H65.05L62,68.1l-.28-.66.07.66v4.67l.28,1.07H59.72L60,72.77v-7.2l-.35-1.07h2.73l2.45,4.67.28.67-.07-.67v-3.6l-.28-1.07h2.38Z"/><path class="cls-3" d="M79.6,69.57V71.3l.14.8-1.82,1.74h-3.5L72.6,72.1V66.37l2-1.87h3.92l.77,2.2-1.44-.46H75.89l-.7.33-.35.67V71.3l.28.54.56.26h1.4l.42-.4V69.84l-.56-1.07H80Z"/><path class="cls-3" d="M90.59,73.84H85.12l.28-1.07v-7.2l-.28-1.07h2.74l-.35,1.34V71.9l.21.2h2.17l1.47-.46Z"/><path class="cls-3" d="M101.81,73.84H96.07l.28-1.07v-7.2l-.28-1.07h5.6l.7,2-1.26-.4H98.59l-.14.14v1.6l.14.13h1.19l1-.33V69.9l-1-.33H98.59l-.14.13v2.2l.21.2h2.45l1.47-.46Z"/><path class="cls-3" d="M120.93,73.84l.28-1.07V68l.07-.53-.21.53-2.38,5.2h-.07L116.24,68l-.21-.53.07.53v4.8l.28,1.07H114l.28-1.07v-7.2L114,64.5h2.73l2,4.23.07.31.07-.31,2-4.23h2.73l-.28,1.07v7.2l.28,1.07Z"/><path class="cls-3" d="M134.38,73.84l.14-1.07-.28-1.07-.14-.13h-2.67l-.14.13L131,72.77l.14,1.07h-2.59l.56-1.07,2.1-7.4L131,64.5h3.79l-.21.87,2.1,7.4.56,1.07Zm-1.55-7.6-.07-.4-.07.4-.91,3.6.14.13h1.69l.13-.13Z"/><path class="cls-3" d="M147.74,73.84h-5.46l.28-1.07v-7.2l-.28-1.07H145l-.35,1.34V71.9l.21.2H147l1.47-.46Z"/><path class="cls-3" d="M157.7,66.24h-1.26l-.15.13v6.27l.43,1.2h-2.95l.42-1.2V66.37l-.14-.13h-1.26l-1.47.46.77-2.2h6.31l.77,2.2Z"/><path class="cls-3" d="M32.85,86.83H29l-.78-2.2,1.43.47h1.94l.56-.27.28-.53v-.87L31.94,83l-2.1-.46-1.33-1.27v-2l1.82-1.73H34l.7,2-1.26-.4H31.59l-.56.26-.28.54v.53l.49.47,2.1.46,1.33,1.27V85.1Z"/><path class="cls-3" d="M45.15,86.83H41.51l-2-1.86V79.36l2-1.86H45l.77,2.2-1.44-.47h-1.5l-.7.33-.35.67V84.1l.35.67.7.33h1.61l1.48-.47Z"/><path class="cls-3" d="M56,86.83H52.31L50.49,85.1V79.23l1.82-1.73H56l1.82,1.73V85.1Zm-.42-6.93-.28-.54-.56-.26H53.57l-.56.26-.28.54v4.4l.28.53.56.27H54.7l.56-.27.28-.53Z"/><path class="cls-3" d="M68.59,79.23H67.33l-.14.13v6.27l.42,1.2H64.67l.42-1.2V79.36L65,79.23H63.69l-1.47.47L63,77.5h6.3l.77,2.2Z"/><path class="cls-3" d="M80.1,86.83H76.45l-2-1.86V79.36l2-1.86H80l.77,2.2-1.45-.47h-1.5l-.7.33-.35.67V84.1l.35.67.7.33H79.4l1.47-.47Z"/><path class="cls-3" d="M90.06,86.83l.28-1.06V82.7l-.14-.14H87.82l-.14.14v3.07L88,86.83H85.3l.28-1.06V78.56L85.3,77.5H88l-.28,1.06v2.27l.14.13H90.2l.14-.13V78.56l-.28-1.06h2.66l-.28,1.06v7.21l.28,1.06Z"/><path class="cls-3" d="M114.5,78.56,112,86.83h-1.44L109,81.3l-.07-.47-.07.47-1.57,5.53h-1.44l-2.52-8.27-.56-1.06h2.8l-.14,1.06,1.12,3.74.07.53.07-.53,1.4-4.8h1.82l1.4,4.8.07.53.07-.53,1.12-3.74-.14-1.06h2.66Z"/><path class="cls-3" d="M124.21,86.83l.28-1.06V82.7l-.14-.14H122l-.14.14v3.07l.28,1.06h-2.67l.28-1.06V78.56l-.28-1.06h2.67l-.28,1.06v2.27L122,81h2.38l.14-.13V78.56l-.28-1.06h2.66l-.28,1.06v7.21l.28,1.06Z"/><path class="cls-3" d="M131.9,86.83l.28-1.06V78.56l-.28-1.06h2.66l-.28,1.06v7.21l.28,1.06Z"/><path class="cls-3" d="M143.77,86.83h-3.85l-.77-2.2,1.43.47h1.93l.56-.27.28-.53v-.87l-.49-.47-2.1-.46-1.33-1.27v-2l1.82-1.73h3.64l.7,2-1.26-.4h-1.82l-.56.26-.28.54v.53l.49.47,2.1.46,1.33,1.27V85.1Z"/><path class="cls-3" d="M155.59,80.43l2,5.14.77,1.26h-2.94l-.14-1.2L154,82h-.21l-.91.87-.14.26v2.61l.28,1.06h-2.66l.27-1.06V78.56l-.27-1.06H153l-.28,1.06v2.27l-.07.2,2.87-2.73.28-.8h2.59l.14.13Z"/><path class="cls-3" d="M169.78,78.56,167.47,83v2.6l.42,1.2h-2.95l.42-1.2V83.16l-2.52-4.6-.77-1.06h2.8l.14.93L166.34,81l.07.27.07-.27,1.33-2.53.15-.93h2.59Z"/><path class="cls-3" d="M58.07,60.87H54.22l-.77-2.2,1.43.47h1.93l.56-.27.28-.53v-.87L57.16,57l-2.1-.46-1.33-1.27v-2l1.82-1.74h3.64l.7,2-1.26-.4H56.81l-.56.26-.28.54v.53l.49.47,2.1.46,1.33,1.27v2.47Z"/><path class="cls-3" d="M71.5,57.4H68.56l-.14.14v2l.35,1.33H66l.28-1.07V52.6L66,51.53h5.74l1.68,1.61v2.4ZM71.22,54l-.28-.53-.7-.33H68.56l-.14.13v2.27l.14.13h1.68l.7-.33.28-.54Z"/><path class="cls-3" d="M85.07,60.87H79.33l.28-1.07V52.6l-.28-1.07h5.61l.7,2-1.27-.4H81.85l-.14.13v1.6l.14.13H83l1-.33v2.27l-1-.34H81.85l-.14.14v2.2l.21.2h2.45l1.48-.47Z"/><path class="cls-3" d="M98.16,52.6l-2.32,4.47v2.6l.42,1.2H93.32l.42-1.2V57.2l-2.52-4.6-.77-1.07h2.8l.14.94L94.72,55l.07.27.07-.27,1.33-2.53.14-.94h2.6Z"/><path class="cls-3" d="M108.21,60.87h-3.85l-.77-2.2,1.42.47H107l.56-.27.28-.53v-.87L107.3,57l-2.1-.46-1.33-1.27v-2l1.82-1.74h3.64l.7,2-1.26-.4H107l-.56.26-.28.54v.53l.49.47,2.1.46L110,56.67v2.47Z"/><path class="cls-3" d="M116.17,60.87l.28-1.07V52.6l-.28-1.07h2.66l-.28,1.07v7.2l.28,1.07Z"/><path class="cls-3" d="M130.71,60.87h-5.47l.28-1.07V52.6l-.28-1.07h5.47l2,1.87V59Zm-.28-6.73-.35-.67-.7-.33h-1.55l-.13.13v5.67l.21.2h1.47l.7-.34.35-.66Z"/><path class="cls-3" d="M144.7,60.87H139l.28-1.07V52.6L139,51.53h5.6l.7,2-1.26-.4h-2.52l-.14.13v1.6l.14.13h1.19l1.05-.33v2.27l-1.05-.34h-1.19l-.14.14v2.2l.21.2H144l1.47-.47Z"/></g></g></svg>