<svg xmlns="http://www.w3.org/2000/svg" viewBox="0 0 184.53 145.51"><defs><style>.cls-1{fill:#152550;}</style></defs><g id="Шар_2" data-name="Шар 2"><g id="Layer_1" data-name="Layer 1"><path class="cls-1" d="M95.75,108.69c.24.16-.08-31.22-.26-31.06a10.82,10.82,0,0,0-1.51,2l0,22.31-2.6,2.64c1,1.8,3,3,4.34,4.14m-.2-32.56c0-.54,0-.4,0-.93l-3,2.46a21.66,21.66,0,0,0-5.37,14.77A24.35,24.35,0,0,0,91,104.32c.11-.25,0-22.66,0-22.66a21.63,21.63,0,0,1,4.49-5.53m2.33,33.65c1.69.76,7.33.88,8,.78,2.07-.09,5.78-2.19,5.78-2.19l.22.3s-2,1.11-2.75,1.62c-1.82,1.08-4.21,2.62-6.06,3.78a12.55,12.55,0,0,1-2.14,1.34c-.39.26-7.39-.53-11.15-3.81a20.65,20.65,0,0,1-6-7.35,26.92,26.92,0,0,1-1.63-3.86,15.74,15.74,0,0,1-1-3.62A28.13,28.13,0,0,1,81,92a19.58,19.58,0,0,1,4.17-12.17c3.5-2,12.88-7.8,17-10.39l2-1.28a1.75,1.75,0,0,0,0,1.13c.22.57,4.36,3.77,5.9,4.43A5.62,5.62,0,0,0,113.3,73l.38.11a35,35,0,0,0-6.52,4.6,1.59,1.59,0,0,1-1.28.55s-2,.09-6.79-4.07a1.69,1.69,0,0,1-.73-1l-.5.45s-.08,35.69,0,36.13m79.78-23.47a70.42,70.42,0,0,1,.13,8.58c-.06,3.6.17,6.16.17,9.49-1.89,0-3.53.25-3.78-1.39-.9-6.19.25-13.28-.32-18.79,2.48-.17,3.8,1,3.8,2.11M183.17,85c-.84-2.7-4.79-4-7.07-5.44-1.14,2.36-4.76,4.51-7.72,5,.84,6.28-.08,13.86.49,20.19,1.2,1.77,4,3.8,6.54,3.86a22,22,0,0,1,8-5.15A153.48,153.48,0,0,1,183.17,85m-55.42-.93a15.2,15.2,0,0,1,2.95,5.66,34.16,34.16,0,0,0-3.24,4.47l-.14-10Zm7.83,4a24,24,0,0,0-5-8.22,22.48,22.48,0,0,1-9.38,5.21s.69.78.69,1.17c.13,5.83.23,10.41.11,17.07,1.06,2.59,5.77,5.1,5.77,5.1s.76-2.83,4.63-5.82l1.06-1.06-1.37-1.48s.07,1.53-1.86,3.1c-.72.48-1.52-.21-2.14-.75a7.36,7.36,0,0,1-.39-5.89c1.94-4.44,7.83-8.43,7.83-8.43M157,85.19c-.23-2-.87-4.28-3.14-5.15a32.71,32.71,0,0,1-3.61,4.24s1.48.13,1.56,2.09v17.25l.79,1.81c.64,1.24,3.62,3,5.78,3,.69-2.69,6.79-7.57,6.79-7.57s.67-8.67.45-11.8.28-7.61-3.42-9.27a11.05,11.05,0,0,1-3.43,4.46s1.65.4,1.78,1.83.25,8.55.08,15a12.74,12.74,0,0,1-2.07,3.49,1.9,1.9,0,0,1-1.48-1.81Zm-7.41-1.66c-.54-1.06-2.37-2.37-3.27-3.33l-.29.8a22.71,22.71,0,0,1-2.93,3.3c-.45-1.65-1.19-4-3-4.39a12.67,12.67,0,0,1-3.92,4.1,3.6,3.6,0,0,1,1.62,3.06c0,1,0,14.65,0,15.34s-1.53.49-1.53.49l-.06.52c4.44,2.13,5.19,3.49,6.63,5.25a13.16,13.16,0,0,1,5.6-7c-.11-.53-1.11-1.24-1.11-1.24a8.08,8.08,0,0,1-.62,1.24c-.23.49-1.78,1.9-2.65,1.57a1.38,1.38,0,0,1-.72-1.64c0-5.1-.16-10.86-.11-15.24a2.8,2.8,0,0,1,1.64-1c1.4.26,2.06,1.48,2.34,3.15a20.82,20.82,0,0,1,2.4-5.08m-41,.4c-.56-1.39-1.08-3.4-2.71-3.73a10,10,0,0,1-4.5,4.74c.79.22,1.62.22,1.62,1s.35,8.16.18,11.4c0,3.4-.81,8,2.93,10.31.62.19,1.49.95,2.34.7.51-1.61,2.5-2.76,3.68-3.8a4.63,4.63,0,0,0,3.56,3.87c.67-1.71,2.3-2.67,3.28-3.62,0,0-1.24-.12-1.28-.89s0-17.81,0-18.45S119,84.3,119,84.3a26.05,26.05,0,0,1-4.65-4.14c-1,2.12-2.12,3.71-4.14,4.51.8,0,1.92.69,1.91,1.16s0,13.53,0,13.53c.07,2.65.26,2.48-1.9,4.46a2.48,2.48,0,0,1-1.39-1.38c-.06-5.86.09-13.2-.18-18.51m74.56,24.32c.17,0,.26-.09.26-.22h0c0-.14-.1-.22-.26-.22h-.33v.45Zm-.66-.74h.67a.64.64,0,0,1,.46.16.44.44,0,0,1,.13.33h0a.47.47,0,0,1-.32.47l.36.54h-.38l-.33-.49h-.26V109h-.33Zm1.84.8h0a1.26,1.26,0,1,0-2.51,0h0a1.23,1.23,0,0,0,1.25,1.26,1.25,1.25,0,0,0,1.26-1.26m-2.68,0h0a1.42,1.42,0,0,1,2.84,0h0a1.42,1.42,0,0,1-2.84,0M56.39,84.53c-1.77-.84-2.44-2.65-3.21-4.11-1.38,2.28-6.39,5.67-8.79,5.67-.52,1.47-.26,3.34.06,5.72.66,3.5,3.8,5,6.61,6,2.34,1.43,1.26,6.56,1.26,6.56a7.77,7.77,0,0,0-3.31-2,3.39,3.39,0,0,0-2.22.26c-2.89.94-5.26,3.63-5.42,6.47,1.31-.38,2.75-1.93,4.47-1.9,2.19.1,4.79.84,5.51,2.76A32.87,32.87,0,0,1,56,104.75c2.32-1.07,1.9-3.8,2-6.41-1.5-7.12-7.32-4.25-8.1-9A28.56,28.56,0,0,1,50,86.12l.86-.58a4.22,4.22,0,0,0,2,2.24c1.37.26,2.7.77,4.34-.45a5.6,5.6,0,0,0,2.27-3.72h-.41c-.47,1-1.63.9-2.68.93M36.07,87.46a70,70,0,0,1,.13,8.33c-.07,3.71.16,6.35.16,9.78-1.93,0-3.61.26-3.87-1.44-.91-6.37.26-13.17-.32-18.85,2.55-.17,3.9,1,3.9,2.18m5.65-1.31c-.88-2.77-4.93-4.16-7.27-5.61-1.16,2.44-4.89,4.65-7.92,5.15.88,6.47-.07,13.77.51,20.3,1.22,1.82,4.07,3.91,6.72,4A22.52,22.52,0,0,1,42,104.65a147,147,0,0,1-.26-18.5m25.87-1.73a15.61,15.61,0,0,1,3.06,5.89A36.08,36.08,0,0,0,67.31,95l-.14-9.8c.21.18.25-1,.42-.75m8.12,4.13A25.12,25.12,0,0,0,70.58,80a23,23,0,0,1-9.72,5.42,3.64,3.64,0,0,1,.74,1.22c.12,6.07.2,10.83.11,17.78,1.09,2.71,6,5.31,6,5.31s.79-2.93,4.79-6.06l1.11-1.11L72.13,101s.07,1.59-1.91,3.23c-.76.5-1.56-.21-2.21-.77a7.73,7.73,0,0,1-.41-6.15c2-4.62,8.11-8.79,8.11-8.79M25.94,74.2a96.58,96.58,0,0,0-8.33,5.46c0,.13-.1,32.87.06,33.27-.2.12-.1.14-.26.26a15.86,15.86,0,0,0-1.23-2.29c-1.93-2.6-4.81-3.4-8.34-2.79s-7.63,5-7.84,6.77c0,.24.06.09.13.14a5.23,5.23,0,0,1,4.2-2.37,10.51,10.51,0,0,1,8.26,5.64s8-6.57,11.19-8.45l-.06-33.07L26,74.71ZM11.6,84.05a1.27,1.27,0,0,1,.62.57c.45,1.09-.5,2.16-1.22,2.59a6.19,6.19,0,0,1-4.58.87,6.24,6.24,0,0,1-4.55-6.35c-.07-4,8.56-10.88,9.76-10.6,3-.63,5.61.81,8.38,1.18,2.25.42,4,1,6.14.64-.46.34-8.84,5.6-8.93,5.55-2.86.3-5.66-2.2-8.62-1.53a7.71,7.71,0,0,0-5.13,3.21,5.37,5.37,0,0,0,.23,5.1c1.48,1.92,4.22,2.51,5.74,1.79s1.45-1.68,1.29-2.51l-.2-.55a1.29,1.29,0,0,1,1.07,0m85.8-81c-2.93,1.51-5.29,2.79-6.17,4.49a7,7,0,0,0-.83,4.15,6,6,0,0,1-.2,3.19c-.42.75-1.17,1.33-.33,3s4.43,5.27,6.31,7.75,5,5.89,6.36,8a124.17,124.17,0,0,0,9.11,12.56C115,50,123.05,56,125.52,57.81s9.35,6.5,8.27,6.54-4-1.95-5-2.19A34.87,34.87,0,0,1,121.18,58c-3-2.12-5.39-3.36-6.47-3.23s-1.25.71-.29,2a30.23,30.23,0,0,1,2.68,5.48c.42,1.16.58,2.36-.71.66s-2.43-3.73-3.06-4.31-2.08-2.16-2.08-2.16a6.2,6.2,0,0,0-1.34,1.17c-.16.37.5,1.16.21,1.33s-.91-.21-1.37-.42c-.67.83,0,2.16-.5,2.53s-.79-.08-1.34-2.52-.84-3.94-2.68-5.27-2-2-4.34-2.44A19,19,0,0,1,97,49.59c-.71-.25-1.46-.67-2.09-.46A28.75,28.75,0,0,1,92,50c-1,.21-2.42-.42-3,.42s-1.58,2.9-3.17,5.27a30.88,30.88,0,0,1-3.41,4c-.38.54-.38,1,.29,1.28s1.17.29,1.21.75-.71.08-1.29.33a12.76,12.76,0,0,1-2.67.26c-.88.08-2.09-.5-3-.21s-3.25.46-4,.63-1.38-.66.58-1a22.44,22.44,0,0,0,4.42-1.08c1.21-.46,2.76.29,3.71-1.29A46.62,46.62,0,0,0,84.41,54a9.84,9.84,0,0,0,1-3.15c0-.87-.67-1.45-.8-2.53s.38-2.24-.54-3-2-1.45-2.59-2.07S80.1,41.14,79.68,41s-1.92-1.74-3.18-2.78-5.71-2.53-6.18-8.74a27.76,27.76,0,0,1,1.9-13.24c.54-1.13-.17-1.12-.59-.75s-1.37.83-1.83,1.25-.3-.58.7-2.83a35.58,35.58,0,0,1,6-9.46c3-3.25,4.79-3.5,6.25-4A15.35,15.35,0,0,1,87,0c.54,0,1,1,1.88.83A26.15,26.15,0,0,1,94.94.42c2.17.24,4.13.78,4.21,1.4s-.45.58-1.75,1.25"/><path class="cls-1" d="M35.57,133.27v-2.49H46.36v2.49h-4v12.08H39.61V133.27Z"/><path class="cls-1" d="M53.89,130.78h9v2.49H56.6v3.06h5.06v2.5H56.6v4h6.51v2.5H53.89Z"/><path class="cls-1" d="M73.38,131.39a7.84,7.84,0,0,1,6.82,0,6,6,0,0,1,2.49,2.51,8.34,8.34,0,0,1,1,4.16,8.46,8.46,0,0,1-1,4.21l1.4,1.37-1.9,1.87-1.27-1.24a6.8,6.8,0,0,1-4.12,1.24,7.35,7.35,0,0,1-3.41-.78,5.94,5.94,0,0,1-2.49-2.5,9.43,9.43,0,0,1,0-8.33A6,6,0,0,1,73.38,131.39Zm3.74,9.09L79,138.6l1.58,1.61a6.63,6.63,0,0,0,.31-2.15,5.23,5.23,0,0,0-1.17-3.7,4.09,4.09,0,0,0-5.89,0,6.41,6.41,0,0,0,0,7.41A3.87,3.87,0,0,0,76.79,143a4,4,0,0,0,2.23-.63Z"/><path class="cls-1" d="M102.08,130.78v9a5.75,5.75,0,0,1-1.46,4.27,6.23,6.23,0,0,1-7.94,0,5.75,5.75,0,0,1-1.46-4.27v-9h2.7v9.07c0,2.11.91,3.17,2.73,3.17s2.73-1.06,2.73-3.17v-9.07Z"/><path class="cls-1" d="M112.55,130.78v14.57h-2.7V130.78Z"/><path class="cls-1" d="M120.73,130.78h2.71v12.07h6.18v2.5h-8.89Z"/><path class="cls-1" d="M146.05,145.35,145,141.91h-4.62l-1.06,3.44h-2.91l4.93-14.57H144L149,145.35Zm-3.38-11-1.54,5.06h3.08Z"/></g></g></svg>