<svg xmlns="http://www.w3.org/2000/svg" xmlns:xlink="http://www.w3.org/1999/xlink" viewBox="0 0 561.26 212.47"><defs><style>.cls-1{fill:#1d1d1b;}.cls-2{fill:#fff;}.cls-3{fill:url(#linear-gradient);}.cls-4{fill:url(#linear-gradient-2);}</style><linearGradient id="linear-gradient" x1="-43" y1="-10.67" x2="533.81" y2="311.73" gradientUnits="userSpaceOnUse"><stop offset="0.17" stop-color="#d3943f"/><stop offset="0.41" stop-color="#f2cea1"/><stop offset="0.65" stop-color="#d7953e"/><stop offset="0.95" stop-color="#a7824f"/></linearGradient><linearGradient id="linear-gradient-2" x1="-43" y1="-125.27" x2="533.81" y2="197.13" gradientTransform="matrix(1, 0, 0, -1, 0, 97.23)" xlink:href="#linear-gradient"/></defs><g id="Шар_2" data-name="Шар 2"><g id="Logo"><polygon class="cls-1" points="561.02 35.57 530.93 0 29.57 0 0.15 34.04 0.15 176.9 29.57 212.47 530.93 212.47 561.02 176.9 561.02 35.57"/><path class="cls-2" d="M490.74,146.12a10.9,10.9,0,0,1,3.38.62c11.83,3.77,22.48,2,29.22-4.81a24.53,24.53,0,0,0,6.92-17.62,26.71,26.71,0,0,0-7.86-18.52A75.08,75.08,0,0,0,512,97.51a67.1,67.1,0,0,1-9.38-7.45h0c-3.35-3.49-4.5-7.84-3-11.35,1.34-3.16,4.63-5,8.8-5,4.56,0,10.85,1.89,15,10.91l1.51-.49V64.35l-1.59-.65c-1.29,2.48-4.24,2.49-6.59,1.65l-.62-.22a27,27,0,0,0-10-1.91,21.73,21.73,0,0,0-21.57,21.45,24,24,0,0,0,6.88,16.9,77.6,77.6,0,0,0,10.16,8.09,74.38,74.38,0,0,1,8.95,7c7.15,7.06,6.23,14.42,2.16,18.57-1.84,1.88-6.41,3.27-11.59,2.29-3.75-.71-10.64-3.3-14.73-12.74l-1.59.74v22.1c.28.12,1.3.51,1.61.62A5,5,0,0,1,490.74,146.12Zm-319.69-.06a10.7,10.7,0,0,1,3.38.63c11.81,3.82,22.47,2.11,29.24-4.7a24.6,24.6,0,0,0,7-17.61,26.78,26.78,0,0,0-7.82-18.54h0a75.53,75.53,0,0,0-10.35-8.3,66.48,66.48,0,0,1-9.38-7.5c-3.34-3.5-4.47-7.85-3-11.36,1.35-3.14,4.64-5,8.79-5h0c4.56,0,10.84,1.92,14.95,11l1.52-.47.06-19.77-1.59-.64c-1.3,2.49-4.25,2.49-6.6,1.63l-.64-.23a26.77,26.77,0,0,0-10-1.93A21.79,21.79,0,0,0,165,84.61a24,24,0,0,0,6.85,16.92A76.15,76.15,0,0,0,182,109.65a73.19,73.19,0,0,1,8.92,7c7.13,7.1,6.2,14.46,2.11,18.6-1.85,1.87-6.43,3.24-11.62,2.24-3.75-.72-10.63-3.34-14.69-12.78l-1.57.73-.08,22.11,1.62.62A5,5,0,0,1,171.05,146.06ZM98,65.92c3.46,1.28,4,3.49,4.05,8.21l-.16,50.35c0,7.46,1.86,13.29,5.6,17.33,4,4.34,10.55,6.64,18.94,6.67h.15c7.78,0,13.73-2.08,18.2-6.34,4.3-4.12,6.49-10,6.51-17.4l.11-50.47c0-4.71.57-6.92,4.07-8.2l-.63-1.55-21.29-.06L132.93,66c3.44,1.27,4,3.48,4,8.21l-.13,51.27c0,4.33-1.07,7.59-3.16,9.66a9.66,9.66,0,0,1-6.91,2.58h-.07c-3.19,0-5.59-.85-7.32-2.58-2-2-3-5.2-3-9.49l.14-51.49c0-4.71.58-6.92,4-8.2L120,64.43l-21.31-.07Zm342.28,81.15h31.3a36.59,36.59,0,0,1,3.89.17l5.82-13.8-1.38-1.36a13.7,13.7,0,0,1-9.67,4.86H458.15V74.39c0-4.72.57-6.93,4-8.21l-.62-1.56H440.28l-.62,1.56c3.46,1.27,4,3.48,4,8.21v62.87c0,4.61-.38,6.54-4.08,8.23C440,146.49,440.2,146.89,440.27,147.07Zm-44,0h32a36.77,36.77,0,0,1,3.91.17l5.81-13.8-1.38-1.36a13.63,13.63,0,0,1-9.66,4.86H414.16V74.39c0-4.72.56-6.93,4-8.21l-.61-1.56H396.29l-.63,1.56c3.46,1.28,4,3.48,4,8.21v62.87c0,4.61-.36,6.53-4.07,8.23Zm-141.95.11,21.23,0c.27-.62.55-1.29.65-1.55-3.51-1.34-4.08-3.55-4.06-8.26l.06-63c0-4.72.59-6.92,4.07-8.21l-.6-1.55-21.18-.07-.64,1.56c3.44,1.27,4,3.48,4,8.22l-.07,25.08h-.14l-18.67,0v-.14l.06-24.85c.05-4.74.63-7,4.09-8.2l-.64-1.57-21.5,0-.61,1.56c3.47,1.3,4,3.5,4,8.21v63c0,4.71-.57,6.92-4.09,8.25.11.28.42,1,.55,1.35l.08.19,21.31.07.66-1.58c-3.68-1.69-4-3.63-4.05-8.24l.08-27.57h.13l18.7.05v27.48c0,4.6-.4,6.53-4.09,8.21C254.1,146.6,254.27,147,254.33,147.18Zm106.94-.11h21.32c.12-.29.52-1.23.64-1.55-3.52-1.34-4.09-3.55-4.09-8.26V74.39c0-4.72.57-6.92,4.07-8.21l-.62-1.56H361.28l-.62,1.56c3.44,1.27,4,3.48,4,8.21v62.87c0,4.61-.38,6.54-4.08,8.23Zm-34.82,0H347.5a.14.14,0,0,0,0-.06c.33-.78.54-1.28.62-1.49-3.54-1.34-4.1-3.55-4.07-8.26V74.39c0-4.72.56-6.93,4-8.21l-.61-1.56H329.2l-.64,1.57A2.71,2.71,0,0,1,330,67.67c.76,1.86-.13,4.68-1,6.72l-9.91,25.47.09.22h-.5l.11-.23-10.2-25.78c-.81-2.15-2.5-6.6.4-7.88l-.62-1.57H288.92l-.63,1.56c3.49,1.27,4.07,3.48,4.08,8.21v62.87c0,4.61-.37,6.54-4.1,8.23.41,1,.58,1.4.64,1.58h20.41c.12-.28.51-1.22.64-1.55-3.5-1.33-4.07-3.54-4.06-8.26V121.32c0-8.07,0-18.1-.3-23.84l-.05-1,.32.93c.55,1.6,3.6,9.46,6.55,17,2.29,5.93,4.46,11.52,5.4,14,.1.28.24.43.38.43h0c.15,0,.32-.18.41-.44,3-8.13,11.21-30.8,11.29-31l.34-.94-.07,1c-.36,5.07-.33,13.7-.3,21.33,0,1.94,0,3.8,0,5.52v12.9c0,4.6-.36,6.53-4.07,8.23C326.21,146.49,326.38,146.89,326.45,147.07ZM28,145.42c.16.38.52,1.34.64,1.65H57.91c12.22,0,19.5-2.39,25.12-8.12h0c4.86-4.91,8.49-15.82,6.16-25.57-1.34-5.61-5.17-13-15.8-16.57l-.3-.1.27-.15A22,22,0,0,0,84.58,80.43c1-6.8-1.11-14.09-5.38-18.57-4.83-5.09-11.89-7.37-22.9-7.37H28.7L28,56c3.13,2.13,4.11,3.59,4.11,8.32,0,1.65,0,72.23,0,72.94C32.14,141.92,31.28,143.62,28,145.42Zm26.9-9.35H47.21v-.14c0-11.33,0-21,0-32.37v-.13h7.68c6.79,0,11.06,1.4,14.28,4.68h0c5.83,6,5.83,17.29,0,23.28C66,134.67,61.7,136.07,54.89,136.07ZM53.33,93.19h-6v-.14c0-9.56,0-17.71,0-27.23v-.13h.13c1.67,0,5.77,0,6.87,0h.24c5.54,0,9,1.24,11.65,4.13,4.4,4.62,4,14.34-.87,19.25C62.62,91.91,58.91,93.19,53.33,93.19Z"/><path class="cls-2" d="M540.66,76.27v0a5.09,5.09,0,1,1,4.74-5.08A4.82,4.82,0,0,1,540.66,76.27Zm0-11.72a6.62,6.62,0,1,0,6.64,6.62A6.41,6.41,0,0,0,540.66,64.55Zm.24,6h-1.34v-1.7h1.06c.59,0,1.37,0,1.37.79S541.59,70.51,540.9,70.51Zm2.73-.76c0-1.63-1.09-2.16-2.93-2.16H538v7.14h1.52v-3h.72l1.64,3h1.82L541.9,71.6A1.67,1.67,0,0,0,543.63,69.75Z"/><polygon class="cls-3" points="524.23 187.66 561.26 160.94 528.45 197.84 32.82 197.84 0 160.94 37.03 187.66 524.23 187.66"/><polygon class="cls-4" points="37.03 24.17 0 50.89 32.82 13.99 528.45 13.99 561.26 50.89 524.23 24.17 37.03 24.17"/></g></g></svg>