<?xml version="1.0" encoding="UTF-8"?>
<svg id="Layer_1" data-name="Layer 1" xmlns="http://www.w3.org/2000/svg" viewBox="0 0 1080 1080">
  <defs>
    <style>
      .cls-1 {
        fill: #ceac80;
      }
    </style>
  </defs>
  <g>
    <path class="cls-1" d="M239.83,567.13c-3.89-1.45-6.18-2.31-6.18-3.68,0-1.57,1.54-2.66,3.76-2.64,3.8.05,4.87,1.71,6.05,4.37l.09.19,1.83-.25-.59-5.34-.37-.08c-.96-.22-3.7-.74-6.25-.74-5.97,0-9.72,1.84-9.81,6.18-.06,3,2.85,4.7,7.39,6.34,3.5,1.29,5.97,2.36,5.97,3.81,0,1.75-2.45,2.9-4.85,2.88-4.61-.03-6.44-2.91-7.29-4.81l-.09-.21-2.05.31,1.59,5.57s5.17.93,6.82.93c6.13,0,11.68-1.22,11.68-6.4,0-3.34-3.7-5.07-7.68-6.43Z"/>
    <path class="cls-1" d="M254.92,560.98l.25.02c3.04.2,3.22.35,3.22,2.72v11.47c0,2.29-.18,2.44-3.22,2.64l-.25.02v1.59h12.82v-1.59l-.25-.02c-3.03-.2-3.18-.32-3.18-2.64v-11.47c0-2.39.15-2.52,3.18-2.72l.25-.02v-1.54h-12.82v1.54Z"/>
    <path class="cls-1" d="M293.25,561.02h.24c2.72.09,3.18.58,3.17,1.53v7.85c0,.75-.88,1.15-1.44.65l-13.16-11.62h-6.8v1.58h.23c1.58.1,2.27.05,2.75.55.44.47.43,1.37.43,3.36v11.25c.02,1.05-.92,1.46-3.17,1.6h-.23v1.59h8.86v-1.59h-.24c-1.98,0-3.14-.59-3.15-1.59l-.02-8.96c0-.75.88-1.15,1.44-.65l14.49,12.87h2.12l-.04-17.11c.01-.95.96-1.23,3.11-1.32h.24v-1.59h-8.81v1.58Z"/>
    <path class="cls-1" d="M328.35,573.58c-1.5,3.04-3.84,4.36-6.08,4.38-5.05.05-8.59-3.61-8.59-8.77,0-3.94,2.28-8.34,7.92-8.34,3.49,0,5.06,1.47,6.08,4.37l.07.2,1.83-.28-.62-5.31-.22-.05c-1.04-.22-3.42-.79-6.42-.79-9.05,0-14.84,4.43-14.84,10.79,0,5.06,4.45,10.16,14.38,10.16,2.42,0,5.62-.65,6.82-.86l.31-.05,1.59-5.57-2.04-.3-.18.41Z"/>
    <path class="cls-1" d="M360.88,573.69l-.09.16c-.77,1.35-1.48,2.26-2.25,2.87-.81.63-2.08.88-4.38.88-1.46,0-7.17-.03-7.88-.27-.64-.25-.93-.75-.93-2.21v-3.84c0-.6.49-1.08,1.08-1.08h1.86c3.5,0,3.83.06,4.33,2.05l.05.2h1.97v-6.55h-1.97l-.05.2c-.48,1.88-.85,2.05-4.33,2.05h-1.86c-.6,0-1.08-.49-1.08-1.08v-4.32c0-.78.1-1.46,1.53-1.46h6.24c2.25,0,3.32.19,3.98.73.61.44,1.15,1.28,1.56,2.45l.07.2,2.01-.21-.02-.26c-.08-.88-.17-1.82-.24-2.62-.08-.88-.15-1.6-.17-1.88l-.02-.25h-24.25v1.59h.26c2.83.17,3.09.25,3.09,2.65v11.5c0,2.33-.43,2.49-3.14,2.68l-.26.02v1.54h25.27l.07-.18c.35-.95,1.18-3.67,1.46-4.99l.06-.28-1.96-.27Z"/>
  </g>
  <g>
    <path class="cls-1" d="M673.17,787.96v-27.59h-7.34v-6.06h14.07v33.65h-6.73Z"/>
    <path class="cls-1" d="M781.86,787.96l18-27.59h-20.48v-6.06h28.26v6.21l-17.93,27.44h-7.85Z"/>
    <path class="cls-1" d="M715.12,778.2c0-3.65,2.37-6.4,5.53-8.01-2.32-1.44-4.04-3.9-4.04-6.79,0-6.45,4.71-9.76,13.12-9.76s13.12,3.42,13.12,9.76c0,2.89-1.86,5.57-4.04,6.79,3.23,1.62,5.54,4.36,5.54,8.01,0,6.73-5.54,10.43-14.62,10.43s-14.62-3.7-14.62-10.43ZM729.73,782.59c4.81,0,7.94-2.12,7.94-4.5,0-2.93-3.06-5.06-7.94-5.06s-7.93,2.13-7.93,5.06c0,2.53,3.06,4.5,7.93,4.5ZM723.38,763.38c0,2.18,2.19,3.72,6.35,3.72s6.36-1.52,6.36-3.72-2.19-3.68-6.36-3.68-6.35,1.39-6.35,3.68Z"/>
    <path class="cls-1" d="M850.91,781.9c0-2.56,3.43-4.91,8.48-6.86,8.41-3.3,11.37-6.12,11.37-10.97,0-6.39-5.18-10.43-13.46-10.43s-13.43,4.36-13.46,11.06v1.73s7.06,0,7.06,0v-1.69c0-2.62,2.22-4.71,6.39-4.71s6.39,1.41,6.39,4.04c0,1.95-1.55,3.09-6.87,5.18-8.75,3.43-13.66,8.48-13.66,14v4.71h28.26v-6.06h-20.52Z"/>
  </g>
  <g>
    <polygon class="cls-1" points="467.03 694.59 445.73 621.93 417.64 626.88 417.64 634.88 422.58 640.39 422.58 729.7 417.64 736.95 417.64 745.65 442.8 741.22 442.8 733.08 437.86 727.41 437.86 651.07 459.5 724.68 456.63 738.78 477.62 735.08 474.89 722.64 496.53 641.39 496.53 716.51 491.59 723.92 491.59 732.61 516.75 728.18 516.75 720.02 511.81 714.52 511.81 625.2 516.75 617.95 516.75 609.41 488.48 614.39 467.03 694.59"/>
    <polygon class="cls-1" points="534.45 614.22 539.39 619.89 539.39 709.07 534.45 716.47 534.45 725.01 559.61 720.58 559.61 712.62 554.83 706.93 554.83 617.71 559.61 610.33 559.61 601.81 534.45 606.24 534.45 614.22"/>
    <path class="cls-1" d="M728.44,582.84c0-5.17-3.86-9.07-8.98-9.07-.58,0-1.18.05-1.79.16l-41.75,7.36c-5.66,1-10.09,6.22-10.09,11.89v97.86c0,5.17,3.86,9.06,8.98,9.06.58,0,1.18-.05,1.79-.16l41.75-7.37c5.56-.98,10.08-6.31,10.08-11.88v-97.86ZM713.17,676.8c0,.78-.74,1.5-1.39,1.61l-30.21,5.3c-.22,0-.45,0-.45-.57v-86.06c0-.64.6-1.47,1.39-1.61l29.97-5.28h.12c.28,0,.58.18.58.54v86.07Z"/>
    <path class="cls-1" d="M613.89,657.28l13.87,36.5-4.71,7.06v8.54l25.15-4.44v-7.97l-5.18-6.1-12.96-36.44,3.43-.61c5.65-.99,10.08-6.21,10.08-11.88v-44.31c0-5.08-3.83-8.91-8.92-8.91-.6,0-1.22.05-1.85.16l-55.5,9.79v7.98l4.94,5.66v89.03l-4.94,7.56v8.53l25.16-4.44v-7.96l-4.94-5.82v-39.05l16.35-2.88ZM597.54,610.43l30.08-5.3.25-.02c.22,0,.45,0,.45.57v32.04c0,.79-.59,1.47-1.39,1.61l-29.38,5.18v-34.07Z"/>
    <polygon class="cls-1" points="844.69 662.32 839.75 656.5 839.75 614.26 851.13 612.26 864.29 612.72 864.29 591.84 850.46 597.2 839.75 599.09 839.75 567.89 862.26 563.92 868.64 567.58 876.56 566.18 876.56 545.9 819.53 555.96 819.53 563.94 824.47 569.6 824.47 658.63 819.53 666.2 819.53 674.73 844.69 670.29 844.69 662.32"/>
    <polygon class="cls-1" points="790.9 604.79 777.08 610.16 766.36 612.05 766.36 580.84 788.88 576.87 795.25 580.53 803.18 579.13 803.18 558.86 746.15 568.91 746.15 576.89 751.09 582.56 751.09 671.59 746.15 679.15 746.15 687.68 771.3 683.25 771.3 675.28 766.36 669.46 766.36 627.22 777.75 625.21 790.9 625.67 790.9 604.79"/>
    <polygon class="cls-1" points="292.31 633.85 298.8 641.57 298.8 700.52 262.99 629.07 228.79 635.11 228.79 645.07 235.49 652.74 235.49 774.1 228.79 784.14 228.79 794.67 261.49 788.9 261.49 778.93 254.79 771.26 254.79 657.58 298.8 741.78 298.8 762.96 292.31 772.96 292.31 783.46 325.01 777.7 325.01 767.73 318.31 760.06 318.31 638.7 325.01 628.66 325.01 618.14 292.31 623.91 292.31 633.85"/>
    <polygon class="cls-1" points="342.75 647.99 347.69 653.65 347.69 742.83 342.75 750.24 342.75 758.78 399.94 748.7 399.94 728.42 391.46 729.91 384.92 736.01 362.96 739.88 362.96 698.48 373.56 696.61 386.87 697.04 386.87 676.01 372.88 681.4 362.96 683.14 362.96 651.78 385.48 647.81 392.01 651.6 399.94 650.2 399.94 629.93 342.75 640.01 342.75 647.99"/>
  </g>
  <g>
    <path class="cls-1" d="M487.46,339.38l1.69,1.21s.72-4.01,2.43-8.7c1.71-4.69,4.13-8.18,4.13-8.18-14.51-5.39-31.66,3.54-36.22,16.86-2.28,6.66-1.12,13.17,2.02,17.57,3.13,4.4,8.23,6.68,12.51,6.68,7.19-.26,8.98-5.7,9.06-8.12.08-2.33-.98-4.44-1.95-5.52l-.21.09c-.01.52-.39,6.18-6.35,5.52-2.51-.28-4.07-2.32-4.83-4.05-1.1-2.5-.81-5.55.03-7.87,1.42-3.92,8.43-10.63,17.68-5.5Z"/>
    <path class="cls-1" d="M494.15,461.21v62.14c0,3.29-1.59,7.43-5.36,9.46l.31.69c4.71-1.27,9.42-1.79,14.14-1.79,5.03,0,10.07.53,14.47,1.8l.31-.7c-3.77-2.03-5.32-5.66-5.32-8.69v-53.47c0-3.78-2.91-6.9-6.68-7.19-3.38-.25-7.57-.9-11.87-2.24Z"/>
    <path class="cls-1" d="M445.94,334.6l.25.39c.58-.6,2.61-2.64,3.2-3.24,11.66-11.75,25.23-20.98,40.34-27.42,15.63-6.66,32.24-10.04,49.37-10.04s33.73,3.38,49.37,10.04c15.11,6.44,28.68,15.66,40.33,27.42,11.66,11.76,19.76,24,26.16,39.24.24.57.46,1.14.69,1.71,3.2-1.05,6.68-.94,9.92-.15-19.38-52-68.11-87.56-126.47-87.56-36.43,0-69.53,14.42-93.97,37.91,0,0-.84,3.23-.89,4.98-.09,3.12.5,4.77,1.7,6.71Z"/>
    <path class="cls-1" d="M415.85,363.3c-8.08,17.55-12.94,38.36-12.94,58.98,0,25.35,5.94,47.54,17.82,67.92,2.01-3.08,1.91-5.88,1.91-17.05-.15-.34-.3-.68-.44-1.03-6.62-15.78-9.98-32.55-9.98-49.84s2.6-31.88,9-47.43c-.5-4.56-2.74-9.65-5.36-11.55Z"/>
    <path class="cls-1" d="M643.68,508.73c-4.18,1.29-7.74.91-11.44.46-1.12,1.22-2.26,2.43-3.43,3.61-11.66,11.75-25.23,20.98-40.33,27.42-15.63,6.66-32.24,10.04-49.37,10.04s-33.74-3.38-49.37-10.04c-15.11-6.44-28.12-15.67-39.78-27.42-1.61-1.63-3.18-3.3-4.7-5-2.51,2.68-5.66,4.41-8.06,5.55,24.95,28.34,61.35,46.21,101.9,46.21s77.45-19.25,104.58-50.83Z"/>
    <path class="cls-1" d="M447.28,484.49c1.01-5.67,1.42-15.36,1.42-23.62,0-12.57.02-70.97.02-71.02l.02-.1.08.06s18.7,23.91,23.11,28.81c5.19,5.34,11.02,11.89,22.63,10.23,12.18-1.74,17.96-11.15,17.96-17.45,0-20.82-.01-50.3-.01-58.92s.59-44.64,27.14-44.5c14.46.08,19.29,7.07,19.19,14.11-.14,8.91-7.17,14.03-14.15,14.03-9.18,0-11.19-6.15-11.19-8.5,0-2.5,1.71-5.89,4.98-5.8h0c.18,1.81,1.87,3.48,4.17,3.96,2.68.56,5.17-.67,5.6-2.78.16-.77.04-1.91-.69-2.86-.58-.74-2.17-2.51-5.97-2.56-9.02-.12-11.54,6.85-11.57,9.66-.07,8.16,7.47,12.9,15.39,12.64,10.42-.35,17.86-8.86,17.61-18.67-.22-8.63-7.61-17.39-23.17-18.01-11.05-.44-24.81,3.57-35.08,18.52-4.41,6.42-7.86,17.56-9.19,26.81-1.94,13.47-1.59,28.09-1.59,33.28,0,8.35.04,33.56.04,33.61h-.07s-.07-.06-.07-.06l-53.55-68.44s-7.08-8.87-4.2-13.13c-.16-.23-.44-.64-.44-.64,0,0-4.5,6.15-10.04,10.35-5.54,4.2-11.22,7.11-11.22,7.11,0,0,.2.37.39.66,4.95-1.08,15.26,10.01,15.26,21.04s-.05,113.74-.05,113.74c0,1.84.27,7.38-1.67,11.64-3.83,8.38-13.11,9.38-15.16,9.51l-.07.29s6.14,2.88,13.72.86c5.87-1.56,17.34-6.4,20.45-23.89Z"/>
    <path class="cls-1" d="M648,386.51c-4.78,7.55.15,14.05,1.93,15.44,1.06.82,2.37,1.34,2.37,1.34l.2-.14s-.2-.34-.44-.86c-4.73-9.87,2.46-13.89,3.76-14.32,3.42-1.14,10.74-1.35,12.87,7.37.99,4.06-1.5,15.1-17.05,16.19-15.44,1.08-27.48-5.09-33.63-8.63-3.28-1.89-7.51-1.09-7.51-1.09,0,0,8.6.5,13.82-7.61,4.51-7.02,1.63-13.53,1.09-14.91-2-5.12-6.63-6.26-6.63-6.26l-.1.16c.43,1.34,1.18,8.81-6.12,12.6-10.49,5.44-25.07,5.51-42.96-6.86-15.35-10.61-21.83-20.86-35.74-31.85-4.86-3.83-10.71-5.1-13.21-4.36v69.44c0,10.68-7.91,23.64-24.77,25.47-12.81,1.39-19.41-3.22-24.28-7.96-2.76-2.69-4.59-5.69-5.16-6.69l-.19.08s.83,5.6,4.41,11.06c2.66,4.05,6.77,8.77,13.39,13.11,7.03,4.61,14.78,6.95,23.4,7.45,4.75.28,15.73.92,13.25,25.64-.43,4.34,2.28,5.17,2.28,5.17,0,0,1.47-1.74,4.9-.54,3.43,1.2,12.74,6.46,25.62,15.85,11.68,8.52,21.45,15.22,20.62,23.89-.46,5.8-6.4,11.01-13.33,7.33l-.17.26c1.44,1.07,12.58,9.35,21.08-.12,8.95-9.96.79-22.39-3.76-26.56-4.05-3.72-24.61-19.75-30.17-24.2-12.52-10.15-20.7-21.22-20.7-21.22,0,0,14.74,13.48,35.31,26.95,15.61,10.23,28.56,16.38,40.72,19.86,17.01,4.86,20.96.66,20.96.66l.08-.47s-20.21-.97-55.13-24.68c-35.94-24.4-47.6-46.65-47.6-46.65,0,0,25.2,29.24,54.63,45.9,24.57,13.91,38.07,17.56,48.16,19.52,10.76,2.09,18.87,1.82,24.61.66,6.41-1.29,10.55-5.26,10.55-5.26l-.42-.7s-22.37,4.82-55.24-10.23c-50.63-23.18-66.8-54.05-66.8-54.05,0,0,14.77,18.64,45.18,36.6,36.06,21.3,60.16,21.41,67.54,21,7.66-.43,12.97-1.89,17.23-4.43,5.08-3.03,9.38-8.03,9.38-8.03l-.65-.77s-8.64,4.63-27.49,3.88c-18.21-.72-32.97-6.39-52.18-16.32-31.89-16.49-43.97-35.51-43.97-35.51,0,0,14.71,14.22,40.12,27.86,29.35,15.75,49.02,17.62,63.29,16.77,16.05-.95,22.39-8.26,24.28-10.43,3.2-3.69,4.27-8.92,4.27-8.92l-.65-.5s-8.48,9.05-28.74,8.71c-23.54-.39-44.84-8.62-61.65-19.01-33.37-20.62-52.42-48.2-52.42-48.2,0,0,18.51,21.25,50.09,40.59,23.81,14.58,49.27,19.51,63.56,18.6,9.07-.58,17.19-3.57,22.23-7.81,7.44-6.26,8.25-14.66,8.25-14.66l-.61-.51s-11.94,9.28-29.37,8.97c-21.22-.38-43.17-7.35-69.28-26.32-11.42-8.3-18.81-17.33-18.81-17.33,0,0,18.81,16.18,44.29,26.79,24.53,10.21,42.86,8.46,51.1,5.87,12.02-3.79,18.2-12.97,19.84-19.87,2.25-9.49-.86-20.08-8.82-25.22-6.61-4.26-18.79-6.64-24.9,3.01Z"/>
  </g>
</svg>