<svg xmlns="http://www.w3.org/2000/svg" xmlns:xlink="http://www.w3.org/1999/xlink" viewBox="0 0 283.46 164.74"><defs><style>.cls-1{fill:url(#sexton_grad);}</style><linearGradient id="sexton_grad" x1="21.18" y1="184.93" x2="255.63" y2="49.57" gradientUnits="userSpaceOnUse"><stop offset="0.14" stop-color="#efdacc"/><stop offset="0.2" stop-color="#e8be9e"/><stop offset="0.33" stop-color="#a25f2c"/><stop offset="0.68" stop-color="#f8d8bf"/><stop offset="0.85" stop-color="#b67b69"/></linearGradient></defs><g id="Шар_2" data-name="Шар 2"><g id="Layer_1" data-name="Layer 1"><path class="cls-1" d="M38.8,71.79a.23.23,0,0,0,.15-.26,1.07,1.07,0,0,1,.18-.78,1.2,1.2,0,0,1,1-.32c1,.07,1.47-.59,1.88-1.22a2.46,2.46,0,0,1,1.51-1.29,7.5,7.5,0,0,1,1.74-.17,16.33,16.33,0,0,1,9,2.83c1.43,1,3.77,1.58,6.77,1.61h.65a29,29,0,0,0,15.62-5c5.21-3.78,8.74-8.17,11.85-12l1.3-1.61a14.33,14.33,0,0,0,2,12.91c3.39,4.74,8.52,6.81,14.37,6.81,3.68,0,9.63-1.77,12.63-6.14,5.78,7.68,13.94,12.48,23,12.48s17.26-4.83,23-12.54c3.12,4.59,10.28,7.93,19.53,5.09a15.64,15.64,0,0,0,7.51-5.7,14.34,14.34,0,0,0,2-12.91l1.29,1.6c3.11,3.87,6.64,8.26,11.86,12a28.94,28.94,0,0,0,15.62,5H224c3,0,5.34-.59,6.76-1.61a16.35,16.35,0,0,1,9-2.83,7.62,7.62,0,0,1,1.74.17,2.48,2.48,0,0,1,1.51,1.29c.41.63.82,1.3,1.87,1.22a1.24,1.24,0,0,1,1,.32,1.07,1.07,0,0,1,.18.78.23.23,0,0,0,.15.26.22.22,0,0,0,.28-.11,2.77,2.77,0,0,0-.1-2.8c-1-1.57-3.55-2.62-6.38-2.62h-.48a35,35,0,0,0-7.12,1.07c-.42-5.47-6.54-6.1-9.19-6.1-3.07,0-4.26-1.43-4.27-1.44a.23.23,0,0,0-.23-.08.24.24,0,0,0-.18.16,2.84,2.84,0,0,0,.41,2.37A11.62,11.62,0,0,0,216.5,62h-.42a9.16,9.16,0,0,1-3.16.61,6.1,6.1,0,0,1-4-1.35.22.22,0,0,0-.31,0,.23.23,0,0,0,0,.31c2.58,3.48,6.82,4,9.12,4a11.66,11.66,0,0,0,1.36-.07A5.39,5.39,0,0,0,223,68.16a.26.26,0,0,0,.23-.13.23.23,0,0,0,0-.27c-1-1-1.37-1.85-1.06-2.61.56-1.42,3.2-2.1,5-1.88A4.2,4.2,0,0,1,230.39,67c-.06,1.88-2.19,3-6,3.25-.37,0-.75,0-1.11,0-8.89,0-15.71-5.93-20.07-10.39a120.26,120.26,0,0,1-8.66-10.6,13.57,13.57,0,0,0,2.62.24,18.74,18.74,0,0,0,4.84-.66.23.23,0,0,0,.16-.25.23.23,0,0,0-.21-.21,39.48,39.48,0,0,1-8.23-1.66c-1.72-.56-3.28-1.2-4.79-1.83a47.34,47.34,0,0,0-7.21-2.51,43.1,43.1,0,0,0-7.58-.84c0-.6,0-1.19,0-1.79C174.16,17.86,160,0,142.5,0s-31.66,17.86-31.66,39.82c0,.6,0,1.2,0,1.79a42.16,42.16,0,0,0-7.49.84A47.34,47.34,0,0,0,96.18,45c-1.51.63-3.07,1.27-4.79,1.83a39.48,39.48,0,0,1-8.23,1.66.25.25,0,0,0-.22.21.25.25,0,0,0,.17.25,18.64,18.64,0,0,0,4.84.66,13.65,13.65,0,0,0,2.62-.24,120.26,120.26,0,0,1-8.66,10.6c-4.36,4.46-11.18,10.39-20.07,10.39h0q-.56,0-1.11,0c-3.84-.22-6-1.37-6-3.25A4.2,4.2,0,0,1,58,63.27c1.8-.22,4.44.46,5,1.88.31.76-.05,1.64-1.06,2.61a.25.25,0,0,0,0,.27.24.24,0,0,0,.24.13A5.36,5.36,0,0,0,66,65.45a11.66,11.66,0,0,0,1.36.07c2.31,0,6.55-.52,9.13-4a.23.23,0,0,0,0-.31.22.22,0,0,0-.31,0,6,6,0,0,1-4,1.35A9.25,9.25,0,0,1,69,62h-.41a11.62,11.62,0,0,0-2.53.29,2.81,2.81,0,0,0,.4-2.37.22.22,0,0,0-.17-.16.23.23,0,0,0-.23.08s-1.2,1.42-4.27,1.44c-2.65,0-8.78.63-9.2,6.1a34.75,34.75,0,0,0-7.11-1.07c-3-.15-5.82,1-6.86,2.61a2.77,2.77,0,0,0-.11,2.8A.23.23,0,0,0,38.8,71.79ZM174,43.88h.11c8.49,0,14.86,3.87,15.12,9.2a.24.24,0,0,0,.15.2.25.25,0,0,0,.25-.05,4.88,4.88,0,0,0,1-3.65c1.4,2.15,4.77,8.57.4,15.41-2.38,3.7-6.71,5.83-11.88,5.83-4.61,0-9-1.71-11.07-4.25a8,8,0,0,1-1-1.68,42.38,42.38,0,0,0,3.07-5.69.92.92,0,0,1,0,.28,2.65,2.65,0,0,0,.85,2.05,3.13,3.13,0,0,0-1.62,1.65,2.39,2.39,0,0,0,.39,2.12.23.23,0,0,0,.42-.09c0-.06.24-1.49,2.29-1.27a11,11,0,0,1,2,.51,13.51,13.51,0,0,0,4.11.82,7.39,7.39,0,0,0,4.2-1.31,4.9,4.9,0,0,0,2.3-3.12,4.8,4.8,0,0,0-.28-2.57,4.45,4.45,0,0,0,3,.64.23.23,0,0,0,.2-.18.24.24,0,0,0-.11-.25,15.57,15.57,0,0,1-4.7-4.89c-1.54-2.43-4.81-4-8.31-4a11.91,11.91,0,0,0-1.69.13A48,48,0,0,0,174,43.88Zm.88,7.31A8.19,8.19,0,0,1,181,53.87c2.13,2.41,2.33,6.75,1,8.49a3.25,3.25,0,0,1-2.56.92c-1.6,0-3.27-.68-3.27-1.83a1.57,1.57,0,0,1,.28-1.08.58.58,0,0,1,.44-.16,1.39,1.39,0,0,1,.56.14.28.28,0,0,0,.22,0,.25.25,0,0,0,.12-.18,1.89,1.89,0,0,0-1.31-2,1.47,1.47,0,0,0-.46-.07,3.23,3.23,0,0,0-2.11,1.18,6.11,6.11,0,0,0-2.83-2.37,45.69,45.69,0,0,0,1.7-5.5A10,10,0,0,1,174.87,51.19ZM142.5,2.2c16,0,29.09,16.88,29.09,37.62S158.53,77.44,142.5,77.44h0c-16.16,0-29.09-17.07-29.09-37.62C113.41,19.08,126.46,2.2,142.5,2.2ZM113.94,57a6.14,6.14,0,0,0-2.77,2.33,3.21,3.21,0,0,0-2.1-1.18,1.43,1.43,0,0,0-.46.07,1.89,1.89,0,0,0-1.31,2,.22.22,0,0,0,.12.18.26.26,0,0,0,.21,0,1.46,1.46,0,0,1,.57-.14.57.57,0,0,1,.43.16,1.57,1.57,0,0,1,.29,1.08c0,1.15-1.67,1.83-3.28,1.83a3.23,3.23,0,0,1-2.55-.92c-1.34-1.74-1.15-6.08,1-8.49a8.19,8.19,0,0,1,6.14-2.68,9.16,9.16,0,0,1,2,.23A45.31,45.31,0,0,0,113.94,57ZM94.48,49.58a4.77,4.77,0,0,0,1,3.64.22.22,0,0,0,.24.06.21.21,0,0,0,.15-.2c.27-5.33,6.63-9.2,15.13-9.2h0a50.19,50.19,0,0,0,.82,5.83,10.44,10.44,0,0,0-1.59-.12c-3.51,0-6.77,1.57-8.31,4a15.69,15.69,0,0,1-4.7,4.89.23.23,0,0,0-.11.25.23.23,0,0,0,.2.18,4.48,4.48,0,0,0,3-.64,4.71,4.71,0,0,0-.28,2.57A4.87,4.87,0,0,0,102.3,64a7.36,7.36,0,0,0,4.2,1.31,13.38,13.38,0,0,0,4.1-.82,11.44,11.44,0,0,1,2-.51c2-.21,2.29,1.21,2.3,1.27a.22.22,0,0,0,.18.19.25.25,0,0,0,.24-.1,2.39,2.39,0,0,0,.39-2.12,3.16,3.16,0,0,0-1.62-1.65,2.65,2.65,0,0,0,.85-2.05.25.25,0,0,1,0-.12A42.39,42.39,0,0,0,118,65a7.55,7.55,0,0,1-1,1.6c-2,2.54-6.46,4.25-11.06,4.25-5.18,0-9.51-2.13-11.88-5.83C89.71,58.16,93.08,51.73,94.48,49.58Zm42.16,19-.46-.37c-.52-.4-1.07-.8-1.63-1.18-.21-.13-.42-.27-.63-.39a10.67,10.67,0,0,1-1-.64l-.4-.29a4.07,4.07,0,0,1-.76-.61.37.37,0,0,1-.12-.33c.06-.29.48-.51.6-.57l1.6-.7a3.39,3.39,0,0,1-.15-.41,2.9,2.9,0,0,0-.16-.41c-.16-.31-.34-.66-.53-1-.37-.68-.74-1.29-1.11-1.84-.21-.31-.43-.61-.65-.89l-.05,0a1.12,1.12,0,0,0-.26-.27l-.08,0a20.56,20.56,0,0,0-3.71,3,.24.24,0,0,0-.08.21.3.3,0,0,0,.1.21,19.26,19.26,0,0,1,2.46,2.38,22.94,22.94,0,0,1,2.4,4.56,12.74,12.74,0,0,0,.55,1.18c.3.47.72.6,2.17,0a8.37,8.37,0,0,1,4.06-.08,2,2,0,0,1-.32-.18A19.27,19.27,0,0,1,136.64,68.53ZM87.75,60.45a.22.22,0,0,0-.24.17c0,.06-1.86,6.28-5.63,7.68a.22.22,0,0,0-.14.27.22.22,0,0,0,.22.17h0c.15,0,3.64-.31,5.19-1.72a4.6,4.6,0,0,0,2.28.62h0a.24.24,0,0,0,.2-.12.23.23,0,0,0,0-.24A13.22,13.22,0,0,1,88,60.67.24.24,0,0,0,87.75,60.45Zm56.07-6.26h0a1.24,1.24,0,0,1-.4-.08l0,0a5.6,5.6,0,0,0-2.79-.26c-.37.08-.77.17-1.3.27l-2.08.44-.1,0-.1,0a6.92,6.92,0,0,1-2.21.31l-.27,0c-.51,0-.87-.07-1,.22a.14.14,0,0,0,0,.15c.12.21.66.32,1.06.4h0a4.53,4.53,0,0,1,.9.35l1.16.1H137c.28,0,.57-.06.84-.1l.76-.13c.38-.07.77-.15,1.16-.19a9.11,9.11,0,0,1,1.05-.06,3.25,3.25,0,0,1,.94.12h0c.59.12.9.26.95.42a.17.17,0,0,1-.06.17.33.33,0,0,1-.17.08,1.56,1.56,0,0,1-.79-.16l-.31-.11a4.26,4.26,0,0,0-2.23.16l-.31.07.55.07,3,.45a7.41,7.41,0,0,1,1.15-.08,7.24,7.24,0,0,1,1.24.1,12.31,12.31,0,0,1,4.25,1.93,2.86,2.86,0,0,1,.66.68l0,.05a.12.12,0,0,1,.05,0,2.79,2.79,0,0,0,.64.47,3,3,0,0,1,.3.19,3.65,3.65,0,0,0,.69.4,1.09,1.09,0,0,0,.66.07,11.76,11.76,0,0,0,.18-1.45c0-.35-.2-.94-2-2A42,42,0,0,0,145.41,55a1.89,1.89,0,0,1-.89-.64l0,0,0,0a.59.59,0,0,0,.17-.46.9.9,0,0,1,.15-.48,1.48,1.48,0,0,1,.25-.25.87.87,0,0,0,.3-.36.71.71,0,0,0,0-.29c0-.14,0-.29-.06-.42a4.48,4.48,0,0,1-.07-.64,1,1,0,0,1,.11-.39.9.9,0,0,0,.1-.39,2.88,2.88,0,0,0-.09-.4,3,3,0,0,1-.07-.32,1.3,1.3,0,0,1,0-.69.89.89,0,0,1,.16-.22.85.85,0,0,0,.14-.19,1.17,1.17,0,0,0,0-.86,1.56,1.56,0,0,1-.06-1,1,1,0,0,1,.15-.25.67.67,0,0,0,.18-.4,2,2,0,0,0-.13-.53l0-.12a1.27,1.27,0,0,1,0-.8c0-.06,0-.1.06-.15a.55.55,0,0,0,.07-.4,2.26,2.26,0,0,0-.15-.41c0-.11-.09-.21-.13-.33a3.1,3.1,0,0,1-.09-.5,2.75,2.75,0,0,0-.09-.5c0-.09-.07-.19-.11-.28s-.09-.21-.12-.32v0l0,0s0,0,0-.06h0a1.65,1.65,0,0,0-.81-.39,3.35,3.35,0,0,0-2.47.93l-.13.1-.23.19a8.3,8.3,0,0,1-1.05.76l-.46.23-.44.22,0,0h0a2.12,2.12,0,0,0-.3.32.37.37,0,0,0,0,.34.42.42,0,0,0,.28.24,1.13,1.13,0,0,0,.4,0l0,0,.07,0,.11-.07a3.32,3.32,0,0,0,.44-.37,1.81,1.81,0,0,1,.33-.28,2,2,0,0,1,.91-.2,2.86,2.86,0,0,0,.42,0,4.92,4.92,0,0,0,.55-.14l.29-.08a3.62,3.62,0,0,1,1-.13h0a1.32,1.32,0,0,1,.94.31.37.37,0,0,1,.11.23.28.28,0,0,1-.08.25c-.15.14-.45.07-.69,0l-.21,0a8,8,0,0,0-2.61.27,1.85,1.85,0,0,0-1.06.63l0,.06-.13.18a.69.69,0,0,1-.08.21.94.94,0,0,1-.69.34.78.78,0,0,0-.38.12.31.31,0,0,0,0,.55,1.44,1.44,0,0,0,.88,0,5,5,0,0,1,.72-.53,2.93,2.93,0,0,1,1-.32,2.53,2.53,0,0,0,.55-.18,2.73,2.73,0,0,1,.43-.16,3.82,3.82,0,0,1,1.17-.12,1.3,1.3,0,0,1,1.1.51.39.39,0,0,1,.06.24.32.32,0,0,1-.29.22.81.81,0,0,1-.31,0h0a4.85,4.85,0,0,0-3.62.45,2.27,2.27,0,0,0-.76.65.77.77,0,0,1-.34.39l-.36.15a2.08,2.08,0,0,0-.73.39.22.22,0,0,0,0,.19.35.35,0,0,0,.26.17,1.26,1.26,0,0,0,.6-.05l0,0,.24-.09,0,0,.11-.07v0a1.56,1.56,0,0,0,.28-.16l.1-.07a3,3,0,0,1,1.27-.41,7.33,7.33,0,0,0,.81-.19,3.8,3.8,0,0,1,1.38-.22c.28,0,.86.17,1,.55a.3.3,0,0,1,0,.32c-.15.19-.65.09-.9,0h-.05a6.35,6.35,0,0,0-3.46.43l-.18.07-.33.12a2.59,2.59,0,0,0-.31.19h0a1.38,1.38,0,0,1-.82.54.84.84,0,0,0-.59.24.15.15,0,0,0,0,.16.23.23,0,0,0,.11.16,1,1,0,0,0,.72,0l.3-.11h0l.18-.12a2.08,2.08,0,0,1,.66-.35,4.35,4.35,0,0,1,1-.08h.11a1.62,1.62,0,0,0,.3,0l.21,0,.26-.08A4.14,4.14,0,0,1,143,49h0a1.89,1.89,0,0,1,1.34.46c.13.12.18.25.13.36s-.14.17-.43.11a8.77,8.77,0,0,0-3.85.07,1.34,1.34,0,0,0-.73.41,2.22,2.22,0,0,1-.95.85,3.86,3.86,0,0,1-1.3.26,2.11,2.11,0,0,0-.85.17.24.24,0,0,0-.11.26c.06.17.41.35,1.06.35a7,7,0,0,0,1-.08h0l.09,0a2.27,2.27,0,0,0,.35-.26,1.92,1.92,0,0,1,.47-.31,2.46,2.46,0,0,1,1.11-.11,4.33,4.33,0,0,0,.72,0,3.87,3.87,0,0,0,.67-.17l.51-.15a2.32,2.32,0,0,1,2.36.86.39.39,0,0,1,.07.16.24.24,0,0,1-.05.18.36.36,0,0,1-.24.13.9.9,0,0,1-.39-.1,6,6,0,0,0-3-.5,5.84,5.84,0,0,0-1.46.32,3.57,3.57,0,0,0-.62.26,1.83,1.83,0,0,0-.36.26l-.05,0a1.59,1.59,0,0,1-.76.5,8.38,8.38,0,0,1-1.56.12,5.41,5.41,0,0,0-.73,0c-.13,0-.14.12-.14.2a.71.71,0,0,0,.68.55,6.08,6.08,0,0,0,.91-.08l.18-.06.25-.09.46-.19a4.4,4.4,0,0,1,1.14-.39,2.92,2.92,0,0,1,.66,0H140c.34,0,.68-.08,1-.13l.37-.07a3.82,3.82,0,0,1,1.43,0,1.63,1.63,0,0,1,1.11.86.16.16,0,0,1,0,.14A.15.15,0,0,1,143.82,54.19Zm53.76,6.43a.23.23,0,0,0-.25-.17.23.23,0,0,0-.2.22,13.22,13.22,0,0,1-1.68,6.61.23.23,0,0,0,0,.24.23.23,0,0,0,.2.12,4.55,4.55,0,0,0,2.27-.62c1.56,1.41,5,1.71,5.2,1.72h0a.23.23,0,0,0,.23-.17.24.24,0,0,0-.15-.27C199.44,66.9,197.6,60.68,197.58,60.62Zm-44.33,4a3.38,3.38,0,0,1,1.24.36l.18.07.22.1c-.1-.26-.19-.49-.29-.71h0a6,6,0,0,0-2.37-2.86c-.37-.25-.72-.47-1-.67s-.73-.43-1.08-.63l-.05,0a34.69,34.69,0,0,0-8.42-2.84c-.84-.17-1.62-.32-2.32-.44-1-.19-2-.36-2.71-.46l-.89-.12-.11,0a.22.22,0,0,0-.12.11.48.48,0,0,0,.06.32,2.8,2.8,0,0,0,.46.64,1.15,1.15,0,0,1,.14.17,8.51,8.51,0,0,0,.91.88,3.57,3.57,0,0,0,1.81,1h.06a29.78,29.78,0,0,1,4.13.47,27.22,27.22,0,0,1,6.25,1.93c1.64.76,2.16,1.07,2.71,1.81l0,0,0,0,.17.19.36.32.28.24a.16.16,0,0,1,.05.11.08.08,0,0,1,0,0,.12.12,0,0,1-.12,0,2.5,2.5,0,0,1-.56-.26,83.32,83.32,0,0,0-9.65-2.31c-.81-.14-1.7-.25-2.63-.34a.34.34,0,0,0-.06.33,1.35,1.35,0,0,0,.51.7l.14.13a7.53,7.53,0,0,0,.81.63,7.71,7.71,0,0,0,2.12,1l4.46,1c1.37.28,4.57,1,6.52,2.64l.1,0,.24.09a4.06,4.06,0,0,0,1,.17.73.73,0,0,0,.39,0,.24.24,0,0,0,.14-.21c-.14-.39-.33-.92-.5-1.29a3.37,3.37,0,0,0-.14-.32,1.84,1.84,0,0,0-.43-.73h0s0,0,0,0a4.45,4.45,0,0,0-.7-.47c-.19-.11-.38-.2-.57-.29s-.4-.19-.6-.3a.35.35,0,0,1-.1-.08.14.14,0,0,1,0-.16v0Zm2.81,4.49a6.83,6.83,0,0,1-1,0h-.18c-1.09,0-4.73-.24-5.87-.45a8.61,8.61,0,0,1-1.72-.55.21.21,0,0,0,0,.15,3,3,0,0,0,.67.62,6.12,6.12,0,0,1,.48.41,4.63,4.63,0,0,1,.65.8,3.41,3.41,0,0,1,.17.33,3.25,3.25,0,0,0,.3.51,1.43,1.43,0,0,0,.61.42c2.77.11,4.82.07,5.05.06a1.84,1.84,0,0,0,1.46-.59.66.66,0,0,0,.19-.53c0-.1-.12-.44-.25-.85A.57.57,0,0,0,156.06,69.15Zm-6.92,2.06a2,2,0,0,0-.18-.52,4.76,4.76,0,0,0-1.56-1.63l-.69-.46c-.66-.43-1.4-.93-2.14-1.48a38.64,38.64,0,0,1-3.08-2.5,28.64,28.64,0,0,1-2.75-2.87c-.28-.33-.55-.67-.75-.93a4.19,4.19,0,0,0-.88,2c-.09.37-.31.43-.6.49l-.11,0-.69.18c-.32.08-.63.18-.92.28-.49.17-1.13.4-1.75.67a3.14,3.14,0,0,0-.42.22.47.47,0,0,0-.14.08l.68.43,3.41,2c.91.58,2.11,1.33,3.39,2,1.07.56,2.16,1.07,3.22,1.52a25.47,25.47,0,0,0,5,1.44,1,1,0,0,0,.78-.16.75.75,0,0,0,.23-.56v-.08A.49.49,0,0,0,149.14,71.21Zm7.23-42.81a.45.45,0,0,1-.11-.17h0a2.4,2.4,0,0,1-.18-.26,1.09,1.09,0,0,0-.14-.23l-.08-.09c0-.05-.09-.1-.13-.16a.42.42,0,0,1-.06-.35l0,0h0a1.2,1.2,0,0,1,.24.15l0,0a.56.56,0,0,0,.26.12s0,0,.06,0a1.06,1.06,0,0,0,0-1,9.25,9.25,0,0,0-1.5-1.35c-.31-.25-.6-.48-.81-.67a4.22,4.22,0,0,1-.72-.91h-.05a16,16,0,0,0-2.83.18,10.69,10.69,0,0,0-2,.66l-.09,0v0a1.5,1.5,0,0,0,.58.62l.14.11a2.13,2.13,0,0,1,.92,1.26,1.07,1.07,0,0,1-.08.5,7.11,7.11,0,0,0-.24,1.4l0,.29q0,.45-.06,1v.15l0,.14a1.77,1.77,0,0,1-.08.33,2.37,2.37,0,0,1-.31.54A4.16,4.16,0,0,1,147.26,32a10.75,10.75,0,0,1-1.78.5c-1,.2-1.78.24-1.78.25a.19.19,0,0,1-.19-.18.2.2,0,0,1,.17-.21,14.27,14.27,0,0,0,1.69-.36l.26-.09a3,3,0,0,1-.12-.29.58.58,0,0,0,0-.11l-.09-.24a10.67,10.67,0,0,0-.58-1.24,3.94,3.94,0,0,0-1.21-1.28,3,3,0,0,0-1.63-.47,5.52,5.52,0,0,1-.71-.11c-.27,0-.56-.09-.83-.11a2.06,2.06,0,0,0-.63.07,25.28,25.28,0,0,0-3.7,3l-.12.12-.06,0a4.89,4.89,0,0,0-.07.68v.28a2.34,2.34,0,0,1-.22,1.21,2.07,2.07,0,0,1-.17.24,1.36,1.36,0,0,0-.21.32,1.57,1.57,0,0,0,0,.91v0a2.17,2.17,0,0,1,0,.32c0,.14,0,.23-.07.27a.13.13,0,0,1-.12,0c-.09,0-.12-.12-.14-.16a2.08,2.08,0,0,1-.09-1.47,3,3,0,0,1,.21-.35,1.19,1.19,0,0,0,.28-.61,1.81,1.81,0,0,0-.08-.6c0-.11-.06-.22-.08-.33a8,8,0,0,0-2.29,3.88,6.77,6.77,0,0,0,.09,3,4.93,4.93,0,0,0,1.33,2.43,7.76,7.76,0,0,0,4.27,1.1h.52a7.85,7.85,0,0,0,1.24-.26,6.54,6.54,0,0,0,2.17-1.18,5.46,5.46,0,0,0,1-1,3.28,3.28,0,0,0,.15-3.22,8.92,8.92,0,0,0-.62-1.14l0,0,0,0a4,4,0,0,0-.54-.72l-.11,0a3.59,3.59,0,0,0-.47-.12l-.45-.08a5.55,5.55,0,0,1-.71-.13c-.72-.17-1.07-.36-1-.54a.16.16,0,0,1,0-.07c.06,0,.19,0,.31,0h0l.31.09.19,0a6.9,6.9,0,0,0,.95.15,8.19,8.19,0,0,0,2.19-.16c.55-.1,1.22-.27,2.05-.51l.49-.14a14,14,0,0,1,1.93-.44,7.53,7.53,0,0,1,2.52,0,2.76,2.76,0,0,1,2,1.13,1.17,1.17,0,0,1,.07,1,2.51,2.51,0,0,1-.19.37c0,.08-.08.15-.11.22s-.07.17-.1.24a2.26,2.26,0,0,0-.13.33l0,.08-.06-.07a.28.28,0,0,1-.08-.15.34.34,0,0,1,0-.17,2.14,2.14,0,0,1,.12-.64c0-.09.05-.19.07-.28l0-.09a.25.25,0,0,0-.17-.16h0c-.09,0-.17.09-.25.25a2.14,2.14,0,0,1-.25.41,1.61,1.61,0,0,0-.3.54.7.7,0,0,0,0,.45.42.42,0,0,0,.11.16.63.63,0,0,1,.15.28.76.76,0,0,1,0,.26v0a2.82,2.82,0,0,0,0,.52.49.49,0,0,0,.11.14.87.87,0,0,0,.67.23.38.38,0,0,0,.3-.13,1.43,1.43,0,0,1-.07-.32c0-.17-.06-.34-.08-.48V37a.19.19,0,0,1,.1-.22.5.5,0,0,1,.16-.07l.24-.06a.12.12,0,0,1,.1,0s.06,0,.06.08a.09.09,0,0,1,0,.05,5.77,5.77,0,0,0,0,.77,2.33,2.33,0,0,0,0,.45.72.72,0,0,0,.56.18h0a1,1,0,0,0,.3,0l.13-.08L154,38a1.88,1.88,0,0,0,0-.48l0-.1c0-.24-.08-.53-.26-.66l-.05,0,0,0a.3.3,0,0,1,.25,0,1.49,1.49,0,0,1,.54.11c.13.06.08.23,0,.35a.26.26,0,0,0,0,.1c0,.15,0,.31,0,.46s0,.15,0,.23a.67.67,0,0,0,0,.2c0,.11.2.19.42.21s.47,0,.52-.17a.58.58,0,0,0,0-.14h0c0-.1,0-.23,0-.38a1.4,1.4,0,0,0-.33-.78l0,0,.05,0a.7.7,0,0,1,.41-.05l.31,0a.14.14,0,0,1,.13.07.15.15,0,0,1,0,.07c0,.08,0,.15,0,.23a1.9,1.9,0,0,0,0,.34,2.89,2.89,0,0,1,0,.73c0,.16.38.09.55.06h.06a.38.38,0,0,0,.15,0,.33.33,0,0,0,0-.15,2.12,2.12,0,0,0-.08-.38,4.21,4.21,0,0,0-.28-.72.15.15,0,0,1,.06-.2h0l.24,0a.69.69,0,0,1,.4.08.12.12,0,0,1,0,0,.12.12,0,0,1,0,.1.73.73,0,0,0,0,.36,1.79,1.79,0,0,1,0,.24,3,3,0,0,1,0,.73c0,.07.13.1.18.12a.79.79,0,0,0,.53,0l.07-.08a2.09,2.09,0,0,0-.09-.53c0-.16-.11-.33-.19-.52a.75.75,0,0,0-.07-.12.51.51,0,0,1-.11-.25V36.8h.23c.23,0,.55,0,.62.22a.61.61,0,0,1,0,.3c0,.06,0,.11,0,.15a1.54,1.54,0,0,0,0,.37,1.91,1.91,0,0,1,0,.48l0,0a.57.57,0,0,0,.48.12.08.08,0,0,0,.08,0,2.28,2.28,0,0,0-.1-.6,4.52,4.52,0,0,0-.28-.73.14.14,0,0,1,.06-.19l.05,0,.23,0a.44.44,0,0,1,.18,0,.23.23,0,0,1,.18.2,4.57,4.57,0,0,1,.1.61,2.71,2.71,0,0,1,0,.77.26.26,0,0,0,.14.18.29.29,0,0,0,.24,0,2.1,2.1,0,0,0-.35-1.68l0,0,0,0a.43.43,0,0,0,0-.4,2.79,2.79,0,0,0-.31-.39,1.76,1.76,0,0,1-.32-.4,1.26,1.26,0,0,1,0-.77,1.71,1.71,0,0,0,0-.39.44.44,0,0,0-.16-.25,2.17,2.17,0,0,1-.49-.83,2.82,2.82,0,0,1,.12-1.73c-.09.1-.18.2-.27.32a4.34,4.34,0,0,0-.52,1,2.29,2.29,0,0,0-.21,1,.63.63,0,0,0,0,.16l0,0,0,0a.41.41,0,0,0,.18.15,1.06,1.06,0,0,0,.53,0,1.78,1.78,0,0,0,.24-.09h0a.17.17,0,0,1,.14,0,.17.17,0,0,1,.11.09.2.2,0,0,1,0,.24,2.67,2.67,0,0,1-.26.17,1.46,1.46,0,0,1-.82.18.9.9,0,0,1-.79-.91,3.26,3.26,0,0,1,.25-1.24,6,6,0,0,1,1.19-2,5.47,5.47,0,0,1,.59-.59,1.21,1.21,0,0,0-.33-.5,10.85,10.85,0,0,0-1-.77C156.83,28.73,156.52,28.53,156.37,28.4Zm-3.61,2.17a1.72,1.72,0,0,1-.39,0,1.4,1.4,0,0,1-1.18-1.48c0-.82-.08-2.21,1.15-2.47a2.75,2.75,0,0,1,.94,0l.24,0a1.74,1.74,0,0,1,1.2.53,1.2,1.2,0,0,1,.32.67,4.33,4.33,0,0,1-.21,1.77l-.06.18,0-.18a4.74,4.74,0,0,1-.07-.74,2.55,2.55,0,0,0-.19-.92.48.48,0,0,0-.1-.19l-.1-.11-.05,0-.14-.09c0,.09,0,.18-.05.28a3.39,3.39,0,0,0-.11,1l0,.15a2,2,0,0,1,0,1A1.23,1.23,0,0,1,152.76,30.57Zm2.22.82-.24.14a1.2,1.2,0,0,0-.67.62.91.91,0,0,0,0,.54l0,.07a1.21,1.21,0,0,1,.09.54.09.09,0,0,1,0,.06h-.06a.17.17,0,0,1-.09-.07l-.46-.89a1,1,0,0,1-.14-.39c0-.34.41-.59.64-.73a4.32,4.32,0,0,0,.86-.61,2.4,2.4,0,0,0,.58-1.65.14.14,0,0,1,0-.1l.07,0a.09.09,0,0,1,.08,0,.14.14,0,0,1,0,.1A2,2,0,0,1,155,31.39Zm3.86,10.12a1.76,1.76,0,0,1,0-1.21,4,4,0,0,0,.54-1.32.25.25,0,0,0-.23.07,1.44,1.44,0,0,1-.08.25,1.84,1.84,0,0,1-.23.41.21.21,0,0,1-.29.07c-.16-.12,0-.37.11-.57a1,1,0,0,0,.09-.17.17.17,0,0,0,0-.1s0-.06-.12-.08a.27.27,0,0,0-.18,0c-.06,0-.06.07-.05.16a.38.38,0,0,1,0,.15c0,.19-.12.52-.39.52h0a.24.24,0,0,1-.14,0c-.08-.09,0-.22,0-.26a1.94,1.94,0,0,0,.13-.3.26.26,0,0,0,0-.15c0-.06-.21-.11-.31-.12a.72.72,0,0,0-.27,0v0h0c0,.14,0,.27,0,.41a.36.36,0,0,1-.13.33.34.34,0,0,1-.28,0,.15.15,0,0,1-.07,0,.13.13,0,0,1,0-.15,1.83,1.83,0,0,0,.13-.56v0h0a1.63,1.63,0,0,0-.66,0h0s0,0,0,.06v.34a.52.52,0,0,1-.06.34.26.26,0,0,1-.21.11.18.18,0,0,1-.15-.08.26.26,0,0,1,0-.24.29.29,0,0,0,0-.09.2.2,0,0,0,0-.11.82.82,0,0,1,0-.21.18.18,0,0,0,0-.1s0-.06-.11-.09a.79.79,0,0,0-.75,0,.1.1,0,0,0,0,0,.2.2,0,0,0,0,.11,1.32,1.32,0,0,1,0,.34.5.5,0,0,1-.17.35.17.17,0,0,1-.17,0c-.19-.09-.16-.43-.13-.68,0,0,0-.1,0-.14v0h0a.9.9,0,0,0-.87-.09h0v.13a1.39,1.39,0,0,1,0,.5.28.28,0,0,1-.25.22h0a.22.22,0,0,1-.2-.2,1.19,1.19,0,0,1,0-.26.6.6,0,0,0,0-.34.21.21,0,0,0-.16-.08c-.12,0-.41-.09-.53,0a.18.18,0,0,0-.07.15v.49h-.07a.77.77,0,0,1-.32-.07.16.16,0,0,1-.1-.11.18.18,0,0,1,0-.13.56.56,0,0,0,0-.08c.11-.18.18-.34.05-.45a.86.86,0,0,0-.58-.19l-.36.12a.78.78,0,0,1-.55.22s0,0,0,.06a3.43,3.43,0,0,0,.66,1,3.37,3.37,0,0,0,.67.58,1.35,1.35,0,0,0,.28.16.19.19,0,0,1,.09.25.19.19,0,0,1-.23.11A3.76,3.76,0,0,1,150.9,40a3.61,3.61,0,0,1-.8-1.16,3.88,3.88,0,0,1-.36-1.59,3.1,3.1,0,0,1,.45-1.61c.14-.2.25-.37.4-.56a5.42,5.42,0,0,0,.33-.5l0,0v0a1,1,0,0,0,.1-.6.67.67,0,0,0-.29-.33,1.31,1.31,0,0,0-.81-.09,2.62,2.62,0,0,0-1.07.45c-.08.09-.16.2-.25.32a4.36,4.36,0,0,1-1.14,1.18,1.62,1.62,0,0,1-.56.26,1,1,0,0,1-.65-.06,1.3,1.3,0,0,1-.69-.82,1.39,1.39,0,0,1-.07-.33.73.73,0,0,0-.5-.34,1.8,1.8,0,0,0-.73.06,1.26,1.26,0,0,0-.68.36c-.15.18-.09.41,0,.64l0,.06c0,.09.06.19.1.29a5.59,5.59,0,0,0,.62,1.07l.12.16a3.47,3.47,0,0,1,.31.44,3.37,3.37,0,0,1,.33.77,7.94,7.94,0,0,1,.22,1.37v.16c0,.48.1.91.16,1.27l.09.45v0a3.93,3.93,0,0,0,2.1,2.63,6.47,6.47,0,0,0,2.11.07c.62,0,1.39-.08,2.35-.09h.71c2,0,4,.13,4.86.19l.35,0c.78,0,1.18-.17,1.34-.72a2.47,2.47,0,0,0-.39-1.57C158.93,41.7,158.88,41.59,158.84,41.51ZM142.31,21c-1,.3-1.91.66-2.63.94l-.41.18c-.71.31-1.44.62-2.12,1s-1.38.7-2,1.07l-.36.2a26.75,26.75,0,0,0-3.95,2.7,20.53,20.53,0,0,0-2.42,2.35c-.22.27-.37.47-.47.6v0a14.64,14.64,0,0,0-1.69,3.23,8.62,8.62,0,0,0-.19,5.47,4.81,4.81,0,0,0,2.63,2.95,9.19,9.19,0,0,0,3.92-1v0l0,0-.32-.39c-.11-.14-.21-.29-.32-.44a6.76,6.76,0,0,0-.86-1.06.83.83,0,0,0-.67-.25.67.67,0,0,0-.3.1.23.23,0,0,0-.07.09c-.07.09-.13.19-.22.16s-.09-.08-.08-.17a4.15,4.15,0,0,1,.36-1.12,8,8,0,0,1,.43-1s.05-.09.07-.14l.05-.08,0-.06a16,16,0,0,1,1.87-2.77,35.8,35.8,0,0,1,3.59-3.67,30.34,30.34,0,0,1,4.79-3.45,36.63,36.63,0,0,1,5.31-2.6A19.48,19.48,0,0,1,148.8,23c.9-.19,1.64-.35,2.34-.54a28.62,28.62,0,0,0,3.38-1.07l.64-.27c1.14-.69,2.05-1.38,2.4-1.64l.1-.08c.28-.21.5-.5.46-.6s-.08-.06-.14-.06c-.31,0-1.06.08-1.93.16l-1.33.13-.6.05-.1,0c-.17,0-.48.08-1,.13s-1,.09-1.56.14l-1.86.17a36.42,36.42,0,0,0-4.72.76C144.12,20.47,143.27,20.7,142.31,21Zm-16.14,6a1.68,1.68,0,0,0,2.52.49,17.91,17.91,0,0,0,2.53-1.53c.3-.2.62-.42.94-.62.75-.54,1.52-1,2.28-1.49l.35-.2c.65-.38,1.33-.77,2.05-1.12s1.46-.72,2.18-1l.39-.17c.73-.3,1.69-.69,2.66-1s1.84-.57,2.66-.77a39.63,39.63,0,0,1,4.72-.84c-.9-1.06-3-3.54-4.25-5.17A36.19,36.19,0,0,1,141.55,7l-.12-.23c-.17-.36-.51-.75-1.61-.93s-5.16.84-9.64,3.68a29.1,29.1,0,0,0-8.48,8,7.19,7.19,0,0,0-1,2.61,1.08,1.08,0,0,0,.39.82l.08.07a23.9,23.9,0,0,1,3.86,4.2c.23.31.56.81,1,1.46A3.4,3.4,0,0,1,126.17,27Zm5.19,30.43A10.24,10.24,0,0,0,133,60.64c.57.85,1.2,1.66,1.91,2.55l.68-.21,1-.28c.12-.37.26-.74.42-1.13a7.92,7.92,0,0,1,.35-.72l0-.08a3.25,3.25,0,0,0,.25-.45l-.5-.67-.47-.63a30.6,30.6,0,0,0-2-2.47c-.62-.48-.87-.57-1-.57h0a10.2,10.2,0,0,0-2.2,1.26A.28.28,0,0,0,131.36,57.4Zm15.58-29.53a1.33,1.33,0,0,1-.81-.3.6.6,0,0,1-.08-.08.83.83,0,0,0-.21-.17,1,1,0,0,0-.45-.07H144.3a.69.69,0,0,0-.25,0,.45.45,0,0,0-.12.12c-.47.62.16,1.15.7,1.61l.07.06a4.06,4.06,0,0,1,.42.4,3.78,3.78,0,0,1,.57,1c.07.17.14.34.22.5l.19.45a.57.57,0,0,0,.13.21l.12-.05a4.91,4.91,0,0,0,1.16-.6,3.12,3.12,0,0,0,1-1.31,9.69,9.69,0,0,0,.51-2c0-.22.08-.44.13-.66a2.8,2.8,0,0,0,.08-.57,1.1,1.1,0,0,0-.38-.89,4.05,4.05,0,0,0-.35-.21l-.17-.09a3.1,3.1,0,0,1-.61-.47.73.73,0,0,1-.14-.18c-.44.17-.9.32-1.35.47s-1,.33-1.47.51l-.21.09-.17.08a2.17,2.17,0,0,0-.19.41.59.59,0,0,0,0,.39.45.45,0,0,0,.48.24h.1a3.28,3.28,0,0,1,1,0,1.48,1.48,0,0,1,.58.36l0,0a1.47,1.47,0,0,0,.73.33.2.2,0,0,1,.18.1.16.16,0,0,1-.09.2A.25.25,0,0,1,146.94,27.87Zm-5.21-.27.12,0a.83.83,0,0,0,.21.06,1,1,0,0,0,.3,0h.27a1.54,1.54,0,0,1,.37.09l.16,0h0v0q.1-.3.18-.6c.06-.2.11-.4.18-.59a1.86,1.86,0,0,0,.06-.34,1.57,1.57,0,0,1,0-.23,24.19,24.19,0,0,0-2.54,1.24l-.36.22-.07,0h.25A2.18,2.18,0,0,1,141.73,27.6Zm59.53,84.52a4.57,4.57,0,0,0-1.7-.83,7.8,7.8,0,0,0-1.93-.25h-.75a5.36,5.36,0,0,0-4.21,1.53,7,7,0,0,0-1.08,4.21v10.88a7.24,7.24,0,0,0,.48,2.87,4.71,4.71,0,0,0,1.22,1.74,4.11,4.11,0,0,0,1.71.88,7.79,7.79,0,0,0,1.88.23h.75c2,0,3.43-.52,4.27-1.56a6.83,6.83,0,0,0,1.09-4.16V116.78a7.66,7.66,0,0,0-.48-3A4.24,4.24,0,0,0,201.26,112.12Zm.15,15.54a5.52,5.52,0,0,1-.77,3.2,4.06,4.06,0,0,1-3,.93h-.77a6.29,6.29,0,0,1-1.5-.19,2.51,2.51,0,0,1-1-.53,3.13,3.13,0,0,1-.8-1.17,5.87,5.87,0,0,1-.35-2.24V116.77a5.74,5.74,0,0,1,.7-3.18,3.92,3.92,0,0,1,3-1h.77a6.51,6.51,0,0,1,1.52.18,3.11,3.11,0,0,1,1.12.56,2.74,2.74,0,0,1,.78,1.08,6.12,6.12,0,0,1,.35,2.31ZM62,150.89l-4.69,0a.81.81,0,0,0,0,.31c.91.06,1.62,1.19,1.62,2.32v8.35c0,1.13-.72,2.25-1.63,2.29a.76.76,0,0,0,0,.3H62v-.3c-.93,0-1.64-1.26-1.64-2.4V153.5A2.15,2.15,0,0,1,62,151.22C62,151.15,62,150.59,62,150.89Zm135.34-45.27a23.13,23.13,0,0,0-6.22.7,8.87,8.87,0,0,0-3.65,2,7.52,7.52,0,0,0-1.5,2.57,12,12,0,0,0-.6,4v14.54a12,12,0,0,0,.6,4.14,7.67,7.67,0,0,0,1.58,2.64,9.24,9.24,0,0,0,3.56,1.92,21.93,21.93,0,0,0,6.23.74,21.68,21.68,0,0,0,6.12-.74,9.16,9.16,0,0,0,3.68-2c1.33-1.3,2-3.56,2-6.69V114.91c0-3-.69-5.25-2.05-6.58C205.27,106.53,202,105.62,197.33,105.62Zm7.88,22a9,9,0,0,1-1.57,5.52c-1.32,1.62-3.32,2.41-6,2.41h-.77a10,10,0,0,1-2.39-.3,6.18,6.18,0,0,1-2.62-1.34,6.85,6.85,0,0,1-1.81-2.53,9.3,9.3,0,0,1-.67-3.76V116.77a9.07,9.07,0,0,1,1.57-5.59l.11-.14a7.47,7.47,0,0,1,5.81-2.2h.77a9.62,9.62,0,0,1,2.45.31,6.58,6.58,0,0,1,2.52,1.23,6.38,6.38,0,0,1,1.93,2.57,9.47,9.47,0,0,1,.67,3.82Zm-7.88-25.84a26.73,26.73,0,0,0-7.27.86,12.61,12.61,0,0,0-5.28,2.92,11.36,11.36,0,0,0-2.39,4,15.72,15.72,0,0,0-.83,5.34v14.54a16,16,0,0,0,.83,5.46,11.72,11.72,0,0,0,2.46,4,12.91,12.91,0,0,0,5.15,2.87,30,30,0,0,0,14.55,0,12.86,12.86,0,0,0,5.21-2.91c2.11-2.07,3.19-5.24,3.19-9.43V114.91c0-4.09-1.07-7.21-3.19-9.29C207.2,103.1,203,101.82,197.33,101.82Zm14,27.63c0,3.74-.9,6.54-2.69,8.29a11.62,11.62,0,0,1-4.57,2.53,24,24,0,0,1-6.76.83,24.26,24.26,0,0,1-6.88-.83,11.56,11.56,0,0,1-4.48-2.49,9.88,9.88,0,0,1-2.08-3.42,14,14,0,0,1-.75-4.91V114.92a13.81,13.81,0,0,1,.75-4.81,9.5,9.5,0,0,1,2-3.39,10.94,10.94,0,0,1,4.59-2.52,25.18,25.18,0,0,1,6.83-.79c5.26,0,9.06,1.12,11.31,3.35,1.81,1.76,2.71,4.5,2.71,8.16Zm-3.74,34.16c-1-.57-1.54-2.15-2-3.34-.85-2.23-1.81-4.38-2.72-6.54a4.89,4.89,0,0,1-.4-1.6c0-.65,1-.79,1.31-.95v-.25h-6.39v.37c.61.12,1.27.24,1.27,1.23,0,.59-3.75,9.25-4.33,10.27-.8,1.38-1.15.93-2,1.23v.43l5.17,0V164c-.43.08-1.44-.28-1.4-.89,0-.44,1.26-2.77,1.26-2.93h0c2.17,0,6.49,0,6.49,0a16.65,16.65,0,0,1,1.15,3c0,.79-.91.63-1.32.83a1.23,1.23,0,0,0,0,.43h4.92c0-.16,0-.28,0-.45h0C208.3,163.79,207.93,163.79,207.61,163.61Zm-9.7-4.82c.8-2.15,1.73-4.23,2.64-6.3l2.67,6.28ZM170.78,106.1h-22.5v2.74h9.32l-.08,29.5h3.94v-29.5h9.32Zm14,45.18a2,2,0,0,0,0-.35c-1.7,0-3.41,0-5.11,0a.64.64,0,0,0,0,.49c.41,0,1.34,0,1.34.75s-3.8,9.37-4.38,10.73c-.57-1.28-4.41-9.92-4.41-10.75s.94-.77,1.33-.79a1.55,1.55,0,0,0,0-.43c-1.66,0-3.32,0-5,0v.43c1,0,1.62.93,1.62,2.18v8.35c0,1.13-.71,2.25-1.62,2.29a.52.52,0,0,0,0,.18.25.25,0,0,0,0,.12h4.61a.25.25,0,0,0,0-.12.52.52,0,0,0,0-.18c-.91,0-1.62-1.26-1.62-2.4v-7c1,2.25,1.83,4.6,2.81,6.86a21.37,21.37,0,0,1,.78,2.27c.05,0,.08.38-.06.57h3A.86.86,0,0,1,178,164c.5-1.49,3.21-7.92,3.75-9.11v7c0,1.13-.71,2.25-1.63,2.29a1,1,0,0,0,0,.18.49.49,0,0,0,0,.12h4.67a.49.49,0,0,0,0-.12,1,1,0,0,0,0-.18c-.92,0-1.63-1.26-1.63-2.4V153.5C183.13,152,183.79,151.66,184.78,151.28Zm-19.26-13.07-.26-.25V112.64h5l.47.38a2.22,2.22,0,0,0,2.37.39,2.18,2.18,0,0,0,1.43-2.08v-6.89a2.16,2.16,0,0,0-2.33-2.14H146.82a2.16,2.16,0,0,0-2.33,2.14v6.89a2.21,2.21,0,0,0,1.38,2.06v0h0l.1,0a2.13,2.13,0,0,0,2.51-.53l.3-.27h5L153.72,138l-.35.35a2.15,2.15,0,0,0-.57,2.38,2.19,2.19,0,0,0,2.11,1.45h9.16a2.27,2.27,0,0,0,2.12-1.39A2.05,2.05,0,0,0,165.52,138.21Zm-12.16,2.34,1.95-1.92.08-27.59h-7.2l-2.11,1.89v-9l26.91,0v8.88L170.88,111h-7.21v27.59l2,1.92Zm104.86-33.09V104.2h1.13v-.62h-2.9v.62h1.13v3.26Zm5.68,0v-3.88h-1l-1,2.83-1-2.83h-1v3.88h.64V104.2h0l1.21,3.26H262l1.22-3.26h0v3.26ZM144,162.9c-1.75,0-3.5,0-5.24,0l0-4.78H145a8.59,8.59,0,0,1,2.32.91l0-.2-2-4c-.35.87-.57,1.7-1.45,1.7h-5.07v-4h5.48a6.59,6.59,0,0,1,5.18,3.2l.14-.18c-.72-1.5-1.38-3.1-2.19-4.56a2.2,2.2,0,0,1-.63.53,6.74,6.74,0,0,1-.72-.24,5.26,5.26,0,0,0-1.64-.33h-9.18v.39a2.68,2.68,0,0,1,2.08,2.87l0,6.91c0,2.49-.54,2.67-2.09,3v.39h9.12a6.35,6.35,0,0,0,2.75-.91c.27.26.52.54.79.79l1.94-5.06-.19-.15A7,7,0,0,1,144,162.9Zm100.7-11.18a11,11,0,0,0-4.33-1.09,9.39,9.39,0,0,0-4.09,1.09l-.94-.67-2.18,4.86c0,.16.23.29.33.37,1.71-1.95,3.79-4.09,6.2-4.09l0,10.39a1.34,1.34,0,0,1-1.29,1.45v.43c.25,0,.5,0,.77,0l3.47,0V164a1.35,1.35,0,0,1-1.31-1.45l0-10.39c2.41,0,4.48,2.14,6.21,4.09.09-.08.32-.21.33-.37l-2.19-4.86Zm38.08-53.93a9.12,9.12,0,0,1-9.1-9.11V88H180.12l.91,1.38h91.28a10.5,10.5,0,0,0,9.77,9.78v47.73a10.51,10.51,0,0,0-9.77,9.78H258.44l.92,1.38h14.31v-.69a9.12,9.12,0,0,1,9.1-9.11h.69V97.79Zm-39.13,33.39L231.58,106.1h-4.66v32.24h3.87V113.15l12.47,25.19h4.32V106.1h-3.94Zm8.09-25.12a2,2,0,0,0,.49-2.61,2.26,2.26,0,0,0-2-1.15H241a2.18,2.18,0,0,0-2.09,1.35,2.07,2.07,0,0,0,.46,2.32l.44.46v8.09l-5.27-11-.41-.54a2.49,2.49,0,0,0-1.68-.71h-8.17a2.28,2.28,0,0,0-2.08,1.27,2,2,0,0,0,.6,2.56l.29.3V138l-.24.25a2.08,2.08,0,0,0-.68,2.58l0,0h.06a0,0,0,0,1,0,0,2.29,2.29,0,0,0,2.08,1.27h9.09a2.18,2.18,0,0,0,2.08-1.41h.16l-.12-.1v0a2.14,2.14,0,0,0-.52-2.3l-.42-.38v-8.55l4.59,9.28a2.22,2.22,0,0,0,1.85,3.49h9.16a2.26,2.26,0,0,0,2.11-1.37,2,2,0,0,0-.66-2.56l-.26-.25V106.43Zm0,34.49H239.5l1.59-1.62L233,122.59v16l2.12,1.9-12.44.1,2-2V105.8l-1.81-1.91h9.64l.57.3,8.32,17.3V105.8l-1.81-1.89,12.07-.12-1.9,2v32.83Zm17.4,11.56a14.65,14.65,0,0,1,8.38-8.38l.45-.17V102.47l-.45-.17a14.65,14.65,0,0,1-8.38-8.38l-.17-.44H183.71l.91,1.38H268c1.24,4.13,4.7,6.93,8.55,8.55v39.21a16,16,0,0,0-8.55,8.55H254.78l.92,1.38H269ZM230,159.42l-.49.54a10.48,10.48,0,0,1-2.25,2,6.94,6.94,0,0,1-3.63,1h-3.45l-.28,0v-9.72a1.93,1.93,0,0,1,1.94-2l0-.37h-5.37l0,.29a2.06,2.06,0,0,1,1.92,2v8c0,1.17-.78,2.81-1.79,2.81h-.14v.41l8,0a15.31,15.31,0,0,0,1.92-.34c.13,0,1-.35,1-.35s.69.69.8.79l2-5A1.9,1.9,0,0,1,230,159.42ZM6.87,142.62V103.41a16,16,0,0,0,8.55-8.55h85.47l.93-1.38H14.49l-.18.44a14.65,14.65,0,0,1-8.38,8.38l-.44.17v41.09l.44.17a14.65,14.65,0,0,1,8.38,8.38l.17.44H30l1-1.38H15.42A16,16,0,0,0,6.87,142.62Zm-5.49,4.26V99.15a10.5,10.5,0,0,0,9.78-9.78h93.41l.92-1.38H9.8v.69A9.12,9.12,0,0,1,.69,97.79H0v50.45H.69a9.12,9.12,0,0,1,9.11,9.11V158H26.17l1-1.38h-16A10.51,10.51,0,0,0,1.38,146.88Zm92.9-38V106.1H76.59v32.24H94.28v-2.75H80.54V123.31H91.3V120.5H80.54V108.84Zm-.42,3.8.28.24a2.16,2.16,0,0,0,2.87.43,2.36,2.36,0,0,0,1.07-2v-6.89a2.13,2.13,0,0,0-2.26-2.14H74a2.23,2.23,0,0,0-2.07,1.27,2.06,2.06,0,0,0-.12,1.61,2,2,0,0,0,.72.95l.28.3V138l-.24.25a2.08,2.08,0,0,0-.65,2.64A2.26,2.26,0,0,0,74,142.14H95.82a2.17,2.17,0,0,0,2.26-2.21v-6.82a2.34,2.34,0,0,0-1.3-2.08,2.17,2.17,0,0,0-1.72-.17,2,2,0,0,0-1,.71l-.25.22H84.34v-4.68h6.59l.54.44.27.16a2.63,2.63,0,0,0,1.7.18,2.1,2.1,0,0,0,1.66-2.09v-7.93a2,2,0,0,0-1.39-2v-.07l0,.05a2.23,2.23,0,0,0-.39-.09,3.65,3.65,0,0,0-1.18.07l-.49.1-.76.75h-6.5v-4.06Zm-2.37,5.65,2-2v10.88l-2-1.67H82.74v7.86H94.47l2-1.82v9H72.43l1.95-1.92V105.8l-1.8-1.91H96.49v9l-2-1.84H82.74v7.25ZM45.55,156.48l-4.82-.36c-.91-.07-2.92-.21-2.92-1.87s2.48-2.06,3.44-2.06a8.12,8.12,0,0,1,7,3.86l.16-.1-1.74-5-.56.63c-.56-.51-3.93-.89-4.64-.89-1.95,0-5.37.42-5.37,3.81,0,2.35,2.24,3.52,3.78,3.6s3.31.06,4.95.24c.85.11,2.55.59,2.55,2,0,2.16-3.49,2.65-4.72,2.65-2.87,0-5-1.3-6.92-4l-.13.16,2.15,5.23.64-.69a15.23,15.23,0,0,0,4.92,1c2.25,0,5.71-1.13,5.71-4.76C49.07,157.9,46.93,156.6,45.55,156.48Zm8.58-34A40.6,40.6,0,0,0,48.87,120c-1.67-.64-3.09-1.2-4.22-1.66a18.5,18.5,0,0,1-2.87-1.43A4.75,4.75,0,0,1,40,115a3.94,3.94,0,0,1-.34-2.24,3.63,3.63,0,0,1,1.06-2.08,7.61,7.61,0,0,1,1.25-1l.27-.14a9.79,9.79,0,0,1,4.06-.88,4.87,4.87,0,0,1,.86.07l.57.1a8,8,0,0,1,2.54.74,10,10,0,0,1,1.82,1.12,8,8,0,0,1,1.24,1.18,2.55,2.55,0,0,0,.25.3l.2.21,3.14-1.86-.49-.79c-.35-.43-.67-.81-1-1.15a8.08,8.08,0,0,0-1-.92,12.06,12.06,0,0,0-7.24-2c-3.83,0-6.9.78-9.13,2.32a7,7,0,0,0-3.31,5.74c0,2.1,1,4,3.17,5.66a26.45,26.45,0,0,0,7.2,3.55q2.17.8,3.6,1.44a12.32,12.32,0,0,1,2.76,1.67c2.15,1.68,2.38,3.45,2.18,4.63a5.7,5.7,0,0,1-2.27,3.88l-.25.16a9,9,0,0,1-4.26.93,8.71,8.71,0,0,1-4.32-1.24,8.32,8.32,0,0,1-2-1.44,9.74,9.74,0,0,1-1.23-1.55L35.79,134l0,.05a6.19,6.19,0,0,0,1.39,1.61l.12.12a5.54,5.54,0,0,0,1.39,1.08,23.3,23.3,0,0,0,2.18,1,17.42,17.42,0,0,0,6.37,1c4.46,0,7.6-1.23,9.59-3.76A8,8,0,0,0,58.41,132a22,22,0,0,0,.45-2.92,5.57,5.57,0,0,0-1.59-4A12.37,12.37,0,0,0,54.13,122.49ZM56,119.21a39,39,0,0,0-3.67-1.85l-1.85-.78-.27-.11c-1.66-.63-3-1.18-4.16-1.64a13.13,13.13,0,0,1-2.22-1.08c-.33-.21-.45-.35-.49-.35a3.58,3.58,0,0,1,.49-.4,6,6,0,0,1,2.41-.5,1.32,1.32,0,0,1,.27,0l.59.1a4.61,4.61,0,0,1,1.43.39,6.88,6.88,0,0,1,1.15.71c.33.25,1.11.8,1.19.89v.06l0,.23s0,0,0,0a1.75,1.75,0,0,0,.69,1.51,3,3,0,0,0,3.43-.32l5.13-3a2.13,2.13,0,0,0,1.26-1.63A2,2,0,0,0,61,110a11.83,11.83,0,0,0-.62-1.06c-.25-.38-.52-.81-.94-1.48s-.83-1-1.21-1.43a14.06,14.06,0,0,0-1.47-1.36,15.77,15.77,0,0,0-9.58-2.82c-4.61,0-8.4,1-11.29,3A10.74,10.74,0,0,0,31,113.64c-.06,3.36,1.5,6.31,4.65,8.78a30.13,30.13,0,0,0,8.23,4.1c1.33.49,2.45.94,3.32,1.33A8.67,8.67,0,0,1,49.11,129c.21.16.87.71.8,1.09a2,2,0,0,1-.62,1.31,5.59,5.59,0,0,1-2.4.44,5.07,5.07,0,0,1-2.48-.76,4.65,4.65,0,0,1-1.1-.79,5.63,5.63,0,0,1-.5-.58l.14-1v-.14a2.14,2.14,0,0,0-1.57-2.23,2.59,2.59,0,0,0-1.84.25l-7,5a2.14,2.14,0,0,0-.9,2.42,10.54,10.54,0,0,0,.81,1.78,9.29,9.29,0,0,0,2.09,2.54,9.39,9.39,0,0,0,2.34,1.82c.78.42,1.63.83,2.55,1.22a21,21,0,0,0,7.82,1.29c5.62,0,9.85-1.75,12.59-5.22a11.85,11.85,0,0,0,2.27-4.73,26.69,26.69,0,0,0,.53-3.51,9.36,9.36,0,0,0-2.57-6.76A15.7,15.7,0,0,0,56,119.21Zm4.54,13.2a10.41,10.41,0,0,1-2,4.07c-2.42,3.06-6.23,4.62-11.33,4.62a19.24,19.24,0,0,1-7.22-1.18c-.86-.36-1.66-.76-2.39-1.15a7.89,7.89,0,0,1-2-1.54,8.47,8.47,0,0,1-1.82-2.17,13.39,13.39,0,0,1-.6-1.23l-.25-.59,8.58-6.06-.45,2.94a7.35,7.35,0,0,0,1,1.31,6.37,6.37,0,0,0,1.47,1.06,6.53,6.53,0,0,0,3.24,1,6.77,6.77,0,0,0,3.3-.72,3.47,3.47,0,0,0,1.3-2.38,2.78,2.78,0,0,0-1.39-2.58,9.81,9.81,0,0,0-2.27-1.36c-.91-.43-2.08-.88-3.44-1.39a28.13,28.13,0,0,1-7.8-3.87c-2.77-2.16-4.08-4.6-4-7.47a9.11,9.11,0,0,1,4.26-7.49c2.6-1.81,6.1-2.72,10.38-2.72A14.19,14.19,0,0,1,55.8,106a11.2,11.2,0,0,1,1.27,1.18c.35.39.74.84,1.09,1.27.38.59.65,1,.9,1.42s.35.57.48.82l.38.7-7.58,4.48L52.28,114a6.57,6.57,0,0,1-.69-.7,5.73,5.73,0,0,0-.89-.83,8.5,8.5,0,0,0-1.43-.88,5.64,5.64,0,0,0-1.9-.53l-.62-.12a3,3,0,0,0-.48,0,7.45,7.45,0,0,0-3.23.73,6.34,6.34,0,0,0-.79.64,1.42,1.42,0,0,0-.42.81,1.8,1.8,0,0,0,.15,1,2.81,2.81,0,0,0,1,1,16,16,0,0,0,2.49,1.22c1.12.46,2.52,1,4.19,1.66a44.16,44.16,0,0,1,5.57,2.62,14.4,14.4,0,0,1,3.67,2.94,7.88,7.88,0,0,1,2.15,5.62A28.1,28.1,0,0,1,60.58,132.41Zm66.84,27s-.39.44-.49.54a10.25,10.25,0,0,1-2.25,2,6.91,6.91,0,0,1-3.62,1h-3.45l-.29,0,0-9.72a1.93,1.93,0,0,1,1.94-2l0-.37h-5.37l0,.29a2.05,2.05,0,0,1,1.92,2l0,8c0,1.17-.79,2.81-1.8,2.81h-.14v.41l8,0a15.31,15.31,0,0,0,1.92-.34c.13,0,1-.35,1-.35s.7.69.81.79l2-5A2.22,2.22,0,0,1,127.42,159.42Zm12-18.81a2.07,2.07,0,0,0-.63-2.34l-.71-.69-8.56-16.69,6.9-14.12.9-.89a2.14,2.14,0,0,0,.35-2.26l0,0h-.05c0-.09-.09-.18-.14-.26a2.33,2.33,0,0,0-2-1h-9.16a2.17,2.17,0,0,0-2.09,1.35,2.09,2.09,0,0,0,.51,2.36v0l-2.11,4.22L120.57,106a2.06,2.06,0,0,0,.67-1.14,2,2,0,0,0-.46-1.68,2.39,2.39,0,0,0-1.85-.88h-9.08a2.28,2.28,0,0,0-2,1.16,2,2,0,0,0,.34,2.51l.73.77,6.91,14.15-8.57,16.72-.66.69a2.1,2.1,0,0,0-.54,2.57,2.29,2.29,0,0,0,2.08,1.27h9.09a2.21,2.21,0,0,0,2.08-1.39h.18l-.14-.12a0,0,0,0,0,0,0,2.13,2.13,0,0,0-.45-2.23l3.81-7.43,3.86,7.39a2.09,2.09,0,0,0-.56,2.26l-.14.12s0,.09,0,.13h.2v0a2.26,2.26,0,0,0,2.08,1.28h9.24A2.15,2.15,0,0,0,139.46,140.61Zm-13.22,0,2.29-1.9-5.81-11.16-.26.37-5.58,10.79,2,1.82H106.61l1.84-1.94,9.11-17.71-7.32-15-1.81-2,11.89,0-1.68,1.78,4.11,8.08,4-8.08L125,103.91l12.29-.11-2,1.94-7.44,15.16,9,17.55,2,2.08Zm6.32-34.53h-3.5l-6.29,12.59-6.41-12.59h-3.57L120,120.93l-8.93,17.41h3.5l6.14-11.83,2.46-3.1,1.65,3.5,6,11.43h3.42l-8.93-17.41ZM96.23,160.81c0,.09.06.1.11.17.74-.59,1.62-1.58,2.52-1.58h4.84c-.37.54-.71,1.31-1.11,1.82a5.15,5.15,0,0,1-4.22,1.88A4.93,4.93,0,0,1,93.2,158c0-4.7,3.17-5.63,5.8-5.63s6.11,3.63,6.18,3.63.22-.23.27-.31c-.73-1.56-1.47-3.16-2.32-4.62-.1.08-.79.75-.85.75s-.22-.12-.24-.12a4.63,4.63,0,0,0-1.54-.73,7.83,7.83,0,0,0-1.92-.24,7,7,0,0,0-7,7.13,6.51,6.51,0,0,0,6.48,6.9,9.53,9.53,0,0,0,3.08-.52c2-.69,4.18-3.61,4.51-6.28H98C97.81,158.26,96.23,160.69,96.23,160.81ZM125.89,91l-1.82-3-.77.41a11.88,11.88,0,0,0-3.59-.67,9.85,9.85,0,0,0-3.39.68l-.77-.42-1.81,3c0,.1.19.18.27.23,1.42-1.21,3.14-2.54,5.14-2.54l0,6.43c0,.61-.5.84-1.07.9v.26c.21,0,.42,0,.64,0l2.87,0V96c-.58-.06-1.08-.29-1.09-.9V88.68c2,0,3.7,1.33,5.14,2.53C125.69,91.16,125.87,91.08,125.89,91Zm-46.55,60.3a.75.75,0,0,0,.29.06c.69,0,1.24.34,1.27,1.35,0,1.58,0,3.18,0,4.76v3.85l-7.76-10.37H69.75s0,.1,0,.15,0,.16,0,.24c1.65.16,2,1.31,2,3.2V162c0,1.41-.5,2.08-1.62,2.17a.34.34,0,0,0,0,.14.55.55,0,0,0,0,.18l4.46,0a1.25,1.25,0,0,0,0-.39c-1.22-.1-1.63-.71-1.63-2.26v-8.55l8.23,11.2H83.5v-.34c-.38.06-1.38-.8-1.38-1.3,0-3.44,0-6.91,0-10.35a1.33,1.33,0,0,1,1.52-1.21v-.37h-4.3A.92.92,0,0,1,79.34,151.28Zm65.37-55.12s0,.15,0,.19h3.89a.22.22,0,0,0,0-.08.45.45,0,0,0,0-.11,1.5,1.5,0,0,1-1.35-1.48V89.56a1.46,1.46,0,0,1,1.36-1.42.37.37,0,0,0,0-.11.17.17,0,0,0,0-.07h-3.89a.31.31,0,0,0,0,.19,1.46,1.46,0,0,1,1.34,1.44v2H138.9v-2a1.45,1.45,0,0,1,1.35-1.41.25.25,0,0,0,0-.19h-3.88a.31.31,0,0,0,0,.19,1.48,1.48,0,0,1,1.34,1.44v5.16a1.44,1.44,0,0,1-1.34,1.42.37.37,0,0,0,0,.11.15.15,0,0,0,0,.07h3.89a.6.6,0,0,0,0-.19,1.49,1.49,0,0,1-1.35-1.47V92.52h7.15v2.22A1.42,1.42,0,0,1,144.71,96.16Zm15-.13v.23h7.56a6.58,6.58,0,0,0,2.28-.56c.22.16.43.33.65.48l1.61-3.13-.16-.08A6.16,6.16,0,0,1,167,95.28c-1.45,0-2.9,0-4.35,0l0-3h5.16a8.23,8.23,0,0,1,1.92.57l0-.13-1.65-2.45c-.29.54-.47,1-1.21,1h-4.2V88.86h4.54a6,6,0,0,1,4.3,2l.12-.11c-.61-.92-1.15-1.91-1.82-2.82a1.82,1.82,0,0,1-.52.33c-.09,0-.48-.13-.6-.15a5.66,5.66,0,0,0-1.36-.2h-7.61v.24a1.81,1.81,0,0,1,1.73,1.78v4.27C161.41,95.71,161,95.83,159.67,96Z"/></g></g></svg>