<svg width="199" height="93" viewBox="0 0 199 93" fill="none" xmlns="http://www.w3.org/2000/svg">
<g clip-path="url(#clip0_1000_3713)">
<mask id="path-1-inside-1_1000_3713" fill="white">
<path d="M161.62 30C161.23 31.2 160.84 32.41 160.44 33.61C156.2 32.23 151.96 30.87 147.71 29.5C150.07 22.1667 152.44 14.85 154.82 7.55L158.48 8.73C156.48 14.8367 154.497 20.95 152.53 27.07L161.62 30ZM122.4 1.12C120.48 6.17333 118.57 11.22 116.67 16.26L113.73 0.35L109.73 0C111.343 7.86 112.947 15.7233 114.54 23.59L117.41 23.84C120.377 16.3933 123.377 8.94 126.41 1.48L122.4 1.12ZM130.4 23.5C130.947 24.3393 131.657 25.0597 132.489 25.6181C133.321 26.1765 134.256 26.5615 135.24 26.75C135.766 26.8609 136.302 26.9179 136.84 26.92C140.56 26.92 143.51 24.39 144.35 20.41C145.39 15.45 146.433 10.49 147.48 5.53L143.74 4.75L140.65 19.47C140.17 21.78 138.75 23.14 136.86 23.13C136.57 23.1168 136.281 23.0732 136 23C133.72 22.53 132.65 20.57 133.21 17.89C134.23 12.99 135.253 8.08333 136.28 3.17L132.51 2.39C131.483 7.35 130.45 12.3133 129.41 17.28C129.158 18.331 129.116 19.4213 129.286 20.4886C129.456 21.5559 129.834 22.5792 130.4 23.5ZM173.72 14.16C170.773 21.2733 167.83 28.3833 164.89 35.49L168.44 37C171.373 29.8867 174.317 22.78 177.27 15.68L173.72 14.16ZM195.26 24.24C193 28.58 190.747 32.9133 188.5 37.24C188.22 31.5933 187.937 25.9467 187.65 20.3L184.58 18.72C181.04 25.5733 177.513 32.4133 174 39.24L177.4 40.99L184.15 27.93L184.99 44.93L188 46.48C191.553 39.6533 195.107 32.8267 198.66 26L195.26 24.24ZM78.19 1.1C78.8567 5.95333 79.5033 10.8 80.13 15.64C76.65 11.1667 73.1633 6.69667 69.67 2.23L66.24 2.69L69.33 25.56L73.13 25.05L71.18 10.48C74.66 14.96 78.14 19.44 81.62 23.92L85 23.47C84.0267 15.8233 83.0267 8.2 82 0.6L78.19 1.1ZM10.19 25.91L14.93 23.4L13.1 20.05L0 27L1.79 30.35L6.64 27.77L6.71 27.89L15.71 44.78L19.09 43C16.0767 37.3267 13.0467 31.66 10 26L10.19 25.91ZM53.76 5.4C53.0933 10.0067 52.4267 14.62 51.76 19.24C48.8467 15.6133 45.9267 11.9867 43 8.36L39.31 9.36C41.37 16.76 43.4267 24.1667 45.48 31.58L49.18 30.58C47.9133 26.0533 46.65 21.5267 45.39 17L52 24.87L54.51 24.18C55.04 20.8 55.58 17.43 56.12 14.05C57.3733 18.5833 58.6233 23.1133 59.87 27.64L63.57 26.64C61.57 19.2333 59.5333 11.82 57.46 4.4L53.76 5.4ZM25.49 14.65C30.8233 20.77 36.13 26.8933 41.41 33.02L37.72 34.55L35 31.22L28 34.13H27.91L28.33 38.43L24.64 40L22.69 15.82L25.49 14.65ZM26.62 21C26.92 24.16 27.21 27.32 27.51 30.48L32.51 28.4L32.68 28.33L26.62 21ZM99.79 0C102.37 7.68 104.943 15.3467 107.51 23H103.51L102.25 18.87H94.65H94.55C94.14 20.25 93.72 21.63 93.31 23.01H89.31C91.77 15.3833 94.25 7.71333 96.75 0H99.79ZM101.22 15.37C100.28 12.37 99.35 9.31 98.41 6.29C97.49 9.29 96.57 12.29 95.66 15.21L95.6 15.39L101.22 15.37Z"/>
</mask>
<path d="M161.62 30C161.23 31.2 160.84 32.41 160.44 33.61C156.2 32.23 151.96 30.87 147.71 29.5C150.07 22.1667 152.44 14.85 154.82 7.55L158.48 8.73C156.48 14.8367 154.497 20.95 152.53 27.07L161.62 30ZM122.4 1.12C120.48 6.17333 118.57 11.22 116.67 16.26L113.73 0.35L109.73 0C111.343 7.86 112.947 15.7233 114.54 23.59L117.41 23.84C120.377 16.3933 123.377 8.94 126.41 1.48L122.4 1.12ZM130.4 23.5C130.947 24.3393 131.657 25.0597 132.489 25.6181C133.321 26.1765 134.256 26.5615 135.24 26.75C135.766 26.8609 136.302 26.9179 136.84 26.92C140.56 26.92 143.51 24.39 144.35 20.41C145.39 15.45 146.433 10.49 147.48 5.53L143.74 4.75L140.65 19.47C140.17 21.78 138.75 23.14 136.86 23.13C136.57 23.1168 136.281 23.0732 136 23C133.72 22.53 132.65 20.57 133.21 17.89C134.23 12.99 135.253 8.08333 136.28 3.17L132.51 2.39C131.483 7.35 130.45 12.3133 129.41 17.28C129.158 18.331 129.116 19.4213 129.286 20.4886C129.456 21.5559 129.834 22.5792 130.4 23.5ZM173.72 14.16C170.773 21.2733 167.83 28.3833 164.89 35.49L168.44 37C171.373 29.8867 174.317 22.78 177.27 15.68L173.72 14.16ZM195.26 24.24C193 28.58 190.747 32.9133 188.5 37.24C188.22 31.5933 187.937 25.9467 187.65 20.3L184.58 18.72C181.04 25.5733 177.513 32.4133 174 39.24L177.4 40.99L184.15 27.93L184.99 44.93L188 46.48C191.553 39.6533 195.107 32.8267 198.66 26L195.26 24.24ZM78.19 1.1C78.8567 5.95333 79.5033 10.8 80.13 15.64C76.65 11.1667 73.1633 6.69667 69.67 2.23L66.24 2.69L69.33 25.56L73.13 25.05L71.18 10.48C74.66 14.96 78.14 19.44 81.62 23.92L85 23.47C84.0267 15.8233 83.0267 8.2 82 0.6L78.19 1.1ZM10.19 25.91L14.93 23.4L13.1 20.05L0 27L1.79 30.35L6.64 27.77L6.71 27.89L15.71 44.78L19.09 43C16.0767 37.3267 13.0467 31.66 10 26L10.19 25.91ZM53.76 5.4C53.0933 10.0067 52.4267 14.62 51.76 19.24C48.8467 15.6133 45.9267 11.9867 43 8.36L39.31 9.36C41.37 16.76 43.4267 24.1667 45.48 31.58L49.18 30.58C47.9133 26.0533 46.65 21.5267 45.39 17L52 24.87L54.51 24.18C55.04 20.8 55.58 17.43 56.12 14.05C57.3733 18.5833 58.6233 23.1133 59.87 27.64L63.57 26.64C61.57 19.2333 59.5333 11.82 57.46 4.4L53.76 5.4ZM25.49 14.65C30.8233 20.77 36.13 26.8933 41.41 33.02L37.72 34.55L35 31.22L28 34.13H27.91L28.33 38.43L24.64 40L22.69 15.82L25.49 14.65ZM26.62 21C26.92 24.16 27.21 27.32 27.51 30.48L32.51 28.4L32.68 28.33L26.62 21ZM99.79 0C102.37 7.68 104.943 15.3467 107.51 23H103.51L102.25 18.87H94.65H94.55C94.14 20.25 93.72 21.63 93.31 23.01H89.31C91.77 15.3833 94.25 7.71333 96.75 0H99.79ZM101.22 15.37C100.28 12.37 99.35 9.31 98.41 6.29C97.49 9.29 96.57 12.29 95.66 15.21L95.6 15.39L101.22 15.37Z" fill="white" stroke="#A48242" stroke-width="2" mask="url(#path-1-inside-1_1000_3713)"/>
<path d="M99.6 91.7803C115.15 91.7803 130.03 91.9803 143.73 92.3303C130.03 92.6903 115.15 92.8803 99.6 92.8803C84.05 92.8803 69.17 92.6903 55.47 92.3303C69.17 92.0003 84 91.7803 99.6 91.7803Z" fill="#A48242"/>
<path d="M38.9301 50.23C38.9301 50.3605 38.8913 50.4881 38.8188 50.5966C38.7463 50.7052 38.6432 50.7898 38.5226 50.8397C38.402 50.8897 38.2693 50.9027 38.1413 50.8773C38.0133 50.8518 37.8957 50.789 37.8034 50.6967C37.7111 50.6043 37.6482 50.4868 37.6227 50.3587C37.5973 50.2307 37.6103 50.098 37.6603 49.9774C37.7102 49.8568 37.7948 49.7537 37.9034 49.6812C38.0119 49.6087 38.1395 49.57 38.2701 49.57C38.3636 49.5702 38.4559 49.5909 38.5406 49.6306C38.6252 49.6703 38.7001 49.7282 38.7601 49.8C53.3699 43.9614 68.7443 40.2567 84.4101 38.8V39.26C68.8023 40.7159 53.4853 44.4104 38.9301 50.23ZM119.42 36.66C119.181 36.0988 119.112 35.4801 119.22 34.88C119.4 33.39 119.94 32.72 120.88 32.83C122.02 32.98 122.12 34.16 122 35.13C121.82 36.59 121.32 37.33 120.5 37.33H120.32C120.126 37.3026 119.942 37.227 119.785 37.1099C119.627 36.9928 119.502 36.8381 119.42 36.66ZM120.42 36.37C120.69 36.37 120.9 35.93 120.99 35.17C121.08 34.41 120.99 33.83 120.72 33.8C120.45 33.8 120.26 34.17 120.18 34.86C120.07 35.83 120.15 36.33 120.44 36.37H120.42ZM124.28 35.57L125.06 37.94L125.76 38.04L126.42 33.6L125.52 33.47L125.22 35.54L124.49 33.34L123.69 33.22L123.03 37.67L123.95 37.8L124.28 35.57ZM130.13 38.83L131.06 39.01L131.72 35.53L132.61 35.7L132.78 34.76L130.09 34.25L129.91 35.19L130.78 35.35L130.13 38.83ZM134.36 37.83L135.25 38.02L134.88 39.7L135.8 39.9L136.73 35.55L135.81 35.35L135.44 37.08L134.55 36.89L134.91 35.21L134 35L133.07 39.35L133.98 39.55L134.36 37.83ZM139.73 40.83L140 40L138.43 39.63L138.61 38.87L139.76 39.15L139.97 38.25L138.8 37.97L138.98 37.18L140.49 37.54L140.71 36.64L138.38 36L137.38 40.32L139.8 40.9L139.73 40.83ZM144.22 42.02L144.7 40.31L145.58 40.56L145.11 42.22L145.97 42.46L147.18 38.18L146.32 37.94L145.84 39.64L144.96 39.39L145.43 37.73L144.58 37.49L143.37 41.77V41.82L144.22 42.05V42.02ZM149.66 39L148.75 38.72L147.47 43L148.38 43.28L149.66 39ZM152.21 44.48L152.49 43.6L151 43.11L152.07 39.8L151.18 39.52L149.82 43.75L152.18 44.51L152.21 44.48ZM155.74 45.69L156.05 44.78L154.54 44.26L155.69 41L154.81 40.69L153.36 44.89L155.7 45.71L155.74 45.69ZM45.6501 41.32L46.7601 44.69L47.7601 44.36L46.6301 41L47.5801 40.69L47.2801 39.79L44.4701 40.72L44.7701 41.62L45.6501 41.32ZM50.3001 43.54L51.3001 43.24L50.7901 41.55L51.7901 41.26L52.2901 42.91L53.2901 42.61L51.9301 38.4L50.9301 38.7L51.4401 40.39L50.4401 40.69L50.0001 39V38.95L49.0001 39.25L50.2801 43.5L50.3001 43.54ZM55.1901 42.09L57.8301 41.39L57.5801 40.46L55.8601 40.92L55.6601 40.17L57.0001 39.8L56.7501 38.86L55.4601 39.21L55.2501 38.43L57.0001 38L56.7001 37L54.0601 37.71L55.2201 42L55.1901 42.09ZM62.6501 40.19L63.6501 39.98L63.2601 38.22L64.2601 39.84L65.2601 39.64L65.4801 37.77L65.8601 39.51L66.8601 39.3L65.84 35L64.84 35.2L64.4501 38.44L62.6401 35.7L61.6401 35.91L62.5801 40.25L62.6501 40.19ZM68.7801 38.92L69.7801 38.73L69.0001 34.36L68.0001 34.55L68.8201 38.92H68.7801ZM71.7801 38.37L74.4701 37.93L74.3201 36.93L72.5801 37.22L72.0301 33.78L71.0301 33.94L71.7401 38.33L71.7801 38.37ZM76.2401 37.68L78.9401 37.32H79.0001L78.8701 36.32L77.1201 36.55L76.6701 33.1L75.6701 33.23L76.2501 37.64L76.2401 37.68ZM84.2401 41.26H86.6001C86.6053 37.8651 87.957 34.6109 90.3585 32.2113C92.7599 29.8117 96.0152 28.4626 99.4101 28.46H99.8601C103.254 28.4626 106.508 29.812 108.908 32.2119C111.308 34.6118 112.657 37.866 112.66 41.26H115V42H84.2801L84.2401 41.26ZM110.24 37.59L101.53 41.26H110.87C110.884 40.0128 110.687 38.7722 110.29 37.59H110.24ZM108 33.82L101.3 40.52L110 36.86C109.506 35.7432 108.83 34.716 108 33.82ZM104.08 31.06L100.63 40.06L107.45 33.24C106.484 32.3147 105.355 31.5757 104.12 31.06H104.08ZM100.01 39.54L103.35 30.78C102.272 30.4208 101.146 30.2285 100.01 30.21V39.54ZM95.84 30.78L99.1701 39.54V30.21C98.051 30.2334 96.9418 30.4256 95.8801 30.78H95.84ZM91.7301 33.27L98.5501 40.09L95.1101 31.09C93.8732 31.607 92.7412 32.3458 91.7701 33.27H91.7301ZM89.2201 36.86L97.8801 40.52L91.1901 33.82C90.3889 34.724 89.7374 35.7503 89.2601 36.86H89.2201ZM88.3101 41.26H97.6401L89.0001 37.59C88.5739 38.7668 88.354 40.0083 88.3501 41.26H88.3101ZM75.9001 43.71H123.37V43.25H75.9001V43.71ZM70.8201 45H128.44V44.5H70.8201V45ZM65.7501 46.2H133.52V45.75H65.7501V46.2ZM161 49.58C160.838 49.5832 160.682 49.6434 160.56 49.75C145.927 43.9307 130.532 40.2463 114.85 38.81V39.27C130.474 40.6943 145.812 44.362 160.39 50.16C160.39 50.16 160.39 50.22 160.39 50.24C160.388 50.3729 160.426 50.5034 160.498 50.6149C160.57 50.7264 160.674 50.8138 160.797 50.866C160.919 50.9183 161.054 50.933 161.185 50.9083C161.315 50.8836 161.435 50.8206 161.53 50.7273C161.625 50.634 161.69 50.5146 161.716 50.3844C161.743 50.2542 161.73 50.1189 161.68 49.9959C161.63 49.8729 161.544 49.7677 161.433 49.6936C161.323 49.6195 161.193 49.58 161.06 49.58H161ZM163 44C162.867 43.998 162.736 44.0359 162.624 44.1087C162.512 44.1816 162.425 44.2861 162.373 44.4089C162.321 44.5317 162.307 44.6673 162.333 44.7982C162.358 44.9291 162.422 45.0494 162.516 45.1437C162.611 45.2379 162.731 45.302 162.862 45.3275C162.993 45.353 163.128 45.3389 163.251 45.287C163.374 45.235 163.478 45.1476 163.551 45.0359C163.624 44.9242 163.662 44.7933 163.66 44.66C163.66 44.4849 163.591 44.317 163.467 44.1933C163.343 44.0695 163.175 44 163 44ZM36.3101 44C36.1767 43.998 36.0458 44.0359 35.9341 44.1087C35.8224 44.1816 35.735 44.2861 35.683 44.4089C35.6311 44.5317 35.617 44.6673 35.6425 44.7982C35.6681 44.9291 35.7321 45.0494 35.8264 45.1437C35.9207 45.2379 36.041 45.302 36.1719 45.3275C36.3027 45.353 36.4383 45.3389 36.5611 45.287C36.6839 45.235 36.7885 45.1476 36.8613 45.0359C36.9342 44.9242 36.972 44.7933 36.9701 44.66C36.9675 44.4857 36.8971 44.3193 36.7739 44.1961C36.6507 44.0729 36.4843 44.0025 36.3101 44Z" fill="#A48242"/>
<path d="M44.34 73.84H40.48L39.71 71.64L41.14 72.1H43.07L43.64 71.84L43.92 71.3V70.44L43.43 70L41.32 69.53L40 68.24V66.24L41.82 64.5H45.47L46.17 66.5L44.91 66.1H43.07L42.51 66.37L42.23 66.9V67.44L42.72 67.9L44.83 68.37L46.16 69.64V72.1L44.34 73.84Z" fill="#00A8A2"/>
<path d="M51.46 73.84L51.74 72.77V65.57L51.46 64.5H54.12L53.84 65.57V72.77L54.12 73.84H51.46Z" fill="#00A8A2"/>
<path d="M66.8699 65.57V73.84H65.0499L61.9999 68.1L61.7199 67.44L61.7899 68.1V72.77L62.0699 73.84H59.7199L59.9999 72.77V65.57L59.6499 64.5H62.3799L64.8299 69.17L65.1099 69.84L65.0399 69.17V65.57L64.7599 64.5H67.1399L66.8699 65.57Z" fill="#00A8A2"/>
<path d="M79.6001 69.57V71.3L79.7401 72.1L77.9201 73.84H74.4201L72.6001 72.1V66.37L74.6001 64.5H78.5201L79.2901 66.7L77.8501 66.24H75.8901L75.1901 66.57L74.8401 67.24V71.3L75.1201 71.84L75.6801 72.1H77.0801L77.5001 71.7V69.84L76.9401 68.77H80.0001L79.6001 69.57Z" fill="#00A8A2"/>
<path d="M90.5901 73.84H85.1201L85.4001 72.77V65.57L85.1201 64.5H87.8601L87.5101 65.84V71.9L87.7201 72.1H89.8901L91.3601 71.64L90.5901 73.84Z" fill="#00A8A2"/>
<path d="M101.81 73.84H96.0701L96.3501 72.77V65.57L96.0701 64.5H101.67L102.37 66.5L101.11 66.1H98.5901L98.4501 66.24V67.84L98.5901 67.97H99.7801L100.78 67.64V69.9L99.7801 69.57H98.5901L98.4501 69.7V71.9L98.6601 72.1H101.11L102.58 71.64L101.81 73.84Z" fill="#00A8A2"/>
<path d="M120.93 73.84L121.21 72.77V68L121.28 67.47L121.07 68L118.69 73.2H118.62L116.24 68L116.03 67.47L116.1 68V72.8L116.38 73.87H114L114.28 72.8V65.6L114 64.5H116.73L118.73 68.73L118.8 69.04L118.87 68.73L120.87 64.5H123.6L123.32 65.57V72.77L123.6 73.84H120.93Z" fill="#00A8A2"/>
<path d="M134.38 73.84L134.52 72.77L134.24 71.7L134.1 71.57H131.43L131.29 71.7L131 72.77L131.14 73.84H128.55L129.11 72.77L131.21 65.37L131 64.5H134.79L134.58 65.37L136.68 72.77L137.24 73.84H134.38ZM132.83 66.24L132.76 65.84L132.69 66.24L131.78 69.84L131.92 69.97H133.61L133.74 69.84L132.83 66.24Z" fill="#00A8A2"/>
<path d="M147.74 73.84H142.28L142.56 72.77V65.57L142.28 64.5H145L144.65 65.84V71.9L144.86 72.1H147L148.47 71.64L147.74 73.84Z" fill="#00A8A2"/>
<path d="M157.7 66.24H156.44L156.29 66.37V72.64L156.72 73.84H153.77L154.19 72.64V66.37L154.05 66.24H152.79L151.32 66.7L152.09 64.5H158.4L159.17 66.7L157.7 66.24Z" fill="#00A8A2"/>
<path d="M32.85 86.83H29L28.22 84.63L29.65 85.1H31.59L32.15 84.83L32.43 84.3V83.43L31.94 83L29.84 82.54L28.51 81.27V79.27L30.33 77.54H34L34.7 79.54L33.44 79.14H31.59L31.03 79.4L30.75 79.94V80.47L31.24 80.94L33.34 81.4L34.67 82.67V85.1L32.85 86.83Z" fill="#00A8A2"/>
<path d="M45.15 86.83H41.51L39.51 84.97V79.36L41.51 77.5H45L45.77 79.7L44.33 79.23H42.83L42.13 79.56L41.78 80.23V84.1L42.13 84.77L42.83 85.1H44.44L45.92 84.63L45.15 86.83Z" fill="#00A8A2"/>
<path d="M56 86.83H52.31L50.49 85.1V79.23L52.31 77.5H56L57.82 79.23V85.1L56 86.83ZM55.58 79.9L55.3 79.36L54.74 79.1H53.57L53.01 79.36L52.73 79.9V84.3L53.01 84.83L53.57 85.1H54.7L55.26 84.83L55.54 84.3L55.58 79.9Z" fill="#00A8A2"/>
<path d="M68.59 79.23H67.33L67.19 79.36V85.63L67.61 86.83H64.67L65.09 85.63V79.36L65 79.23H63.69L62.22 79.7L63 77.5H69.3L70.07 79.7L68.59 79.23Z" fill="#00A8A2"/>
<path d="M80.1 86.83H76.45L74.45 84.97V79.36L76.45 77.5H80L80.77 79.7L79.32 79.23H77.82L77.12 79.56L76.77 80.23V84.1L77.12 84.77L77.82 85.1H79.4L80.87 84.63L80.1 86.83Z" fill="#00A8A2"/>
<path d="M90.06 86.83L90.34 85.77V82.7L90.2 82.56H87.82L87.68 82.7V85.77L88 86.83H85.3L85.58 85.77V78.56L85.3 77.5H88L87.72 78.56V80.83L87.86 80.96H90.2L90.34 80.83V78.56L90.06 77.5H92.72L92.44 78.56V85.77L92.72 86.83H90.06Z" fill="#00A8A2"/>
<path d="M114.5 78.56L112 86.83H110.56L109 81.3L108.93 80.83L108.86 81.3L107.29 86.83H105.85L103.33 78.56L102.77 77.5H105.57L105.43 78.56L106.55 82.3L106.62 82.83L106.69 82.3L108.09 77.5H109.91L111.31 82.3L111.38 82.83L111.45 82.3L112.57 78.56L112.43 77.5H115.09L114.5 78.56Z" fill="#00A8A2"/>
<path d="M124.21 86.83L124.49 85.77V82.7L124.35 82.56H122L121.86 82.7V85.77L122.14 86.83H119.47L119.75 85.77V78.56L119.47 77.5H122.14L121.86 78.56V80.83L122 81H124.38L124.52 80.87V78.56L124.24 77.5H126.9L126.62 78.56V85.77L126.9 86.83H124.21Z" fill="#00A8A2"/>
<path d="M131.9 86.83L132.18 85.77V78.56L131.9 77.5H134.56L134.28 78.56V85.77L134.56 86.83H131.9Z" fill="#00A8A2"/>
<path d="M143.77 86.83H139.92L139.15 84.63L140.58 85.1H142.51L143.07 84.83L143.35 84.3V83.43L142.86 82.96L140.76 82.5L139.43 81.23V79.23L141.25 77.5H144.89L145.59 79.5L144.33 79.1H142.51L141.95 79.36L141.67 79.9V80.43L142.16 80.9L144.26 81.36L145.59 82.63V85.1L143.77 86.83Z" fill="#00A8A2"/>
<path d="M155.59 80.43L157.59 85.57L158.36 86.83H155.42L155.28 85.63L154 82H153.79L152.88 82.87L152.74 83.13V85.74L153.02 86.8H150.36L150.63 85.74V78.56L150.36 77.5H153L152.72 78.56V80.83L152.65 81.03L155.52 78.3L155.8 77.5H158.39L158.53 77.63L155.59 80.43Z" fill="#00A8A2"/>
<path d="M169.78 78.56L167.47 83V85.6L167.89 86.8H164.94L165.36 85.6V83.16L162.84 78.56L162.07 77.5H164.87L165.01 78.43L166.34 81L166.41 81.27L166.48 81L167.81 78.47L167.96 77.54H170.55L169.78 78.56Z" fill="#00A8A2"/>
<path d="M58.07 60.8703H54.22L53.45 58.6703L54.88 59.1403H56.81L57.3699 58.8703L57.65 58.3403V57.4703L57.16 57.0003L55.06 56.5403L53.7299 55.2703V53.2703L55.5499 51.5303H59.1899L59.8899 53.5303L58.63 53.1303H56.81L56.25 53.3903L55.97 53.9303V54.4603L56.4599 54.9303L58.56 55.3903L59.8899 56.6603V59.1303L58.07 60.8703Z" fill="#00A8A2"/>
<path d="M71.5 57.4003H68.56L68.42 57.5403V59.5403L68.77 60.8703H66L66.28 59.8003V52.6003L66 51.5303H71.74L73.42 53.1403V55.5403L71.5 57.4003ZM71.22 54.0003L70.94 53.4703L70.24 53.1403H68.56L68.42 53.2703V55.5403L68.56 55.6703H70.24L70.94 55.3403L71.22 54.8003V54.0003Z" fill="#00A8A2"/>
<path d="M85.0701 60.8703H79.3301L79.6101 59.8003V52.6003L79.3301 51.5303H84.9401L85.6401 53.5303L84.3701 53.1303H81.8501L81.7101 53.2603V54.8603L81.8501 54.9903H83.0001L84.0001 54.6603V56.9303L83.0001 56.5903H81.8501L81.7101 56.7303V58.9303L81.9201 59.1303H84.3701L85.8501 58.6603L85.0701 60.8703Z" fill="#00A8A2"/>
<path d="M98.16 52.6003L95.84 57.0703V59.6703L96.26 60.8703H93.32L93.74 59.6703V57.2003L91.22 52.6003L90.45 51.5303H93.25L93.39 52.4703L94.72 55.0003L94.79 55.2703L94.86 55.0003L96.19 52.4703L96.33 51.5303H98.93L98.16 52.6003Z" fill="#00A8A2"/>
<path d="M108.21 60.8703H104.36L103.59 58.6703L105.01 59.1403H107L107.56 58.8703L107.84 58.3403V57.4703L107.3 57.0003L105.2 56.5403L103.87 55.2703V53.2703L105.69 51.5303H109.33L110.03 53.5303L108.77 53.1303H107L106.44 53.3903L106.16 53.9303V54.4603L106.65 54.9303L108.75 55.3903L110 56.6703V59.1403L108.21 60.8703Z" fill="#00A8A2"/>
<path d="M116.17 60.8703L116.45 59.8003V52.6003L116.17 51.5303H118.83L118.55 52.6003V59.8003L118.83 60.8703H116.17Z" fill="#00A8A2"/>
<path d="M130.71 60.8703H125.24L125.52 59.8003V52.6003L125.24 51.5303H130.71L132.71 53.4003V59.0003L130.71 60.8703ZM130.43 54.1403L130.08 53.4703L129.38 53.1403H127.83L127.7 53.2703V58.9403L127.91 59.1403H129.38L130.08 58.8003L130.43 58.1403V54.1403Z" fill="#00A8A2"/>
<path d="M144.7 60.8703H139L139.28 59.8003V52.6003L139 51.5303H144.6L145.3 53.5303L144.04 53.1303H141.52L141.38 53.2603V54.8603L141.52 54.9903H142.71L143.76 54.6603V56.9303L142.71 56.5903H141.52L141.38 56.7303V58.9303L141.59 59.1303H144L145.47 58.6603L144.7 60.8703Z" fill="#00A8A2"/>
</g>
<defs>
<clipPath id="clip0_1000_3713">
<rect width="198.66" height="92.88" fill="white"/>
</clipPath>
</defs>
</svg>
