<svg xmlns="http://www.w3.org/2000/svg" viewBox="0 0 377 204.67"><defs><style>.cls-1{fill:#094a44;}</style></defs><g id="Шар_2" data-name="Шар 2"><g id="LOGO"><path class="cls-1" d="M108.71,169.16a60.93,60.93,0,0,1,.53,6.44c-3.93-1.56-7.67-2.68-11.65-2.12v20.86c0,2.53,0,3.8,1.68,6.34H90.11c1.63-2.54,1.68-3.62,1.68-6.39V173.48c-3.84-.89-8,.85-11.32,2.26a27.26,27.26,0,0,1,.77-6.58Z"/><path class="cls-1" d="M141.6,169.16l1.29,6.76c-3.45-2.49-4.89-2.53-9.68-2.53h-10v8.92c2.25.05,5.85.05,7.14.05,3.31,0,4.6-.14,7-2.07v8c-2.44-2.11-3.88-2.06-7-2.06-1.63,0-4.41,0-7.14.14v9.67a44.25,44.25,0,0,0,7,.38c5.56,0,8.92-.14,13.33-3l-1.15,7.23H116c1.77-3.71,1.77-4.46,1.77-7.42V173.34a13.76,13.76,0,0,0-1.15-4.18Z"/><path class="cls-1" d="M164.75,197.34c6.67,0,10.31-5.68,10.31-12.35,0-7.52-4.07-12.31-10.35-12.31-6.52,0-10.46,4.7-10.46,12.31s4,12.35,10.5,12.35m14.39,7c-6.91-2.63-14.43-3.2-21.67.28-1.39-1.93-1.68-3.24.67-4.65l.09-.05a16.5,16.5,0,0,1-9.87-15.17c0-9.49,6.57-16.16,16.3-16.16s16.25,6.67,16.25,16.11a16.19,16.19,0,0,1-8,13.77,40.06,40.06,0,0,1,8.68,2.86,16.65,16.65,0,0,0-2.44,3"/><path class="cls-1" d="M194.43,169.16a12.55,12.55,0,0,0-1,5.36c0,11.17,0,13.24.05,14.7.19,4.84,3,7.84,8,7.84,5.42,0,8.4-2.82,8.4-8.41V176.11c0-2.68,0-4.51-1.39-7h7.57c-1.49,2.63-1.39,4-1.39,8.69V189c0,7.66-4.84,12.36-13.43,12.36s-13.18-4.42-13.47-11.7c.05-6.81.05-8.45.05-14.94a11.23,11.23,0,0,0-1.1-5.54Z"/><path class="cls-1" d="M223.62,200.63c1.73-2.49,1.73-2.91,1.73-6.43v-20a8.15,8.15,0,0,0-1.34-5h8.25a8.22,8.22,0,0,0-1.39,5v20a9.76,9.76,0,0,0,1.77,6.43Z"/><path class="cls-1" d="M241.51,174.37c0-1.92,0-3.19-1.35-5.21h8.44a8.62,8.62,0,0,0-1.48,5.21v21.56a58.55,58.55,0,0,0,8.82.61c5.13-.14,5.9-.47,9.64-2.95l-1.2,7H241.51Z"/><path class="cls-1" d="M281.2,186h7.29c-1.34-3.1-2.25-5.36-3.59-8.69Zm-12.46,14.65c7.09-11.7,10-20.38,14.86-31.47h3.6c4.79,10.94,8.24,19.92,14.57,31.47h-9.11a14.41,14.41,0,0,0,.77-2.49c0-1.41-2.3-5.73-3.12-7.89H279.38c-1,2.35-2.68,5.07-2.68,7.47a16.75,16.75,0,0,0,1.63,2.91Z"/><path class="cls-1" d="M314.32,17.65c12.17.09,26.3.59,34.41,13.36a39.16,39.16,0,0,1,2.07,11.27l-.33,79.52c-12.42,1-25.71-.44-34-12.36-2.52-5.45-2.29-12.86-2.41-19.14ZM287.71,80.83c.74,11.76-1.79,24.69,2.28,35.47,8.41,14.4,22.63,20.29,36.5,21.65.39-4.39,4-6.5,6.92-8.08,12.48-5.87,26-9.14,37.36-17.89,4.48-3.54,5.68-9.92,5.86-16L377,51.84c-.3-8.43.67-17.82-1.7-25.61-6.87-17-23.44-22.38-37.62-23.92a9.64,9.64,0,0,1-1.43,3.21c-7.47,5.62-16.58,7.65-24.9,11.46C302.12,21.6,289.21,25.86,288,40.6Zm-80-63.9C219.61,16.78,233,18,241.55,29.45c2.33,3.83,2.12,9.09,2.35,14.18l-.35,77.65c-12.56.79-25.52-.89-34-12.35a52.6,52.6,0,0,1-2.19-10.66V58.69Zm-26.52,88.19c.57,3.21.73,6.66,1.79,9.6,8.38,15.36,22.88,21.06,36.92,22.51.12-3.78,3.2-5.86,5.56-7.4,13.19-6.07,27.37-9.82,39.28-19.2,4.64-4.23,5.06-11,5.28-17.59l.21-58L269,26.7C262.57,9.35,246.7,3.63,232.55,1.5c-2.28-1-1.74,2.86-3.43,3.92-5.23,3.86-11.28,5.53-17.07,7.87-11.41,5.9-28.49,8.6-30.52,26.59ZM99,15.81c11.57-.54,22.61,1.78,31.19,10.47,6.35,8.65,3.39,23.08,3.86,33.75-8.91-2.9-18.13-6.2-27-9.86-3.25-2-7.83-4.44-8.2-9.5-.51-8.78.09-16.31.14-24.86m-.31,57c10.31,3.66,21,5.84,30.58,11.53,5.27,3.37,4.61,11.1,4.73,17.55l-.17,18.81c-12.68-.07-26.73-.38-33.8-14.16-2.62-5.54-1.15-12.78-1.71-19.23.36-4.92-.3-9.9.37-14.5M69.63,94.94a34.3,34.3,0,0,0,11.11,29.92c8.13,8.22,18.72,9.85,28.71,11.36,1-2.62,3.19-4.4,5.06-6.07,14.44-8.83,32.34-9.53,44.37-24.09,4.75-6.49,5.55-16.38,3.24-24.85-4-12.26-15.37-15.77-24.2-19.8,8.39-2.51,17.38-5.91,22.15-15.28,2.72-5.35,2.83-12.85,1.26-19.06C155.26,8.42,138.16,2.61,123.2.87c-1,1.51-1.52,3.45-2.78,4.33-13.17,8.3-28.91,10.22-41.77,19.4C73,29.08,70.37,37.27,71.43,45.5c1.26,12.08,12.33,20.09,20.92,23.79l-.21.18a4.83,4.83,0,0,1,2.64,1.12c-5.34,1.64-10.74,3-15.25,6.75-5.23,3.78-9,10.66-9.9,17.6M17.89,6.1c7.23-1,13.83,1.8,19.89,5.54A21.17,21.17,0,0,1,51.82,0c-4.75,5.22-5.11,13.42-5.13,21.17l.16,85.89c.4,2.91,1.19,5.73,3.21,7.48a20.53,20.53,0,0,0,7,3.09c-5.74,6.74-15.34,7.61-18.48,18.14-9.64-6.19-17.69-16-28.34-18.9l0-.42c3.76-1.56,7.21-4.78,7.72-9.81L18.21,89V24.69c-.23-2.15-.42-4.72-2.35-6.06a10.71,10.71,0,0,0-10.09-1.7A39.35,39.35,0,0,0,0,20.22C2.12,11.05,10.27,6.65,17.89,6.1"/><path class="cls-1" d="M366.05,141.14V141a4.19,4.19,0,1,1,8.37,0v.13a4.3,4.3,0,0,1-4.22,4.46,4.24,4.24,0,0,1-4.15-4.44m7.82,0V141a3.65,3.65,0,1,0-7.28,0v.15a3.69,3.69,0,0,0,3.61,4,3.76,3.76,0,0,0,3.67-4m-5.34-2.52h1.86c1.07,0,1.82.52,1.82,1.54v0a1.45,1.45,0,0,1-.93,1.41l1.07,1.77h-1.2l-.95-1.57h-.62v1.57h-1.05Zm1.8,2.34a.72.72,0,0,0,.82-.72c0-.46-.32-.69-.82-.69h-.75v1.41Z"/></g></g></svg>