<svg xmlns="http://www.w3.org/2000/svg" viewBox="0 0 497.1 339.63"><defs><style>.cls-1{fill:#fff;}</style></defs><g id="Шар_2" data-name="Шар 2"><g id="Layer_1" data-name="Layer 1"><path class="cls-1" d="M490.21,152.06h0l-.07-.07c-.28-.31-1.41-1.61-3-3.71-5.89-7.24-16.19-24.6-16.65-37.87-1.22-19.88-7.42-35-14.56-45-.53-.75-1.06-1.46-1.59-2.15a48.35,48.35,0,0,0-5.51-21.94,57.74,57.74,0,0,0-18.71-20.6,60.5,60.5,0,0,0-34.56-11,67.37,67.37,0,0,0-17.68,2.55c-1.23-.49-2.48-1-3.77-1.37a63.45,63.45,0,0,0-19.89-3c-15,.17-28.9,3.48-51.44,8.21a59,59,0,0,1-12.33,1.41c-9.27-.07-14.12-2.53-17.23-4.48a17.43,17.43,0,0,1-2.94-2.37,2.24,2.24,0,0,0-.2-.21A26.26,26.26,0,0,0,249.06,0h-1A26.28,26.28,0,0,0,227,10.54l-.09.09a19.45,19.45,0,0,1-5.5,3.87c-3.16,1.51-7.6,3-14.72,3.05a59,59,0,0,1-12.37-1.42c-22.52-4.72-36.45-8-51.42-8.2a63.42,63.42,0,0,0-19.88,3q-1.95.64-3.78,1.38a67.36,67.36,0,0,0-17.67-2.55A60.38,60.38,0,0,0,67,20.74a57.59,57.59,0,0,0-18.7,20.58A48.44,48.44,0,0,0,42.8,63.25c-.52.69-1,1.41-1.58,2.16-7.14,10-13.35,25.11-14.57,45-.46,9.11-5.13,20.23-10.28,28.58a102.23,102.23,0,0,1-6.89,10c-.91,1.16-1.64,2-2.08,2.55-.22.26-.37.44-.45.51l0,.05a26.29,26.29,0,0,0,0,35.51s1.22,1.34,3.11,3.79c5.89,7.23,16.19,24.58,16.64,37.86,1.22,19.88,7.43,35,14.57,45,.53.76,1.06,1.48,1.58,2.17a48.4,48.4,0,0,0,5.51,21.93A57.63,57.63,0,0,0,67,318.9a60.34,60.34,0,0,0,34.56,11,68.17,68.17,0,0,0,17.67-2.56c1.22.5,2.48,1,3.78,1.37a62.82,62.82,0,0,0,19.88,3c15-.16,28.9-3.48,51.43-8.2a59,59,0,0,1,12.34-1.42c9.27.07,14.12,2.53,17.24,4.48a18,18,0,0,1,2.92,2.37l.22.23a26.25,26.25,0,0,0,21,10.48h1a26.25,26.25,0,0,0,21-10.54l.1-.1a19.83,19.83,0,0,1,5.51-3.86c3.16-1.52,7.6-3,14.74-3.05a57.77,57.77,0,0,1,12.28,1.41c22.58,4.73,36.51,8,51.48,8.2a62.82,62.82,0,0,0,19.88-3c1.29-.41,2.55-.87,3.77-1.37a68.25,68.25,0,0,0,17.68,2.56,60.48,60.48,0,0,0,34.55-10.95,57.82,57.82,0,0,0,18.73-20.61,48.54,48.54,0,0,0,5.5-21.93c.53-.69,1.06-1.41,1.59-2.17,7.14-10,13.34-25.11,14.56-45,.47-9.1,5.13-20.23,10.29-28.58a105.69,105.69,0,0,1,6.89-10c.9-1.15,1.63-2,2.08-2.53.21-.27.37-.44.44-.52s0,0,0,0l0,0h0A26.31,26.31,0,0,0,490.21,152.06Z"/><path d="M479.63,178c-.21.22-21.74,24-23.44,50.33-1.49,23.14-9.88,36.28-16.46,43.14,1.37,10.35-1.58,24.51-17.79,35.72a45.73,45.73,0,0,1-26.43,8.43,49.78,49.78,0,0,1-18.45-3.65,47.12,47.12,0,0,1-22.89,5.48c-11.13,0-24.26-2.71-48.44-7.9a73.74,73.74,0,0,0-15.31-1.72c-22,0-31.26,12-31.65,12.56a11.62,11.62,0,0,1-9.73,5h-1a12,12,0,0,1-9.85-5.15c-.27-.36-9.49-12.4-31.53-12.4a73.18,73.18,0,0,0-15.31,1.73c-24.18,5.18-37.32,7.89-48.45,7.89A47.08,47.08,0,0,1,120,311.93a49.73,49.73,0,0,1-18.44,3.65,45.73,45.73,0,0,1-26.44-8.43C58.93,295.94,56,281.78,57.34,271.43c-6.57-6.86-15-20-16.45-43.13-1.7-26.35-23.23-50.12-23.45-50.36a12,12,0,0,1,0-16.26c.2-.22,21.73-24,23.43-50.36,1.49-23.12,9.88-36.25,16.45-43.11C56,57.86,58.93,43.7,75.14,32.48a45.67,45.67,0,0,1,26.42-8.43A49.74,49.74,0,0,1,120,27.7a47.11,47.11,0,0,1,22.88-5.48c11.13,0,24.27,2.71,48.45,7.89a73.36,73.36,0,0,0,15.33,1.73c22.29,0,31.43-12.27,31.51-12.4A12,12,0,0,1,248,14.29h1a12,12,0,0,1,9.85,5.15c.27.36,9.5,12.4,31.52,12.4a73.27,73.27,0,0,0,15.32-1.73c24.18-5.18,37.32-7.89,48.44-7.89a47.14,47.14,0,0,1,22.89,5.48,49.78,49.78,0,0,1,18.45-3.65A45.76,45.76,0,0,1,422,32.48c16.2,11.22,19.15,25.38,17.78,35.73,6.58,6.86,15,20,16.46,43.11,1.68,26.15,23.22,50.12,23.44,50.36A12,12,0,0,1,479.63,178Zm4.4-20.35c-.2-.22-20.31-22.59-21.86-46.68-1.46-22.59-9.26-36.58-16.23-44.72.76-11.79-3.39-26.76-20.58-38.66a51.59,51.59,0,0,0-29.85-9.49,55.34,55.34,0,0,0-18.12,3.1,52.84,52.84,0,0,0-23.22-4.93c-11.73,0-25.11,2.75-49.69,8a67.43,67.43,0,0,1-14.07,1.59c-17.53,0-25.52-8.59-26.72-10-3.28-5.17-8.49-7.54-14.65-7.54h-1A18,18,0,0,0,233.26,16c-.07.1-8,9.82-26.59,9.82a67.43,67.43,0,0,1-14.07-1.59c-24.6-5.27-38-8-49.71-8a52.72,52.72,0,0,0-23.2,4.93,55.4,55.4,0,0,0-18.13-3.1,51.53,51.53,0,0,0-29.83,9.49C54.54,39.45,50.38,54.42,51.14,66.21c-7,8.14-14.77,22.13-16.23,44.72-1.56,24.17-21.69,46.5-21.85,46.68A18,18,0,0,0,13,182c.2.22,20.33,22.54,21.89,46.7,1.46,22.6,9.26,36.6,16.23,44.74-.76,11.79,3.39,26.76,20.58,38.64a51.53,51.53,0,0,0,29.85,9.5,55.27,55.27,0,0,0,18.11-3.1,52.66,52.66,0,0,0,23.21,4.93c11.73,0,25.12-2.75,49.7-8a67.34,67.34,0,0,1,14.06-1.59c17.54,0,25.52,8.58,26.73,10,3.28,5.17,8.49,7.54,14.65,7.54h1a18,18,0,0,0,14.77-7.73c.07-.1,8-9.82,26.61-9.82a67.1,67.1,0,0,1,14.05,1.59c24.59,5.27,38,8,49.7,8a52.7,52.7,0,0,0,23.22-4.93,55.34,55.34,0,0,0,18.12,3.1,51.56,51.56,0,0,0,29.84-9.49c17.19-11.89,21.35-26.86,20.59-38.65,7-8.14,14.78-22.14,16.23-44.75,1.56-24.15,21.69-46.47,21.85-46.65A18,18,0,0,0,484,157.61Z"/><path d="M473.77,172.53c-.24.26-23.66,26-25.54,55.25-1.62,25-12,36.57-17.2,40.86,2.36,7.86,1.72,21.33-13.63,31.93a37.85,37.85,0,0,1-21.88,7A42.33,42.33,0,0,1,376.65,303a39.18,39.18,0,0,1-22.46,6.45c-10.32,0-23.14-2.65-46.77-7.72a81.63,81.63,0,0,0-17-1.9c-26.57,0-37.66,15.2-38.12,15.85a4,4,0,0,1-3.27,1.7h-1a4,4,0,0,1-3.28-1.72c-.45-.63-11.53-15.83-38.09-15.83a81.65,81.65,0,0,0-17,1.9c-23.64,5.07-36.46,7.72-46.78,7.72A39.1,39.1,0,0,1,120.45,303a42.37,42.37,0,0,1-18.87,4.61,37.82,37.82,0,0,1-21.88-7c-15.34-10.6-16-24.07-13.63-31.93-5.22-4.29-15.58-15.83-17.2-40.86-1.89-29.36-25.3-55-25.53-55.25a4,4,0,0,1,0-5.42c.23-.26,23.64-26,25.53-55.27,1.62-25,12-36.55,17.2-40.84C63.7,63.14,64.36,49.67,79.7,39.05a37.82,37.82,0,0,1,21.87-7,42.36,42.36,0,0,1,18.88,4.62,39.12,39.12,0,0,1,22.45-6.44c10.32,0,23.14,2.64,46.78,7.71a81.82,81.82,0,0,0,17,1.9c26.55,0,37.63-15.2,38.09-15.84A4,4,0,0,1,248,22.28h1A4,4,0,0,1,252.33,24c.45.63,11.53,15.83,38.09,15.83a81.82,81.82,0,0,0,17-1.9c23.63-5.07,36.45-7.71,46.77-7.71a39.17,39.17,0,0,1,22.46,6.44A42.31,42.31,0,0,1,395.52,32a37.88,37.88,0,0,1,21.89,7c15.34,10.62,16,24.09,13.62,32,5.22,4.29,15.58,15.83,17.2,40.84,1.88,29.29,25.3,55,25.54,55.27A4,4,0,0,1,473.77,172.53Zm2.2-7.45c-.22-.25-22.94-25.25-24.75-53.44-1.54-23.82-10.9-36.15-16.84-41.65,2-8.93.33-22.61-15.27-33.4a40.75,40.75,0,0,0-23.59-7.54,45.49,45.49,0,0,0-18.71,4.21,42.07,42.07,0,0,0-22.62-6c-10.63,0-23.56,2.66-47.4,7.78a78.47,78.47,0,0,1-16.37,1.83c-24.84,0-35.23-14-35.63-14.54a7,7,0,0,0-5.74-3h-1a7.11,7.11,0,0,0-5.7,3c-.43.59-10.82,14.59-35.66,14.59A78.47,78.47,0,0,1,190.31,35c-23.85-5.12-36.79-7.78-47.41-7.78a42,42,0,0,0-22.61,6,45.5,45.5,0,0,0-18.72-4.21A40.72,40.72,0,0,0,78,36.59C62.39,47.38,60.74,61.06,62.72,70c-5.94,5.5-15.3,17.82-16.84,41.65-1.82,28.19-24.52,53.19-24.74,53.43a7,7,0,0,0,0,9.5c.23.24,22.92,25.09,24.74,53.41,1.54,23.84,10.9,36.17,16.84,41.67-2,8.93-.33,22.6,15.27,33.39a40.8,40.8,0,0,0,23.59,7.54,45.39,45.39,0,0,0,18.7-4.21,42.06,42.06,0,0,0,22.62,6.05c10.62,0,23.56-2.68,47.41-7.79a78.31,78.31,0,0,1,16.36-1.83c24.85,0,35.24,14,35.63,14.54a7,7,0,0,0,5.74,3h1a7.16,7.16,0,0,0,5.71-3c.43-.6,10.82-14.6,35.68-14.6a78.36,78.36,0,0,1,16.35,1.83c23.84,5.11,36.77,7.79,47.4,7.79a42.06,42.06,0,0,0,22.62-6.05,45.49,45.49,0,0,0,18.71,4.21A40.83,40.83,0,0,0,419.11,303c15.6-10.78,17.25-24.46,15.27-33.39,5.94-5.5,15.3-17.83,16.84-41.68,1.81-28.18,24.52-53.16,24.75-53.4A7,7,0,0,0,476,165.08Z"/><path d="M249.05,313.35s17.06-24.58,59.2-15.56,52.68,11,68.25.51c0,0,19.05,12.54,38.63-1s11-30.1,11-30.1,16.06-8.53,18.07-39.67,26.59-57.7,26.59-57.7-24.59-26.61-26.59-57.73-18.07-39.64-18.07-39.64,8.54-16.56-11-30.11-38.63-1-38.63-1c-15.57-10.54-26.1-8.53-68.25.51s-59.2-15.56-59.2-15.56h-1s-17,24.59-59.2,15.56-52.69-11.05-68.24-.51c0,0-19.06-12.55-38.63,1s-11,30.11-11,30.11S54.87,81,52.86,112.09s-26.59,57.73-26.59,57.73,24.58,26.59,26.59,57.7,18.06,39.67,18.06,39.67-8.52,16.56,11,30.1,38.63,1,38.63,1c15.55,10.54,26.09,8.53,68.24-.51S248,313.35,248,313.35Z"/><path class="cls-1" d="M409.09,197l-34.18-28.23v26.83h-9.28v-46.2l34.18,28.23V150.82h9.28Zm-63.87-1.4H314.46V150.82h29.3v8.87h-20v8.86h18.55v8.87H323.74v9.32h21.48Zm-49.68,0h-11.7L268.21,176.2,265,179.27v16.34h-9.28V150.82H265v15.91l16.65-15.91h13.12l-19.87,19Zm-73.17-14.46-5.28-10.8-5.28,10.8Zm17.33,14.46H229.45l-2.74-5.6H207.46l-2.74,5.6H194.48l22.61-46.18Zm-69.54-30.79a4.84,4.84,0,0,0-1.56-3.64,5.32,5.32,0,0,0-3.81-1.49H153.56V170h11.23a5.36,5.36,0,0,0,3.81-1.49A4.86,4.86,0,0,0,170.16,164.82Zm9.28,30.79h-10l-7.12-16.79h-8.75v16.79h-9.28V150.82h20.51a14.45,14.45,0,0,1,10.35,4.11,13.52,13.52,0,0,1,2.17,17.17,14,14,0,0,1-5.68,5.08Zm-54.07,0h-11.7L98,176.2l-3.22,3.07v16.34H85.53V150.82h9.28v15.91l16.65-15.91h13.13l-19.87,19Z"/><path class="cls-1" d="M425.7,152.9a4.71,4.71,0,1,1-4.69-4.74A4.68,4.68,0,0,1,425.7,152.9ZM421,146.49a6.41,6.41,0,1,0,6.36,6.38A6.35,6.35,0,0,0,421,146.49Z"/><path class="cls-1" d="M422.07,151.81c0,.37-.27.58-.75.58h-1.05v-1.21h1C421.81,151.18,422.07,151.38,422.07,151.81Zm1.9-.11a2.11,2.11,0,0,0-.58-1.51,2.82,2.82,0,0,0-2.05-.73H418.4V156h1.87v-1.93h.62l1.28,1.93h2.21l-1.57-2.31A2.12,2.12,0,0,0,424,151.7Z"/><path class="cls-1" d="M286.59,87.05v.45a.46.46,0,0,1,.29.06s.11.18-.05.79c-.68,2.78-5.91,9.13-13.33,16.18-2.16,2-5.71,5.24-8.53,7.78,2.59-3.44,5.28-6.92,8-10.38l1-1.33c3.21-4.08,6-7.61,8.19-10,1.77-1.89,3.61-3.09,4.29-3.12l.06-.45Zm-1,30v.43l0,0s.06.13-.07.54a12,12,0,0,1-3.27,4.37,12.36,12.36,0,0,1-3.33,2.14,34.21,34.21,0,0,1,2.86-3.8c2.49-3,3.5-3.22,3.76-3.23l0-.43Zm4.23,4.72c-.27-.42-.74-.45-1.41.19a47.41,47.41,0,0,1-4.11,3.74c-3.13,2.44-5.37,3.14-6.21,3.18a.75.75,0,0,1-.59-.19,1.13,1.13,0,0,1-.13-.9,4.65,4.65,0,0,1,.45-1.3,29.44,29.44,0,0,0,6.72-2.69c2.09-1.24,4.55-3,5-5.26a2.21,2.21,0,0,0-.42-1.89,3,3,0,0,0-2.46-.9h-.38a17.17,17.17,0,0,0-8,2.87,39.29,39.29,0,0,0-3.6,2.64c-.39.33-.82.71-1.25,1.11l-.31.29-.41.41c-.86.85-2.3,2.28-3.12,3a27.27,27.27,0,0,1-2.77,2.15,3.66,3.66,0,0,1-1,.49s-.13-.26.46-1.18c.4-.66,1-1.41,1.83-2.54l.43-.58c1.17-1.54,2.62-3.45,3-5a2.36,2.36,0,0,0-.41-2.07,2.77,2.77,0,0,0-2.35-.8c-3.5.16-7.66,3.82-9,5-1.21,1.08-2.4,2.16-3.45,3.14,2.2-3.19,4-5.71,5.14-7.25.79-.83,4.75-4,8.58-7.08,2-1.58,3.92-3.14,5.42-4.37,4.74-4,12.87-11.45,14-17.08a3.12,3.12,0,0,0-.41-2.59,1.81,1.81,0,0,0-1.44-.64h-.13c-1.93.09-4.36,1.28-7.22,3.55a116.53,116.53,0,0,0-17.79,18.44c-3,3.79-6.19,8-8.76,11.58-1,1-2,2-2.93,2.84l-1.78,1.73-.48.48a26.13,26.13,0,0,1-2.88,2.53c-4,3-7.28,3.7-12.36,4.08-1,.07-2,.1-3,.1-1.67,0-3.1-.08-4.23-.17a38.82,38.82,0,0,0,13.87-9,43.74,43.74,0,0,0,5.67-6.94c.94-1.34,1.92-2.73,3.1-4.18a19.16,19.16,0,0,1,5.48-4.86,2.66,2.66,0,0,1,1.05-.12h.32c6.92-.08,12.15-3.75,13.33-9.36a5.9,5.9,0,0,0-1-5.09c-1.3-1.61-3.53-2.42-6.22-2.32A12.49,12.49,0,0,0,252,94.16a11.86,11.86,0,0,0-1.43,2.78c-.28.91-.2,1.2-.06,1.38l.2.23H251c.41,0,.54-.39.72-.89l.13-.34a8.51,8.51,0,0,1,1.24-2.16A11.59,11.59,0,0,1,261.36,91c2.3-.11,4.09.56,5.07,1.84a4.07,4.07,0,0,1,.58,3.63c-.78,3-4.59,5-9.68,5h-.56a62.53,62.53,0,0,1-8.83-.91l-1.36-.21-.56-.09a58.94,58.94,0,0,0-11.57-.88c-7.42.27-13.06,4.45-14.36,10.63a6.16,6.16,0,0,0,1,5.24,5.84,5.84,0,0,0,4.6,2h.12c4.07,0,9.06-2.52,9.71-6.17a3.16,3.16,0,0,0-1.14-3,2.18,2.18,0,0,0-1.13-.47.62.62,0,0,0-.42.14c-.26.17-.3.46-.12.85a1.87,1.87,0,0,1,.13.3,3.78,3.78,0,0,1,0,1.91c-.75,2.86-3.57,4.79-7,4.81a4,4,0,0,1-4.13-5.25c1.23-5.46,7.4-6.71,10-7,.57,0,1.19-.06,1.84-.06a64.8,64.8,0,0,1,11.4,1.18c2.33.46,4.2.77,5.78,1a32.89,32.89,0,0,0-11.31,8.17c-1.52,1.72-2.75,3.2-3.94,4.63a85.39,85.39,0,0,1-6.47,7.19c-3.11,3-4.64,4.24-6.9,4.92a45.88,45.88,0,0,0-8.8-.57c-2,.1-5.84.81-6.45,2.82a1.25,1.25,0,0,0,.1,1.18c.33.45,1,.63,2.27.63,1,0,2.46-.11,4.31-.28s3.9-.41,5.81-.72a71.64,71.64,0,0,0,8.14.42c1.47,0,3,0,4.49-.1a23.38,23.38,0,0,0,14.25-5.32,35.22,35.22,0,0,0,2.67-2.38,47.18,47.18,0,0,0-2.58,4.28c-.22.47-.44,1-.17,1.43a1.34,1.34,0,0,0,1.21.46c.28,0,.64,0,1.11-.08l.35,0a5.76,5.76,0,0,0,2.87-.89l3.27-3.07c1.4-1.32,2.75-2.6,4.55-4.24a40,40,0,0,1,4.7-3.83,6.51,6.51,0,0,1,1.52-.74.75.75,0,0,1-.16.36c-.59.78-1.32,1.72-2.07,2.67l-.93,1.19c-1.6,2.08-2.39,3.14-2.79,4.57a3.12,3.12,0,0,0,.27,2.76,3,3,0,0,0,2.81.9c1.81-.14,4.08-1.36,6.75-3.62.66-.57,1.51-1.38,2.33-2.17a6.31,6.31,0,0,0-.35,1.32,3.45,3.45,0,0,0,.61,2.88c.77.9,2.09,1.26,4.22,1a16.43,16.43,0,0,0,8.4-3.91,49,49,0,0,0,4.05-3.65C289.58,122.88,290.06,122.34,289.8,121.73Z"/><path class="cls-1" d="M363.24,235.09a5.19,5.19,0,0,0,5.45-5.47v-.05a5.23,5.23,0,0,0-5.45-5.53h-3.07v11.05Zm-7.05-14.69h7.05c5.68,0,9.61,3.95,9.61,9.11v.06c0,5.16-3.93,9.16-9.61,9.16h-7.05Zm-22.49,0h13.65V224h-9.69v3.71h8.53v3.59h-8.53v3.86h9.82v3.58H333.7Zm-25,9.22v-.05a9.71,9.71,0,0,1,16.57-6.66l-2.54,3a6.64,6.64,0,0,0-4.62-2.07c-3.06,0-5.25,2.57-5.25,5.71v.06c0,3.14,2.15,5.76,5.25,5.76a6.47,6.47,0,0,0,4.75-2.15l2.53,2.59a9.51,9.51,0,0,1-16.69-6.15ZM295.8,220.4h4v18.33h-4Zm-15.47,9.25c2,0,3.15-1.21,3.15-2.78v-.05c0-1.81-1.24-2.78-3.23-2.78h-3.07v5.61Zm-7.14-9.25h7.39c4.33,0,6.93,2.59,6.93,6.34v0c0,4.24-3.25,6.44-7.31,6.44h-3v5.5h-4Zm-22.94,15.66,2.35-2.85a8.26,8.26,0,0,0,5.4,2.22c1.63,0,2.62-.65,2.62-1.73v0c0-1-.63-1.54-3.65-2.33-3.64-.94-6-2-6-5.6v-.06c0-3.32,2.64-5.52,6.34-5.52a10.35,10.35,0,0,1,6.72,2.33l-2.07,3a8.45,8.45,0,0,0-4.71-1.8c-1.52,0-2.32.71-2.32,1.59v.06c0,1.2.77,1.6,3.9,2.41,3.67,1,5.74,2.3,5.74,5.5v.05c0,3.64-2.74,5.68-6.64,5.68A11.4,11.4,0,0,1,250.25,236.06ZM214.54,220.4h4v8l7.34-8h4.8l-7.36,7.78,7.7,10.55h-4.78l-5.61-7.8-2.09,2.2v5.6h-4Zm-25,9.22v-.05a9.71,9.71,0,0,1,16.56-6.66l-2.53,3a6.65,6.65,0,0,0-4.63-2.07,5.4,5.4,0,0,0-5.24,5.71v.06c0,3.14,2.14,5.76,5.24,5.76a6.5,6.5,0,0,0,4.76-2.15l2.54,2.59a9.51,9.51,0,0,1-16.7-6.15Zm-13.23,1.44-2.4-5.95-2.4,5.95Zm-4.18-10.79h3.66l7.76,18.46h-4.16l-1.65-4.11h-7.66l-1.65,4.11h-4.06Zm-27.37.13h4v14.67h9v3.66h-13Zm-15.21,14.8c1.75,0,2.82-.63,2.82-2v-.06c0-1.23-.91-2-3-2h-4.6v4Zm-1.06-7.39c1.75,0,2.87-.58,2.87-1.94v-.05c0-1.2-.94-1.89-2.61-1.89h-3.93v3.88Zm-7.55-7.41h8.4A6.46,6.46,0,0,1,134,222a4.23,4.23,0,0,1,1.24,3.12v.05a4.29,4.29,0,0,1-2.38,4c2.1.81,3.39,2,3.39,4.5v0c0,3.36-2.69,5-6.77,5h-8.61Z"/></g></g></svg>