<svg xmlns="http://www.w3.org/2000/svg" viewBox="0 0 176.31 58.16"><defs><style>.cls-1{fill:#1d1d1b;}</style></defs><g id="Шар_2" data-name="Шар 2"><g id="Layer_1" data-name="Layer 1"><path class="cls-1" d="M163.13,37.19h13.18a3.82,3.82,0,0,1-2-2.24L161.16,2.48c-.73-1.83.5-2.48.5-2.48H144.73s1.2.64.51,2.48L132.83,35a3.62,3.62,0,0,1-2,2.24h12.67s-1.29-.47-.66-2.28l2.31-6.64h16.18l2.44,6.64C164.47,36.72,163.13,37.19,163.13,37.19ZM147.2,22.44,153,5.7l6.19,16.74ZM169.91,4.07h.51V.47h1.23V0h-3V.47h1.25ZM84.48,25.64a4.61,4.61,0,0,1-.71-1.74L82.07,2.52A2.08,2.08,0,0,1,83.1,0H70.56s1.29.21,1.72,2.1L73.82,24.7c0,5.12-5.29,7.08-10.74,7.08s-10.71-2-10.71-7.08L53.89,2.11C54.33.22,55.62,0,55.62,0H43.07a2.09,2.09,0,0,1,1,2.52L42.4,23.9a5,5,0,0,1-.69,1.74c1.86.25,2.48,12.81,21.37,12.81S82.61,25.89,84.48,25.64ZM172.77.6l1.1,3.47h.45l1.1-3.4v3.4h.49V0h-.66l-.93,2.83-.2.65c0-.13-.1-.33-.18-.6L173.05,0h-.77V4.07h.49ZM23.66,2.51V28.92c0,2.64-2.89,4.22-5.95,4.22-4.77,0-6.21-1.71-6.21-1.71a3.75,3.75,0,0,0,1-2.74c0-2.91-2.77-5.37-6.16-5.37C1.9,23.32,0,26.45,0,29.8c0,5.35,7.1,8.93,16.83,8.93,11.47,0,18.05-6,18.05-6a2.85,2.85,0,0,1-.63-1.94V2.52A2.65,2.65,0,0,1,35.53,0H22.35A2.64,2.64,0,0,1,23.66,2.51ZM127.79,35,118.57,22c5.93-1.46,10.15-5.1,10.16-10.58,0-6.18-4.49-11.38-14.52-11.44H89.51a2.65,2.65,0,0,1,1.28,2.51V34.68a2.64,2.64,0,0,1-1.32,2.51h12.68a2.69,2.69,0,0,1-1.28-2.52V22.74h7.58l8.1,12.17c.85,1.75-.41,2.28-.41,2.28H130A4.85,4.85,0,0,1,127.79,35ZM113.13,16.46H100.87V6.7h11.74c3.06,0,5.83,1.74,5.83,4.87C118.44,14.25,116.51,16.46,113.13,16.46ZM30.69,46.88H29.1V58h5V56.49H30.69Zm128.12,4.83-1-.35a1.4,1.4,0,0,1-.73-.49,2.34,2.34,0,0,1-.26-1.16,1.59,1.59,0,0,1,.33-1.13,1.09,1.09,0,0,1,.78-.3,1,1,0,0,1,.85.37,1.66,1.66,0,0,1,.27,1V50h1.58V49.6A2.56,2.56,0,0,0,158,46.72a2.62,2.62,0,0,0-1.92.69,2.81,2.81,0,0,0-.83,2.06v.32a4,4,0,0,0,.24,1.62A2.23,2.23,0,0,0,157,52.65l1.16.41a1.68,1.68,0,0,1,.77.5,2.13,2.13,0,0,1,.25,1.14v.41a1.86,1.86,0,0,1-.25,1.1,1.19,1.19,0,0,1-1,.4,1.11,1.11,0,0,1-.87-.37,1.71,1.71,0,0,1-.25-1V55h-1.59v.37a3.42,3.42,0,0,0,.51,1.87,2.61,2.61,0,0,0,2.22,1,2.88,2.88,0,0,0,2.07-.73,3.54,3.54,0,0,0,.76-2.46v-.38a3,3,0,0,0-.48-1.92A2.78,2.78,0,0,0,158.81,51.71Zm14.41-.41h-.09l-1.39-4.42H170l2.33,6.39V58h1.59V53.32l2.34-6.44h-1.69ZM38,53.09h2.76V51.66H38V48.39h3.13V46.88H36.37V58h4.76V56.49H38ZM51.78,53h-.06l-2.19-6.14H47.94V58h1.59V51h.08l1.67,5h.84l1.67-5h.07v7h1.59V46.88H53.86Zm95-1.36h-2.14V46.88h-1.59V58h1.59V53.09h2.14V58h1.59V46.88h-1.59ZM151.11,58h1.59V46.88h-1.59ZM16.69,53.87l-2.66-7H12.44V58H14V51l2.66,7h1.59V46.88H16.69ZM3.76,51.71l-1-.35a1.48,1.48,0,0,1-.73-.49,2.44,2.44,0,0,1-.25-1.16,1.59,1.59,0,0,1,.33-1.13,1.09,1.09,0,0,1,.78-.3,1,1,0,0,1,.84.37,1.59,1.59,0,0,1,.27,1V50H5.62V49.6A2.56,2.56,0,0,0,3,46.72a2.62,2.62,0,0,0-1.92.69,2.81,2.81,0,0,0-.83,2.06v.32a4,4,0,0,0,.24,1.62,2.23,2.23,0,0,0,1.46,1.24l1.16.41a1.61,1.61,0,0,1,.76.5A2,2,0,0,1,4.1,54.7v.41a1.8,1.8,0,0,1-.26,1.1,1.15,1.15,0,0,1-1,.4A1.11,1.11,0,0,1,2,56.24a1.72,1.72,0,0,1-.26-1V55H.13v.37a3.48,3.48,0,0,0,.5,1.87,2.65,2.65,0,0,0,2.23,1,2.84,2.84,0,0,0,2.06-.73A3.49,3.49,0,0,0,5.69,55v-.38a3,3,0,0,0-.48-1.92A2.77,2.77,0,0,0,3.76,51.71ZM8.15,58H9.74V46.88H8.15ZM23.68,46.72a2.7,2.7,0,0,0-2.24,1.05,3.21,3.21,0,0,0-.52,2v5.62a3.07,3.07,0,0,0,.57,1.94,2.12,2.12,0,0,0,1.76.79,2.5,2.5,0,0,0,1.24-.27,1.82,1.82,0,0,0,.76-.74l.42.85h.79V51.93H23.52v1.43h1.35v1.5a2.14,2.14,0,0,1-.28,1.3,1.24,1.24,0,0,1-.92.45,1.11,1.11,0,0,1-.89-.4,1.87,1.87,0,0,1-.27-1.15V49.85a1.69,1.69,0,0,1,.3-1.17,1.09,1.09,0,0,1,.89-.4,1.17,1.17,0,0,1,.86.32,1.2,1.2,0,0,1,.31.9v.56h1.59v-.45a3,3,0,0,0-.81-2.17A2.73,2.73,0,0,0,23.68,46.72Zm145.3.16h-1.67l-2.53,5.36V46.88h-1.59V58h1.59V54.75l1-1.72,1.89,5h1.73l-2.67-6.56Zm-63.63,1.51h2V58h1.59V48.39h2V46.88h-5.53ZM101,46.72a2.74,2.74,0,0,0-1.95.72,2.89,2.89,0,0,0-.83,2.37v5.27A2.91,2.91,0,0,0,99,57.45a3,3,0,0,0,3.91,0,2.91,2.91,0,0,0,.82-2.37V49.81a2.88,2.88,0,0,0-.82-2.37A2.77,2.77,0,0,0,101,46.72Zm1.19,8.6a1.24,1.24,0,0,1-.33,1,1.2,1.2,0,0,1-.86.32,1.13,1.13,0,0,1-1.19-1.29V49.57a1.23,1.23,0,0,1,.33-1,1.19,1.19,0,0,1,.86-.32,1.16,1.16,0,0,1,.86.32,1.23,1.23,0,0,1,.33,1ZM124,51.66h-2.14V46.88h-1.59V58h1.59V53.09H124V58h1.59V46.88H124Zm-7.79,3.66a1.47,1.47,0,0,1-.22.9,1.1,1.1,0,0,1-.89.39,1,1,0,0,1-.81-.4,1.58,1.58,0,0,1-.21-1V49.74a1.67,1.67,0,0,1,.27-1.09,1,1,0,0,1,.83-.37,1,1,0,0,1,.83.4,1.39,1.39,0,0,1,.2.73V50h1.54v-.76a2.62,2.62,0,0,0-.71-1.84,2.93,2.93,0,0,0-1.92-.72,2.88,2.88,0,0,0-1.82.65,2.69,2.69,0,0,0-.81,2.18v5.77a2.83,2.83,0,0,0,.56,2,2.48,2.48,0,0,0,2,.84,2.73,2.73,0,0,0,2.08-.74,2.9,2.9,0,0,0,.67-2v-.46h-1.59ZM86.13,51.71l-1-.35a1.48,1.48,0,0,1-.73-.49,2.44,2.44,0,0,1-.25-1.16,1.59,1.59,0,0,1,.33-1.13,1.09,1.09,0,0,1,.78-.3,1,1,0,0,1,.84.37,1.59,1.59,0,0,1,.27,1V50H88V49.6a2.56,2.56,0,0,0-2.65-2.88,2.62,2.62,0,0,0-1.92.69,2.81,2.81,0,0,0-.83,2.06v.32a4,4,0,0,0,.24,1.62,2.23,2.23,0,0,0,1.46,1.24l1.16.41a1.66,1.66,0,0,1,.76.5,2,2,0,0,1,.26,1.14v.41a1.8,1.8,0,0,1-.26,1.1,1.15,1.15,0,0,1-1,.4,1.11,1.11,0,0,1-.87-.37,1.72,1.72,0,0,1-.26-1V55H82.49v.37A3.42,3.42,0,0,0,83,57.19a2.65,2.65,0,0,0,2.23,1,2.84,2.84,0,0,0,2.06-.73A3.53,3.53,0,0,0,88.06,55v-.38a3,3,0,0,0-.48-1.92A2.77,2.77,0,0,0,86.13,51.71Zm-19-4.83H65.53V58h5V56.49H67.12Zm3.52,1.51h2V58H74.2V48.39h2V46.88H70.64Zm67.91,5.42h-.09l-1.27-6.93H136l-1.27,6.93h-.07l-.89-6.93h-1.68L133.84,58h1.43l1.27-7.18h.11L137.92,58h1.43l1.75-11.12h-1.69ZM59.79,46.88,57.36,58H59l.53-2.38h2L62,58h1.58L61.19,46.88Zm-.15,7.33L60.46,50l.86,4.23Zm34.55,1.11a1.47,1.47,0,0,1-.22.9,1.1,1.1,0,0,1-.89.39,1,1,0,0,1-.81-.4,1.58,1.58,0,0,1-.21-1V49.74a1.67,1.67,0,0,1,.27-1.09,1,1,0,0,1,.83-.37.94.94,0,0,1,.82.4,1.31,1.31,0,0,1,.21.73V50h1.54v-.76A2.62,2.62,0,0,0,95,47.44a2.94,2.94,0,0,0-1.93-.72,2.88,2.88,0,0,0-1.81.65,2.69,2.69,0,0,0-.81,2.18v5.77a2.83,2.83,0,0,0,.56,2,2.48,2.48,0,0,0,2,.84,2.73,2.73,0,0,0,2.08-.74,2.9,2.9,0,0,0,.67-2v-.46H94.19Z"/></g></g></svg>