<svg width="645" height="431" viewBox="0 0 645 431" fill="none" xmlns="http://www.w3.org/2000/svg">
<path d="M644.435 430.475H0.193359V0.979925H644.435V430.475Z" fill="#432B42"/>
<path d="M126.091 199.905C130.002 200.14 131.306 200.14 132.739 200.14C147.603 200.14 154.253 195.211 154.253 184.415C154.253 173.971 147.995 169.395 133.522 169.395C131.306 169.395 129.09 169.513 126.091 169.629V199.905ZM126.091 162.823C127.525 162.941 127.917 162.941 129.219 162.941C143.171 162.941 149.429 158.364 149.429 148.039C149.429 138.533 143.691 134.192 131.043 134.192C129.481 134.192 128.437 134.192 126.091 134.427V162.823ZM139.389 127.856C157.513 127.856 167.423 134.309 167.423 146.043C167.423 152.967 164.031 158.131 157.382 161.651C155.297 162.707 153.21 163.411 148.778 164.703C164.293 165.171 172.507 171.859 172.507 184.064C172.507 198.38 160.641 206.593 139.65 206.593H98.9712V200.844L106.793 200.257L108.879 198.38V135.833L106.793 134.192L98.9712 133.605V127.856H139.389Z" fill="white"/>
<path d="M214.756 127.856V133.605L206.672 134.192L204.847 135.833V176.905C204.847 192.396 210.975 198.732 225.578 198.732C240.18 198.732 245.918 192.277 245.918 175.85V136.304L243.962 134.309L235.618 133.605V127.856H265.215V133.605L257.26 134.309L255.436 136.304V177.024C255.436 198.613 245.264 208.002 221.796 208.002C207.715 208.002 197.807 204.481 192.33 197.558C188.81 192.864 187.375 186.997 187.375 176.437V135.833L185.551 134.192L177.466 133.605V127.856H214.756Z" fill="white"/>
<path d="M272.653 200.844L280.346 200.022L282.693 197.91V135.834L280.866 134.192L272.522 133.606V127.856H302.51V131.023L342.408 186.763V136.539L340.061 134.31L332.108 133.371V127.856H361.836V133.371L354.142 134.31L351.926 136.539V206.594H337.324L292.209 143.579V197.91L294.297 200.022L302.381 200.844V206.594H272.653V200.844Z" fill="white"/>
<path d="M450.372 167.87V173.619L442.809 174.206L440.723 175.85V203.191C429.249 206.594 421.035 208.003 411.908 208.003C384.399 208.003 365.753 191.339 365.753 166.931C365.753 142.406 384.527 126.447 413.343 126.447C422.077 126.447 429.64 127.504 440.723 130.436V150.386H431.204L428.728 137.947L426.772 135.834C422.731 134.427 419.861 133.956 415.688 133.956C396.393 133.956 384.527 146.396 384.527 166.58C384.527 187.936 396.523 200.14 417.513 200.14C419.469 200.14 420.905 200.022 424.033 199.787V175.85L421.949 174.206L412.299 173.619V167.87H450.372Z" fill="white"/>
<path d="M456.768 200.844L464.589 200.258L466.677 198.38V135.834L464.589 134.192L456.768 133.606V127.856H522.61V146.396H513.485L511.529 136.07L509.833 134.544H483.888V162.355H500.837L502.662 160.711L503.966 152.263H511.658V179.487H503.966L502.662 171.039L500.837 169.395H483.888V199.906H514.136L515.83 198.027L518.046 185.59H526.913V206.594H456.768V200.844Z" fill="white"/>
<path d="M527.361 228.846C527.361 230.253 431.463 231.391 313.167 231.391C194.869 231.391 98.9707 230.253 98.9707 228.846C98.9707 227.439 194.869 226.299 313.167 226.299C431.463 226.299 527.361 227.439 527.361 228.846Z" fill="white"/>
<path d="M528.283 302.463C528.283 303.869 432.385 305.009 314.089 305.009C195.791 305.009 99.8926 303.869 99.8926 302.463C99.8926 301.057 195.791 299.917 314.089 299.917C432.385 299.917 528.283 301.057 528.283 302.463Z" fill="white"/>
<path d="M122.092 249.942C121.71 248.717 121.193 247.738 120.542 247.006C119.892 246.276 119.128 245.745 118.25 245.414C117.374 245.085 116.464 244.917 115.521 244.917H113.972H113.297C113.073 244.917 112.869 244.942 112.69 244.989C112.646 248.386 112.612 251.724 112.589 255.002C112.565 258.282 112.556 261.574 112.556 264.874C113.677 264.874 114.836 264.758 116.026 264.522C117.217 264.285 118.308 263.804 119.294 263.07C120.284 262.338 121.092 261.29 121.722 259.921C122.349 258.554 122.665 256.737 122.665 254.472C122.665 252.68 122.474 251.17 122.092 249.942ZM102.448 250.049C102.356 247.006 102.221 243.952 102.041 240.885C102.805 240.98 103.636 241.062 104.536 241.132C105.434 241.202 106.445 241.238 107.568 241.238C109.141 241.238 110.77 241.18 112.454 241.062C114.141 240.945 115.792 240.885 117.409 240.885C120.598 240.885 123.092 241.132 124.889 241.628C126.686 242.122 128.102 242.844 129.136 243.786C130.573 245.014 131.629 246.382 132.304 247.89C132.977 249.401 133.314 251.217 133.314 253.34C133.314 256.029 132.886 258.341 132.034 260.276C131.18 262.21 129.978 263.778 128.428 264.981C126.878 266.184 125.048 267.068 122.936 267.636C120.824 268.201 118.508 268.485 115.993 268.485H112.556C112.556 272.024 112.589 275.55 112.656 279.064C112.724 282.58 112.869 286.058 113.096 289.502C112.33 289.406 111.5 289.36 110.601 289.36H107.568H104.536C103.636 289.36 102.805 289.406 102.041 289.502C102.221 286.578 102.356 283.592 102.448 280.55C102.536 277.506 102.581 274.028 102.581 270.112V260.486C102.581 256.572 102.536 253.092 102.448 250.049Z" fill="white"/>
<path d="M164.722 249.236C164.318 248.009 163.7 247.076 162.87 246.439C162.036 245.804 160.959 245.391 159.635 245.201C158.307 245.013 156.724 244.917 154.883 244.917C154.747 251.336 154.679 257.752 154.679 264.168C154.95 264.213 155.208 264.249 155.455 264.273C155.703 264.297 155.938 264.308 156.164 264.308C159.128 264.308 161.396 263.472 162.971 261.796C164.542 260.123 165.328 257.587 165.328 254.189C165.328 252.113 165.127 250.461 164.722 249.236ZM154.679 267.211V270.112C154.679 274.028 154.724 277.507 154.815 280.549C154.904 283.592 155.039 286.577 155.219 289.503C154.455 289.407 153.624 289.36 152.726 289.36H149.692H146.66C145.76 289.36 144.93 289.407 144.166 289.503C144.346 286.577 144.48 283.592 144.571 280.549C144.66 277.507 144.704 274.028 144.704 270.112V260.487C144.704 256.572 144.66 253.092 144.571 250.049C144.48 247.007 144.346 243.952 144.166 240.884C144.93 240.98 145.76 241.063 146.66 241.132C147.559 241.203 148.57 241.239 149.692 241.239C150.906 241.239 152.288 241.18 153.838 241.063C155.388 240.945 157.31 240.884 159.602 240.884C161.307 240.884 162.768 240.932 163.982 241.027C165.195 241.121 166.239 241.264 167.115 241.451C167.992 241.64 168.755 241.888 169.407 242.193C170.058 242.501 170.675 242.867 171.26 243.292C172.608 244.329 173.675 245.616 174.462 247.148C175.248 248.681 175.64 250.508 175.64 252.633C175.64 256.076 174.742 258.883 172.946 261.055C171.147 263.225 168.564 264.759 165.195 265.653C167.352 269.664 169.664 273.661 172.136 277.649C174.608 281.635 177.079 285.587 179.551 289.503C178.516 289.407 177.504 289.36 176.516 289.36H173.484H170.416C169.407 289.36 168.384 289.407 167.352 289.503L155.286 267.211H154.679Z" fill="white"/>
<path d="M225.58 255.498C224.861 253.068 223.862 251.004 222.581 249.306C221.301 247.608 219.75 246.299 217.93 245.379C216.11 244.459 214.124 243.998 211.968 243.998C209.676 243.998 207.62 244.576 205.8 245.732C203.98 246.89 202.441 248.456 201.182 250.439C199.925 252.419 198.969 254.746 198.318 257.408C197.666 260.076 197.341 262.916 197.341 265.936C197.341 269.712 197.721 272.895 198.488 275.49C199.25 278.086 200.284 280.172 201.586 281.752C202.89 283.334 204.394 284.478 206.102 285.184C207.81 285.892 209.608 286.247 211.496 286.247C213.517 286.247 215.449 285.799 217.29 284.902C219.132 284.007 220.738 282.638 222.11 280.798C223.481 278.958 224.58 276.623 225.413 273.792C226.244 270.962 226.66 267.612 226.66 263.743C226.66 260.676 226.3 257.928 225.58 255.498ZM188.14 255.464C189.377 252.396 191.117 249.708 193.364 247.395C195.612 245.084 198.329 243.268 201.521 241.946C204.709 240.627 208.258 239.964 212.168 239.964C215.762 239.964 219.11 240.484 222.21 241.522C225.312 242.56 228.006 244.118 230.298 246.192C232.59 248.268 234.398 250.898 235.724 254.083C237.049 257.268 237.713 260.983 237.713 265.228C237.713 268.767 237.073 272.07 235.792 275.136C234.51 278.203 232.736 280.88 230.468 283.168C228.197 285.456 225.492 287.238 222.345 288.512C219.2 289.786 215.741 290.423 211.968 290.423C208.417 290.423 205.081 289.962 201.958 289.042C198.834 288.122 196.117 286.636 193.802 284.583C191.488 282.531 189.658 279.912 188.309 276.727C186.962 273.544 186.288 269.735 186.288 265.3C186.288 261.808 186.906 258.531 188.14 255.464Z" fill="white"/>
<path d="M289.036 287.84C288.16 288.288 287.104 288.688 285.869 289.042C284.632 289.396 283.252 289.714 281.722 289.998C280.196 290.281 278.6 290.422 276.938 290.422C273.389 290.422 270.108 289.892 267.098 288.83C264.086 287.768 261.493 286.153 259.313 283.982C257.133 281.813 255.426 279.158 254.192 276.021C252.956 272.885 252.338 269.31 252.338 265.3C252.338 261.29 252.956 257.717 254.192 254.578C255.426 251.441 257.156 248.788 259.381 246.617C261.605 244.449 264.268 242.796 267.368 241.664C270.468 240.53 273.881 239.965 277.613 239.965C280.577 239.965 283.284 240.284 285.733 240.92C288.181 241.557 290.35 242.324 292.238 243.221C291.877 243.881 291.585 244.778 291.361 245.909C291.136 247.042 290.957 247.985 290.822 248.74L290.418 248.882C289.968 248.314 289.34 247.68 288.53 246.972C287.722 246.264 286.778 245.58 285.7 244.918C284.621 244.258 283.408 243.705 282.061 243.256C280.712 242.808 279.23 242.584 277.613 242.584C274.96 242.584 272.501 243.032 270.232 243.929C267.962 244.825 265.986 246.204 264.302 248.068C262.617 249.932 261.302 252.292 260.36 255.145C259.414 258 258.942 261.384 258.942 265.3C258.942 269.216 259.414 272.602 260.36 275.456C261.302 278.31 262.617 280.669 264.302 282.532C265.986 284.396 267.962 285.776 270.232 286.673C272.501 287.569 274.96 288.016 277.613 288.016C279.23 288.016 280.722 287.804 282.094 287.378C283.465 286.954 284.722 286.448 285.869 285.857C287.014 285.269 288.046 284.632 288.968 283.946C289.89 283.262 290.664 282.662 291.293 282.142L291.564 282.425L290.957 286.601C290.553 286.978 289.913 287.392 289.036 287.84Z" fill="white"/>
<path d="M340.155 248.386C340.111 244.754 339.999 242.254 339.819 240.884C340.314 240.98 340.786 241.062 341.237 241.132C341.683 241.203 342.131 241.239 342.582 241.239C343.166 241.239 343.841 241.12 344.603 240.884C344.47 242.538 344.335 244.507 344.199 246.794C344.065 249.083 343.953 251.535 343.863 254.154C343.773 256.771 343.683 259.462 343.593 262.22C343.503 264.98 343.437 267.659 343.393 270.252C343.346 273.415 342.887 276.246 342.01 278.746C341.134 281.247 339.887 283.37 338.27 285.115C336.653 286.86 334.663 288.183 332.303 289.078C329.946 289.972 327.238 290.423 324.183 290.423C317.443 290.423 312.545 288.818 309.49 285.61C306.434 282.402 304.909 277.331 304.909 270.395C304.909 268.178 304.963 266.208 305.075 264.487C305.187 262.764 305.245 261.008 305.245 259.215C305.245 255.25 305.198 251.736 305.109 248.668C305.018 245.603 304.93 243.007 304.841 240.884C305.379 240.98 305.963 241.062 306.594 241.132C307.221 241.203 307.805 241.239 308.345 241.239C308.839 241.239 309.322 241.203 309.794 241.132C310.266 241.062 310.747 240.98 311.242 240.884C311.153 241.923 311.063 243.279 310.974 244.954C310.883 246.63 310.793 248.528 310.703 250.651C310.613 252.774 310.545 255.063 310.502 257.515C310.457 259.97 310.434 262.516 310.434 265.159C310.434 266.762 310.457 268.426 310.502 270.148C310.545 271.87 310.703 273.544 310.974 275.171C311.242 276.799 311.681 278.356 312.287 279.842C312.894 281.33 313.758 282.626 314.883 283.735C316.006 284.843 317.421 285.716 319.127 286.354C320.834 286.991 322.947 287.308 325.463 287.308C327.934 287.308 330.014 286.932 331.698 286.175C333.383 285.422 334.765 284.432 335.843 283.204C336.921 281.978 337.765 280.562 338.371 278.958C338.978 277.354 339.415 275.68 339.683 273.932C339.955 272.19 340.111 270.442 340.155 268.696C340.199 266.952 340.223 265.347 340.223 263.886C340.223 257.186 340.199 252.019 340.155 248.386Z" fill="white"/>
<path d="M361.42 250.049C361.308 247.053 361.185 243.997 361.051 240.884C361.633 240.98 362.196 241.062 362.735 241.132C363.275 241.202 363.813 241.238 364.352 241.238C364.892 241.238 365.431 241.202 365.969 241.132C366.508 241.062 367.071 240.98 367.655 240.884C367.521 243.997 367.396 247.053 367.284 250.049C367.172 253.046 367.115 256.101 367.115 259.214V271.386C367.115 274.5 367.172 277.568 367.284 280.585C367.396 283.605 367.521 286.577 367.655 289.502C366.62 289.406 365.521 289.36 364.352 289.36C363.183 289.36 362.084 289.406 361.051 289.502C361.185 286.577 361.308 283.605 361.42 280.585C361.532 277.568 361.589 274.5 361.589 271.386V259.214C361.589 256.101 361.532 253.046 361.42 250.049Z" fill="white"/>
<path d="M384.335 282.886C384.942 283.759 385.685 284.548 386.559 285.255C387.437 285.964 388.458 286.542 389.627 286.991C390.794 287.439 392.097 287.662 393.535 287.662C395.018 287.662 396.355 287.391 397.546 286.848C398.735 286.307 399.747 285.575 400.579 284.655C401.41 283.735 402.05 282.65 402.499 281.4C402.949 280.15 403.174 278.816 403.174 277.4C403.174 275.231 402.643 273.508 401.589 272.235C400.533 270.962 399.219 269.899 397.646 269.051C396.074 268.202 394.377 267.422 392.559 266.716C390.739 266.007 389.041 265.123 387.471 264.06C385.895 262.999 384.583 261.644 383.529 259.992C382.471 258.34 381.943 256.124 381.943 253.339C381.943 251.359 382.281 249.555 382.955 247.927C383.63 246.299 384.606 244.895 385.885 243.715C387.166 242.538 388.705 241.618 390.502 240.955C392.299 240.295 394.321 239.964 396.569 239.964C398.725 239.964 400.589 240.236 402.162 240.779C403.735 241.322 405.197 242.159 406.542 243.292C406.139 244.094 405.803 244.943 405.531 245.838C405.263 246.735 404.993 247.868 404.725 249.236H403.915C403.691 248.576 403.386 247.856 403.005 247.076C402.623 246.299 402.105 245.58 401.455 244.918C400.803 244.258 400.029 243.704 399.13 243.256C398.23 242.807 397.151 242.583 395.895 242.583C394.637 242.583 393.478 242.795 392.423 243.22C391.366 243.644 390.445 244.247 389.661 245.024C388.874 245.803 388.267 246.735 387.841 247.82C387.414 248.906 387.199 250.084 387.199 251.359C387.199 253.576 387.729 255.322 388.783 256.595C389.839 257.87 391.153 258.942 392.726 259.816C394.299 260.69 395.995 261.467 397.814 262.15C399.635 262.835 401.331 263.671 402.905 264.663C404.477 265.654 405.79 266.927 406.847 268.484C407.902 270.042 408.43 272.118 408.43 274.712C408.43 276.883 408.061 278.934 407.318 280.868C406.577 282.803 405.498 284.488 404.085 285.928C402.667 287.367 400.938 288.476 398.894 289.254C396.849 290.032 394.523 290.423 391.918 290.423C389.133 290.423 386.874 290.032 385.145 289.254C383.414 288.476 381.966 287.592 380.798 286.602C381.202 285.515 381.481 284.536 381.641 283.663C381.797 282.791 381.943 281.67 382.078 280.303H382.887C383.247 281.151 383.729 282.012 384.335 282.886Z" fill="white"/>
<path d="M421.942 250.049C421.83 247.053 421.707 243.997 421.573 240.884C422.155 240.98 422.718 241.062 423.257 241.132C423.797 241.202 424.335 241.238 424.874 241.238C425.414 241.238 425.953 241.202 426.491 241.132C427.03 241.062 427.593 240.98 428.177 240.884C428.043 243.997 427.918 247.053 427.806 250.049C427.694 253.046 427.637 256.101 427.637 259.214V271.386C427.637 274.5 427.694 277.568 427.806 280.585C427.918 283.605 428.043 286.577 428.177 289.502C427.142 289.406 426.043 289.36 424.874 289.36C423.705 289.36 422.606 289.406 421.573 289.502C421.707 286.577 421.83 283.605 421.942 280.585C422.054 277.568 422.111 274.5 422.111 271.386V259.214C422.111 256.101 422.054 253.046 421.942 250.049Z" fill="white"/>
<path d="M466.324 271.137C460.482 264.556 454.641 258.01 448.8 251.5C448.756 252.821 448.709 254.59 448.665 256.806C448.621 259.026 448.6 262.045 448.6 265.865C448.6 266.857 448.608 268.084 448.63 269.545C448.654 271.009 448.676 272.542 448.698 274.146C448.722 275.749 448.756 277.377 448.8 279.028C448.845 280.681 448.889 282.213 448.936 283.628C448.98 285.044 449.024 286.282 449.072 287.342C449.116 288.405 449.16 289.126 449.204 289.502C448.485 289.406 447.698 289.36 446.848 289.36C445.946 289.36 445.116 289.406 444.352 289.502C444.441 289.032 444.542 288.158 444.656 286.884C444.766 285.609 444.868 284.089 444.96 282.32C445.048 280.55 445.149 278.628 445.262 276.552C445.373 274.477 445.464 272.401 445.532 270.324C445.6 268.249 445.654 266.22 445.701 264.237C445.745 262.257 445.768 260.486 445.768 258.93C445.768 254.401 445.756 250.508 445.736 247.254C445.712 243.998 445.654 241.569 445.566 239.965H446.644C449.384 243.078 452.316 246.416 455.438 249.978C458.561 253.54 461.662 257.054 464.741 260.522C467.817 263.99 470.74 267.272 473.502 270.36C476.265 273.45 478.68 276.081 480.746 278.25V268.625C480.746 263.672 480.713 258.848 480.645 254.154C480.577 249.461 480.432 245.037 480.208 240.885C481.106 241.121 481.869 241.238 482.5 241.238C483.038 241.238 483.757 241.121 484.656 240.885C484.566 241.924 484.464 243.48 484.353 245.554C484.241 247.632 484.128 249.848 484.016 252.208C483.904 254.566 483.801 256.878 483.713 259.142C483.622 261.409 483.577 263.225 483.577 264.592V268.838C483.577 270.442 483.588 272.117 483.612 273.862C483.633 275.609 483.656 277.365 483.68 279.136C483.701 280.904 483.724 282.557 483.746 284.089C483.768 285.622 483.781 286.954 483.781 288.086V290.422H482.836C477.669 284.148 472.164 277.72 466.324 271.137Z" fill="white"/>
<path d="M501.201 249.942C501.089 246.925 500.967 243.904 500.832 240.885C502.855 240.98 504.863 241.062 506.863 241.132C508.863 241.202 510.873 241.238 512.896 241.238C514.917 241.238 516.916 241.202 518.895 241.132C520.872 241.062 522.872 240.98 524.893 240.885C524.757 241.593 524.689 242.301 524.689 243.006C524.689 243.716 524.757 244.424 524.893 245.132C523.455 245.037 522.14 244.942 520.951 244.849C519.76 244.754 518.5 244.66 517.175 244.564C515.849 244.47 514.4 244.388 512.829 244.317C511.255 244.248 509.368 244.212 507.168 244.212C507.12 245.722 507.065 247.16 506.999 248.528C506.931 249.896 506.896 251.453 506.896 253.198C506.896 255.038 506.908 256.832 506.931 258.577C506.953 260.322 506.964 261.645 506.964 262.54C508.941 262.54 510.716 262.517 512.289 262.469C513.861 262.422 515.299 262.361 516.603 262.293C517.905 262.221 519.107 262.15 520.208 262.08C521.309 262.009 522.353 261.928 523.343 261.832C523.208 262.54 523.14 263.272 523.14 264.026C523.14 264.733 523.208 265.442 523.343 266.148C522.173 266.008 520.815 265.89 519.265 265.794C517.716 265.701 516.165 265.642 514.615 265.618C513.064 265.594 511.604 265.572 510.232 265.546C508.863 265.524 507.775 265.512 506.964 265.512C506.964 265.937 506.953 266.397 506.931 266.892C506.908 267.386 506.896 268.013 506.896 268.768V271.526V275.774C506.896 278.462 506.908 280.681 506.931 282.425C506.953 284.17 506.988 285.493 507.032 286.389H511.751C513.457 286.389 515.129 286.354 516.772 286.282C518.411 286.212 519.96 286.117 521.421 286C522.883 285.882 524.151 285.704 525.229 285.468C525.14 285.798 525.083 286.165 525.063 286.565C525.039 286.968 525.028 287.332 525.028 287.661C525.028 288.417 525.096 289.032 525.229 289.502C523.208 289.406 521.197 289.36 519.197 289.36H513.099H506.964C504.944 289.36 502.896 289.406 500.832 289.502C500.967 286.484 501.089 283.476 501.201 280.478C501.313 277.484 501.371 274.429 501.371 271.316V259.142C501.371 256.029 501.313 252.962 501.201 249.942Z" fill="white"/>
<path d="M537.674 129.964H537.633L537.674 130.925V135.536H535.583V128.064H538.398L540.385 132.995L540.598 133.741H540.641L540.855 132.995L542.838 128.064H545.657V135.536H543.566V130.925L543.607 129.964H543.566L541.366 135.536H539.871L537.674 129.964ZM527.021 129.559V128.064H533.938V129.559H531.526V135.536H529.435V129.559H527.021Z" fill="white"/>
</svg>
