<svg width="196" height="130" viewBox="0 0 196 130" fill="none" xmlns="http://www.w3.org/2000/svg">
<path fill-rule="evenodd" clip-rule="evenodd" d="M195.96 20.62L193.41 16.13L192.4 14.34L195.96 8.06L192.9 3.01L188.15 0L182.14 3.56H182.12L176.1 0L170.09 3.56L164.09 0L164.08 0.01L164.07 0L158.08 3.56L152.07 0L152.06 0.01L152.05 0L146.04 3.56L140.06 0L140.04 0.01L140.01 0L134.03 3.55L128.04 0L128.02 0.02L128 0L122.01 3.55L116.02 0L116 0.02L115.97 0L109.99 3.55L104.01 0L103.98 0.02L103.96 0L97.98 3.54L92 0L91.98 0.02L91.95 0L85.97 3.55L79.99 0L79.96 0.02L79.94 0L73.95 3.55L67.97 0L67.94 0.02L67.92 0L61.93 3.55L55.94 0L55.92 0.01L55.9 0L49.91 3.56L43.91 0L43.9 0.01L43.88 0L37.89 3.56L31.89 0L31.88 0.01L31.87 0L25.87 3.56L19.85 0L13.84 3.56H13.82L7.81 0L3.07 3.01L0 8.06L3.56 14.34L0 20.62L3.56 26.91L2.31 29.11L0 33.19L3.56 39.46L0 45.73V45.75L2.96 50.95L3.56 52.02L0 58.3L0.41 59.03L3.56 64.58L0 70.86L3.56 77.15L0 83.43V83.44L2.16 87.24L3.56 89.72L0 95.99L3.56 102.27L2.5 104.14L0 108.55L3.56 114.83L0 121.11L3.07 126.16L7.81 129.17L13.82 125.62L13.84 125.61L19.86 129.17L25.87 125.61L31.87 129.17H31.88H31.89L37.88 125.62L43.88 129.17L43.9 129.16L43.91 129.17L49.91 125.62L55.9 129.17L55.92 129.16L55.95 129.17L61.93 125.63L67.92 129.17L67.94 129.16L67.97 129.17L73.95 125.63L79.94 129.17L79.96 129.16L79.99 129.17L85.97 125.63L91.95 129.17L91.98 129.16L92 129.17L97.98 125.63L103.96 129.17L103.98 129.16L104.01 129.17L109.99 125.63L115.97 129.17L116 129.16L116.02 129.17L122 125.63L127.99 129.17L128.02 129.16L128.04 129.17L134.03 125.63L140.02 129.17L140.04 129.16L140.06 129.17L146.04 125.62L152.05 129.17L152.06 129.16L152.07 129.17L158.07 125.62L164.07 129.17H164.08H164.09L170.09 125.61L176.11 129.17L182.12 125.61L182.14 125.62L188.15 129.17L192.9 126.16L195.96 121.11L192.4 114.83L195.96 108.55L192.4 102.27L195.96 95.99V95.98L192.4 89.72L195.96 83.44L195.95 83.43H195.96L192.4 77.15L195.96 70.87V70.86L192.4 64.59L195.96 58.31V58.3L192.4 52.02L195.96 45.75L195.95 45.74L195.96 45.73L192.4 39.46L195.96 33.19L192.4 26.91L193.81 24.4L195.96 20.62Z" fill="#E30613"/>
<path fill-rule="evenodd" clip-rule="evenodd" d="M92.5099 40.6799C93.7499 46.9999 95.0599 54.5999 98.8599 57.9999C101.39 60.2499 104.09 59.5599 108.5 60.1899C110.9 60.5499 111.77 63.3599 113.31 65.0199C112.31 62.6799 111.23 60.6099 109.15 59.7599C106.15 58.5299 103.41 59.7599 100.83 58.2199C95.3299 54.9999 94.3599 43.9999 92.7299 36.9999C91.3399 30.9999 89.8199 24.2899 84.4099 22.9999C90.3099 25.2599 91.2599 34.2099 92.5099 40.6799ZM86.8199 19.6799C89.8199 16.6099 94.5599 18.3899 97.3299 20.5499C103.78 25.5499 106.2 38.0299 115.33 38.9499C122.24 39.6399 124.33 31.6299 128.48 28.4399C128.55 28.1999 128.74 27.9099 128.48 28.2099C128.329 28.2666 128.192 28.3548 128.079 28.4686C127.965 28.5824 127.877 28.7193 127.82 28.8699C123.6 31.4599 121.67 38.9799 114.68 37.8699C112.796 37.3644 111.075 36.383 109.68 35.0199C103.78 29.7099 100.21 16.9299 90.8499 17.5099C90.0536 17.5115 89.2698 17.7083 88.5672 18.0832C87.8646 18.458 87.2647 18.9994 86.8199 19.6599V19.6799ZM126.89 19.8899C124.89 22.3399 121.5 27.9799 116.6 26.2399C109.06 23.5799 105.87 8.90993 96.8899 9.16993C93.1899 9.26993 90.6299 12.4699 89.2299 14.6399C91.4899 12.3299 93.7899 9.71993 97.1099 9.81993C105.72 10.0999 108.7 26.3999 117.26 27.3399C122.46 27.9099 125.26 22.9899 127.55 19.6799C127.34 19.0999 126.85 19.9299 126.89 19.8699V19.8899ZM109.15 58.1899C111.49 59.1899 115.44 58.1899 116.15 56.1899C104.91 63.8399 104 40.4399 94.4899 40.8999C102.35 42.5699 102.52 55.3299 109.15 58.1899ZM117.04 44.1899C107.94 47.4099 103.74 39.2799 101.04 33.4599C98.3399 27.6399 94.4599 16.9999 87.2599 21.8399C95.5399 18.1399 97.6499 28.7599 100.4 34.9799C102.61 39.9799 106.73 46.5199 114.19 45.9799C122.89 45.2999 126.03 37.5599 129.74 30.8699C129.4 30.2299 129.32 31.0699 129.3 31.0899C126.05 36.1299 123 42.0899 117 44.1799L117.04 44.1899ZM73.4599 26.4499C79.8899 30.8399 84.9399 39.5299 88.3499 47.8999C89.5499 50.8999 90.4199 54.7299 91.6399 58.1899C92.9999 62.0799 94.8599 67.9099 98.8599 66.9999C97.9899 67.1499 97.6099 66.7899 96.8599 66.7799C92.0799 60.8999 91.5199 52.5499 88.3199 45.5499C84.8799 37.8599 79.9999 29.4599 73.4599 26.4499ZM79.8099 26.2199C88.7499 30.3599 89.4699 44.3699 93.1699 54.4699C94.2699 57.4699 96.0699 62.0999 98.6499 63.0099C102.29 64.2999 107.77 60.4499 109.81 63.8899C108.09 60.0499 103.32 63.2399 99.9599 62.5699C98.8529 62.1611 97.8709 61.4719 97.1099 60.5699C94.1099 56.7299 92.9999 49.5699 91.1999 43.4799C88.9399 35.8199 86.3499 28.5499 79.8099 26.2199ZM40.3999 33.6699C36.6899 35.4499 32.6799 35.3999 28.1399 36.5199C34.8499 36.1499 40.7499 34.9699 44.5599 31.6999C44.8699 31.5799 45.6899 31.9499 45.6599 31.4799C44.5499 31.1899 45.8299 31.0799 45.8799 31.0399C46.6273 30.2543 47.4293 29.5224 48.2799 28.8499C56.4045 22.6116 63.8851 15.5766 70.6099 7.84993C71.8599 6.41993 72.9999 4.93993 74.1199 3.44993L73.9499 3.54993L73.1999 3.09993C66.1432 12.0563 58.0915 20.1818 49.1999 27.3199C46.5399 29.4799 43.6099 32.1299 40.3999 33.6699ZM47.8399 30.3799C61.2099 29.0399 67.2499 19.1799 73.4599 9.37993C75.2599 6.52993 77.1099 3.60993 78.9999 0.699932H78.7699L77.2399 1.60993C75.9899 3.60993 74.7499 5.55993 73.4699 7.60993C66.7999 18.2499 60.6099 28.2399 47.8399 30.3799ZM55.9499 32.3799C65.6199 32.3799 69.5599 26.6299 73.6799 20.5499C76.6799 16.0899 79.2899 11.5499 81.7799 7.18993C82.6499 5.69993 83.4999 4.18993 84.3599 2.60993L83.3599 2.01993C81.8099 4.68993 80.2999 7.43993 78.7199 10.2599C73.3499 19.8299 68.5599 31.0699 55.9999 32.3599L55.9499 32.3799ZM48.7199 31.7199C49.0199 32.0999 47.0799 31.5099 46.3099 31.9399C52.0299 31.8699 53.6899 34.8799 56.1599 38.2899C61.9399 46.2899 66.2299 54.8399 70.1599 64.1299C72.3899 69.3799 74.0299 75.4599 78.6999 76.8199C77.162 76.0153 75.8802 74.7959 74.9999 73.2999C71.3099 67.1999 69.6699 58.9999 65.9999 52.0599C62.3299 45.1199 57.8899 39.6399 53.9999 34.0599C54.9999 34.9099 56.9999 34.6899 58.1699 35.3699C59.6551 34.8388 61.1945 34.4732 62.7599 34.2799C74.7599 27.2799 80.6499 14.1799 87.8499 2.39993L85.9999 3.54993C84.7599 5.54993 83.5199 7.54993 82.2699 9.59993C77.1299 17.8999 71.0499 29.9999 62.0799 33.6699C60.2474 34.3522 58.2791 34.5892 56.337 34.3614C54.395 34.1337 52.5348 33.4477 50.9099 32.3599C58.9099 31.8699 63.4899 26.4199 67.5499 21.4099C71.1799 16.9299 74.2499 12.2299 77.1899 7.82993C78.7099 5.54993 80.1899 3.22993 81.6199 0.969932L81.1699 0.699932H80.5699C76.0699 7.22993 71.9299 14.1299 67.1099 20.3099C62.8899 25.7299 57.8499 32.6999 48.7199 31.6999V31.7199ZM129.08 21.6499C126.77 25.5099 124.93 30.4599 119.89 31.0599C113.89 31.7799 109.3 26.4699 105.43 23.1799C100.65 19.1099 96.1299 14.3399 89.8799 15.0799C101.62 15.9399 106.14 29.5599 116.6 31.9399C123.18 33.4399 126.71 27.6499 128.43 23.6199C128.68 22.9999 129.77 20.8099 129.08 21.6299V21.6499ZM91.4199 70.8999C85.1699 67.4599 83.3599 58.7499 80.4199 50.9699C77.4799 43.1899 74.7999 34.4999 69.0899 31.2599C69.0899 30.6199 67.7799 31.3899 68.8599 31.2599C70.5116 32.2051 71.8899 33.5627 72.8599 35.1999C78.2899 44.3399 80.8599 63.1999 88.6299 69.7999C88.9861 70.1763 89.4206 70.4699 89.9027 70.66C90.3848 70.8501 90.9027 70.932 91.4199 70.8999ZM83.5299 73.7399C82.8242 73.4265 82.1893 72.9734 81.6634 72.408C81.1375 71.8425 80.7315 71.1765 80.4699 70.4499C77.8999 64.9099 77.4699 57.8999 75.6499 51.8499C73.3599 44.2299 69.2599 37.3799 63.3899 34.7699C73.0999 40.3899 74.6899 54.5499 78.2799 66.2999C79.1899 69.2599 80.0899 73.0999 83.5299 73.7399ZM51.5299 45.9299C53.0199 45.8699 56.9699 45.8099 57.8899 45.7099C59.4599 45.5499 57.3199 45.4199 54.8199 45.4999C32.1799 43.9199 15.0599 50.9999 5.99992 62.9999C15.5699 51.7499 31.8699 46.8299 51.5599 45.9299H51.5299ZM5.14992 26.2199C4.516 26.3283 3.8712 26.3585 3.22992 26.3099L3.55992 26.9099L3.32992 27.3099C12.8599 28.5399 16.9999 35.1499 21.9999 40.8999C19.7499 36.7199 16.3499 33.6999 13.2399 30.3799C15.0999 31.7299 17.2399 32.8399 18.9299 34.3299C14.2932 29.9278 8.77009 26.5662 2.72992 24.4699C1.98992 24.6999 2.37992 23.7899 2.28992 23.3799C1.89992 23.3199 1.90992 23.6499 1.86992 23.9299L2.75992 25.5099C3.57174 25.6922 4.37024 25.9294 5.14992 26.2199ZM74.7799 25.3499C81.9999 19.5799 87.1999 9.74993 92.6199 0.699932H90.9999C85.9999 9.62993 81.3999 19.6099 74.7799 25.3499ZM44.9999 54.2499C29.9999 54.8899 18.1599 56.6199 9.73992 63.4499C9.73992 64.3499 10.9899 62.8699 11.4899 62.5699C23.8199 55.3599 43.9999 54.9999 62.0799 54.2499C57.6299 53.7799 50.2199 53.9999 44.9999 54.2499ZM26.3799 52.9399C17.9999 55.5599 10.1799 59.2099 5.79992 64.9999C5.79992 65.2399 5.47992 65.3399 5.79992 65.4299C16.6099 53.9999 40.6599 48.4099 61.1999 49.6499C49.6499 46.8499 36.5299 49.7799 26.3799 52.9399ZM46.7499 60.1599C41.9536 60.7465 37.1197 60.9671 32.2899 60.8199C23.4168 60.9826 14.6317 62.6113 6.28992 65.6399C15.2116 63.2095 24.4133 61.9589 33.6599 61.9199C38.5499 61.8499 43.5299 61.9799 47.8899 61.0399C54.0399 59.7199 59.6499 56.7599 65.8899 57.7599C58.3799 55.9999 53.1299 59.1699 46.7499 60.1599ZM59.2299 35.6399C66.5499 41.1399 70.6099 52.7199 73.4599 62.7899C74.8599 67.7299 75.9799 73.9499 80.2499 74.7899C76.3299 72.7299 75.6499 67.1099 74.5599 62.5299C71.9999 51.6999 67.2799 40.8699 59.2299 35.6399ZM59.2299 35.6399C59.2299 34.9899 58.3199 35.8499 59.2299 35.6399ZM87.2299 72.4299C85.781 72.0106 84.5359 71.075 83.7299 69.7999C76.1199 59.9099 78.7099 37.0899 65.9999 33.4499C78.5199 38.9999 74.6899 62.1999 83.7599 70.8999C84.2025 71.3872 84.7431 71.7755 85.3463 72.0391C85.9495 72.3028 86.6017 72.436 87.2599 72.4299H87.2299ZM67.5499 7.16993C66.5089 5.46388 65.5835 3.68989 64.7799 1.85993L64.2799 2.15993C64.5599 2.73993 64.8299 3.33993 65.1399 3.88993C65.7899 5.05993 66.2999 6.57993 67.5499 7.16993ZM95.7999 68.9299C91.3499 68.2299 90.1699 62.1799 88.5799 58.1899C87.0299 54.3499 85.0199 50.7199 83.5799 47.4699C80.1399 39.8299 77.5799 32.2299 70.8899 29.2899C78.3999 33.9199 80.4399 44.0899 84.6799 52.7199C86.1799 55.7199 87.6799 59.1099 89.0599 62.1399C90.3299 64.9999 91.9999 69.1399 95.7999 68.9299ZM39.0799 68.2699C28.2499 67.4299 17.2899 62.3999 7.99992 68.0499C19.1399 62.9499 31.1999 69.5499 42.8199 69.5799C51.5399 69.5799 58.6199 65.1099 67.9999 65.1999C57.9999 64.4299 49.0799 68.9999 39.0799 68.2699ZM62.9999 116.66C67.8899 113.66 77.7999 113.22 83.8099 115.57C76.3699 115 70.4899 117.66 66.9399 121.69C74.3399 114.1 92.5699 115.24 95.1899 126.51C90.3599 122.36 80.6999 120.8 72.6399 123.01C81.9599 121.35 89.3199 123.25 94.6399 127.67L95.8499 126.95C95.4578 126.097 95.1237 125.218 94.8499 124.32C95.5963 124.917 96.1723 125.7 96.5199 126.59L96.8699 126.38C96.2897 124.775 95.4631 123.27 94.4199 121.92C87.6799 114 73.4699 109.24 62.9999 116.66ZM74.4699 125.9L74.9199 126.17C77.959 125.757 81.0507 125.978 83.9999 126.82L84.9999 126.2C81.5668 125.136 77.9078 125.032 74.4199 125.9H74.4699ZM127.16 119.07C126.85 115.07 125.49 111.73 124.31 108.34C126.1 113.34 126.58 120.94 125.61 127.73L126.75 128.41C126.98 127.41 127.21 126.31 127.38 125.2C127.727 126.512 127.968 127.849 128.1 129.2L128.61 128.9C128.001 127.351 127.516 125.756 127.16 124.13C126.82 122.42 127.24 120.65 127.11 119.07H127.16ZM167.29 127.31L167.95 126.92C165.232 125.769 162.431 124.826 159.57 124.1C162 125.1 164.71 126.09 167.24 127.31H167.29ZM49.2099 119.31C48.3669 117.81 47.7757 116.182 47.4599 114.49C47.9899 118.12 49.4599 121.43 50.2999 125C50.3799 125.33 50.4799 125.67 50.5699 126L51.5699 126.6C51.4299 126.14 51.2899 125.69 51.1599 125.22C51.4599 125.78 51.7699 126.33 52.0599 126.89L53.3999 127.69C50.9699 123.44 48.7999 118.87 48.7599 112.08C48.4499 114 48.9999 117.05 49.1599 119.29L49.2099 119.31ZM43.2099 128.75L43.9499 129.19L44.1099 129.1C42.6781 123.331 42.9244 117.273 44.8199 111.64C42.5474 117.036 41.9618 122.994 43.1399 128.73L43.2099 128.75ZM180.83 110.75C183.371 110.408 185.927 110.195 188.49 110.11C188.72 110.11 188.66 109.82 188.28 109.88C184.36 109.32 181.59 110.66 178.2 110.11C175.7 109.69 173.27 108.01 170.98 107.04C168.52 106.04 166.05 104.82 162.87 104.62C152.24 103.97 148.76 116.08 147.1 124.77L146.89 126.09L147.55 126.48C148.71 118.7 151.72 111.3 155.43 108.13C161.34 103.13 169.98 107.41 175.36 110.32C168.47 111.26 162.79 112.2 158.28 115.79C154.77 118.59 152.53 123.56 151.62 128.89L152.12 129.18L152.49 128.97C152.946 125.658 154.168 122.497 156.06 119.74C158.378 116.948 161.403 114.831 164.82 113.61C168.39 112.19 173.39 110.71 177.31 110.97C180.75 111.21 183.87 112.71 187.82 112.29C190.521 111.946 193.116 111.025 195.43 109.59L196.01 108.59C193.739 109.945 191.22 110.833 188.602 111.202C185.983 111.572 183.317 111.414 180.76 110.74L180.83 110.75ZM177.76 115.75C182.15 118.95 187.24 122.55 190.59 127.64L191.14 127.29C187.63 122.25 182.47 118.67 177.69 115.78L177.76 115.75ZM59.3999 2.04993L58.7499 1.65993C59.8847 5.30894 60.6388 9.06563 60.9999 12.8699C60.7773 9.22412 60.242 5.60416 59.3999 2.04993ZM170 117.53C178 118.73 184.62 121.36 186.68 128.32L187.68 128.93C185.75 121.59 179.3 117.91 170 117.53ZM182.92 115.53C186.866 118.223 190.42 121.451 193.48 125.12L193.92 124.4C190.777 120.89 187.09 117.908 183 115.57L182.92 115.53ZM36.6699 126.07V126.34L37.7399 125.71C37.7399 125.39 37.7399 125.08 37.7399 124.76C38.5799 113.68 45.9499 107.76 51.9799 101.33C44.7699 107.75 37.2799 114.44 36.6699 126.07ZM171.05 126.18L173.93 127.89C170.603 125.077 166.93 122.701 163 120.82C165.846 122.35 168.541 124.145 171.05 126.18ZM8.99992 0.699932H7.87992C6.46116 1.26051 5.07261 1.8947 3.71992 2.59993L3.06992 2.99993L1.80992 5.07993C4.36856 3.56911 7.04372 2.26497 9.80992 1.17993L8.99992 0.699932ZM139.93 129.12C140.218 127.926 140.617 126.761 141.12 125.64C140.493 126.678 139.99 127.785 139.62 128.94L139.93 129.12ZM42.9999 98.4899C30.3199 101.2 19.5299 107.72 12.3399 116.66C13.0399 104.08 18.6999 93.0399 30.7399 91.6599C35.6969 91.2208 40.6509 92.5336 44.7399 95.3699C42.2699 92.7599 37.2699 90.5999 32.4799 90.5599C25.4799 90.5599 21.1099 94.6899 17.1499 97.3499C18.1092 94.5232 19.8623 92.0326 22.1996 90.1759C24.5369 88.3192 27.3595 87.1749 30.3299 86.8799C46.5699 85.1499 51.8599 103.49 66.4599 105.05C75.2299 105.99 80.7499 102.05 87.6899 100.05C81.7999 101.05 76.6899 104.41 69.5199 104.43C52.8199 104.43 48.1299 84.0099 30.5199 85.8099C28.3417 86.0591 26.2505 86.8087 24.4099 87.9999C25.0399 86.7499 26.8799 85.9999 28.5799 85.3799C37.7299 82.1499 47.2599 86.9699 53.3199 91.7299C58.6099 95.8799 62.5199 100.87 70.1799 100.92C74.1199 100.92 77.1799 99.5499 80.9099 98.2999C75.0299 100.3 67.5299 101.3 61.9099 97.8599C57.9099 95.3699 54.9099 91.3599 50.7399 88.6599C46.0999 85.6599 40.7399 82.8099 33.2199 83.3999C33.1299 82.7999 35.7299 82.4799 36.5099 82.5299C38.8399 82.6799 41.4199 84.0099 43.9599 84.5299C46.7699 85.0899 49.8299 84.9299 52.4899 85.4099C60.9599 86.9199 65.3999 98.9399 75.6999 94.8199C84.0099 95.6099 90.8699 102.44 99.7899 98.5499C88.9999 100.98 81.5399 92.0499 71.7899 94.5999C72.2999 95.3799 74.7899 94.1999 74.6399 95.0399C67.9399 96.5499 64.3699 91.5499 60.3999 88.9099C67.7499 90.5999 73.1099 86.4899 78.7999 84.3099C83.6399 82.4599 88.9499 81.9099 90.7999 77.5299C86.6399 82.8199 76.0999 83.8899 65.6199 82.9999C68.6199 80.9999 72.2399 79.6899 74.6199 77.0799C71.3599 79.1499 66.8599 82.4299 60.8199 82.9999C58.2799 83.2399 56.3499 84.7899 52.9399 84.3099C51.2499 84.0699 49.7799 82.7599 47.9399 82.7699C57.5599 81.3599 63.4899 74.2199 74.6599 75.7699C64.4199 72.8199 56.9999 80.8299 46.0899 81.6199C36.6299 82.3099 30.3999 79.1499 23.0899 76.6199C17.8499 74.7799 12.0899 72.4599 6.65992 72.0199C4.98056 71.9103 3.29432 72.0587 1.65992 72.4599C3.82992 72.5599 7.71992 72.2199 9.75992 73.1099C7.36992 73.4199 4.75992 73.4999 2.53992 73.9899C11.3899 72.7199 19.3699 75.9899 25.0899 78.5799C25.1899 79.5799 24.0899 80.1299 23.3399 80.7799C17.5734 85.8392 10.5448 89.2429 2.99992 90.6299L2.31992 91.8299C12.5599 90.3499 20.3199 84.1399 25.9099 78.7699C28.3499 79.9199 31.4799 80.3499 33.5699 81.8499C28.8399 82.5199 25.4499 84.5299 22.1899 86.6599C23.2082 85.4763 24.1565 84.2342 25.0299 82.9399C18.942 90.5636 10.1486 95.5459 0.479922 96.8499L1.06992 97.8499C7.47215 96.8104 13.5278 94.2372 18.7199 90.3499C16.3899 92.6899 15.0799 96.0599 13.4699 99.1099C10.2627 100.49 6.9073 101.497 3.46992 102.11L3.55992 102.27L3.01992 103.27C6.55635 102.624 9.99472 101.525 13.2499 99.9999C11.4217 105.079 10.3273 110.392 9.99992 115.78C9.83992 119.42 10.2999 122.61 8.68992 124.54C7.92992 117.3 5.28992 112 0.999922 108.34C6.20992 112.69 7.91992 120.6 7.86992 129.15L9.16992 128.38C9.42246 126.843 9.83814 125.338 10.4099 123.89C10.275 125.165 10.2283 126.448 10.2699 127.73L10.9299 127.34C10.8499 116.95 18.3599 111.24 25.0799 106.34C30.3599 102.53 37.0699 100.62 42.9999 98.4899ZM76.3099 84.2499C71.3099 87.2499 59.9099 91.1599 55.3099 85.1299C61.9999 83.4099 68.2399 83.8999 76.3099 84.2499ZM42.9999 82.7099C43.6399 82.7599 46.8699 83.4199 48.4699 83.8099C47.1799 84.0999 44.7099 83.5399 42.7799 83.1599C42.4099 83.0699 41.7399 82.6499 42.9999 82.7099ZM18.2499 96.7099C18.6499 97.5699 16.0799 99.1899 15.8499 100.87C15.3899 99.0999 17.1499 97.6399 18.2799 96.7299L18.2499 96.7099ZM10.5899 120.14C9.82992 111.72 12.5899 104.87 14.9699 98.8999C15.3399 98.8199 15.3899 99.0699 15.4099 99.3399C12.3599 104.82 13.4599 114.47 10.6199 120.16L10.5899 120.14ZM26.3799 33.8899C23.2799 31.7599 22.4299 26.9499 22.2299 22.4999C22.1002 15.8934 23.0355 9.30903 24.9999 2.99993L24.2199 2.53993C22.2355 8.09695 21.2043 13.9493 21.1699 19.8499C21.1299 25.3799 22.3199 32.1099 26.3799 33.8899ZM48.7199 25.9999C38.1899 23.1999 35.0999 12.9999 33.7199 0.999932L33.0799 0.699932H32.6099C33.3799 9.10993 35.3599 16.6999 39.5299 21.4099C41.7199 23.8899 44.7399 26.2699 48.7199 25.9999ZM161.05 99.5799C169.05 98.7499 175.05 102.9 180.05 105.49C174.95 102.14 169.23 97.7799 161.22 98.4899C153.02 99.1999 149.43 105.23 146.77 111.84C149.34 103.31 152.77 93.2899 160.35 89.9399C169.24 86.0399 172.29 96.8299 176.55 101.77C178.834 104.331 181.789 106.203 185.082 107.173C188.374 108.143 191.872 108.173 195.18 107.26L194.6 106.26C190.628 107.284 186.426 106.931 182.68 105.26C175.34 101.65 173.41 90.5699 166.26 88.3999C164.849 87.92 163.332 87.8438 161.88 88.1799C150.46 90.7899 144.36 111.18 143.7 124.31C143.7 125.22 143.7 126.11 143.7 126.99L144.52 126.5C145.38 114.24 150.3 100.68 161.05 99.5799ZM46.1599 100.7L47.4099 100.45C46.9785 100.421 46.5471 100.507 46.1599 100.7ZM43.6799 101.77C34.7799 106.58 26.6799 112 27.6799 125.85C27.6799 126.15 27.7699 126.47 27.7999 126.77L28.7999 127.39C28.5615 125.735 28.4678 124.062 28.5199 122.39C28.9999 111.52 36.2999 106.42 43.6799 101.77ZM44.1799 101.42C44.1057 101.49 44.0113 101.536 43.9099 101.55C44.5699 101.76 45.2699 101.08 46.1599 100.7C33.0599 103.28 18.7299 107.35 19.8099 123.7C19.95 125.389 20.2377 127.062 20.6699 128.7L21.6699 128.12C21.0847 126.025 20.7688 123.864 20.7299 121.69C20.5599 108.6 33.7599 103.86 44.1799 101.42ZM112.59 127.17C113.248 118.911 114.515 110.712 116.38 102.64C113.75 109.41 112.26 117.64 111.54 126.54L112.59 127.17ZM167.4 85.1699C178.85 85.6999 180.57 104.38 194.34 98.7399H194.45L195.45 96.9599C193.992 97.7177 192.433 98.2632 190.82 98.5799C189.277 98.8162 187.7 98.665 186.23 98.1399C179.61 95.6699 177.01 85.9799 169.36 84.7799C165 83.9999 160.44 85.9999 157.55 86.8799C160.17 86.4699 164.08 84.9999 167.4 85.1299V85.1699ZM193.23 3.56993C192.42 2.96993 191.6 2.36993 190.84 1.70993L189.25 0.709932H188.77C190.462 2.39606 192.302 3.92563 194.27 5.27993L193.23 3.56993ZM117.3 128.41L118.62 127.64C118.86 119.37 118.22 110.79 120.54 103.96C117.53 110.44 117.65 119.63 117.3 128.41ZM120.39 126.58L121.39 125.97C121.213 119.494 121.503 113.014 122.26 106.58C120.45 112 120.08 119.39 120.39 126.58ZM131.76 126.98L132.31 126.64C131.776 125.04 130.899 123.576 129.74 122.35C130.623 123.8 131.302 125.365 131.76 127V126.98ZM105.19 0.699932H103C105.35 1.37993 107.47 2.51993 109.66 3.36993L105.19 0.699932ZM140 115.12C140.655 115.111 141.302 114.972 141.903 114.712C142.503 114.451 143.046 114.073 143.5 113.6C135.68 116.14 133.21 108.08 129.7 104.18C133.86 104.61 134.91 110.36 141.08 109.18C142.539 108.909 143.858 108.138 144.81 107C141.17 109.53 134.61 107.68 133.42 104.81C143.89 105.92 148.17 98.9699 151.42 92.0999C147.61 98.3199 143.58 105.41 132.58 103.71C131.79 103.48 131.69 102.56 131.05 102.18C130.97 102.7 131.45 102.65 131.27 103.27C129.412 102.845 127.776 101.752 126.67 100.2C126.67 100.74 128.1 101.64 127.11 101.74C126.8 101.32 126.28 101.11 126.23 100.42C125.5 100.51 126.82 101.28 125.8 101.08C115.11 95.6399 108.37 86.2499 95.3699 83.0799C104.84 81.5099 112 87.4599 118.79 91.6199C124.69 95.2399 130.97 99.4999 138.5 99.4999C146.36 99.4999 149.66 94.4999 152.5 88.9899C149.55 93.6299 146.06 98.4999 139.14 98.6199C125.14 98.8699 113.91 83.3999 101.26 81.9799C97.2599 81.5299 94.3499 82.9799 90.7499 82.6299C95.4899 80.2799 100.75 77.6299 106.08 78.6899C118 80.9999 125.31 93.8699 137.62 94.9999C145.7 95.7299 149.48 90.4799 152.95 85.7999C158.24 82.6599 163.43 78.4099 171.56 78.3499C175.75 78.3499 180.73 79.2399 185.36 79.4499C186.36 79.4499 187.46 79.2999 188.42 79.4499C190.91 79.8599 192.42 81.0199 194.85 81.4499L194.36 80.5799C192.855 80.4268 191.384 80.0387 190 79.4299C191.126 79.2673 192.239 79.0234 193.33 78.6999L192.86 77.8799C190.342 78.428 187.765 78.6531 185.19 78.5499C179.87 78.3899 174.65 77.1599 169.64 77.4699C163.08 77.8599 158.83 80.6799 154.1 84.0399C156.41 78.5299 159.95 73.3899 166.36 71.9899C173.93 70.3399 183.22 73.7299 191.75 73.0799C192.866 72.9933 193.973 72.8161 195.06 72.5499L195.75 71.3199C194.163 71.7894 192.53 72.0878 190.88 72.2099C184.19 72.6599 177.09 70.0799 169.2 70.6799C166.991 70.7941 164.832 71.3808 162.869 72.4003C160.906 73.4198 159.184 74.8485 157.82 76.5899C159.25 74.8899 160.89 70.4999 163.35 67.8599C157 73.4999 154 83.8699 142.44 83.9999C136.93 84.0699 132.32 82.5199 127.58 80.9399C128.092 81.4489 128.671 81.8862 129.3 82.2399C132.08 83.4199 135.24 83.5799 138.94 84.4299C137.64 85.6499 136.03 86.1899 133.46 85.9599C125.55 85.2699 120.46 76.2299 113.75 72.8199C107.04 69.4099 100.87 72.9499 96.6799 76.5499C93.9799 78.8499 92.2999 81.6399 87.9199 82.8999C87.6499 83.1199 88.3899 83.2799 87.6899 83.7699C84.9699 84.2899 83.0899 87.4999 80.2499 88.1499C78.1099 88.6499 75.8899 87.7299 73.6799 88.8099C75.0499 89.1399 77.0799 88.2699 79.1499 88.5899C76.992 90.1931 74.64 91.517 72.1499 92.5299C75.0599 92.5899 77.3299 89.1299 80.0399 88.8099C83.2099 88.4399 88.0399 91.6499 91.1999 93.4099C96.7399 96.5299 101.94 99.9999 110 98.6999C98.0699 98.6999 91.9999 90.9899 82.1899 88.1899C98.1899 86.2599 101.74 98.5199 115.7 99.3599C116 100.1 113.95 101.36 113.28 102.21C108.92 107.9 108.41 116.89 108.52 126.48L109.52 125.89C109.32 114.97 109.85 104.68 116.35 99.3599C117.24 99.2999 117.88 98.9799 118.76 98.9199C104.18 99.7299 98.9099 84.2999 82.1899 87.9199C82.9713 86.8511 84.0341 86.0203 85.2599 85.5199C85.3399 85.5199 86.0599 85.6499 85.9199 85.7299C87.6499 84.8299 88.7599 82.4699 92.0499 82.8899C90.1399 84.1899 87.4699 84.7299 85.6899 86.1699C88.1199 85.6499 90.6299 83.3699 93.7999 83.3199C98.6499 83.2699 104 87.0999 107.8 89.8899C111.17 92.3499 114.74 94.8899 118.09 97.5599C120.872 99.5303 123.801 101.285 126.85 102.81C130.28 110.03 132.56 118.42 142.85 118.81C134.13 117.15 131.29 109.64 127.52 103.04C131.5 106.25 133.48 115.12 140 115.12ZM152 86.8799C148.23 91.1699 143.28 95.5499 136.46 93.8799C130.85 92.5199 126.25 88.9299 121.35 85.5699C115.24 81.3599 109.75 77.1399 100.55 78.1199C117 70.9999 122.92 89.2899 137 90.5999C143.19 91.1699 147.21 88.8099 152.1 86.4399C152.39 86.5399 152.05 86.6299 152.07 86.8799H152ZM105.8 72.4299C117.42 71.0599 122.67 86.5399 133.61 86.6599C135.609 86.6423 137.541 85.936 139.08 84.6599C147.08 85.6599 152.71 82.9099 155.94 78.5199C155.45 80.0699 153.86 82.4299 153.1 84.4399C148.83 86.5099 145.8 88.9199 140.83 89.4399C127.29 90.9499 121.91 77.3099 110.83 75.6399C104.62 74.7099 98.7699 77.6399 93.5299 80.0199C98.1599 76.8199 100.62 73.0499 105.87 72.4299H105.8ZM118.35 3.88993C119.173 3.60627 119.961 3.23056 120.7 2.76993L119.7 2.16993C118.739 2.69022 117.698 3.04836 116.62 3.22993C114.825 3.49924 112.991 3.3556 111.26 2.80993L110.07 3.51993C112.695 4.63593 115.635 4.7673 118.35 3.88993ZM165.69 66.1499C164.778 66.5561 163.963 67.1528 163.3 67.8999C164.038 67.229 164.838 66.6296 165.69 66.1099V66.1499ZM146.16 54.2499C142.58 56.0199 139.33 59.4399 134.16 58.4099C130 57.5999 128.64 53.0899 126.93 49.4099C127.65 52.9799 128.5 55.8399 130.65 57.7299C135.43 61.9999 142.91 58.1799 146.16 54.2499ZM135.47 126.48C135.65 125.969 135.857 125.469 136.09 124.98C135.763 125.406 135.488 125.869 135.27 126.36L135.47 126.48ZM166.31 65.6399C166.31 65.8299 166.22 65.8499 166.08 65.8599L165.69 66.1099C165.96 65.9965 166.242 65.9127 166.53 65.8599C169.26 65.3299 174.48 67.5999 177.47 68.6999C181.15 70.0699 184.7 71.3299 188.42 71.3299C190.844 71.351 193.252 70.9378 195.53 70.1099L195.16 69.4499C194.32 69.6682 193.457 69.7857 192.59 69.7999C176 69.9999 175.38 43.1399 155.36 48.3399C158.82 45.5299 164.63 42.7299 170.03 45.4999C178.38 49.7699 184.26 63.8499 193.44 66.4199L192.85 65.4199C188.42 63.4999 184.58 58.8199 181.42 55.1599C176.6 49.5799 170.55 40.3199 160.42 44.1599C153.68 46.7399 149.3 53.2399 141.37 53.1599C136.16 53.0999 133.71 50.4199 131.29 46.8099C143.49 51.7299 155.95 40.0299 167.86 40.2399C181.2 40.4799 183.37 58.3599 193.86 62.0799L194.26 61.3899C184.26 58.1799 182.75 40.7799 170.07 39.3899C162.53 38.5499 156.68 41.9899 151.24 43.9899C146.76 45.6499 138.24 49.2799 132.41 47.0599C131.68 46.7799 130.06 46.0599 130 45.5299C129.92 44.8399 132.53 43.2899 133.06 42.8999C136.06 40.7099 140.48 37.6599 144.06 36.7699C147.06 35.9999 150.47 35.6699 153.69 34.7699C158.25 33.5199 163.34 31.5599 168.8 33.0099C179.47 35.8699 184.53 45.4799 192.62 51.7599L192.95 51.1899C184.23 43.8599 178.15 32.5999 166.16 31.4799C158.66 30.7799 153.75 34.7699 147.77 34.5499C147 34.6099 148.7 34.9799 147.77 35.1999C135.67 38.7999 130.77 29.6599 131.57 18.9999C133.72 25.8299 136.64 31.8899 143.18 34.3299C134.08 30.7999 130.18 15.2499 132.05 2.32993L131.05 1.71993C131.075 2.74669 130.964 3.77222 130.72 4.76993C129.72 8.01993 124.28 11.1399 120.22 11.1199C110.38 11.0499 103.48 1.02993 93.7199 4.11993C94.1299 3.35993 94.5399 2.53993 94.9399 1.68993L93.6099 0.999932C92.2099 3.56993 90.8799 6.28993 89.4499 8.99993C85.7699 15.8999 81.7599 22.2199 77.4499 26.5199C81.5299 23.5199 84.5799 18.9499 87.5199 14.2499C89.3299 11.3399 92.2699 5.67993 97.3699 7.02993C105.23 9.09993 112.72 24.0299 122.77 21.2599C126.39 20.2599 128.1 16.7099 129.34 12.4999C127.22 16.4999 125.13 21.6299 119.27 20.3799C115.27 19.5399 111.69 16.3799 108.1 13.3799C103.23 9.25993 96.8499 2.89993 90.9999 8.92993C91.0999 7.55993 92.4299 5.53993 93.4099 4.32993C104.71 2.18993 110.18 13.3299 121.66 11.9899C125.82 11.4999 128.22 8.98993 130.2 5.85993C131.75 18.5899 127.68 36.9999 142 36.9999C137.52 38.9999 133.05 40.9999 129.74 44.2199C129.46 44.5199 128.67 44.5599 128.65 43.9999C128.37 44.2199 129.23 44.8799 128.43 45.3199C123.65 49.7399 119.64 54.9299 119.67 64.1499C118.67 59.8599 120.25 54.9999 121.42 51.0099C122.558 47.1555 124.024 43.4052 125.8 39.7999C124.41 41.1099 123.21 44.5099 122.3 47.0299C118.9 49.0899 115.3 54.1099 110.3 52.4999C105.93 51.1199 103.61 44.1899 101.3 40.0199C98.7699 35.4099 96.2099 31.6699 92.7399 29.3999C98.6299 33.6099 101.23 45.9599 106.74 51.3999C111.45 56.0299 118.92 51.4999 121.63 48.1099C118.63 56.9099 114.43 75.3199 124.04 79.8599C124.95 80.2899 126.04 80.1399 126.88 80.5199C127.123 80.6358 127.351 80.7802 127.56 80.9499C144.92 80.4399 147.86 64.3399 166.31 65.6399ZM123.83 52.7199C124.2 49.7199 127.83 48.0599 129.52 45.7199C133.23 49.9099 136.25 54.6699 144.19 53.6099C145.478 53.4314 146.732 53.0606 147.91 52.5099C148.34 53.2699 147.16 53.6899 146.82 54.0399C142.93 58.0999 133.92 70.9799 127.11 62.1499C125.64 60.2299 123.49 55.4499 123.83 52.7199ZM132.37 79.4299C122.65 81.8099 118.5 74.2099 119 64.9999C120.24 66.4499 120 68.4299 120.53 69.9999C121.72 73.6899 124.53 75.9199 126.88 78.3099C125.17 75.7199 121.56 73.1299 120.97 68.6799C121.97 68.5299 123.23 70.3899 124.69 71.0899C126.597 72.0008 128.715 72.3808 130.82 72.1899C141.82 71.2899 147.29 59.5899 157.76 56.8699C166.43 54.5999 174.47 61.1699 180.76 66.0599C175.51 61.2499 167.2 53.6399 158 55.7899C147.31 58.2799 141.42 70.1999 131.06 71.3299C125.95 71.8799 122.89 69.4999 120.55 66.5099C120.163 61.8763 121.154 57.2316 123.4 53.1599C124.58 58.9699 127.5 68.4499 135.88 65.1599C145 61.6299 147.73 47.1599 161.94 48.7399C162.454 48.7795 162.965 48.853 163.47 48.9599C175.72 52.3799 176.58 69.0899 191.71 70.4099C178.44 72.4099 174.32 63.2899 161.28 64.4999C148.6 65.7199 142.88 76.8599 132.37 79.4299ZM125.37 106.37C127.74 113.6 132.37 126.07 142.01 122.37C132.53 124.42 128.74 111.75 125.36 106.37H125.37ZM162.59 66.7299C155.28 73.4299 147.98 80.1499 135.66 81.8499C148.6 81.7899 156.92 74.0699 162.58 66.7299H162.59ZM163.91 25.5699C158.48 20.4799 147.91 12.4699 149.69 1.39993L148.13 2.31993C147.16 13.1099 158 21.6299 163.9 25.5699H163.91ZM172.23 29.0699C163.35 26.5599 151.33 24.3999 146.39 15.9299C144.155 11.8529 143.445 7.11263 144.39 2.55993L143.59 2.08993C142.29 8.43993 143.95 15.8899 148.15 20.0899C154.34 26.2999 163.33 27.3199 172.22 29.0699H172.23ZM153 13.0899C162.08 14.4499 164.53 22.4299 170.51 26.8799C165.78 21.2799 162.55 13.0499 153 13.0899ZM146.87 34.5499C147.24 33.8799 146.34 34.1799 146.21 34.1099C145.77 33.8599 145.37 33.5099 144.9 33.2299C137.13 28.6099 132.71 14.9399 134.12 3.51993L133 2.99993C131.24 15.9399 136.76 31.9999 146.82 34.5499H146.87ZM188.26 16.5499C187.85 15.1299 187.03 12.9699 187.38 11.5499C188.27 13.7499 190.32 14.5499 192.78 14.9099L192.55 14.5099C191.6 14.3761 190.672 14.1172 189.79 13.7399C186.7 12.3499 185.67 6.73993 184.43 2.21993L183.87 2.54993C185.22 6.72993 186.46 10.9299 187.6 15.0499C187.65 15.4599 187.35 16.5899 188.21 16.5899L188.26 16.5499ZM170.69 81.4099C178.69 82.8199 182.56 89.4099 190.17 90.8199C191.138 91.0059 192.128 91.0564 193.11 90.9699L192.52 89.9699H192.36C184 89.9299 178.78 81.1899 170.69 81.4099ZM5.14992 61.2599C13.2899 50.7499 26.9999 38.6599 44.9999 38.7099C49.9111 38.9065 54.7071 40.2563 58.9999 42.6499C54.5249 39.4691 49.16 37.7823 43.6699 37.8299C25.1699 37.8299 12.6199 50.3499 5.14992 61.2599ZM166.53 20.0899C166.72 21.0899 167.06 19.7799 167.18 20.3099C171.05 27.2499 180.06 29.0999 186.24 34.1099C188.794 36.3156 191.19 38.6982 193.41 41.2399L192.41 39.4599L192.61 39.0999C189.44 35.6899 186.12 32.3099 181.86 29.9499C177.86 27.7299 173.75 25.9999 170.7 22.9499C166.14 18.3799 163.7 10.4799 162.81 1.94993C162.81 1.58993 162.74 1.21993 162.7 0.849932L161.94 1.29993C162 1.95993 162.06 2.62993 162.16 3.29993C161.705 2.88463 161.275 2.44393 160.87 1.97993L160.16 2.38993C160.757 2.93507 161.431 3.38988 162.16 3.73993C162.62 7.20993 162.78 10.9999 164.16 13.5999C160.92 10.1199 158.1 4.32993 150.8 4.17993C159.21 6.23993 162.38 13.6499 166.53 20.0899ZM156.67 29.9999C164.67 30.8499 171.98 30.3999 177.91 33.9399C184.46 37.8399 189.37 43.4499 194.65 48.0899L194.95 47.5799C187.95 40.9999 181.95 32.9499 172.22 30.2199C167 28.6899 161 29.2399 156 28.6299C145.25 27.3399 134.56 23.5199 136.3 10.6799C136.757 7.22189 137.728 3.85144 139.18 0.679932H138.82L138.26 1.00993C136.69 4.32147 135.728 7.88815 135.42 11.5399C134.46 25.1699 145.36 28.7299 156.67 29.9999ZM175.07 13.1399C178.31 15.3999 182.38 16.7799 186.07 19.9199C190.23 23.5199 192.62 28.9199 196 33.2599L192.44 26.9899L192.68 26.5499C191.59 24.7973 190.401 23.1079 189.12 21.4899C183.93 15.1399 174.43 14.1299 170.29 6.15993C169.763 5.11558 169.309 4.03639 168.93 2.92993L167.77 2.23993C167.77 2.36993 167.84 2.51993 167.88 2.64993C169.24 7.48993 171.34 10.4799 175.07 13.0899V13.1399ZM194.79 85.5599C185.07 84.8799 173.36 76.0099 164.99 81.4599C175.41 77.2599 184.55 85.8999 194.22 86.5599L194.79 85.5599ZM191.27 19.7099C192.797 19.6013 194.329 19.8124 195.77 20.3299L195.44 19.7599C194.436 19.4782 193.402 19.3137 192.36 19.2699C192.46 19.8199 191.17 18.9999 191.27 19.6599V19.7099ZM175.71 0.699932H174.91C176.169 4.5577 177.845 8.26637 179.91 11.7599C178.4 8.45993 177.06 4.64993 175.71 0.699932ZM10.3999 68.9299C15.0499 69.3299 20.0099 71.5699 24.6299 73.2999C29.2499 75.0299 34.1199 76.9599 39.5299 77.2399C46.1699 77.5899 51.0199 75.2399 56.3799 74.1699C60.9999 73.2399 65.7099 72.6499 71.2799 71.5499C58.2099 71.2799 49.8999 76.8799 37.5499 75.9299C27.9999 75.1899 19.9999 69.1199 10.8399 68.4799C6.91992 68.2099 3.67992 69.3499 2.51992 71.1099C3.61651 70.2305 4.88075 69.5837 6.23554 69.2089C7.59032 68.8341 9.00726 68.7392 10.3999 68.9299ZM3.16992 63.6699C3.08992 63.6099 3.00992 63.5199 2.91992 63.4599L2.98992 63.5699C3.04774 63.607 3.10786 63.6404 3.16992 63.6699ZM56.8299 15.6699C51.7599 12.5299 48.7599 7.21993 46.3699 1.41993L45.0999 0.699932C45.5799 1.76993 46.0399 2.86993 46.5599 3.88993C48.9999 8.80993 52.0999 14.5099 56.8299 15.7099V15.6699ZM10.1799 53.1599C10.4199 53.2499 10.7099 53.4199 10.3999 53.1599C6.15992 47.4599 5.01992 37.5199 5.14992 28.1599C3.34992 37.6599 5.04992 48.5099 10.1799 53.1599ZM55.9999 17.9099C50.7399 13.5299 47.4199 7.39993 44.4099 0.699932H43.4099C46.9999 8.19993 50.6599 14.4299 55.9999 17.9099ZM53.5699 1.37993L52.8099 1.83993C54.3471 6.55491 56.5856 11.0115 59.4499 15.0599C56.9405 10.7562 54.9659 6.16223 53.5699 1.37993ZM18.9399 42.4299C16.8499 40.0699 15.6299 36.8399 14.1199 33.8899C14.3699 38.0899 15.7899 41.1399 18.9399 42.4299ZM47.4099 16.9999C48.3243 17.81 49.4056 18.4091 50.5773 18.7548C51.7489 19.1004 52.9823 19.1841 54.1899 18.9999C52.0327 18.9399 49.9554 18.1701 48.2799 16.8099C44.4399 13.5999 41.8899 8.29993 39.8999 2.35993L38.8999 2.92993C40.9999 8.86993 43.6199 13.9999 47.4099 16.9999ZM0.679922 31.9999C0.619922 32.6899 0.589922 33.4199 0.539922 34.1399L1.43992 35.7199C1.48992 33.8799 1.55992 32.0599 1.66992 30.2499L0.679922 31.9999ZM2.34992 49.8899C1.91155 47.6423 1.63087 45.3667 1.50992 43.0799L0.569922 44.7299C0.649922 45.6099 0.759922 46.4599 0.889922 47.2999L2.34992 49.8899ZM5.79992 58.1899C4.5881 56.5796 3.67683 54.7639 3.10992 52.8299L2.60992 53.6899C3.30247 55.4211 4.39572 56.9633 5.79992 58.1899ZM14.9999 46.5999C11.3099 42.5399 10.3199 35.7899 9.07992 29.2899C8.65992 37.2999 10.6599 44.0699 14.9999 46.5999ZM97.7699 104C103.77 104.41 111.46 105.78 113.1 100.71C110.1 105.85 102.72 103.28 96.6799 102.9C83.2299 102.07 67.7699 108.69 57.9199 104.65C58.3999 105.42 60.6899 105.52 60.5399 106.19C60.0399 106.13 59.7199 106.19 59.6699 106.62C76.0799 105.92 95.0199 115.35 108.72 107.07C98.3199 111.81 82.4299 108.28 71.4999 106.41C79.3899 105.86 88.7799 103.35 97.7699 104ZM59.8599 126.85L60.7499 126.33C56.8899 119.82 53.1199 113.22 50.4699 105.49C52.5599 113.65 56.0999 120.36 59.8599 126.85ZM34.9299 31.4799C29.9299 26.0399 27.6199 16.7299 28.3599 6.29993C28.9499 17.0899 32.6699 25.9199 40.3599 28.8499C32.2299 24.8499 28.9799 12.8499 29.4699 1.39993L27.4699 2.56993C26.2999 13.9199 28.1699 27.0799 34.9299 31.4799ZM72.3199 126.59L72.6399 126.41C72.2499 126.52 71.8799 126.59 71.4999 126.73C71.7799 126.67 71.9999 126.65 72.3199 126.59ZM98.6499 116.66C86.2499 115.34 70.6499 100.66 60.7599 112.28C60.3599 113.01 60.8199 112.47 61.1999 112.28C73.6299 100.58 89.8099 121.54 104.12 116.22C102.336 116.682 100.485 116.831 98.6499 116.66ZM17.1899 109.66C20.3699 99.6599 30.1899 96.2599 43.0299 95.8699C29.8599 94.0799 18.8999 99.2499 17.1899 109.65V109.66ZM68.7199 128.74L69.6199 128.2C64.2599 119.32 56.3099 113.03 54.6199 100.46C55.1899 113.15 63.2399 119.91 68.7199 128.73V128.74ZM1.85992 9.99993C10.4899 9.53993 13.8599 18.2599 16.7499 24.8899C13.1099 19.7499 10.1399 12.9999 2.49992 12.4699L3.18992 13.6899C8.87992 14.5799 13.0499 20.0499 15.4399 24.0399C18.4399 29.0999 20.1499 34.4099 22.6599 39.3599C22.4099 38.1599 21.7999 37.3599 21.5699 36.0799C22.6399 37.0799 23.8999 38.9899 25.2899 38.9299C14.8999 31.2899 18.7199 9.42993 1.19992 8.92993C5.99992 6.04993 14.4699 5.89993 21.1299 5.63993C17.8041 5.08162 14.4297 4.86716 11.0599 4.99993C6.76992 5.34993 3.61992 7.41993 0.509922 8.99993L1.15992 10.1399C1.39992 10.0899 1.61992 9.99993 1.85992 9.99993ZM20.9099 23.7999C19.8172 22.6122 18.3476 21.8385 16.7499 21.6099C17.4299 23.0599 18.7299 23.8799 20.9099 23.8199V23.7999ZM10.6199 11.7999C14.9899 11.8899 17.5399 13.7999 20.6899 15.0899C18.9299 12.6399 14.3999 9.99993 10.6199 11.7699V11.7999ZM105.43 128.36L106.73 127.59C107.012 124.693 107.012 121.776 106.73 118.88C106.45 122.15 106 125.28 105.43 128.33V128.36ZM22.2299 77.8999C15.7299 82.3999 8.08992 83.0899 1.13992 81.4299L0.579922 82.4299C5.23112 83.266 10.0087 83.0783 14.5799 81.8799C10.0481 83.5353 5.2425 84.3124 0.419922 84.1699L1.00992 85.1699C9.42992 85.1699 17.8999 82.6199 22.2299 77.8999Z" fill="#C00D0D"/>
<path fill-rule="evenodd" clip-rule="evenodd" d="M34.5299 87.1701L21.8099 100.74L16.9399 96.5501L42.1799 70.6101H51.4799L51.3999 70.6701H51.4599V98.6701H45.2899V92.3701L34.5299 87.1701ZM161.43 87.1701L174.15 100.73L179 96.5501L153.78 70.6101H144.49L144.56 70.6701H144.5V98.6701H150.71V92.3701L161.5 87.2201L161.43 87.1701ZM150.56 75.5701L157 82.4001L150.65 85.1401V75.5801L150.56 75.5701ZM115.15 70.5701H140.15V82.8401L134.15 86.0301L142.61 96.5201L137.75 100.71L128.38 89.0901L121.44 92.3001V98.5401H115.2V87.6001L133.11 79.8801V77.0001H115.15V70.6001V70.5701ZM80.5599 70.6201V81.5801V82.8401L74.5599 86.0401L82.9999 96.5201L78.1399 100.71L68.7799 89.0901L61.7799 92.3001V98.5401H55.6499V70.7101H61.8199V84.8801L74.3899 79.3401V70.6501L80.5599 70.6201ZM84.1699 70.6201L90.6299 75.1401V88.7601L93.9999 92.6901H105.22V75.0001L111.67 70.6901V98.6901H90.1799L84.1799 91.4701V70.6901L84.1699 70.6201ZM45.4099 75.5801L38.9999 82.4001L45.3499 85.1401L45.4099 75.5801Z" fill="white"/>
<path d="M168.15 70.6C168.806 70.6216 169.441 70.8359 169.976 71.2163C170.511 71.5966 170.922 72.1261 171.157 72.7385C171.393 73.351 171.443 74.0193 171.301 74.6601C171.159 75.3008 170.832 75.8855 170.36 76.3413C169.888 76.7971 169.292 77.1036 168.646 77.2227C168.001 77.3418 167.335 77.2681 166.731 77.0109C166.127 76.7536 165.613 76.3242 165.252 75.7763C164.89 75.2284 164.699 74.5862 164.7 73.93C164.701 73.4828 164.792 73.0404 164.967 72.629C165.143 72.2176 165.399 71.8455 165.721 71.535C166.042 71.2244 166.423 70.9816 166.841 70.821C167.258 70.6604 167.703 70.5852 168.15 70.6ZM168.15 71.27C167.474 71.3115 166.84 71.6093 166.376 72.1026C165.912 72.596 165.653 73.2477 165.653 73.925C165.653 74.6022 165.912 75.254 166.376 75.7473C166.84 76.2407 167.474 76.5385 168.15 76.58C168.493 76.5803 168.832 76.5112 169.147 76.3766C169.462 76.242 169.746 76.0448 169.983 75.797C170.22 75.5492 170.403 75.256 170.523 74.935C170.643 74.6141 170.696 74.2722 170.68 73.93C170.694 73.5863 170.638 73.2434 170.516 72.9219C170.394 72.6003 170.208 72.3066 169.97 72.0584C169.732 71.8101 169.447 71.6123 169.13 71.4769C168.814 71.3414 168.474 71.271 168.13 71.27H168.15ZM167.65 75.66H166.87V72.34C167.292 72.2621 167.721 72.2253 168.15 72.23C168.548 72.1904 168.949 72.2816 169.29 72.49C169.396 72.5748 169.481 72.6831 169.539 72.8062C169.596 72.9294 169.624 73.0642 169.62 73.2C169.612 73.3878 169.54 73.5672 169.417 73.7089C169.293 73.8506 169.125 73.9462 168.94 73.98C169.105 74.0483 169.248 74.1595 169.355 74.3019C169.463 74.4443 169.53 74.6128 169.55 74.79C169.578 75.0747 169.656 75.3524 169.78 75.61H168.96C168.827 75.3601 168.735 75.0897 168.69 74.81C168.63 74.44 168.43 74.28 168 74.28H167.65V75.66ZM167.65 73.78H168C168.44 73.78 168.78 73.64 168.78 73.3C168.78 72.96 168.56 72.79 168.07 72.79C167.931 72.7738 167.79 72.7738 167.65 72.79V73.78Z" fill="white"/>
<path d="M98.9401 35.2299C98.6372 35.043 98.2947 34.93 97.9401 34.8999H97.6801C97.2846 34.9417 96.9027 35.0679 96.5601 35.2699L95.9701 35.6199L97.3801 56.9999H98.0001L99.4401 35.5599L98.9401 35.2299ZM85.4601 48.7199C86.7679 50.9523 88.3465 53.0146 90.1601 54.8599L94.7701 58.4899L95.1001 58.1299L85.1001 47.6199C85.1152 48.013 85.2399 48.394 85.4601 48.7199ZM107.4 42.4599L99.4001 57.3999L99.9601 57.7499L109.23 44.9299C108.64 44.0699 108 43.2499 107.4 42.4599ZM90.2001 39.9999L96.3901 57.2299L97.0201 57.0499L92.8501 37.7099C91.9155 38.4118 91.0301 39.1769 90.2001 39.9999ZM100.35 58.0899L100.68 58.4399L105.39 54.7199C107.195 52.8803 108.788 50.8443 110.14 48.6499C110.383 48.2908 110.502 47.8627 110.48 47.4299L100.35 58.0899ZM86.3001 44.9999L95.4901 57.7499L96.0601 57.3999L88.0601 42.4699C87.4259 43.2791 86.8382 44.1238 86.3001 44.9999ZM102.6 37.7399L98.4101 57.0699L99.0401 57.2499L105.25 40.0599C104.411 39.2402 103.527 38.4689 102.6 37.7499V37.7399Z" fill="white"/>
<path fill-rule="evenodd" clip-rule="evenodd" d="M119.62 44.1899C115.192 36.5121 108.818 30.1378 101.14 25.7099C100.135 25.0799 98.9718 24.7458 97.7852 24.7458C96.5985 24.7458 95.4358 25.0799 94.4302 25.7099C86.5954 29.9333 80.1679 36.3574 75.9402 44.1899C75.3107 45.1994 74.9771 46.3652 74.9771 47.5549C74.9771 48.7446 75.3107 49.9104 75.9402 50.9199C80.3907 58.5837 86.764 64.9535 94.4302 69.3999C95.4262 70.0558 96.5926 70.4054 97.7852 70.4054C98.9778 70.4054 100.144 70.0558 101.14 69.3999C108.689 64.8064 115.027 58.4691 119.62 50.9199C120.275 49.9199 120.624 48.7504 120.624 47.5549C120.624 46.3594 120.275 45.1899 119.62 44.1899ZM117 49.2999C112.657 56.4316 106.674 62.4242 99.5502 66.7799C99.0267 67.1501 98.4013 67.3489 97.7602 67.3489C97.119 67.3489 96.4936 67.1501 95.9702 66.7799C88.7579 62.5869 82.7666 56.5818 78.5902 49.3599C78.2235 48.8163 78.0275 48.1756 78.0275 47.5199C78.0275 46.8642 78.2235 46.2234 78.5902 45.6799C82.5353 38.3548 88.5482 32.3523 95.8802 28.4199C96.4187 28.0421 97.0582 27.8345 97.716 27.8238C98.3737 27.8131 99.0196 27.9998 99.5702 28.3599C106.808 32.5106 112.82 38.4992 117 45.7199C117.37 46.2434 117.569 46.8687 117.569 47.5099C117.569 48.151 117.37 48.7764 117 49.2999Z" fill="white"/>
</svg>
