<svg width="309" height="82" viewBox="0 0 309 82" fill="none" xmlns="http://www.w3.org/2000/svg">
<path d="M284.46 32.03C282.059 45.7887 277.816 68.022 276.747 71.914C276.736 72.0886 276.729 72.2313 276.729 72.342C276.729 75.846 268.831 74.098 268.831 77.6126C268.831 81.1113 276.729 81.1113 276.729 81.1113H306.897V81.1047L290.781 56.582L308.825 32.03H284.46Z" fill="url(#paint0_linear_979_3771)"/>
<path d="M0.548096 32.03L18.5854 56.582L2.47743 81.1047V81.1113H32.6281C32.6281 81.1113 40.5428 81.1113 40.5428 77.6126C40.5428 74.098 32.6281 75.846 32.6281 72.342C32.6281 74.9367 27.3454 47.7473 24.6014 32.03H0.548096Z" fill="url(#paint1_linear_979_3771)"/>
<path d="M154.558 51.6217C226.089 51.6217 276.495 68.8231 276.495 72.3417C276.495 75.8444 286.142 24.4057 286.142 21.1897C286.142 17.9897 226.089 0.795057 154.558 0.795057C83.0419 0.795057 22.9885 17.9897 22.9885 21.5004C22.9885 25.0151 32.6285 75.8444 32.6285 72.3417C32.6285 68.8231 83.0419 51.6217 154.558 51.6217Z" fill="#264391"/>
<path d="M285.968 22.9647C282.382 19.042 223.858 2.90204 154.558 2.90204C85.3122 2.90204 26.8176 19.026 23.1709 23.2367L23.5482 25.79C29.7682 21.122 87.0589 5.79271 154.558 5.79271C221.618 5.79271 278.583 20.91 285.454 25.438L285.968 22.9647Z" fill="white"/>
<path d="M277.85 67.3629C274.792 63.3002 224.712 46.6282 154.558 46.6282C84.9936 46.6282 35.1549 63.0309 31.3643 67.5362L31.9016 69.9922C38.5296 64.9002 87.3323 49.5815 154.558 49.5815C221.875 49.5815 270.715 64.9335 277.244 69.7575L277.85 67.3629Z" fill="white"/>
<path d="M236.598 18.2355C236.31 18.2928 235.985 18.1982 235.841 18.2208C233.118 18.3075 230.462 23.3728 229.017 25.3248C227.625 27.5728 224.069 32.6755 224.069 32.6755L225.922 17.2635L219.529 16.3822L216.828 39.9995C216.828 39.9995 216.548 43.2502 218.886 43.5568C221.224 43.8582 222.873 41.4115 224.349 38.8502C226.006 36.3942 231.037 29.4862 231.037 29.4862L228.533 44.7208L234.517 45.8262L237.749 28.0342L238.83 21.8982C238.83 21.8982 239.541 19.3328 236.598 18.2355Z" fill="white"/>
<path d="M255.999 23.4677L254.061 32.0557L247.6 30.6864L249.235 22.1624L242.675 20.9597L239.277 40.7944L238.195 47.1837L240.904 47.6157L244.081 48.0811L246.101 37.9304L252.397 39.2024L250.801 50.0144L256.763 51.2051L262.567 25.2757L255.999 23.4677Z" fill="white"/>
<path d="M190.838 46.2008L197.556 46.7568L198.071 38.0902C198.17 36.5235 198.487 31.4208 198.503 30.8835L198.843 25.0835C198.843 25.0835 200.243 18.1075 205.298 19.7648C210.691 21.5462 209.958 28.8968 207.808 30.7128C205.856 32.3742 201.907 33.0702 198.616 30.9515C198.578 30.9328 198.54 30.9088 198.503 30.8835L198.071 38.0902C198.108 38.1128 198.147 38.1395 198.184 38.1622C199.766 39.0622 202.807 40.3982 206.114 39.7048C211.092 38.6768 215.799 32.7102 215.647 26.5555C215.519 20.5435 212.742 11.8915 203.148 12.2515C192.646 12.5768 192.548 21.1902 191.602 34.2955C191.224 40.9875 191.004 42.0128 190.92 44.4382L190.838 46.2008Z" fill="white"/>
<path d="M180.397 31.0149C180.397 31.0149 179.663 31.2122 178.77 31.2602C177.726 31.3176 176.515 31.0869 175.274 30.2549C172.649 28.6082 172.21 23.4029 174.283 20.5922C175.123 19.5136 176.583 18.8256 178.066 18.5949C180.291 18.3296 182.734 19.3816 183.317 21.8976C184.437 25.8696 183.477 29.9629 180.397 31.0149ZM183.234 12.0389C181.395 11.3882 179.435 11.0549 177.658 11.1536C172.581 11.4336 167.981 14.6829 166.801 22.9602C165.318 33.9509 172.702 40.4002 179.163 38.3989C179.314 38.3989 179.602 38.2336 179.905 38.2216C179.905 38.2216 182.379 37.0336 182.894 35.8122L182.606 38.5202L188.303 38.9482L189.574 26.7709L189.143 19.0269C188.386 16.2309 186.73 13.1882 183.234 12.0389Z" fill="white"/>
<path d="M138.003 38.0674L143.527 37.674L144.555 21.2701L149.352 35.786C149.352 35.786 149.776 38.1727 151.426 38.0367C151.426 38.0367 152.303 38.506 153.242 35.6727C154.15 32.6954 158.288 20.9527 158.288 20.9527L158.878 37.5114L164.552 37.5567L163.714 14.4301C163.714 14.4301 163.154 10.8474 159.87 10.5221C156.442 10.0381 155.814 13.1741 155.2 15.0967C154.596 17.1927 151.228 26.846 151.228 26.846L147.596 14.5887C147.596 14.5887 146.598 10.4061 143.004 10.3674C139.282 10.4847 139.244 15.2594 138.919 17.3514C138.752 19.4287 138.003 38.0674 138.003 38.0674Z" fill="white"/>
<path d="M122.954 31.53C117.642 30.6793 117.014 23.57 119.723 20.5513C121.267 18.6073 123.075 18.49 124.271 18.6073C125.163 18.698 125.731 18.914 125.731 18.914C127.735 19.8593 128.462 21.5873 128.984 23.8847C129.491 26.1953 128.128 32.1953 122.954 31.53ZM135.007 22.102C133.91 13.7487 128.734 11.566 125.019 11.1913C122.795 10.9647 120.956 11.37 120.956 11.37C108.736 15.07 110.484 33.2473 117.567 37.2687C119.254 38.3393 120.866 38.6567 122.212 38.794C126.532 39.0847 128.939 36.0247 128.939 36.0247L129.166 38.15L134.999 38.29L135.007 22.102Z" fill="white"/>
<path d="M103.494 34.9343L98.7042 35.789L98.5522 35.7783L97.8869 30.713C97.8869 30.713 98.6589 30.5157 99.4295 30.4743C100.203 30.281 101.126 30.0997 101.715 30.1797C103.092 30.0583 104.886 30.145 105.067 32.1383C105.242 34.261 103.494 34.9343 103.494 34.9343ZM97.4935 24.641C97.3642 23.4223 98.4309 22.2037 99.9522 22.113C100.263 22.0037 100.414 22.0263 100.566 22.0423C101.912 22.0717 102.866 22.813 103.016 23.8797C103.16 25.0983 102.108 26.161 100.574 26.4103C100.422 26.3957 100.127 26.3543 99.9602 26.4797C98.7802 26.3197 97.6749 25.5677 97.4935 24.641ZM106.278 27.633C106.278 27.633 110.696 25.061 109.236 20.2143C108.2 16.753 105.143 14.8383 101.556 14.657C100.376 14.4903 99.0069 14.6037 97.5922 15.0197C95.1255 15.4397 93.2415 17.1423 92.1589 19.5637C91.4629 21.425 91.1229 23.937 91.2055 26.6637C91.2362 27.557 91.4095 28.4837 91.5922 29.4103C92.9615 37.125 93.5735 42.625 93.5735 42.625L97.8562 42.145L106.739 40.9423C106.739 40.9423 111.522 40.0717 111.415 34.185C111.135 28.4383 107.458 27.7917 106.278 27.633Z" fill="white"/>
<path d="M90.3206 42.2924L89.1473 35.0737C89.1473 35.0737 88.4286 30.1711 83.4806 29.9817C83.4806 29.9817 85.3873 28.1204 85.5846 25.4311C85.6299 22.7337 86.6659 17.1577 86.6659 17.1577L79.8646 18.5311L79.4099 25.5377C79.4099 25.5377 78.9486 29.0857 75.8166 28.8324L73.8419 19.7044L69.9593 20.7031L67.1526 21.3871L68.9539 28.3897L73.6219 46.9004L79.3273 45.8377L77.1033 35.1577L79.5766 34.5871C79.5766 34.5871 82.6566 34.0871 83.3139 37.1817C83.9726 40.1177 84.8806 44.7404 84.8806 44.7404L90.1393 43.6351L90.5566 43.5711L90.3206 42.2924Z" fill="white"/>
<path d="M57.1653 43.9684C56.552 43.995 55.788 43.995 55.244 43.723C51.3773 42.5044 50.0147 37.0604 51.7173 33.9057C53.6547 30.3377 57.2707 31.2124 57.2707 31.2124C57.4227 31.2497 57.5747 31.2684 57.7253 31.299C59.5787 31.8204 60.4947 33.3764 61.4933 35.2484C62.432 37.4084 62.5747 43.5297 57.1653 43.9684ZM69.044 41.615L66.956 32.2257C65.1093 27.0017 62.068 24.7164 59.1773 23.9857C54.9867 22.855 50.9533 24.7724 50.9533 24.7724C48.0627 26.3284 46.36 28.7297 45.4 31.2684L44.6733 34.927C44.204 41.835 48.192 49.3177 53.2227 50.7777C53.36 50.8044 53.632 51.0204 53.776 51.051C61.1453 52.9804 64.1333 47.1844 64.1333 47.1844L64.8 49.151L67.644 48.6404L70.3307 48.119L69.044 41.615Z" fill="white"/>
<path d="M18.5852 56.5813L0.547852 32.0293V33.788L17.9199 57.5986L18.5852 56.5813Z" fill="#00309B"/>
<path d="M290.78 56.5813L308.826 32.0293V33.788L291.454 57.5986L290.78 56.5813Z" fill="#00309B"/>
<path d="M284.092 34.1247C283.924 35.0713 283.752 36.0407 283.572 37.042H305.14L307.358 34.1247H284.092Z" fill="white"/>
<path d="M24.9703 34.1247H2.01562L4.23162 37.042H25.4916C25.3116 36.042 25.1383 35.0687 24.9703 34.1247Z" fill="white"/>
<path d="M37.9445 75.2996C36.8032 75.7636 35.3618 76.1596 32.6285 76.1596H5.72316L3.77783 79.0156H32.6285C32.6285 79.0156 38.8005 78.9983 40.2205 76.5556C39.7805 75.925 38.9272 75.569 37.9445 75.2996Z" fill="white"/>
<path d="M303.681 76.2118H276.73C273.928 76.2118 272.484 75.7945 271.328 75.3145C270.409 75.5718 269.613 75.9118 269.173 76.4918C270.625 78.9052 276.73 78.9238 276.73 78.9238H305.458L303.681 76.2118Z" fill="white"/>
<path d="M276.495 72.3416C276.495 71.5323 273.794 69.9923 268.807 68.1083V77.6123C268.807 74.0976 276.654 75.8456 276.654 72.3416V72.219C276.555 72.5256 276.495 72.603 276.495 72.3416Z" fill="#00309B"/>
<path d="M32.6282 72.3416C32.6282 75.8456 40.5428 74.0976 40.5428 77.6123V68.0243C35.4122 69.9456 32.6282 71.5203 32.6282 72.3416Z" fill="#00309B"/>
<defs>
<linearGradient id="paint0_linear_979_3771" x1="270.829" y1="54.6781" x2="308.917" y2="58.0104" gradientUnits="userSpaceOnUse">
<stop stop-color="#264392"/>
<stop offset="0.15" stop-color="#264392"/>
<stop offset="0.65" stop-color="#00ADEF"/>
<stop offset="1" stop-color="#00ADEF"/>
</linearGradient>
<linearGradient id="paint1_linear_979_3771" x1="0.455612" y1="58.0099" x2="38.5447" y2="54.6775" gradientUnits="userSpaceOnUse">
<stop stop-color="#00ADEF"/>
<stop offset="0.35" stop-color="#00ADEF"/>
<stop offset="0.85" stop-color="#264392"/>
<stop offset="1" stop-color="#264392"/>
</linearGradient>
</defs>
</svg>
