<svg width="602" height="510" viewBox="0 0 602 510" fill="none" xmlns="http://www.w3.org/2000/svg">
<path d="M340.482 232.385C349.552 229.99 359.796 233.376 365.202 241.153C381.843 264.048 398.304 287.063 414.885 309.981C418.961 315.508 420.992 322.825 419.154 329.561C417.316 337.701 410.869 344.631 402.766 346.784C393.841 349.384 383.477 345.998 378.01 338.414C362.07 316.44 346.263 294.38 330.347 272.392C327.166 268.147 324.082 263.503 323.429 258.121C321.699 246.886 329.56 235.287 340.482 232.385ZM294.209 0.697042C307.09 -2.84669 321.518 7.61468 322.413 20.8941C322.449 50.7788 322.352 80.6636 322.461 110.548C322.352 121.01 313.717 130.262 303.595 132.148C290.375 135.099 276.371 123.816 276.201 110.306C276.153 81.3407 276.201 52.3753 276.177 23.4097C275.984 12.8396 283.917 2.95864 294.209 0.697042ZM136.973 115.567C142.694 114.068 148.56 115.64 153.978 117.526C176.691 125.037 199.452 132.391 222.177 139.877C227.462 141.606 233.11 142.852 237.585 146.359C245.893 152.805 248.905 165.093 244.297 174.599C239.798 184.686 227.317 191.011 216.686 187.189C189.631 178.469 162.625 169.58 135.619 160.727C129.79 158.961 124.831 154.825 121.892 149.503C114.345 136.756 122.473 118.531 136.973 115.567ZM449.184 116.148C460.758 112 474.376 118.93 478.331 130.431C482.346 140.772 477.484 153.289 467.942 158.707C465.221 160.171 462.245 161.065 459.319 162.033C433.522 170.366 407.81 178.941 382.001 187.25C368.431 192.099 352.612 180.32 352.407 166.121C351.802 158.888 355.104 151.62 360.546 146.915C365.021 143.07 370.91 141.739 376.377 139.937C400.65 132.028 424.899 124.045 449.184 116.148ZM246.196 232.361C259.644 228.382 274.798 239.097 275.343 253.09C276.032 259.307 273.867 265.451 269.973 270.252C253.67 292.723 237.549 315.327 221.222 337.774C217.726 342.43 212.731 346.191 206.902 347.182C197.662 349.178 187.273 344.812 182.544 336.576C177.513 328.57 178.033 317.491 183.826 310.029C200.081 287.534 216.311 265.027 232.529 242.507C235.807 237.743 240.548 233.86 246.196 232.361Z" fill="#05A0E6"/>
<path d="M556.127 444.148C556.116 450.327 556.107 456.496 556.127 462.674C561.456 462.512 566.836 463.049 572.145 462.411C580.326 460.904 581.216 447.404 573.298 444.886C567.665 443.612 561.841 444.421 556.127 444.148ZM533.071 429.769C532.686 427.493 534.365 424.985 536.822 425.127C547.592 424.975 558.382 425.137 569.162 425.066C578.607 424.985 588.416 428.353 594.746 435.593C605.071 446.97 603.211 467.66 589.862 475.952C579.962 482.737 567.494 481.635 556.117 481.615C556.056 488.704 556.218 495.793 556.087 502.881C556.268 505.167 554.337 507.533 551.961 507.29C546.945 507.32 541.929 507.361 536.924 507.27C534.537 507.391 532.686 504.995 533.05 502.709C533.061 478.389 533.021 454.079 533.071 429.769ZM473.701 474.89C479.718 474.88 485.735 474.91 491.751 474.87C488.607 466.032 485.593 457.143 482.822 448.183C479.586 457.021 476.826 466.021 473.701 474.89ZM466.531 430.8C467.431 428.312 468.645 424.914 471.911 425.127C479.283 425.046 486.675 424.955 494.047 425.187C496.535 425.167 497.697 427.614 498.426 429.617C507.486 454.362 516.911 478.986 525.972 503.731C526.639 504.917 526.182 507.294 523.379 507.304L505.023 507.367C503.475 507.373 502.59 505.876 501.851 504.589C499.996 501.356 499.558 497.266 498.143 493.831C487.828 493.8 477.513 493.77 467.209 493.861C465.742 497.09 465.463 501.26 463.692 504.379C463.08 505.455 462.089 507.054 460.733 507.06L441.807 507.159C439.117 507.017 438.955 503.7 440.077 501.83C448.835 478.136 457.814 454.513 466.531 430.8ZM378.918 427.918C379.413 425.501 381.901 424.854 384.035 425.066C403.612 425.127 423.19 424.995 442.757 425.127C444.911 424.833 446.792 426.542 446.903 428.676C447.116 433.47 446.994 438.273 446.984 443.066C447.014 445.048 446.307 448.122 443.728 447.829C437.236 448.052 430.743 447.809 424.262 447.9C424.16 466.527 424.343 485.154 424.181 503.781C424.413 505.824 422.441 507.442 420.5 507.28C415.118 507.397 409.727 507.269 404.344 507.252C402.973 507.248 401.693 505.505 401.68 504.259C401.465 485.466 401.659 466.663 401.58 447.87C395.077 447.839 388.565 448.062 382.063 447.819C380.444 448.006 378.587 446.12 378.668 444.57C378.961 439.024 378.437 433.453 378.918 427.918ZM244.008 473.656C244.089 478.723 244.089 483.789 243.958 488.855C249.56 488.795 255.152 488.835 260.755 488.855C264.759 488.936 269.835 488.542 271.858 484.466C274.194 479.946 270.584 474.142 265.619 473.818C258.429 473.444 251.208 473.798 244.008 473.656ZM244.019 443.481C244.079 447.607 244.069 451.733 243.999 455.858C249.763 455.666 255.567 456.192 261.311 455.646C266.873 454.483 267.034 445.554 261.614 444.047C255.84 442.884 249.874 443.815 244.019 443.481ZM221.741 426.593C224.886 424.439 228.769 425.137 232.349 425.066C243.129 425.147 253.919 424.975 264.689 425.127C273.304 425.38 281.95 430.153 285.641 438.131C289.727 446.1 287.421 456.314 280.899 462.28C288.19 465.88 293.863 473.06 294.338 481.352C295.006 490.392 289.858 499.392 281.859 503.599C276.672 506.481 270.645 507.533 264.749 507.32C251.906 507.26 239.074 507.32 226.231 507.3C224.178 507.492 221.428 506.229 221.792 503.811C221.701 478.076 221.822 452.329 221.741 426.593ZM181.14 425.319C187.4 424.783 193.73 425.127 200.02 425.127C202.508 424.935 204.186 427.422 203.832 429.738C203.843 454.068 203.823 478.399 203.843 502.72C204.116 504.883 202.407 507.381 200.101 507.27C194.327 507.361 188.553 507.31 182.779 507.29C180.362 507.533 178.238 505.156 178.511 502.81C178.531 478.47 178.511 454.139 178.521 429.809C178.43 428.009 179.188 425.754 181.14 425.319ZM81.9377 429.859C81.5938 427.483 83.2722 424.935 85.8408 425.117C91.1601 425.036 96.5093 424.935 101.829 425.198C104.64 425.329 105.257 428.575 105.156 430.83C105.156 444.078 105.135 457.315 105.156 470.562C115.642 456.081 126.23 441.671 136.838 427.281C137.792 425.735 139.227 425.044 140.829 425.048L156.462 425.089C158.675 425.094 161.012 425.56 161.054 427.955C161.484 452.19 161.061 476.433 161.259 500.667C161.178 502.932 161.593 506.178 158.853 507.057C153.351 507.604 147.779 507.229 142.258 507.27C139.821 507.472 137.889 505.136 138.112 502.79C137.95 489.138 138.213 475.476 137.991 461.825C127.909 475.992 117.452 489.887 107.279 503.993C106.126 505.419 104.913 507.391 102.82 507.26C97.0958 507.351 91.3521 507.361 85.6284 507.251C83.2522 507.352 81.6746 504.895 81.9577 502.7C81.8973 478.42 81.9377 454.14 81.9377 429.859ZM3.82277 425.242L18.5006 425.175C20.2546 425.167 22.5518 425.609 22.6573 427.571C23.075 435.272 22.8009 442.992 22.8104 450.701C28.352 443.521 33.9544 436.382 39.5465 429.232C41.1846 427.129 43.379 424.965 46.2613 425.086L66.233 425.228C69.0642 425.309 68.9229 429.091 67.1938 430.537C58.689 440.922 50.2657 451.369 41.5792 461.602C52.2276 475.264 63.3005 488.593 74.0601 502.163C76.3252 504.004 74.3329 507.655 71.6634 507.28C64.6857 507.24 57.6981 507.503 50.7509 507.149C47.505 506.066 45.7556 502.689 43.5713 500.272C36.7153 491.606 29.6566 483.102 22.8308 474.405C22.7084 484.442 23.0085 494.514 22.6385 504.509C22.0912 506.123 21.0117 507.18 19.6092 507.19L3.98264 507.31C2.52877 507.321 1.2569 506.508 0.310502 505.146C-0.114298 503.013 0.0274352 500.828 0.00703518 498.675L0.0651712 428.155C0.0674378 425.925 1.67837 425.251 3.82277 425.242ZM324.311 425.896C338.833 419.565 356.559 422.002 368.887 431.943C371.05 433.935 375.909 437.566 374.242 439.448L363.764 451.276C362.477 452.729 361.039 452.006 359.387 451.129C357.344 450.044 355.554 448.339 353.465 447.334C348.409 444.472 342.392 443.845 336.719 444.714C326.86 446.535 318.911 455.96 319.417 466.092C318.719 477.974 329.64 488.896 341.523 488.167C349.258 488.602 355.781 483.981 361.808 479.774C365.671 482.828 368.927 486.539 372.325 490.099C373.427 491.383 374.813 492.688 374.914 494.509C373.194 497.785 369.827 499.716 367.006 501.92C357.217 509.07 344.374 511.518 332.553 509.1C318.376 506.41 306.028 495.995 300.79 482.576C297.756 474.739 296.624 466.032 298.444 457.759C301.032 443.703 311.175 431.417 324.311 425.896Z" fill="#05A0E6"/>
<path d="M157.912 371.865C164.293 369.508 171.735 370.853 177.064 375.02C183.809 380.086 186.985 389.551 184.275 397.611C181.747 406.459 172.757 412.87 163.555 412.294C154.342 411.89 145.989 404.568 144.391 395.487C142.177 385.668 148.447 375.05 157.912 371.865ZM212.347 371.541C222.388 368.255 233.997 374.727 237.294 384.596C240.368 392.211 237.708 401.494 231.641 406.874C226.787 411.475 219.476 413.397 213.004 411.687C204.368 409.625 197.542 401.413 197.34 392.494C196.652 383.13 203.266 373.928 212.347 371.541Z" fill="#FFF200"/>
</svg>
