<svg width="237" height="138" viewBox="0 0 237 138" fill="none" xmlns="http://www.w3.org/2000/svg">
<g clip-path="url(#clip0_984_976)">
<path fill-rule="evenodd" clip-rule="evenodd" d="M198 20.12C177.05 7.7 148 0 115.79 0C51.83 0 0 30.46 0 68C0 99 35.26 125.15 83.49 133.36C95.7525 135.778 108.221 136.998 120.72 137C184.5 137 236.37 107 236.37 70C236.37 50.17 221.55 32.4 198 20.12Z" fill="#E2001A"/>
<path fill-rule="evenodd" clip-rule="evenodd" d="M150.18 133.22C131.922 134.882 113.529 134.342 95.4 131.61C76.9425 128.959 59.1588 122.816 43 113.51C24.2 102.63 12.34 87.8499 12.34 71.9999C12.34 56.1499 22.62 41.9399 43 30.4299C64 18.5599 92 11.9999 121.91 11.9999C151.82 11.9999 179.91 18.4799 200.84 30.4299C219.67 41.1699 231.64 56.0999 231.48 71.9999C231.37 81.2399 224.6 97.2599 201.61 109.35C177.83 121.83 155.85 123.69 143.5 124.44C121.5 125.75 79.59 121.95 58 113.29C71.65 120.57 114.47 128.38 140 127.51C164.58 126.66 185.67 122.24 204.91 112.03C221.85 103.03 236.25 88.1099 236.25 72.0299C236.25 36.3099 185.05 7.38989 121.88 7.38989C58.71 7.38989 7.54004 36.2599 7.54004 71.9999C7.54004 107.74 58.74 136.66 121.91 136.66C139.252 136.83 156.525 134.441 173.17 129.57C164.55 131.75 158.94 132.35 150.18 133.22Z" fill="#8B0E13"/>
<path fill-rule="evenodd" clip-rule="evenodd" d="M148.71 133.94C130.205 135.675 111.556 135.111 93.1899 132.26C74.424 129.485 56.3761 123.09 40.0499 113.43C20.9999 102.1 8.9999 86.7199 8.9999 70.1999C8.9999 53.6799 19.4299 38.9299 40.0499 26.9999C61.3699 14.6399 89.7699 7.81991 120.05 7.81991C150.33 7.81991 178.8 14.5599 200.05 26.9999C219.14 38.1799 231.27 53.7099 231.11 70.2499C231 79.8699 224.11 96.5299 200.84 109.12C176.74 122.12 154.46 124.05 141.94 124.83C119.69 126.19 77.1699 122.24 55.2899 113.23C69.1299 120.8 112.52 128.93 138.42 128.03C163.34 127.15 184.71 122.54 204.2 111.92C221.38 102.53 236 86.9999 236 70.1999C236 32.9999 184.08 2.90991 120.06 2.90991C56.0399 2.90991 4.1499 32.9999 4.1499 70.1999C4.1499 107.4 55.9999 137.5 120.06 137.5C137.646 137.675 155.158 135.186 172 130.12C163.27 132.41 157.59 133 148.71 133.94Z" fill="white"/>
<path fill-rule="evenodd" clip-rule="evenodd" d="M66.0501 53.4399C71.2701 54.1499 76.7701 52.2899 78.4901 47.7499C79.7801 44.2999 77.2701 40.6299 72.0001 39.9999C66.7301 39.3699 60.1701 41.2399 59.1001 46.1199C58.3501 49.5499 61.4601 52.8699 66.0101 53.4699L66.0501 53.4399ZM190.79 73.2599H188.63C184.15 73.2599 182.25 70.2599 183.04 67.6899C183.383 66.6923 184.006 65.8142 184.834 65.1601C185.662 64.506 186.66 64.1033 187.71 63.9999C189.697 63.6821 191.723 63.6821 193.71 63.9999L190.82 73.2699L190.79 73.2599ZM187.54 56.4399C183.903 56.6638 180.319 57.4185 176.9 58.6799C172.55 60.2899 169.82 62.4299 168.35 65.5999C167.389 67.5909 167.106 69.842 167.544 72.0091C167.983 74.1761 169.12 76.1398 170.78 77.5999L158.44 100.8C162.384 99.5106 166.2 97.8603 169.84 95.8699C173.384 94.0015 176.671 91.6822 179.62 88.9699C180.978 87.5737 181.908 85.8179 182.3 83.9099C182.433 82.9881 182.344 82.0478 182.039 81.1675C181.735 80.2873 181.224 79.4927 180.55 78.8499C183.246 79.3651 185.788 80.4898 187.982 82.1381C190.176 83.7864 191.964 85.9145 193.21 88.3599C193.678 89.3312 194.429 90.1379 195.364 90.6735C196.3 91.2091 197.376 91.4484 198.45 91.3599H200.12L210.39 57.7699C202.85 56.4488 195.182 56.0092 187.54 56.4599V56.4399ZM112.86 56.8699C110.198 56.8003 107.589 57.6241 105.45 59.2099C103.212 60.7674 101.602 63.0721 100.91 65.7099L98.0701 74.9999H92.8601C92.2221 75.0181 91.5901 74.8723 91.0245 74.5764C90.459 74.2805 89.9789 73.8444 89.6301 73.3099C89.3075 72.8294 89.0931 72.2846 89.0016 71.7131C88.9101 71.1416 88.9437 70.5571 89.1001 69.9999L93.1001 56.9099H86.9301C84.1768 56.9312 81.5146 57.8986 79.3901 59.6499C77.5378 61.1378 76.1755 63.1481 75.4801 65.4199L74.2001 69.5099C73.7283 70.9594 73.6107 72.5009 73.8573 74.0052C74.1038 75.5095 74.7072 76.9328 75.6169 78.156C76.5267 79.3791 77.7163 80.3664 79.0861 81.0352C80.456 81.704 81.9661 82.0348 83.4901 81.9999H90.7401C92.3664 82.1052 93.9728 81.5947 95.2401 80.5699C95.9593 79.9927 96.5575 79.279 97.0001 78.4699L94.1201 87.9299C93.9983 88.3151 93.9701 88.7238 94.0379 89.1221C94.1058 89.5204 94.2676 89.8967 94.5101 90.2199C94.7521 90.568 95.0752 90.8519 95.4516 91.047C95.8279 91.2421 96.2461 91.3427 96.6701 91.3399H108.18L118.75 56.8699H112.86ZM166.78 56.8699L158.78 83.1499C157.931 85.7606 156.18 87.9834 153.84 89.4199C151.643 90.8538 149.037 91.5282 146.42 91.3399H141.16L145.16 78.1099H133.81L132.27 83.1099C131.401 85.7275 129.629 87.9501 127.27 89.3799C125.081 90.815 122.481 91.4897 119.87 91.2999H114.61L122.44 65.6899C123.148 63.0594 124.763 60.764 127 59.2099C129.084 57.6135 131.656 56.7868 134.28 56.8699H140.28L136.2 70.2099H147.55L149 65.7299C149.706 63.0957 151.308 60.79 153.53 59.2099C155.616 57.6172 158.187 56.791 160.81 56.8699H166.78ZM56.6301 59.3399C58.7479 57.7278 61.3385 56.8595 64.0001 56.8699H73.5701L63.1301 90.9999C61.4501 96.4799 57.3601 100.39 51.6501 101.22C48.2879 101.713 44.8634 100.921 42.0601 98.9999L52.2401 65.6799C52.9405 63.1291 54.4889 60.893 56.6301 59.3399Z" fill="#8B0E13"/>
<path fill-rule="evenodd" clip-rule="evenodd" d="M62 48.9999C67.23 49.7099 72.73 47.8499 74.44 43.3099C75.73 39.8599 73.22 36.1899 67.99 35.5299C62.76 34.8699 56.11 36.7999 55 41.6899C54.3 45.1099 57.4 48.4299 62 48.9999ZM186.7 68.8499H184.53C180.05 68.8499 178.15 65.8499 178.94 63.2799C179.287 62.286 179.911 61.4122 180.738 60.7618C181.566 60.1114 182.562 59.7117 183.61 59.6099C185.597 59.2921 187.623 59.2921 189.61 59.6099L186.73 68.8799L186.7 68.8499ZM183.45 51.9999C179.81 52.2278 176.223 52.9824 172.8 54.2399C168.46 55.8499 165.72 57.9899 164.25 61.1599C163.29 63.1513 163.008 65.402 163.447 67.5686C163.886 69.7352 165.021 71.6988 166.68 73.1599L154.34 96.3899C158.283 95.1006 162.1 93.4503 165.74 91.4599C169.286 89.594 172.573 87.2745 175.52 84.5599C176.88 83.1651 177.81 81.4086 178.2 79.4999C178.335 78.578 178.247 77.637 177.943 76.7563C177.638 75.8757 177.126 75.0812 176.45 74.4399C179.152 74.9555 181.7 76.0858 183.895 77.7436C186.09 79.4014 187.875 81.542 189.11 83.9999C189.578 84.9712 190.329 85.7779 191.264 86.3135C192.2 86.8491 193.276 87.0884 194.35 86.9999H196L206.26 53.4099C198.737 52.058 191.082 51.5848 183.45 51.9999ZM108.77 52.4299C106.105 52.3589 103.492 53.1827 101.35 54.7699C99.1115 56.3274 97.5018 58.6321 96.81 61.2699L94 70.5599H88.8C88.1606 70.5779 87.5273 70.4321 86.9602 70.1363C86.3931 69.8405 85.9111 69.4046 85.56 68.8699C85.2353 68.3942 85.0171 67.8539 84.9205 67.2861C84.8238 66.7183 84.851 66.1363 85 65.5799L89 52.4799H82.84C80.2754 52.51 77.7859 53.3503 75.7276 54.8805C73.6693 56.4108 72.1476 58.5527 71.38 60.9999L70.1 65.0999C69.6176 66.5527 69.4922 68.1002 69.7345 69.6117C69.9767 71.1232 70.5796 72.554 71.4919 73.7832C72.4042 75.0124 73.5992 76.0037 74.9757 76.6733C76.3522 77.3428 77.8698 77.671 79.4 77.6299H86.65C88.2731 77.7336 89.8758 77.2232 91.14 76.1999C91.8598 75.61 92.4547 74.8825 92.89 74.0599L90 83.5199C89.8806 83.9071 89.8537 84.3169 89.9214 84.7163C89.9891 85.1158 90.1496 85.4938 90.39 85.8199C90.6337 86.1655 90.9575 86.447 91.3336 86.6403C91.7098 86.8336 92.1271 86.933 92.55 86.9299H104.06L114.63 52.4599L108.77 52.4299ZM162.68 52.4299L154.68 78.7099C153.828 81.336 152.061 83.5684 149.7 84.9999C147.503 86.4338 144.897 87.1082 142.28 86.9199H137L141 73.6999H129.71L128.17 78.6999C127.301 81.3175 125.528 83.5402 123.17 84.9699C120.981 86.4057 118.381 87.0805 115.77 86.8899H110.51L118.34 61.2799C119.038 58.6396 120.646 56.3305 122.88 54.7599C124.964 53.1636 127.536 52.3369 130.16 52.4199H136.16L132.12 65.7999H143.46L144.85 61.3199C145.555 58.6829 147.161 56.376 149.39 54.7999C151.472 53.2065 154.04 52.38 156.66 52.4599L162.68 52.4299ZM52.54 54.9299C54.6459 53.3241 57.2217 52.4561 59.87 52.4599H69.44L59 86.5499C57.35 91.9999 53.26 95.9399 47.55 96.7699C44.2047 97.2616 40.7968 96.4801 38 94.5799L48.14 61.2699C48.8467 58.7195 50.3979 56.4843 52.54 54.9299Z" fill="white"/>
</g>
<defs>
<clipPath id="clip0_984_976">
<rect width="236.37" height="137.5" fill="white"/>
</clipPath>
</defs>
</svg>
