<svg width="100" height="100" viewBox="0 0 100 100" fill="none" xmlns="http://www.w3.org/2000/svg">
<circle cx="50" cy="50" r="50" fill="#FEFEFE"/>
<path d="M65.0408 60.6724C75.8548 48.5224 80.4064 38.7162 82.1079 31.5255C83.0923 27.3677 83.1111 24.1193 82.8579 21.8458C82.7596 20.9541 82.5903 20.0716 82.3517 19.2068C82.2518 18.8403 82.1297 18.4803 81.9861 18.1287C81.6439 17.3599 81.1986 17.0271 80.3361 16.7412C80.0891 16.6605 79.8389 16.5901 79.5861 16.5302C78.7071 16.3207 77.8142 16.175 76.9142 16.0943C74.6173 15.888 71.3361 15.9537 67.1642 16.9755C59.9642 18.7287 50.2048 23.2708 38.2845 33.8693L27.0345 34.9849H27.0064C24.303 35.2856 21.783 36.4993 19.8626 38.4255L8.697 49.6099C8.34335 49.966 8.11025 50.4241 8.0305 50.9196C7.95074 51.4151 8.02835 51.9232 8.25239 52.3723C8.47643 52.8214 8.83564 53.189 9.27948 53.4234C9.72332 53.6577 10.2295 53.747 10.7267 53.6787L19.6142 52.4083C20.9267 52.2208 22.3892 52.4693 24.0907 53.0271C25.1782 53.3833 26.1392 53.7771 27.1611 54.1896L28.1126 54.5787C29.0314 58.4037 31.2064 61.9849 34.0892 64.8677C36.9626 67.7458 40.5392 69.9302 44.3595 70.8537L44.7439 71.8005C45.1611 72.8224 45.5548 73.788 45.9111 74.8802C46.4642 76.5818 46.7173 78.049 46.5298 79.3615L45.2595 88.2677C45.1925 88.764 45.2823 89.2688 45.5165 89.7115C45.7507 90.1541 46.1175 90.5124 46.5656 90.7362C47.0136 90.9599 47.5204 91.0379 48.015 90.9592C48.5095 90.8806 48.9671 90.6491 49.3236 90.2974L60.4892 79.113C62.4111 77.1912 63.6204 74.6646 63.9204 71.9599L65.0408 60.6724ZM65.5564 43.3333C61.8204 47.0833 56.5095 47.838 53.7064 45.0302C50.9033 42.2177 51.6626 36.9068 55.3986 33.1615C59.1392 29.4162 64.4454 28.6615 67.2486 31.4693C70.0517 34.2771 69.297 39.588 65.5611 43.3333H65.5564Z" fill="#C6463E"/>
<path d="M32.3919 66.5646C34.8799 69.0857 37.73 71.2217 40.8481 72.9021C35.6075 77.6224 17.7434 82.4083 17.1575 81.8224C16.5669 81.2271 20.6122 62.1865 25.7778 57.5411C27.3997 60.7755 29.7012 63.8693 32.3919 66.5646Z" fill="#C6463E"/>
</svg>
