<svg width="24" height="24" viewBox="0 0 24 24" fill="none" xmlns="http://www.w3.org/2000/svg">
<path d="M24 20.6667C24 22.508 22.508 24 20.6667 24H3.33333C1.49267 24 0 22.508 0 20.6667V3.33333C0 1.492 1.49267 0 3.33333 0H20.6667C22.508 0 24 1.492 24 3.33333V20.6667Z" fill="#3F51B5"/>
<path d="M18.9122 12.6666H16.6668V21.3333H13.3335V12.6666H11.3335V9.99996H13.3335V8.39329C13.3348 6.05463 14.3062 4.66663 17.0615 4.66663H19.3335V7.33329H17.8088C16.7362 7.33329 16.6668 7.73329 16.6668 8.48196V9.99996H19.3335L18.9122 12.6666Z" fill="white"/>
</svg>
