<svg width="168" height="39" viewBox="0 0 168 39" fill="none" xmlns="http://www.w3.org/2000/svg">
<mask id="mask0_785_4083" style="mask-type:luminance" maskUnits="userSpaceOnUse" x="0" y="0" width="168" height="39">
<path d="M0.0405884 0.0986328H168V38.7742H0.0405884V0.0986328Z" fill="white"/>
</mask>
<g mask="url(#mask0_785_4083)">
<path d="M0.0405884 0.0986328H168.058V38.7742H0.0405884V0.0986328Z" fill="#A7A8A8"/>
</g>
<path d="M43.1679 17.4676C43.893 17.4676 44.5208 17.3703 45.0561 17.1756C45.6012 16.9712 46.0538 16.689 46.4188 16.3386C46.7935 15.9784 47.0709 15.5502 47.2559 15.0538C47.4506 14.5476 47.5479 13.9977 47.5479 13.3991C47.5479 12.1678 47.1683 11.1896 46.4188 10.4596C45.6791 9.73448 44.5938 9.36948 43.1679 9.36948C41.737 9.36948 40.6469 9.73448 39.8974 10.4596C39.1577 11.1896 38.7878 12.1678 38.7878 13.3991C38.7878 13.9977 38.8754 14.5476 39.0604 15.0538C39.255 15.5502 39.5373 15.9784 39.9169 16.3386C40.2916 16.689 40.7442 16.9712 41.2796 17.1756C41.8247 17.3703 42.4525 17.4676 43.1679 17.4676ZM49.553 28.3885C49.553 27.8921 49.407 27.4979 49.1247 27.201C48.8522 26.8895 48.4823 26.6511 48.0151 26.4807C47.5479 26.3153 47.0028 26.1985 46.3799 26.1303C45.7569 26.0525 45.0951 25.9941 44.3943 25.9551C43.7032 25.9162 42.9975 25.8773 42.2724 25.8383C41.557 25.7897 40.8708 25.7167 40.2089 25.6242C39.4692 25.9746 38.8657 26.4126 38.3985 26.9285C37.9313 27.4443 37.6977 28.0624 37.6977 28.7778C37.6977 29.2158 37.8048 29.6344 38.0286 30.0237C38.2622 30.4228 38.6175 30.7634 39.0993 31.036C39.5762 31.3182 40.1748 31.547 40.8902 31.7173C41.6154 31.8828 42.4719 31.9704 43.4599 31.9704C44.404 31.9704 45.2557 31.8779 46.01 31.6978C46.7741 31.5275 47.4165 31.2793 47.9372 30.9581C48.4531 30.6466 48.8522 30.267 49.1247 29.829C49.407 29.4008 49.553 28.919 49.553 28.3885ZM53.1543 7.96787V9.27215C53.1543 9.71501 52.872 9.99241 52.3172 10.1092L50.0396 10.4012C50.4776 11.287 50.7015 12.2506 50.7015 13.3018C50.7015 14.2897 50.5117 15.1852 50.137 15.9882C49.7574 16.7814 49.2415 17.4628 48.5796 18.0322C47.9178 18.6064 47.1196 19.0444 46.1852 19.3559C45.2605 19.6577 44.258 19.8037 43.1679 19.8037C42.2335 19.8037 41.3477 19.6966 40.5204 19.4727C40.0921 19.7355 39.7612 20.0129 39.5276 20.3098C39.3037 20.6115 39.1966 20.9133 39.1966 21.2247C39.1966 21.6919 39.3913 22.0521 39.7806 22.2954C40.17 22.5436 40.681 22.7188 41.3185 22.821C41.9512 22.9281 42.6812 22.9962 43.4988 23.0351C44.3164 23.0643 45.1535 23.1081 46.01 23.1714C46.8665 23.2249 47.6939 23.3223 48.5018 23.4634C49.3194 23.6094 50.0445 23.8479 50.682 24.1837C51.3147 24.5097 51.8306 24.9623 52.2199 25.5463C52.619 26.1303 52.8234 26.8895 52.8234 27.8239C52.8234 28.6805 52.5995 29.5078 52.1615 30.3157C51.7332 31.1187 51.1152 31.8341 50.3122 32.457C49.5043 33.0897 48.5115 33.5958 47.3338 33.9754C46.1657 34.3648 44.8469 34.5594 43.382 34.5594C41.9025 34.5594 40.608 34.4086 39.5081 34.1117C38.418 33.8246 37.503 33.4352 36.7633 32.9437C36.0333 32.4473 35.4882 31.8779 35.1281 31.2306C34.7631 30.5931 34.583 29.9264 34.583 29.2256C34.583 28.223 34.8945 27.3811 35.5174 26.6949C36.1404 26.0087 36.9969 25.4636 38.087 25.0597C37.4884 24.7871 37.0164 24.4319 36.666 23.989C36.3156 23.551 36.1404 22.9524 36.1404 22.1981C36.1404 21.9012 36.189 21.5946 36.2961 21.2831C36.3983 20.9717 36.5589 20.6602 36.7828 20.3487C37.0018 20.0373 37.2694 19.7453 37.5809 19.4727C37.9021 19.1905 38.2817 18.9422 38.71 18.733C37.7074 18.1782 36.9288 17.4384 36.374 16.5138C35.8143 15.594 35.5369 14.5233 35.5369 13.3018C35.5369 12.3284 35.7218 11.4427 36.1014 10.6348C36.4908 9.83181 37.0212 9.15048 37.6977 8.59081C38.3693 8.02141 39.1772 7.58827 40.1116 7.28654C41.046 6.97507 42.0631 6.81934 43.1679 6.81934C44.0487 6.81934 44.8663 6.91667 45.6207 7.11134C46.3701 7.306 47.0612 7.59314 47.6842 7.96787H53.1543Z" fill="white"/>
<path d="M60.2005 11.2003C60.8332 9.82786 61.6119 8.74746 62.5365 7.96879C63.4563 7.19012 64.5903 6.80078 65.9432 6.80078C66.3569 6.80078 66.7608 6.85432 67.1502 6.95652C67.5395 7.04898 67.8899 7.19012 68.2014 7.38478L67.9483 10.0323C67.8704 10.3583 67.666 10.5189 67.3448 10.5189C67.1599 10.5189 66.8874 10.48 66.5272 10.4021C66.1768 10.3243 65.7729 10.2853 65.3203 10.2853C64.6827 10.2853 64.1133 10.3827 63.6072 10.5773C63.1108 10.7623 62.6728 11.0348 62.2835 11.3949C61.8941 11.7599 61.5437 12.2077 61.2323 12.7381C60.9208 13.2735 60.6385 13.8867 60.3952 14.5875V27.2993H56.8328V7.17065H58.8573C59.2466 7.17065 59.5094 7.24365 59.6554 7.38478C59.7966 7.53078 59.8939 7.78385 59.9474 8.14399L60.2005 11.2003Z" fill="white"/>
<path d="M78.9763 6.83691C80.4412 6.83691 81.765 7.08512 82.9476 7.57665C84.1253 8.07305 85.1327 8.77385 85.9649 9.67906C86.8068 10.5745 87.4493 11.6647 87.8921 12.9495C88.3301 14.2245 88.554 15.6456 88.554 17.2127C88.554 18.809 88.3301 20.2446 87.8921 21.5148C87.4493 22.7899 86.8068 23.88 85.9649 24.7852C85.1327 25.6807 84.1253 26.3718 82.9476 26.8487C81.765 27.3257 80.4412 27.569 78.9763 27.569C77.4969 27.569 76.1585 27.3257 74.9662 26.8487C73.7836 26.3718 72.7713 25.6807 71.9294 24.7852C71.0972 23.88 70.4596 22.7899 70.0216 21.5148C69.5787 20.2446 69.3597 18.809 69.3597 17.2127C69.3597 15.6456 69.5787 14.2245 70.0216 12.9495C70.4596 11.6647 71.0972 10.5745 71.9294 9.67906C72.7713 8.77385 73.7836 8.07305 74.9662 7.57665C76.1585 7.08512 77.4969 6.83691 78.9763 6.83691ZM78.9763 24.8047C80.9619 24.8047 82.4414 24.1428 83.4148 22.8191C84.3978 21.4856 84.8942 19.6217 84.8942 17.2322C84.8942 14.8475 84.3978 12.9835 83.4148 11.6452C82.4414 10.2971 80.9619 9.62066 78.9763 9.62066C77.9641 9.62066 77.0783 9.79586 76.3289 10.1463C75.5891 10.4869 74.9662 10.9785 74.46 11.6257C73.9636 12.2779 73.5938 13.076 73.3504 14.0201C73.1168 14.9691 73 16.0398 73 17.2322C73 19.6217 73.4916 21.4856 74.4795 22.8191C75.4626 24.1428 76.9615 24.8047 78.9763 24.8047Z" fill="white"/>
<path d="M109.577 7.1709V27.2995H107.475C106.969 27.2995 106.647 27.0562 106.521 26.5598L106.248 24.399C105.377 25.3626 104.399 26.1412 103.309 26.735C102.219 27.319 100.973 27.611 99.5713 27.611C98.4666 27.611 97.4932 27.426 96.6513 27.0659C95.8045 26.7058 95.0988 26.1899 94.5294 25.528C93.9698 24.8662 93.5464 24.068 93.2641 23.1336C92.9769 22.1895 92.8358 21.1432 92.8358 19.9995V7.1709H96.3593V19.9995C96.3593 21.5325 96.7097 22.7151 97.4105 23.5424C98.1113 24.3746 99.1723 24.7883 100.603 24.7883C101.654 24.7883 102.628 24.545 103.523 24.0486C104.428 23.557 105.275 22.8708 106.054 21.9851V7.1709H109.577Z" fill="white"/>
<path d="M118.757 22.452C119.404 23.3232 120.11 23.9412 120.879 24.3014C121.643 24.6518 122.504 24.827 123.468 24.827C125.347 24.827 126.787 24.1602 127.79 22.8219C128.802 21.4884 129.308 19.5807 129.308 17.0987C129.308 15.7895 129.191 14.6653 128.958 13.7309C128.724 12.7868 128.383 12.013 127.945 11.4144C127.517 10.8061 126.982 10.3632 126.349 10.0907C125.712 9.80839 124.986 9.66239 124.169 9.66239C123.025 9.66239 122.018 9.93006 121.151 10.4605C120.28 10.9959 119.482 11.7453 118.757 12.7187V22.452ZM118.582 10.2853C119.424 9.23412 120.397 8.39219 121.502 7.75465C122.616 7.12198 123.896 6.80078 125.337 6.80078C126.505 6.80078 127.556 7.02952 128.49 7.48212C129.425 7.92499 130.223 8.58199 130.885 9.44826C131.556 10.3194 132.072 11.3949 132.423 12.6797C132.783 13.9645 132.968 15.4391 132.968 17.0987C132.968 18.5928 132.763 19.9798 132.364 21.2646C131.96 22.5396 131.381 23.6395 130.632 24.5739C129.892 25.5083 128.982 26.2432 127.906 26.7737C126.826 27.3041 125.614 27.5718 124.266 27.5718C123.03 27.5718 121.974 27.3625 121.093 26.9489C120.207 26.5352 119.429 25.9561 118.757 25.2163V34.1126H115.195V7.17065H117.316C117.823 7.17065 118.134 7.41885 118.251 7.91039L118.582 10.2853Z" fill="white"/>
</svg>
