<svg width="16" height="16" viewBox="0 0 16 16" fill="none" xmlns="http://www.w3.org/2000/svg">
<path d="M7.752 0.0658401C7.82753 0.022694 7.91301 0 8 0C8.08699 0 8.17247 0.022694 8.248 0.0658401L11.998 2.20888C12.0745 2.2526 12.1381 2.31576 12.1824 2.39198C12.2266 2.4682 12.25 2.55476 12.25 2.64289V6.63797L15.748 8.63801C15.8242 8.68156 15.8877 8.74441 15.9319 8.82025C15.9761 8.89608 15.9996 8.98223 16 9.07002V13.3561C16 13.4442 15.9766 13.5308 15.9324 13.607C15.8881 13.6832 15.8245 13.7464 15.748 13.7901L11.998 15.9332C11.9225 15.9763 11.837 15.999 11.75 15.999C11.663 15.999 11.5775 15.9763 11.502 15.9332L8 13.9331L4.498 15.9342C4.42247 15.9773 4.33699 16 4.25 16C4.16301 16 4.07753 15.9773 4.002 15.9342L0.252 13.7911C0.175473 13.7474 0.11186 13.6842 0.0676055 13.608C0.0233513 13.5318 2.8427e-05 13.4452 0 13.3571L0 9.07102C2.8427e-05 8.98289 0.0233513 8.89633 0.0676055 8.82011C0.11186 8.74389 0.175473 8.68073 0.252 8.63701L3.75 6.63797V2.64289C3.75003 2.55476 3.77335 2.4682 3.81761 2.39198C3.86186 2.31576 3.92547 2.2526 4.002 2.20888L7.752 0.0658401ZM4.25 7.50399L1.508 9.07102L4.25 10.6381L6.992 9.07102L4.25 7.50399ZM7.5 9.93304L4.75 11.5041V14.6381L7.5 13.0671V9.93304ZM8.5 13.0671L11.25 14.6381V11.5041L8.5 9.93304V13.0671ZM9.008 9.07102L11.75 10.6381L14.492 9.07102L11.75 7.50399L9.008 9.07102ZM11.25 6.63797V3.50391L8.5 5.07594V8.21L11.25 6.63797ZM7.5 8.21V5.07594L4.75 3.50391V6.63797L7.5 8.21ZM5.258 2.64289L8 4.20992L10.742 2.64289L8 1.07586L5.258 2.64289ZM15 9.93304L12.25 11.5041V14.6381L15 13.0671V9.93304ZM3.75 14.6381V11.5041L1 9.93304V13.0671L3.75 14.6381Z" fill="#FEFEFE"/>
</svg>
