<svg width="24" height="24" viewBox="0 0 24 24" fill="none" xmlns="http://www.w3.org/2000/svg">
<path d="M18.6748 23.9873L5.34851 24C2.41673 24.0027 0.0159938 21.6066 0.0126622 18.6748L2.22137e-06 5.34851C-0.00266304 2.41673 2.39341 0.0159938 5.32519 0.0126622L18.6515 2.22137e-06C21.5833 -0.00266304 23.984 2.39341 23.9873 5.32519L24 18.6515C24.0033 21.5839 21.6066 23.9847 18.6748 23.9873Z" fill="url(#paint0_radial_817_3473)"/>
<path d="M18.6748 23.9873L5.34851 24C2.41673 24.0027 0.0159938 21.6066 0.0126622 18.6748L2.22137e-06 5.34851C-0.00266304 2.41673 2.39341 0.0159938 5.32519 0.0126622L18.6515 2.22137e-06C21.5833 -0.00266304 23.984 2.39341 23.9873 5.32519L24 18.6515C24.0033 21.5839 21.6066 23.9847 18.6748 23.9873Z" fill="url(#paint1_radial_817_3473)"/>
<path d="M12.0001 16.6646C9.42883 16.6646 7.33594 14.5724 7.33594 12.0004C7.33594 9.42841 9.42883 7.33618 12.0001 7.33618C14.5715 7.33618 16.6643 9.42841 16.6643 12.0004C16.6643 14.5724 14.5715 16.6646 12.0001 16.6646ZM12.0001 8.66881C10.1631 8.66881 8.66857 10.1634 8.66857 12.0004C8.66857 13.8374 10.1631 15.332 12.0001 15.332C13.8372 15.332 15.3317 13.8374 15.3317 12.0004C15.3317 10.1634 13.8372 8.66881 12.0001 8.66881Z" fill="white"/>
<path d="M16.998 8.00248C17.55 8.00248 17.9975 7.55501 17.9975 7.00301C17.9975 6.45102 17.55 6.00354 16.998 6.00354C16.446 6.00354 15.9985 6.45102 15.9985 7.00301C15.9985 7.55501 16.446 8.00248 16.998 8.00248Z" fill="white"/>
<path d="M15.9984 20.6624H8.00258C5.43127 20.6624 3.33838 18.5702 3.33838 15.9982V8.00246C3.33838 5.43049 5.43127 3.33826 8.00258 3.33826H15.9984C18.5697 3.33826 20.6626 5.43049 20.6626 8.00246V15.9982C20.6626 18.5702 18.5697 20.6624 15.9984 20.6624ZM8.00258 4.67089C6.16555 4.67089 4.67101 6.16543 4.67101 8.00246V15.9982C4.67101 17.8353 6.16555 19.3298 8.00258 19.3298H15.9984C17.8354 19.3298 19.3299 17.8353 19.3299 15.9982V8.00246C19.3299 6.16543 17.8354 4.67089 15.9984 4.67089H8.00258Z" fill="white"/>
<defs>
<radialGradient id="paint0_radial_817_3473" cx="0" cy="0" r="1" gradientUnits="userSpaceOnUse" gradientTransform="translate(8.92196 24.0173) scale(29.9169 29.9169)">
<stop stop-color="#FFDD55"/>
<stop offset="0.328" stop-color="#FF543F"/>
<stop offset="0.348" stop-color="#FC5245"/>
<stop offset="0.504" stop-color="#E64771"/>
<stop offset="0.643" stop-color="#D53E91"/>
<stop offset="0.761" stop-color="#CC39A4"/>
<stop offset="0.841" stop-color="#C837AB"/>
</radialGradient>
<radialGradient id="paint1_radial_817_3473" cx="0" cy="0" r="1" gradientUnits="userSpaceOnUse" gradientTransform="translate(3.86196 -0.29964) scale(19.8648)">
<stop stop-color="#4168C9"/>
<stop offset="0.999" stop-color="#4168C9" stop-opacity="0"/>
</radialGradient>
</defs>
</svg>
