<svg width="152" height="70" viewBox="0 0 152 70" fill="none" xmlns="http://www.w3.org/2000/svg">
<mask id="mask0_717_3369" style="mask-type:luminance" maskUnits="userSpaceOnUse" x="77" y="53" width="75" height="17">
<path d="M77.5647 53.0557H151.151V70.0002H77.5647V53.0557Z" fill="white"/>
</mask>
<g mask="url(#mask0_717_3369)">
<path d="M77.5647 53.0557H151.176V70.0002H77.5647V53.0557Z" fill="#4A4948"/>
</g>
<mask id="mask1_717_3369" style="mask-type:luminance" maskUnits="userSpaceOnUse" x="77" y="0" width="75" height="47">
<path d="M77.5647 0H151.151V46.9721H77.5647V0Z" fill="white"/>
</mask>
<g mask="url(#mask1_717_3369)">
<path d="M77.5647 0H151.142V46.9721H77.5647V0Z" fill="#4A4948"/>
</g>
<path d="M108.643 14.2575H100.413V36.7904H96.9929V14.2575H88.7371V11.3662H108.643V14.2575Z" fill="#FEFEFE"/>
<path d="M119.361 25.8472C119.361 25.1138 119.255 24.4442 119.046 23.8344C118.841 23.2204 118.538 22.6916 118.142 22.2481C117.743 21.8046 117.259 21.4634 116.692 21.2246C116.129 20.9816 115.485 20.8579 114.764 20.8579C113.25 20.8579 112.054 21.2993 111.174 22.1799C110.291 23.0626 109.743 24.2843 109.528 25.8472H119.361ZM121.911 34.2736C121.519 34.747 121.05 35.1585 120.504 35.5103C119.963 35.8578 119.383 36.1457 118.764 36.3717C118.144 36.5935 117.502 36.7598 116.837 36.8664C116.176 36.9794 115.519 37.0369 114.867 37.0369C113.626 37.0369 112.483 36.8259 111.438 36.4058C110.391 35.9858 109.485 35.3717 108.717 34.5636C107.954 33.7512 107.361 32.747 106.935 31.553C106.513 30.3589 106.304 28.9901 106.304 27.4421C106.304 26.1862 106.494 25.0157 106.875 23.9283C107.261 22.843 107.815 21.9027 108.538 21.1052C109.259 20.3035 110.142 19.6767 111.182 19.2204C112.223 18.7662 113.391 18.5381 114.688 18.5381C115.766 18.5381 116.764 18.7215 117.681 19.0839C118.596 19.4421 119.387 19.9624 120.052 20.6447C120.722 21.3227 121.246 22.1607 121.621 23.1607C122.001 24.1564 122.193 25.2929 122.193 26.5722C122.193 27.0668 122.137 27.3995 122.031 27.57C121.928 27.7363 121.728 27.8174 121.434 27.8174H109.425C109.459 28.9496 109.615 29.9368 109.894 30.7768C110.172 31.6191 110.56 32.3205 111.054 32.8834C111.549 33.4421 112.14 33.86 112.828 34.1372C113.515 34.4165 114.282 34.5551 115.131 34.5551C115.926 34.5551 116.611 34.4655 117.186 34.2822C117.76 34.0945 118.253 33.8962 118.662 33.6851C119.076 33.4762 119.423 33.28 119.702 33.0967C119.98 32.909 120.218 32.8152 120.419 32.8152C120.679 32.8152 120.882 32.9154 121.024 33.1137L121.911 34.2736Z" fill="#FEFEFE"/>
<path d="M138.57 22.0093C138.472 22.1415 138.376 22.2438 138.28 22.3163C138.188 22.3846 138.06 22.4187 137.896 22.4187C137.713 22.4187 137.516 22.3462 137.308 22.1969C137.096 22.0498 136.832 21.8878 136.514 21.7108C136.201 21.5359 135.817 21.3739 135.363 21.2246C134.907 21.0775 134.35 21.0029 133.691 21.0029C132.804 21.0029 132.022 21.1607 131.346 21.472C130.674 21.7854 130.109 22.2374 129.649 22.828C129.192 23.4208 128.849 24.1372 128.617 24.9773C128.389 25.8131 128.276 26.7513 128.276 27.7918C128.276 28.8835 128.399 29.8536 128.651 30.7001C128.9 31.5423 129.252 32.2502 129.708 32.8237C130.163 33.3994 130.711 33.8365 131.354 34.1372C132.003 34.4399 132.728 34.5892 133.529 34.5892C134.297 34.5892 134.928 34.4996 135.423 34.3163C135.922 34.135 136.335 33.9325 136.659 33.7107C136.983 33.4847 137.252 33.28 137.47 33.0967C137.691 32.909 137.909 32.8152 138.126 32.8152C138.382 32.8152 138.58 32.9154 138.723 33.1137L139.61 34.2736C139.222 34.7576 138.779 35.1734 138.28 35.5188C137.785 35.86 137.25 36.1478 136.676 36.3802C136.101 36.6084 135.502 36.7726 134.877 36.8749C134.25 36.9815 133.61 37.0369 132.958 37.0369C131.836 37.0369 130.794 36.8323 129.828 36.4229C128.866 36.0092 128.03 35.408 127.32 34.6233C126.608 33.8344 126.052 32.8643 125.649 31.715C125.25 30.5679 125.052 29.2587 125.052 27.7918C125.052 26.457 125.235 25.2225 125.606 24.0903C125.981 22.9538 126.523 21.9752 127.235 21.1564C127.951 20.3334 128.832 19.6895 129.879 19.2289C130.93 18.7684 132.135 18.5381 133.495 18.5381C134.757 18.5381 135.868 18.7428 136.83 19.1522C137.796 19.5573 138.651 20.1308 139.397 20.875L138.57 22.0093Z" fill="#FEFEFE"/>
<mask id="mask2_717_3369" style="mask-type:luminance" maskUnits="userSpaceOnUse" x="0" y="0" width="74" height="47">
<path d="M0 0H73.5861V46.9721H0V0Z" fill="white"/>
</mask>
<g mask="url(#mask2_717_3369)">
<path d="M0 0H73.5797V46.9721H0V0Z" fill="#4A4948"/>
</g>
<path d="M20.901 24.5517C21.8839 24.5517 22.7517 24.4216 23.5023 24.1593C24.2528 23.8992 24.8839 23.5346 25.3957 23.0677C25.9117 22.6028 26.3018 22.0442 26.5641 21.396C26.8242 20.7436 26.9564 20.0272 26.9564 19.2468C26.9564 17.6263 26.4554 16.3619 25.4554 15.4515C24.4532 14.5432 22.9351 14.0869 20.901 14.0869H16.8243V24.5517H20.901ZM20.901 11.3662C22.5087 11.3662 23.9074 11.5538 25.0972 11.9291C26.2848 12.3001 27.2677 12.8289 28.0481 13.5155C28.8327 14.2042 29.4148 15.0336 29.7965 16.0059C30.1824 16.9739 30.3765 18.0528 30.3765 19.2468C30.3765 20.4301 30.1675 21.5133 29.7539 22.4962C29.3445 23.4749 28.7389 24.3193 27.9372 25.0293C27.1398 25.7414 26.1547 26.2958 24.9778 26.6924C23.8008 27.0847 22.4404 27.2809 20.901 27.2809H16.8243V36.7904H13.4042V11.3662H20.901Z" fill="#FEFEFE"/>
<path d="M36.6217 22.4186C37.1889 21.1905 37.8861 20.2331 38.7112 19.5444C39.5407 18.8515 40.5534 18.5039 41.7475 18.5039C42.1227 18.5039 42.4831 18.5466 42.8306 18.6318C43.1824 18.7129 43.4959 18.8408 43.7688 19.0156L43.5385 21.3696C43.4703 21.6659 43.2933 21.8131 43.0097 21.8131C42.8391 21.8131 42.5939 21.7789 42.2763 21.7107C41.9564 21.6425 41.5961 21.6084 41.1931 21.6084C40.6302 21.6084 40.127 21.6915 39.6835 21.8557C39.24 22.022 38.8413 22.2651 38.4895 22.5892C38.1419 22.9133 37.8285 23.3184 37.5513 23.8003C37.272 24.2779 37.0225 24.8237 36.8008 25.4378V36.7896H33.6196V18.8195H35.4277C35.7731 18.8195 36.0119 18.8856 36.1441 19.0156C36.2741 19.1478 36.3616 19.3717 36.4085 19.6894L36.6217 22.4186Z" fill="#FEFEFE"/>
<path d="M53.3789 18.5381C54.6923 18.5381 55.8735 18.7577 56.9268 19.1948C57.9844 19.634 58.8842 20.2524 59.6304 21.0541C60.3746 21.8558 60.9439 22.828 61.3362 23.9709C61.7328 25.1138 61.9332 26.3888 61.9332 27.7918C61.9332 29.214 61.7328 30.4933 61.3362 31.6297C60.9439 32.7619 60.3746 33.7321 59.6304 34.538C58.8842 35.3397 57.9844 35.9581 56.9268 36.3888C55.8735 36.8195 54.6923 37.0369 53.3789 37.0369C52.0527 37.0369 50.8629 36.8195 49.8053 36.3888C48.7478 35.9581 47.8458 35.3397 47.1017 34.538C46.3554 33.7321 45.784 32.7619 45.3874 31.6297C44.9951 30.4933 44.799 29.214 44.799 27.7918C44.799 26.3888 44.9951 25.1138 45.3874 23.9709C45.784 22.828 46.3554 21.8558 47.1017 21.0541C47.8458 20.2524 48.7478 19.634 49.8053 19.1948C50.8629 18.7577 52.0527 18.5381 53.3789 18.5381ZM53.3789 34.5721C55.1529 34.5721 56.4769 33.9794 57.3533 32.7896C58.2275 31.602 58.6667 29.9453 58.6667 27.8174C58.6667 25.6745 58.2275 24.005 57.3533 22.811C56.4769 21.617 55.1529 21.02 53.3789 21.02C52.4791 21.02 51.6944 21.1735 51.0249 21.4805C50.3597 21.7875 49.8053 22.231 49.3618 22.811C48.9183 23.3909 48.5857 24.1052 48.364 24.9517C48.1465 25.7939 48.0399 26.7491 48.0399 27.8174C48.0399 29.9453 48.4791 31.602 49.3618 32.7896C50.2424 33.9794 51.5814 34.5721 53.3789 34.5721Z" fill="#FEFEFE"/>
<path d="M96.4595 60.6652C96.7772 60.6652 97.0523 60.6226 97.2868 60.5373C97.5256 60.4477 97.7239 60.3241 97.8838 60.1706C98.048 60.0128 98.1696 59.8251 98.2506 59.6077C98.3359 59.3859 98.3785 59.145 98.3785 58.8827C98.3785 58.3433 98.2122 57.9147 97.8838 57.5949C97.5598 57.2772 97.0843 57.1173 96.4595 57.1173C95.8327 57.1173 95.3551 57.2772 95.0267 57.5949C94.7026 57.9147 94.5406 58.3433 94.5406 58.8827C94.5406 59.145 94.579 59.3859 94.66 59.6077C94.7453 59.8251 94.8689 60.0128 95.0352 60.1706C95.1994 60.3241 95.3977 60.4477 95.6323 60.5373C95.8711 60.6226 96.1461 60.6652 96.4595 60.6652ZM99.257 65.4499C99.257 65.2324 99.193 65.0597 99.0693 64.9296C98.9499 64.7931 98.7879 64.6887 98.5832 64.614C98.3785 64.5415 98.1397 64.4904 97.8668 64.4605C97.5939 64.4264 97.3039 64.4008 96.9969 64.3838C96.6941 64.3667 96.3849 64.3496 96.0672 64.3326C95.7538 64.3113 95.4532 64.2793 95.1632 64.2388C94.8391 64.3923 94.5747 64.5842 94.37 64.8102C94.1653 65.0362 94.063 65.307 94.063 65.6204C94.063 65.8123 94.1099 65.9957 94.208 66.1663C94.3103 66.3411 94.4659 66.4904 94.677 66.6098C94.886 66.7334 95.1482 66.8336 95.4617 66.9083C95.7794 66.9808 96.1546 67.0191 96.5875 67.0191C97.0011 67.0191 97.3743 66.9786 97.7047 66.8997C98.0395 66.8251 98.3209 66.7164 98.5491 66.5757C98.7751 66.4392 98.9499 66.2729 99.0693 66.081C99.193 65.8934 99.257 65.6823 99.257 65.4499ZM100.835 56.5032V57.0746C100.835 57.2687 100.711 57.3902 100.468 57.4414L99.4702 57.5693C99.6621 57.9573 99.7602 58.3795 99.7602 58.8401C99.7602 59.2729 99.677 59.6652 99.5128 60.017C99.3465 60.3646 99.1205 60.6631 98.8305 60.9126C98.5406 61.1642 98.1909 61.3561 97.7815 61.4925C97.3764 61.6247 96.9372 61.6887 96.4595 61.6887C96.0502 61.6887 95.6621 61.6418 95.2996 61.5437C95.112 61.6588 94.967 61.7804 94.8647 61.9104C94.7666 62.0426 94.7197 62.1748 94.7197 62.3113C94.7197 62.516 94.805 62.6737 94.9755 62.7804C95.1461 62.8891 95.37 62.9659 95.6493 63.0106C95.9265 63.0575 96.2463 63.0874 96.6045 63.1045C96.9627 63.1172 97.3295 63.1364 97.7047 63.1642C98.08 63.1876 98.4425 63.2302 98.7964 63.2921C99.1546 63.356 99.4723 63.4605 99.7516 63.6076C100.029 63.7505 100.255 63.9488 100.425 64.2047C100.6 64.4605 100.69 64.7931 100.69 65.2025C100.69 65.5778 100.592 65.9403 100.4 66.2942C100.212 66.646 99.9414 66.9594 99.5896 67.2324C99.2357 67.5096 98.8007 67.7313 98.2847 67.8976C97.773 68.0682 97.1951 68.1535 96.5534 68.1535C95.9052 68.1535 95.338 68.0874 94.8561 67.9573C94.3785 67.8315 93.9777 67.6609 93.6536 67.4456C93.3338 67.2281 93.095 66.9786 92.9372 66.6951C92.7773 66.4157 92.6984 66.1236 92.6984 65.8166C92.6984 65.3774 92.8348 65.0085 93.1077 64.7079C93.3807 64.4072 93.7559 64.1684 94.2335 63.9914C93.9713 63.872 93.7645 63.7164 93.6109 63.5224C93.4574 63.3305 93.3807 63.0682 93.3807 62.7377C93.3807 62.6077 93.402 62.4733 93.4489 62.3369C93.4937 62.2004 93.564 62.0639 93.6621 61.9275C93.7581 61.791 93.8753 61.6631 94.0118 61.5437C94.1525 61.42 94.3188 61.3113 94.5065 61.2196C94.0672 60.9765 93.7261 60.6524 93.483 60.2473C93.2378 59.8443 93.1163 59.3753 93.1163 58.8401C93.1163 58.4136 93.1973 58.0256 93.3636 57.6716C93.5342 57.3198 93.7666 57.0213 94.063 56.7761C94.3572 56.5267 94.7111 56.3369 95.1205 56.2047C95.5299 56.0682 95.9755 56 96.4595 56C96.8455 56 97.2037 56.0426 97.5342 56.1279C97.8625 56.2132 98.1653 56.339 98.4382 56.5032H100.835Z" fill="#FEFEFE"/>
<path d="M103.922 57.9197C104.199 57.3184 104.54 56.8451 104.945 56.5039C105.348 56.1628 105.845 55.9922 106.438 55.9922C106.619 55.9922 106.796 56.0156 106.967 56.0604C107.137 56.1009 107.291 56.1628 107.427 56.2481L107.316 57.408C107.282 57.5508 107.193 57.6212 107.052 57.6212C106.971 57.6212 106.852 57.6041 106.694 57.57C106.54 57.5359 106.363 57.5188 106.165 57.5188C105.886 57.5188 105.636 57.5615 105.414 57.6468C105.197 57.7278 105.005 57.8472 104.834 58.005C104.664 58.1649 104.51 58.361 104.374 58.5935C104.237 58.828 104.114 59.0967 104.007 59.4037V64.973H102.446V56.1542H103.333C103.504 56.1542 103.619 56.1862 103.683 56.2481C103.745 56.312 103.788 56.4229 103.811 56.5807L103.922 57.9197Z" fill="#FEFEFE"/>
<path d="M112.148 56.0078C112.79 56.0078 113.37 56.1166 113.888 56.3319C114.404 56.5494 114.845 56.8564 115.21 57.253C115.579 57.6453 115.86 58.1229 116.054 58.6858C116.246 59.2445 116.344 59.8671 116.344 60.5536C116.344 61.253 116.246 61.882 116.054 62.4385C115.86 62.9971 115.579 63.4747 115.21 63.8713C114.845 64.2636 114.404 64.5664 113.888 64.7754C113.37 64.9843 112.79 65.0909 112.148 65.0909C111.5 65.0909 110.913 64.9843 110.391 64.7754C109.873 64.5664 109.429 64.2636 109.06 63.8713C108.696 63.4747 108.417 62.9971 108.225 62.4385C108.031 61.882 107.935 61.253 107.935 60.5536C107.935 59.8671 108.031 59.2445 108.225 58.6858C108.417 58.1229 108.696 57.6453 109.06 57.253C109.429 56.8564 109.873 56.5494 110.391 56.3319C110.913 56.1166 111.5 56.0078 112.148 56.0078ZM112.148 63.8799C113.018 63.8799 113.666 63.5899 114.092 63.0099C114.523 62.4257 114.741 61.6091 114.741 60.5622C114.741 59.5174 114.523 58.7008 114.092 58.1144C113.666 57.5238 113.018 57.2274 112.148 57.2274C111.704 57.2274 111.316 57.3042 110.988 57.4577C110.664 57.607 110.391 57.8223 110.169 58.1059C109.952 58.3916 109.79 58.7413 109.683 59.1549C109.581 59.5707 109.53 60.0398 109.53 60.5622C109.53 61.6091 109.745 62.4257 110.178 63.0099C110.608 63.5899 111.265 63.8799 112.148 63.8799Z" fill="#FEFEFE"/>
<path d="M125.555 56.1543V64.973H124.634C124.412 64.973 124.271 64.8664 124.216 64.6489L124.096 63.7022C123.715 64.1244 123.286 64.4656 122.808 64.7257C122.331 64.9816 121.785 65.1095 121.171 65.1095C120.687 65.1095 120.26 65.0285 119.892 64.8707C119.521 64.7129 119.211 64.4869 118.962 64.1969C118.717 63.9069 118.531 63.5573 118.408 63.1479C118.282 62.7342 118.22 62.2758 118.22 61.7747V56.1543H119.764V61.7747C119.764 62.4464 119.917 62.9645 120.224 63.327C120.531 63.6916 120.996 63.8728 121.623 63.8728C122.083 63.8728 122.51 63.7662 122.902 63.5487C123.299 63.3334 123.67 63.0327 124.011 62.6447V56.1543H125.555Z" fill="#FEFEFE"/>
<path d="M129.577 62.8493C129.86 63.231 130.169 63.5018 130.506 63.6595C130.841 63.8131 131.218 63.8898 131.64 63.8898C132.463 63.8898 133.095 63.5977 133.534 63.0114C133.977 62.4271 134.199 61.5913 134.199 60.5039C134.199 59.9303 134.148 59.4378 134.046 59.0284C133.943 58.6148 133.794 58.2758 133.602 58.0135C133.414 57.747 133.18 57.5529 132.903 57.4335C132.623 57.3099 132.306 57.2459 131.948 57.2459C131.446 57.2459 131.005 57.3632 130.626 57.5956C130.244 57.8301 129.894 58.1585 129.577 58.5849V62.8493ZM129.5 57.5188C129.869 57.0583 130.295 56.6894 130.779 56.4101C131.267 56.1329 131.828 55.9922 132.459 55.9922C132.971 55.9922 133.432 56.0924 133.841 56.2907C134.25 56.4847 134.6 56.7726 134.89 57.1521C135.184 57.5338 135.41 58.005 135.564 58.5679C135.721 59.1308 135.802 59.7768 135.802 60.5039C135.802 61.1585 135.713 61.7662 135.538 62.3291C135.361 62.8877 135.107 63.3696 134.779 63.7789C134.455 64.1883 134.056 64.5103 133.585 64.7427C133.112 64.9751 132.581 65.0924 131.99 65.0924C131.449 65.0924 130.986 65.0007 130.6 64.8194C130.212 64.6382 129.871 64.3845 129.577 64.0604V67.958H128.016V56.1542H128.945C129.167 56.1542 129.304 56.263 129.355 56.4783L129.5 57.5188Z" fill="#FEFEFE"/>
</svg>
