<svg width="152" height="71" viewBox="0 0 152 71" fill="none" xmlns="http://www.w3.org/2000/svg">
<mask id="mask0_584_2063" style="mask-type:luminance" maskUnits="userSpaceOnUse" x="77" y="53" width="75" height="18">
<path d="M77.5647 53.5554H151.151V70.4999H77.5647V53.5554Z" fill="white"/>
</mask>
<g mask="url(#mask0_584_2063)">
<path d="M77.5647 53.5554H151.176V70.4999H77.5647V53.5554Z" fill="#A7A8A8"/>
</g>
<mask id="mask1_584_2063" style="mask-type:luminance" maskUnits="userSpaceOnUse" x="77" y="0" width="75" height="48">
<path d="M77.5647 0.499908H151.151V47.472H77.5647V0.499908Z" fill="white"/>
</mask>
<g mask="url(#mask1_584_2063)">
<path d="M77.5647 0.499908H151.142V47.472H77.5647V0.499908Z" fill="#C2473C"/>
</g>
<path d="M108.643 14.7561H100.413V37.2891H96.9929V14.7561H88.7371V11.8649H108.643V14.7561Z" fill="white"/>
<path d="M119.361 26.3471C119.361 25.6136 119.255 24.9441 119.046 24.3343C118.841 23.7202 118.538 23.1915 118.142 22.748C117.743 22.3045 117.259 21.9633 116.692 21.7245C116.129 21.4815 115.485 21.3578 114.764 21.3578C113.25 21.3578 112.054 21.7991 111.174 22.6797C110.291 23.5625 109.743 24.7842 109.528 26.3471H119.361ZM121.911 34.7735C121.519 35.2469 121.05 35.6584 120.504 36.0102C119.963 36.3577 119.383 36.6456 118.764 36.8716C118.144 37.0933 117.502 37.2596 116.837 37.3663C116.176 37.4793 115.519 37.5368 114.867 37.5368C113.626 37.5368 112.483 37.3257 111.438 36.9057C110.391 36.4857 109.485 35.8716 108.717 35.0635C107.954 34.2511 107.361 33.2469 106.935 32.0528C106.513 30.8588 106.304 29.49 106.304 27.942C106.304 26.6861 106.494 25.5156 106.875 24.4281C107.261 23.3429 107.815 22.4026 108.538 21.6051C109.259 20.8034 110.142 20.1766 111.182 19.7203C112.223 19.2661 113.391 19.038 114.688 19.038C115.766 19.038 116.764 19.2213 117.681 19.5838C118.596 19.942 119.387 20.4623 120.052 21.1446C120.722 21.8226 121.246 22.6606 121.621 23.6605C122.001 24.6563 122.193 25.7927 122.193 27.072C122.193 27.5667 122.137 27.8993 122.031 28.0699C121.928 28.2362 121.728 28.3172 121.434 28.3172H109.425C109.459 29.4494 109.615 30.4366 109.894 31.2767C110.172 32.1189 110.56 32.8204 111.054 33.3833C111.549 33.942 112.14 34.3599 112.828 34.6371C113.515 34.9164 114.282 35.055 115.131 35.055C115.926 35.055 116.611 34.9654 117.186 34.782C117.76 34.5944 118.253 34.3961 118.662 34.185C119.076 33.9761 119.423 33.7799 119.702 33.5965C119.98 33.4089 120.218 33.3151 120.419 33.3151C120.679 33.3151 120.882 33.4153 121.024 33.6136L121.911 34.7735Z" fill="white"/>
<path d="M138.57 22.5092C138.472 22.6414 138.376 22.7437 138.28 22.8162C138.188 22.8844 138.06 22.9185 137.896 22.9185C137.713 22.9185 137.516 22.8461 137.308 22.6968C137.096 22.5497 136.832 22.3876 136.514 22.2107C136.201 22.0358 135.817 21.8738 135.363 21.7245C134.907 21.5774 134.35 21.5028 133.691 21.5028C132.804 21.5028 132.022 21.6606 131.346 21.9719C130.674 22.2853 130.109 22.7373 129.649 23.3279C129.192 23.9207 128.849 24.6371 128.617 25.4772C128.389 26.313 128.276 27.2512 128.276 28.2917C128.276 29.3833 128.399 30.3535 128.651 31.2C128.9 32.0422 129.252 32.7501 129.708 33.3236C130.163 33.8993 130.711 34.3364 131.354 34.6371C132.003 34.9398 132.728 35.0891 133.529 35.0891C134.297 35.0891 134.928 34.9995 135.423 34.8162C135.922 34.6349 136.335 34.4324 136.659 34.2106C136.983 33.9846 137.252 33.7799 137.47 33.5965C137.691 33.4089 137.909 33.3151 138.126 33.3151C138.382 33.3151 138.58 33.4153 138.723 33.6136L139.61 34.7735C139.222 35.2575 138.779 35.6733 138.28 36.0187C137.785 36.3599 137.25 36.6477 136.676 36.8801C136.101 37.1083 135.502 37.2724 134.877 37.3748C134.25 37.4814 133.61 37.5368 132.958 37.5368C131.836 37.5368 130.794 37.3321 129.828 36.9228C128.866 36.5091 128.03 35.9078 127.32 35.1232C126.608 34.3343 126.052 33.3641 125.649 32.2149C125.25 31.0678 125.052 29.7586 125.052 28.2917C125.052 26.9569 125.235 25.7224 125.606 24.5902C125.981 23.4537 126.523 22.4751 127.235 21.6563C127.951 20.8333 128.832 20.1893 129.879 19.7288C130.93 19.2682 132.135 19.038 133.495 19.038C134.757 19.038 135.868 19.2427 136.83 19.652C137.796 20.0572 138.651 20.6307 139.397 21.3748L138.57 22.5092Z" fill="white"/>
<mask id="mask2_584_2063" style="mask-type:luminance" maskUnits="userSpaceOnUse" x="0" y="0" width="74" height="48">
<path d="M0 0.499908H73.5861V47.472H0V0.499908Z" fill="white"/>
</mask>
<g mask="url(#mask2_584_2063)">
<path d="M0 0.499908H73.5797V47.472H0V0.499908Z" fill="#C2473C"/>
</g>
<path d="M20.901 25.0503C21.8839 25.0503 22.7517 24.9203 23.5023 24.658C24.2528 24.3979 24.8839 24.0333 25.3957 23.5663C25.9117 23.1015 26.3018 22.5429 26.5641 21.8947C26.8242 21.2423 26.9564 20.5258 26.9564 19.7455C26.9564 18.125 26.4554 16.8606 25.4554 15.9502C24.4532 15.0419 22.9351 14.5856 20.901 14.5856H16.8243V25.0503H20.901ZM20.901 11.8649C22.5087 11.8649 23.9074 12.0525 25.0972 12.4278C26.2848 12.7988 27.2677 13.3276 28.0481 14.0141C28.8327 14.7028 29.4148 15.5323 29.7965 16.5045C30.1824 17.4726 30.3765 18.5514 30.3765 19.7455C30.3765 20.9288 30.1675 22.012 29.7539 22.9949C29.3445 23.9736 28.7389 24.8179 27.9372 25.528C27.1398 26.2401 26.1547 26.7945 24.9778 27.1911C23.8008 27.5834 22.4404 27.7796 20.901 27.7796H16.8243V37.2891H13.4042V11.8649H20.901Z" fill="white"/>
<path d="M36.6217 22.9187C37.1889 21.6905 37.8861 20.7332 38.7112 20.0445C39.5407 19.3515 40.5534 19.004 41.7475 19.004C42.1227 19.004 42.4831 19.0466 42.8306 19.1319C43.1824 19.2129 43.4959 19.3409 43.7688 19.5157L43.5385 21.8696C43.4703 22.166 43.2933 22.3131 43.0097 22.3131C42.8391 22.3131 42.5939 22.279 42.2763 22.2108C41.9564 22.1425 41.5961 22.1084 41.1931 22.1084C40.6302 22.1084 40.127 22.1916 39.6835 22.3558C39.24 22.5221 38.8413 22.7651 38.4895 23.0892C38.1419 23.4133 37.8285 23.8184 37.5513 24.3003C37.272 24.7779 37.0225 25.3238 36.8008 25.9378V37.2896H33.6196V19.3195H35.4277C35.7731 19.3195 36.0119 19.3856 36.1441 19.5157C36.2741 19.6479 36.3616 19.8718 36.4085 20.1895L36.6217 22.9187Z" fill="white"/>
<path d="M53.3789 19.038C54.6923 19.038 55.8735 19.2576 56.9268 19.6947C57.9844 20.1339 58.8842 20.7522 59.6304 21.5539C60.3746 22.3556 60.9439 23.3279 61.3362 24.4708C61.7328 25.6136 61.9332 26.8887 61.9332 28.2917C61.9332 29.7138 61.7328 30.9931 61.3362 32.1296C60.9439 33.2618 60.3746 34.2319 59.6304 35.0379C58.8842 35.8396 57.9844 36.4579 56.9268 36.8886C55.8735 37.3193 54.6923 37.5368 53.3789 37.5368C52.0527 37.5368 50.8629 37.3193 49.8053 36.8886C48.7478 36.4579 47.8458 35.8396 47.1017 35.0379C46.3554 34.2319 45.784 33.2618 45.3874 32.1296C44.9951 30.9931 44.799 29.7138 44.799 28.2917C44.799 26.8887 44.9951 25.6136 45.3874 24.4708C45.784 23.3279 46.3554 22.3556 47.1017 21.5539C47.8458 20.7522 48.7478 20.1339 49.8053 19.6947C50.8629 19.2576 52.0527 19.038 53.3789 19.038ZM53.3789 35.072C55.1529 35.072 56.4769 34.4793 57.3533 33.2895C58.2275 32.1019 58.6667 30.4452 58.6667 28.3172C58.6667 26.1744 58.2275 24.5049 57.3533 23.3109C56.4769 22.1168 55.1529 21.5198 53.3789 21.5198C52.4791 21.5198 51.6944 21.6733 51.0249 21.9804C50.3597 22.2874 49.8053 22.7309 49.3618 23.3109C48.9183 23.8908 48.5857 24.6051 48.364 25.4516C48.1465 26.2938 48.0399 27.249 48.0399 28.3172C48.0399 30.4452 48.4791 32.1019 49.3618 33.2895C50.2424 34.4793 51.5814 35.072 53.3789 35.072Z" fill="white"/>
<path d="M96.4595 61.165C96.7772 61.165 97.0523 61.1224 97.2868 61.0371C97.5256 60.9476 97.7239 60.8239 97.8838 60.6704C98.048 60.5126 98.1695 60.325 98.2506 60.1075C98.3358 59.8857 98.3785 59.6448 98.3785 59.3825C98.3785 58.8431 98.2122 58.4145 97.8838 58.0947C97.5597 57.777 97.0842 57.6171 96.4595 57.6171C95.8326 57.6171 95.355 57.777 95.0267 58.0947C94.7026 58.4145 94.5405 58.8431 94.5405 59.3825C94.5405 59.6448 94.5789 59.8857 94.6599 60.1075C94.7452 60.325 94.8689 60.5126 95.0352 60.6704C95.1994 60.8239 95.3977 60.9476 95.6322 61.0371C95.871 61.1224 96.1461 61.165 96.4595 61.165ZM99.2569 65.9497C99.2569 65.7322 99.193 65.5595 99.0693 65.4294C98.9499 65.293 98.7879 65.1885 98.5832 65.1139C98.3785 65.0414 98.1397 64.9902 97.8668 64.9603C97.5938 64.9262 97.3039 64.9006 96.9968 64.8836C96.6941 64.8665 96.3849 64.8495 96.0672 64.8324C95.7538 64.8111 95.4531 64.7791 95.1631 64.7386C94.8391 64.8921 94.5747 65.084 94.37 65.31C94.1653 65.536 94.0629 65.8068 94.0629 66.1202C94.0629 66.3121 94.1098 66.4955 94.2079 66.6661C94.3103 66.8409 94.4659 66.9902 94.677 67.1096C94.886 67.2333 95.1482 67.3335 95.4616 67.4081C95.7793 67.4806 96.1546 67.519 96.5874 67.519C97.0011 67.519 97.3742 67.4785 97.7047 67.3996C98.0395 67.3249 98.3209 67.2162 98.5491 67.0755C98.7751 66.939 98.9499 66.7727 99.0693 66.5808C99.193 66.3932 99.2569 66.1821 99.2569 65.9497ZM100.835 57.003V57.5744C100.835 57.7685 100.711 57.89 100.468 57.9412L99.4702 58.0691C99.6621 58.4572 99.7601 58.8793 99.7601 59.3399C99.7601 59.7727 99.677 60.165 99.5128 60.5169C99.3465 60.8644 99.1205 61.1629 98.8305 61.4124C98.5405 61.664 98.1908 61.8559 97.7815 61.9923C97.3764 62.1245 96.9371 62.1885 96.4595 62.1885C96.0501 62.1885 95.6621 62.1416 95.2996 62.0435C95.112 62.1586 94.967 62.2802 94.8646 62.4102C94.7666 62.5424 94.7196 62.6746 94.7196 62.8111C94.7196 63.0158 94.8049 63.1736 94.9755 63.2802C95.1461 63.3889 95.37 63.4657 95.6493 63.5105C95.9265 63.5574 96.2463 63.5872 96.6045 63.6043C96.9627 63.6171 97.3294 63.6363 97.7047 63.664C98.08 63.6874 98.4424 63.7301 98.7964 63.7919C99.1546 63.8559 99.4723 63.9603 99.7516 64.1075C100.029 64.2503 100.255 64.4486 100.425 64.7045C100.6 64.9603 100.69 65.293 100.69 65.7023C100.69 66.0776 100.592 66.4401 100.4 66.794C100.212 67.1458 99.9414 67.4593 99.5896 67.7322C99.2356 68.0094 98.8007 68.2311 98.2847 68.3974C97.7729 68.568 97.1951 68.6533 96.5533 68.6533C95.9051 68.6533 95.338 68.5872 94.8561 68.4571C94.3785 68.3313 93.9776 68.1608 93.6536 67.9454C93.3337 67.7279 93.0949 67.4785 92.9371 67.1949C92.7772 66.9156 92.6983 66.6234 92.6983 66.3164C92.6983 65.8772 92.8348 65.5083 93.1077 65.2077C93.3806 64.907 93.7559 64.6682 94.2335 64.4913C93.9712 64.3719 93.7644 64.2162 93.6109 64.0222C93.4574 63.8303 93.3806 63.568 93.3806 63.2375C93.3806 63.1075 93.402 62.9731 93.4489 62.8367C93.4936 62.7002 93.564 62.5638 93.6621 62.4273C93.758 62.2908 93.8753 62.1629 94.0118 62.0435C94.1525 61.9198 94.3188 61.8111 94.5064 61.7194C94.0672 61.4763 93.726 61.1523 93.483 60.7471C93.2378 60.3442 93.1162 59.8751 93.1162 59.3399C93.1162 58.9135 93.1973 58.5254 93.3636 58.1715C93.5342 57.8196 93.7666 57.5211 94.0629 57.2759C94.3572 57.0265 94.7111 56.8367 95.1205 56.7045C95.5299 56.568 95.9755 56.4998 96.4595 56.4998C96.8454 56.4998 97.2036 56.5425 97.5341 56.6277C97.8625 56.713 98.1653 56.8388 98.4382 57.003H100.835Z" fill="white"/>
<path d="M103.922 58.4185C104.199 57.8172 104.54 57.3439 104.945 57.0027C105.348 56.6616 105.845 56.491 106.438 56.491C106.619 56.491 106.796 56.5145 106.967 56.5592C107.137 56.5997 107.291 56.6616 107.427 56.7469L107.316 57.9068C107.282 58.0496 107.193 58.12 107.052 58.12C106.971 58.12 106.852 58.1029 106.694 58.0688C106.54 58.0347 106.363 58.0176 106.165 58.0176C105.886 58.0176 105.636 58.0603 105.414 58.1456C105.197 58.2266 105.005 58.346 104.834 58.5038C104.664 58.6637 104.51 58.8599 104.374 59.0923C104.237 59.3268 104.114 59.5955 104.007 59.9025V65.4718H102.446V56.653H103.333C103.504 56.653 103.619 56.685 103.683 56.7469C103.745 56.8108 103.788 56.9217 103.811 57.0795L103.922 58.4185Z" fill="white"/>
<path d="M112.148 56.5078C112.79 56.5078 113.37 56.6166 113.888 56.8319C114.404 57.0494 114.845 57.3564 115.21 57.753C115.579 58.1453 115.86 58.6229 116.054 59.1858C116.246 59.7445 116.344 60.3671 116.344 61.0536C116.344 61.753 116.246 62.382 116.054 62.9385C115.86 63.4971 115.579 63.9747 115.21 64.3713C114.845 64.7636 114.404 65.0664 113.888 65.2754C113.37 65.4843 112.79 65.5909 112.148 65.5909C111.5 65.5909 110.913 65.4843 110.391 65.2754C109.873 65.0664 109.429 64.7636 109.06 64.3713C108.696 63.9747 108.417 63.4971 108.225 62.9385C108.031 62.382 107.935 61.753 107.935 61.0536C107.935 60.3671 108.031 59.7445 108.225 59.1858C108.417 58.6229 108.696 58.1453 109.06 57.753C109.429 57.3564 109.873 57.0494 110.391 56.8319C110.913 56.6166 111.5 56.5078 112.148 56.5078ZM112.148 64.3799C113.018 64.3799 113.666 64.0899 114.092 63.5099C114.523 62.9257 114.741 62.1091 114.741 61.0622C114.741 60.0174 114.523 59.2008 114.092 58.6144C113.666 58.0238 113.018 57.7274 112.148 57.7274C111.704 57.7274 111.316 57.8042 110.988 57.9577C110.664 58.107 110.391 58.3223 110.169 58.6059C109.952 58.8916 109.79 59.2413 109.683 59.6549C109.581 60.0707 109.53 60.5398 109.53 61.0622C109.53 62.1091 109.745 62.9257 110.178 63.5099C110.608 64.0899 111.265 64.3799 112.148 64.3799Z" fill="white"/>
<path d="M125.555 56.6524V65.4711H124.634C124.412 65.4711 124.271 65.3645 124.216 65.147L124.096 64.2003C123.715 64.6225 123.286 64.9636 122.808 65.2238C122.331 65.4796 121.785 65.6076 121.171 65.6076C120.687 65.6076 120.261 65.5265 119.892 65.3688C119.521 65.211 119.211 64.985 118.962 64.695C118.717 64.405 118.531 64.0553 118.408 63.646C118.282 63.2323 118.22 62.7739 118.22 62.2728V56.6524H119.764V62.2728C119.764 62.9445 119.917 63.4626 120.224 63.8251C120.531 64.1897 120.996 64.3709 121.623 64.3709C122.084 64.3709 122.51 64.2643 122.902 64.0468C123.299 63.8315 123.67 63.5308 124.011 63.1428V56.6524H125.555Z" fill="white"/>
<path d="M129.577 63.3481C129.86 63.7298 130.169 64.0006 130.506 64.1583C130.841 64.3119 131.218 64.3886 131.64 64.3886C132.463 64.3886 133.095 64.0965 133.534 63.5102C133.977 62.9259 134.199 62.0901 134.199 61.0027C134.199 60.4291 134.148 59.9366 134.046 59.5272C133.943 59.1136 133.794 58.7746 133.602 58.5123C133.414 58.2458 133.18 58.0518 132.903 57.9324C132.623 57.8087 132.306 57.7447 131.948 57.7447C131.446 57.7447 131.005 57.862 130.626 58.0944C130.244 58.3289 129.894 58.6573 129.577 59.0837V63.3481ZM129.5 58.0176C129.869 57.5571 130.295 57.1882 130.779 56.9089C131.267 56.6317 131.828 56.491 132.459 56.491C132.971 56.491 133.432 56.5912 133.841 56.7895C134.25 56.9835 134.6 57.2714 134.89 57.6509C135.184 58.0326 135.41 58.5038 135.564 59.0667C135.721 59.6296 135.802 60.2756 135.802 61.0027C135.802 61.6573 135.713 62.265 135.538 62.8279C135.361 63.3865 135.107 63.8684 134.779 64.2777C134.455 64.6871 134.056 65.0091 133.585 65.2415C133.112 65.4739 132.581 65.5912 131.99 65.5912C131.449 65.5912 130.986 65.4995 130.6 65.3183C130.212 65.137 129.871 64.8833 129.577 64.5592V68.4568H128.016V56.653H128.945C129.167 56.653 129.304 56.7618 129.355 56.9771L129.5 58.0176Z" fill="white"/>
</svg>
