<svg width="168" height="108" viewBox="0 0 168 108" fill="none" xmlns="http://www.w3.org/2000/svg">
<mask id="mask0_785_4081" style="mask-type:luminance" maskUnits="userSpaceOnUse" x="0" y="0" width="168" height="108">
<path d="M0 0H167.959V107.213H0V0Z" fill="white"/>
</mask>
<g mask="url(#mask0_785_4081)">
<path d="M0 0H167.945V107.213H0V0Z" fill="#C2473C"/>
</g>
<path d="M47.7063 56.0389C49.9499 56.0389 51.9306 55.7421 53.6437 55.1435C55.3568 54.5497 56.7973 53.7175 57.9653 52.6517C59.1431 51.5908 60.0337 50.3157 60.6323 48.8362C61.226 47.347 61.5278 45.7118 61.5278 43.9306C61.5278 40.2319 60.3841 37.346 58.1016 35.2679C55.8143 33.1947 52.3492 32.1532 47.7063 32.1532H38.4012V56.0389H47.7063ZM47.7063 25.9434C51.3758 25.9434 54.5684 26.3716 57.284 27.2282C59.9947 28.075 62.2383 29.2819 64.0195 30.849C65.8104 32.4209 67.1391 34.3141 68.0102 36.5333C68.8911 38.7427 69.3339 41.2053 69.3339 43.9306C69.3339 46.6316 68.857 49.1039 67.9129 51.3475C66.9785 53.5813 65.5963 55.5085 63.7664 57.1291C61.9463 58.7545 59.6979 60.0199 57.0115 60.9251C54.325 61.8206 51.2201 62.2683 47.7063 62.2683H38.4012V83.9737H30.595V25.9434H47.7063Z" fill="white"/>
<path d="M83.5886 51.1706C84.8832 48.3674 86.4746 46.1822 88.358 44.6103C90.2511 43.0286 92.5628 42.2354 95.2882 42.2354C96.1447 42.2354 96.9672 42.3327 97.7605 42.5274C98.5635 42.7123 99.2789 43.0043 99.9018 43.4034L99.3762 48.7762C99.2205 49.4526 98.8165 49.7884 98.1693 49.7884C97.7799 49.7884 97.2203 49.7106 96.4951 49.5548C95.7651 49.3991 94.9426 49.3212 94.0228 49.3212C92.738 49.3212 91.5895 49.511 90.5772 49.8858C89.5649 50.2654 88.6549 50.8202 87.8519 51.5599C87.0586 52.2997 86.3432 53.2243 85.7105 54.3242C85.073 55.4143 84.5036 56.6602 83.9974 58.0618V83.972H76.7363V42.9556H80.8633C81.6517 42.9556 82.1968 43.1065 82.4985 43.4034C82.7954 43.7051 82.9949 44.2161 83.102 44.9412L83.5886 51.1706Z" fill="white"/>
<path d="M121.837 42.3125C124.835 42.3125 127.531 42.8138 129.935 43.8114C132.349 44.814 134.403 46.2253 136.106 48.0552C137.804 49.8851 139.104 52.1043 139.999 54.7128C140.904 57.3214 141.362 60.2316 141.362 63.4339C141.362 66.68 140.904 69.6 139.999 72.1939C139.104 74.7782 137.804 76.9925 136.106 78.8321C134.403 80.662 132.349 82.0733 129.935 83.0564C127.531 84.0395 124.835 84.5359 121.837 84.5359C118.81 84.5359 116.094 84.0395 113.68 83.0564C111.266 82.0733 109.208 80.662 107.509 78.8321C105.806 76.9925 104.502 74.7782 103.596 72.1939C102.701 69.6 102.253 66.68 102.253 63.4339C102.253 60.2316 102.701 57.3214 103.596 54.7128C104.502 52.1043 105.806 49.8851 107.509 48.0552C109.208 46.2253 111.266 44.814 113.68 43.8114C116.094 42.8138 118.81 42.3125 121.837 42.3125ZM121.837 78.91C125.886 78.91 128.908 77.557 130.908 74.8414C132.904 72.1307 133.906 68.3493 133.906 63.4923C133.906 58.6013 132.904 54.7907 130.908 52.0653C128.908 49.34 125.886 47.9773 121.837 47.9773C119.783 47.9773 117.992 48.3277 116.464 49.0285C114.945 49.7293 113.68 50.7416 112.668 52.0653C111.656 53.3891 110.896 55.0194 110.39 56.9515C109.894 58.8738 109.65 61.0541 109.65 63.4923C109.65 68.3493 110.653 72.1307 112.668 74.8414C114.678 77.557 117.734 78.91 121.837 78.91Z" fill="white"/>
</svg>
