<svg width="168" height="108" viewBox="0 0 168 108" fill="none" xmlns="http://www.w3.org/2000/svg">
<mask id="mask0_785_4082" style="mask-type:luminance" maskUnits="userSpaceOnUse" x="0" y="0" width="168" height="108">
<path d="M0.0405884 0H168V107.213H0.0405884V0Z" fill="white"/>
</mask>
<g mask="url(#mask0_785_4082)">
<path d="M0.0405884 0H167.981V107.213H0.0405884V0Z" fill="#C2473C"/>
</g>
<path d="M70.9769 32.5426H52.1914V83.9737H44.3852V32.5426H25.5414V25.9434H70.9769V32.5426Z" fill="white"/>
<path d="M95.4409 58.9955C95.4409 57.3214 95.1975 55.7932 94.7206 54.4013C94.2534 52.9997 93.5623 51.7928 92.6571 50.7805C91.747 49.7683 90.6423 48.9896 89.3477 48.4445C88.0629 47.8897 86.5932 47.6075 84.9483 47.6075C81.4929 47.6075 78.7627 48.6149 76.7527 50.6248C74.7379 52.6396 73.4872 55.4282 72.9957 58.9955H95.4409ZM101.261 78.2286C100.366 79.309 99.2953 80.2483 98.0494 81.0513C96.8133 81.8446 95.4895 82.5016 94.0782 83.0175C92.662 83.5236 91.1971 83.9032 89.6787 84.1465C88.17 84.4045 86.6711 84.5359 85.1819 84.5359C82.3494 84.5359 79.7409 84.0541 77.3562 83.0953C74.9667 82.1366 72.8983 80.735 71.1463 78.8905C69.404 77.0363 68.0511 74.7441 67.0777 72.0187C66.1141 69.2934 65.6372 66.169 65.6372 62.6358C65.6372 59.7693 66.0703 57.0975 66.9415 54.6155C67.8224 52.1383 69.0877 49.9921 70.7375 48.172C72.3824 46.3421 74.3973 44.9113 76.7722 43.8698C79.1472 42.8332 81.8141 42.3125 84.7731 42.3125C87.2356 42.3125 89.5132 42.731 91.6059 43.5584C93.6937 44.376 95.4993 45.5634 97.0177 47.1208C98.5458 48.6684 99.743 50.581 100.6 52.8635C101.466 55.1362 101.904 57.7302 101.904 60.6502C101.904 61.7792 101.777 62.5384 101.534 62.9278C101.3 63.3074 100.843 63.4923 100.171 63.4923H72.762C72.8399 66.0765 73.1952 68.3298 73.8327 70.2473C74.4654 72.1696 75.3511 73.7708 76.4802 75.0556C77.6093 76.3306 78.9574 77.2845 80.5293 77.9172C82.0964 78.5547 83.8484 78.871 85.7853 78.871C87.6006 78.871 89.1628 78.6666 90.4768 78.2481C91.786 77.8198 92.9102 77.3672 93.8446 76.8854C94.7887 76.4085 95.582 75.9608 96.2195 75.5422C96.8522 75.114 97.3973 74.8998 97.8547 74.8998C98.4485 74.8998 98.9108 75.1286 99.2369 75.5812L101.261 78.2286Z" fill="white"/>
<path d="M139.284 50.2355C139.06 50.5372 138.841 50.7708 138.622 50.9363C138.413 51.092 138.121 51.1699 137.746 51.1699C137.328 51.1699 136.88 51.0044 136.403 50.6637C135.921 50.3279 135.318 49.9581 134.593 49.5541C133.877 49.1551 133.001 48.7852 131.965 48.4445C130.923 48.1087 129.653 47.9384 128.149 47.9384C126.125 47.9384 124.338 48.2985 122.796 49.0091C121.263 49.7245 119.973 50.7562 118.922 52.1043C117.88 53.4572 117.097 55.0924 116.566 57.0099C116.046 58.9176 115.788 61.059 115.788 63.4339C115.788 65.9257 116.07 68.14 116.644 70.0721C117.214 71.9944 118.017 73.6102 119.058 74.9193C120.095 76.2333 121.345 77.231 122.815 77.9172C124.295 78.6082 125.949 78.9489 127.779 78.9489C129.531 78.9489 130.972 78.7445 132.101 78.326C133.24 77.9123 134.184 77.45 134.923 76.9438C135.663 76.428 136.276 75.9608 136.773 75.5422C137.279 75.114 137.775 74.8998 138.272 74.8998C138.856 74.8998 139.308 75.1286 139.634 75.5812L141.659 78.2286C140.773 79.3334 139.761 80.2824 138.622 81.0708C137.493 81.8494 136.272 82.5064 134.962 83.0369C133.648 83.5577 132.281 83.9324 130.855 84.166C129.424 84.4093 127.964 84.5359 126.475 84.5359C123.915 84.5359 121.535 84.0687 119.331 83.1343C117.136 82.1901 115.228 80.8177 113.607 79.0268C111.982 77.2261 110.712 75.0118 109.792 72.3886C108.882 69.7703 108.429 66.7822 108.429 63.4339C108.429 60.3874 108.848 57.5696 109.695 54.9853C110.551 52.3914 111.787 50.1576 113.413 48.2888C115.048 46.4102 117.058 44.9405 119.447 43.8893C121.847 42.8381 124.596 42.3125 127.701 42.3125C130.582 42.3125 133.118 42.7797 135.313 43.7141C137.517 44.6388 139.469 45.9479 141.172 47.6464L139.284 50.2355Z" fill="white"/>
</svg>
